%TF.GenerationSoftware,KiCad,Pcbnew,9.0.5*%
%TF.CreationDate,2025-12-09T16:25:20-06:00*%
%TF.ProjectId,KBoardV1,4b426f61-7264-4563-912e-6b696361645f,rev?*%
%TF.SameCoordinates,Original*%
%TF.FileFunction,Drillmap*%
%TF.FilePolarity,Positive*%
%FSLAX45Y45*%
G04 Gerber Fmt 4.5, Leading zero omitted, Abs format (unit mm)*
G04 Created by KiCad (PCBNEW 9.0.5) date 2025-12-09 16:25:20*
%MOMM*%
%LPD*%
G01*
G04 APERTURE LIST*
%ADD10C,0.050000*%
%ADD11C,0.200000*%
%ADD12C,0.100000*%
G04 APERTURE END LIST*
D10*
X5420000Y-2450000D02*
X7520000Y-2450000D01*
X7520000Y-7550000D01*
X5420000Y-7550000D01*
X5420000Y-2450000D01*
D11*
D12*
X6148500Y-2926500D02*
X6213500Y-2991500D01*
X6213500Y-2926500D02*
X6148500Y-2991500D01*
X6726500Y-2926500D02*
X6791500Y-2991500D01*
X6791500Y-2926500D02*
X6726500Y-2991500D01*
D11*
X5678277Y-7863984D02*
X5678277Y-7663984D01*
X5678277Y-7663984D02*
X5725896Y-7663984D01*
X5725896Y-7663984D02*
X5754467Y-7673508D01*
X5754467Y-7673508D02*
X5773515Y-7692555D01*
X5773515Y-7692555D02*
X5783039Y-7711603D01*
X5783039Y-7711603D02*
X5792562Y-7749698D01*
X5792562Y-7749698D02*
X5792562Y-7778269D01*
X5792562Y-7778269D02*
X5783039Y-7816365D01*
X5783039Y-7816365D02*
X5773515Y-7835412D01*
X5773515Y-7835412D02*
X5754467Y-7854460D01*
X5754467Y-7854460D02*
X5725896Y-7863984D01*
X5725896Y-7863984D02*
X5678277Y-7863984D01*
X5878277Y-7863984D02*
X5878277Y-7730650D01*
X5878277Y-7768746D02*
X5887801Y-7749698D01*
X5887801Y-7749698D02*
X5897324Y-7740174D01*
X5897324Y-7740174D02*
X5916372Y-7730650D01*
X5916372Y-7730650D02*
X5935420Y-7730650D01*
X6002086Y-7863984D02*
X6002086Y-7730650D01*
X6002086Y-7663984D02*
X5992562Y-7673508D01*
X5992562Y-7673508D02*
X6002086Y-7683031D01*
X6002086Y-7683031D02*
X6011610Y-7673508D01*
X6011610Y-7673508D02*
X6002086Y-7663984D01*
X6002086Y-7663984D02*
X6002086Y-7683031D01*
X6125896Y-7863984D02*
X6106848Y-7854460D01*
X6106848Y-7854460D02*
X6097324Y-7835412D01*
X6097324Y-7835412D02*
X6097324Y-7663984D01*
X6230658Y-7863984D02*
X6211610Y-7854460D01*
X6211610Y-7854460D02*
X6202086Y-7835412D01*
X6202086Y-7835412D02*
X6202086Y-7663984D01*
X6459229Y-7863984D02*
X6459229Y-7663984D01*
X6459229Y-7663984D02*
X6525896Y-7806841D01*
X6525896Y-7806841D02*
X6592562Y-7663984D01*
X6592562Y-7663984D02*
X6592562Y-7863984D01*
X6773515Y-7863984D02*
X6773515Y-7759222D01*
X6773515Y-7759222D02*
X6763991Y-7740174D01*
X6763991Y-7740174D02*
X6744943Y-7730650D01*
X6744943Y-7730650D02*
X6706848Y-7730650D01*
X6706848Y-7730650D02*
X6687801Y-7740174D01*
X6773515Y-7854460D02*
X6754467Y-7863984D01*
X6754467Y-7863984D02*
X6706848Y-7863984D01*
X6706848Y-7863984D02*
X6687801Y-7854460D01*
X6687801Y-7854460D02*
X6678277Y-7835412D01*
X6678277Y-7835412D02*
X6678277Y-7816365D01*
X6678277Y-7816365D02*
X6687801Y-7797317D01*
X6687801Y-7797317D02*
X6706848Y-7787793D01*
X6706848Y-7787793D02*
X6754467Y-7787793D01*
X6754467Y-7787793D02*
X6773515Y-7778269D01*
X6868753Y-7730650D02*
X6868753Y-7930650D01*
X6868753Y-7740174D02*
X6887801Y-7730650D01*
X6887801Y-7730650D02*
X6925896Y-7730650D01*
X6925896Y-7730650D02*
X6944943Y-7740174D01*
X6944943Y-7740174D02*
X6954467Y-7749698D01*
X6954467Y-7749698D02*
X6963991Y-7768746D01*
X6963991Y-7768746D02*
X6963991Y-7825888D01*
X6963991Y-7825888D02*
X6954467Y-7844936D01*
X6954467Y-7844936D02*
X6944943Y-7854460D01*
X6944943Y-7854460D02*
X6925896Y-7863984D01*
X6925896Y-7863984D02*
X6887801Y-7863984D01*
X6887801Y-7863984D02*
X6868753Y-7854460D01*
X7049705Y-7844936D02*
X7059229Y-7854460D01*
X7059229Y-7854460D02*
X7049705Y-7863984D01*
X7049705Y-7863984D02*
X7040182Y-7854460D01*
X7040182Y-7854460D02*
X7049705Y-7844936D01*
X7049705Y-7844936D02*
X7049705Y-7863984D01*
X7049705Y-7740174D02*
X7059229Y-7749698D01*
X7059229Y-7749698D02*
X7049705Y-7759222D01*
X7049705Y-7759222D02*
X7040182Y-7749698D01*
X7040182Y-7749698D02*
X7049705Y-7740174D01*
X7049705Y-7740174D02*
X7049705Y-7759222D01*
D12*
X5352500Y-8160000D02*
X5417500Y-8225000D01*
X5417500Y-8160000D02*
X5352500Y-8225000D01*
D11*
X5716372Y-8083984D02*
X5735420Y-8083984D01*
X5735420Y-8083984D02*
X5754467Y-8093508D01*
X5754467Y-8093508D02*
X5763991Y-8103031D01*
X5763991Y-8103031D02*
X5773515Y-8122079D01*
X5773515Y-8122079D02*
X5783039Y-8160174D01*
X5783039Y-8160174D02*
X5783039Y-8207793D01*
X5783039Y-8207793D02*
X5773515Y-8245888D01*
X5773515Y-8245888D02*
X5763991Y-8264936D01*
X5763991Y-8264936D02*
X5754467Y-8274460D01*
X5754467Y-8274460D02*
X5735420Y-8283984D01*
X5735420Y-8283984D02*
X5716372Y-8283984D01*
X5716372Y-8283984D02*
X5697324Y-8274460D01*
X5697324Y-8274460D02*
X5687801Y-8264936D01*
X5687801Y-8264936D02*
X5678277Y-8245888D01*
X5678277Y-8245888D02*
X5668753Y-8207793D01*
X5668753Y-8207793D02*
X5668753Y-8160174D01*
X5668753Y-8160174D02*
X5678277Y-8122079D01*
X5678277Y-8122079D02*
X5687801Y-8103031D01*
X5687801Y-8103031D02*
X5697324Y-8093508D01*
X5697324Y-8093508D02*
X5716372Y-8083984D01*
X5868753Y-8264936D02*
X5878277Y-8274460D01*
X5878277Y-8274460D02*
X5868753Y-8283984D01*
X5868753Y-8283984D02*
X5859229Y-8274460D01*
X5859229Y-8274460D02*
X5868753Y-8264936D01*
X5868753Y-8264936D02*
X5868753Y-8283984D01*
X6049705Y-8083984D02*
X6011610Y-8083984D01*
X6011610Y-8083984D02*
X5992562Y-8093508D01*
X5992562Y-8093508D02*
X5983039Y-8103031D01*
X5983039Y-8103031D02*
X5963991Y-8131603D01*
X5963991Y-8131603D02*
X5954467Y-8169698D01*
X5954467Y-8169698D02*
X5954467Y-8245888D01*
X5954467Y-8245888D02*
X5963991Y-8264936D01*
X5963991Y-8264936D02*
X5973515Y-8274460D01*
X5973515Y-8274460D02*
X5992562Y-8283984D01*
X5992562Y-8283984D02*
X6030658Y-8283984D01*
X6030658Y-8283984D02*
X6049705Y-8274460D01*
X6049705Y-8274460D02*
X6059229Y-8264936D01*
X6059229Y-8264936D02*
X6068753Y-8245888D01*
X6068753Y-8245888D02*
X6068753Y-8198269D01*
X6068753Y-8198269D02*
X6059229Y-8179222D01*
X6059229Y-8179222D02*
X6049705Y-8169698D01*
X6049705Y-8169698D02*
X6030658Y-8160174D01*
X6030658Y-8160174D02*
X5992562Y-8160174D01*
X5992562Y-8160174D02*
X5973515Y-8169698D01*
X5973515Y-8169698D02*
X5963991Y-8179222D01*
X5963991Y-8179222D02*
X5954467Y-8198269D01*
X6249705Y-8083984D02*
X6154467Y-8083984D01*
X6154467Y-8083984D02*
X6144943Y-8179222D01*
X6144943Y-8179222D02*
X6154467Y-8169698D01*
X6154467Y-8169698D02*
X6173515Y-8160174D01*
X6173515Y-8160174D02*
X6221134Y-8160174D01*
X6221134Y-8160174D02*
X6240182Y-8169698D01*
X6240182Y-8169698D02*
X6249705Y-8179222D01*
X6249705Y-8179222D02*
X6259229Y-8198269D01*
X6259229Y-8198269D02*
X6259229Y-8245888D01*
X6259229Y-8245888D02*
X6249705Y-8264936D01*
X6249705Y-8264936D02*
X6240182Y-8274460D01*
X6240182Y-8274460D02*
X6221134Y-8283984D01*
X6221134Y-8283984D02*
X6173515Y-8283984D01*
X6173515Y-8283984D02*
X6154467Y-8274460D01*
X6154467Y-8274460D02*
X6144943Y-8264936D01*
X6383039Y-8083984D02*
X6402086Y-8083984D01*
X6402086Y-8083984D02*
X6421134Y-8093508D01*
X6421134Y-8093508D02*
X6430658Y-8103031D01*
X6430658Y-8103031D02*
X6440182Y-8122079D01*
X6440182Y-8122079D02*
X6449705Y-8160174D01*
X6449705Y-8160174D02*
X6449705Y-8207793D01*
X6449705Y-8207793D02*
X6440182Y-8245888D01*
X6440182Y-8245888D02*
X6430658Y-8264936D01*
X6430658Y-8264936D02*
X6421134Y-8274460D01*
X6421134Y-8274460D02*
X6402086Y-8283984D01*
X6402086Y-8283984D02*
X6383039Y-8283984D01*
X6383039Y-8283984D02*
X6363991Y-8274460D01*
X6363991Y-8274460D02*
X6354467Y-8264936D01*
X6354467Y-8264936D02*
X6344943Y-8245888D01*
X6344943Y-8245888D02*
X6335420Y-8207793D01*
X6335420Y-8207793D02*
X6335420Y-8160174D01*
X6335420Y-8160174D02*
X6344943Y-8122079D01*
X6344943Y-8122079D02*
X6354467Y-8103031D01*
X6354467Y-8103031D02*
X6363991Y-8093508D01*
X6363991Y-8093508D02*
X6383039Y-8083984D01*
X6535420Y-8283984D02*
X6535420Y-8150650D01*
X6535420Y-8169698D02*
X6544943Y-8160174D01*
X6544943Y-8160174D02*
X6563991Y-8150650D01*
X6563991Y-8150650D02*
X6592563Y-8150650D01*
X6592563Y-8150650D02*
X6611610Y-8160174D01*
X6611610Y-8160174D02*
X6621134Y-8179222D01*
X6621134Y-8179222D02*
X6621134Y-8283984D01*
X6621134Y-8179222D02*
X6630658Y-8160174D01*
X6630658Y-8160174D02*
X6649705Y-8150650D01*
X6649705Y-8150650D02*
X6678277Y-8150650D01*
X6678277Y-8150650D02*
X6697324Y-8160174D01*
X6697324Y-8160174D02*
X6706848Y-8179222D01*
X6706848Y-8179222D02*
X6706848Y-8283984D01*
X6802086Y-8283984D02*
X6802086Y-8150650D01*
X6802086Y-8169698D02*
X6811610Y-8160174D01*
X6811610Y-8160174D02*
X6830658Y-8150650D01*
X6830658Y-8150650D02*
X6859229Y-8150650D01*
X6859229Y-8150650D02*
X6878277Y-8160174D01*
X6878277Y-8160174D02*
X6887801Y-8179222D01*
X6887801Y-8179222D02*
X6887801Y-8283984D01*
X6887801Y-8179222D02*
X6897324Y-8160174D01*
X6897324Y-8160174D02*
X6916372Y-8150650D01*
X6916372Y-8150650D02*
X6944943Y-8150650D01*
X6944943Y-8150650D02*
X6963991Y-8160174D01*
X6963991Y-8160174D02*
X6973515Y-8179222D01*
X6973515Y-8179222D02*
X6973515Y-8283984D01*
X7363991Y-8074460D02*
X7192563Y-8331603D01*
X7621134Y-8083984D02*
X7640182Y-8083984D01*
X7640182Y-8083984D02*
X7659229Y-8093508D01*
X7659229Y-8093508D02*
X7668753Y-8103031D01*
X7668753Y-8103031D02*
X7678277Y-8122079D01*
X7678277Y-8122079D02*
X7687801Y-8160174D01*
X7687801Y-8160174D02*
X7687801Y-8207793D01*
X7687801Y-8207793D02*
X7678277Y-8245888D01*
X7678277Y-8245888D02*
X7668753Y-8264936D01*
X7668753Y-8264936D02*
X7659229Y-8274460D01*
X7659229Y-8274460D02*
X7640182Y-8283984D01*
X7640182Y-8283984D02*
X7621134Y-8283984D01*
X7621134Y-8283984D02*
X7602086Y-8274460D01*
X7602086Y-8274460D02*
X7592563Y-8264936D01*
X7592563Y-8264936D02*
X7583039Y-8245888D01*
X7583039Y-8245888D02*
X7573515Y-8207793D01*
X7573515Y-8207793D02*
X7573515Y-8160174D01*
X7573515Y-8160174D02*
X7583039Y-8122079D01*
X7583039Y-8122079D02*
X7592563Y-8103031D01*
X7592563Y-8103031D02*
X7602086Y-8093508D01*
X7602086Y-8093508D02*
X7621134Y-8083984D01*
X7773515Y-8264936D02*
X7783039Y-8274460D01*
X7783039Y-8274460D02*
X7773515Y-8283984D01*
X7773515Y-8283984D02*
X7763991Y-8274460D01*
X7763991Y-8274460D02*
X7773515Y-8264936D01*
X7773515Y-8264936D02*
X7773515Y-8283984D01*
X7906848Y-8083984D02*
X7925896Y-8083984D01*
X7925896Y-8083984D02*
X7944944Y-8093508D01*
X7944944Y-8093508D02*
X7954467Y-8103031D01*
X7954467Y-8103031D02*
X7963991Y-8122079D01*
X7963991Y-8122079D02*
X7973515Y-8160174D01*
X7973515Y-8160174D02*
X7973515Y-8207793D01*
X7973515Y-8207793D02*
X7963991Y-8245888D01*
X7963991Y-8245888D02*
X7954467Y-8264936D01*
X7954467Y-8264936D02*
X7944944Y-8274460D01*
X7944944Y-8274460D02*
X7925896Y-8283984D01*
X7925896Y-8283984D02*
X7906848Y-8283984D01*
X7906848Y-8283984D02*
X7887801Y-8274460D01*
X7887801Y-8274460D02*
X7878277Y-8264936D01*
X7878277Y-8264936D02*
X7868753Y-8245888D01*
X7868753Y-8245888D02*
X7859229Y-8207793D01*
X7859229Y-8207793D02*
X7859229Y-8160174D01*
X7859229Y-8160174D02*
X7868753Y-8122079D01*
X7868753Y-8122079D02*
X7878277Y-8103031D01*
X7878277Y-8103031D02*
X7887801Y-8093508D01*
X7887801Y-8093508D02*
X7906848Y-8083984D01*
X8049706Y-8103031D02*
X8059229Y-8093508D01*
X8059229Y-8093508D02*
X8078277Y-8083984D01*
X8078277Y-8083984D02*
X8125896Y-8083984D01*
X8125896Y-8083984D02*
X8144944Y-8093508D01*
X8144944Y-8093508D02*
X8154467Y-8103031D01*
X8154467Y-8103031D02*
X8163991Y-8122079D01*
X8163991Y-8122079D02*
X8163991Y-8141127D01*
X8163991Y-8141127D02*
X8154467Y-8169698D01*
X8154467Y-8169698D02*
X8040182Y-8283984D01*
X8040182Y-8283984D02*
X8163991Y-8283984D01*
X8344944Y-8083984D02*
X8249706Y-8083984D01*
X8249706Y-8083984D02*
X8240182Y-8179222D01*
X8240182Y-8179222D02*
X8249706Y-8169698D01*
X8249706Y-8169698D02*
X8268753Y-8160174D01*
X8268753Y-8160174D02*
X8316372Y-8160174D01*
X8316372Y-8160174D02*
X8335420Y-8169698D01*
X8335420Y-8169698D02*
X8344944Y-8179222D01*
X8344944Y-8179222D02*
X8354467Y-8198269D01*
X8354467Y-8198269D02*
X8354467Y-8245888D01*
X8354467Y-8245888D02*
X8344944Y-8264936D01*
X8344944Y-8264936D02*
X8335420Y-8274460D01*
X8335420Y-8274460D02*
X8316372Y-8283984D01*
X8316372Y-8283984D02*
X8268753Y-8283984D01*
X8268753Y-8283984D02*
X8249706Y-8274460D01*
X8249706Y-8274460D02*
X8240182Y-8264936D01*
X8525896Y-8083984D02*
X8487801Y-8083984D01*
X8487801Y-8083984D02*
X8468753Y-8093508D01*
X8468753Y-8093508D02*
X8459229Y-8103031D01*
X8459229Y-8103031D02*
X8440182Y-8131603D01*
X8440182Y-8131603D02*
X8430658Y-8169698D01*
X8430658Y-8169698D02*
X8430658Y-8245888D01*
X8430658Y-8245888D02*
X8440182Y-8264936D01*
X8440182Y-8264936D02*
X8449706Y-8274460D01*
X8449706Y-8274460D02*
X8468753Y-8283984D01*
X8468753Y-8283984D02*
X8506849Y-8283984D01*
X8506849Y-8283984D02*
X8525896Y-8274460D01*
X8525896Y-8274460D02*
X8535420Y-8264936D01*
X8535420Y-8264936D02*
X8544944Y-8245888D01*
X8544944Y-8245888D02*
X8544944Y-8198269D01*
X8544944Y-8198269D02*
X8535420Y-8179222D01*
X8535420Y-8179222D02*
X8525896Y-8169698D01*
X8525896Y-8169698D02*
X8506849Y-8160174D01*
X8506849Y-8160174D02*
X8468753Y-8160174D01*
X8468753Y-8160174D02*
X8449706Y-8169698D01*
X8449706Y-8169698D02*
X8440182Y-8179222D01*
X8440182Y-8179222D02*
X8430658Y-8198269D01*
X8621134Y-8083984D02*
X8621134Y-8122079D01*
X8697325Y-8083984D02*
X8697325Y-8122079D01*
X8992563Y-8360174D02*
X8983039Y-8350650D01*
X8983039Y-8350650D02*
X8963991Y-8322079D01*
X8963991Y-8322079D02*
X8954468Y-8303031D01*
X8954468Y-8303031D02*
X8944944Y-8274460D01*
X8944944Y-8274460D02*
X8935420Y-8226841D01*
X8935420Y-8226841D02*
X8935420Y-8188746D01*
X8935420Y-8188746D02*
X8944944Y-8141127D01*
X8944944Y-8141127D02*
X8954468Y-8112555D01*
X8954468Y-8112555D02*
X8963991Y-8093508D01*
X8963991Y-8093508D02*
X8983039Y-8064936D01*
X8983039Y-8064936D02*
X8992563Y-8055412D01*
X9059230Y-8103031D02*
X9068753Y-8093508D01*
X9068753Y-8093508D02*
X9087801Y-8083984D01*
X9087801Y-8083984D02*
X9135420Y-8083984D01*
X9135420Y-8083984D02*
X9154468Y-8093508D01*
X9154468Y-8093508D02*
X9163991Y-8103031D01*
X9163991Y-8103031D02*
X9173515Y-8122079D01*
X9173515Y-8122079D02*
X9173515Y-8141127D01*
X9173515Y-8141127D02*
X9163991Y-8169698D01*
X9163991Y-8169698D02*
X9049706Y-8283984D01*
X9049706Y-8283984D02*
X9173515Y-8283984D01*
X9411611Y-8283984D02*
X9411611Y-8083984D01*
X9497325Y-8283984D02*
X9497325Y-8179222D01*
X9497325Y-8179222D02*
X9487801Y-8160174D01*
X9487801Y-8160174D02*
X9468753Y-8150650D01*
X9468753Y-8150650D02*
X9440182Y-8150650D01*
X9440182Y-8150650D02*
X9421134Y-8160174D01*
X9421134Y-8160174D02*
X9411611Y-8169698D01*
X9621134Y-8283984D02*
X9602087Y-8274460D01*
X9602087Y-8274460D02*
X9592563Y-8264936D01*
X9592563Y-8264936D02*
X9583039Y-8245888D01*
X9583039Y-8245888D02*
X9583039Y-8188746D01*
X9583039Y-8188746D02*
X9592563Y-8169698D01*
X9592563Y-8169698D02*
X9602087Y-8160174D01*
X9602087Y-8160174D02*
X9621134Y-8150650D01*
X9621134Y-8150650D02*
X9649706Y-8150650D01*
X9649706Y-8150650D02*
X9668753Y-8160174D01*
X9668753Y-8160174D02*
X9678277Y-8169698D01*
X9678277Y-8169698D02*
X9687801Y-8188746D01*
X9687801Y-8188746D02*
X9687801Y-8245888D01*
X9687801Y-8245888D02*
X9678277Y-8264936D01*
X9678277Y-8264936D02*
X9668753Y-8274460D01*
X9668753Y-8274460D02*
X9649706Y-8283984D01*
X9649706Y-8283984D02*
X9621134Y-8283984D01*
X9802087Y-8283984D02*
X9783039Y-8274460D01*
X9783039Y-8274460D02*
X9773515Y-8255412D01*
X9773515Y-8255412D02*
X9773515Y-8083984D01*
X9954468Y-8274460D02*
X9935420Y-8283984D01*
X9935420Y-8283984D02*
X9897325Y-8283984D01*
X9897325Y-8283984D02*
X9878277Y-8274460D01*
X9878277Y-8274460D02*
X9868753Y-8255412D01*
X9868753Y-8255412D02*
X9868753Y-8179222D01*
X9868753Y-8179222D02*
X9878277Y-8160174D01*
X9878277Y-8160174D02*
X9897325Y-8150650D01*
X9897325Y-8150650D02*
X9935420Y-8150650D01*
X9935420Y-8150650D02*
X9954468Y-8160174D01*
X9954468Y-8160174D02*
X9963992Y-8179222D01*
X9963992Y-8179222D02*
X9963992Y-8198269D01*
X9963992Y-8198269D02*
X9868753Y-8217317D01*
X10040182Y-8274460D02*
X10059230Y-8283984D01*
X10059230Y-8283984D02*
X10097325Y-8283984D01*
X10097325Y-8283984D02*
X10116373Y-8274460D01*
X10116373Y-8274460D02*
X10125896Y-8255412D01*
X10125896Y-8255412D02*
X10125896Y-8245888D01*
X10125896Y-8245888D02*
X10116373Y-8226841D01*
X10116373Y-8226841D02*
X10097325Y-8217317D01*
X10097325Y-8217317D02*
X10068753Y-8217317D01*
X10068753Y-8217317D02*
X10049706Y-8207793D01*
X10049706Y-8207793D02*
X10040182Y-8188746D01*
X10040182Y-8188746D02*
X10040182Y-8179222D01*
X10040182Y-8179222D02*
X10049706Y-8160174D01*
X10049706Y-8160174D02*
X10068753Y-8150650D01*
X10068753Y-8150650D02*
X10097325Y-8150650D01*
X10097325Y-8150650D02*
X10116373Y-8160174D01*
X10192563Y-8360174D02*
X10202087Y-8350650D01*
X10202087Y-8350650D02*
X10221134Y-8322079D01*
X10221134Y-8322079D02*
X10230658Y-8303031D01*
X10230658Y-8303031D02*
X10240182Y-8274460D01*
X10240182Y-8274460D02*
X10249706Y-8226841D01*
X10249706Y-8226841D02*
X10249706Y-8188746D01*
X10249706Y-8188746D02*
X10240182Y-8141127D01*
X10240182Y-8141127D02*
X10230658Y-8112555D01*
X10230658Y-8112555D02*
X10221134Y-8093508D01*
X10221134Y-8093508D02*
X10202087Y-8064936D01*
X10202087Y-8064936D02*
X10192563Y-8055412D01*
X10554468Y-8360174D02*
X10544944Y-8350650D01*
X10544944Y-8350650D02*
X10525896Y-8322079D01*
X10525896Y-8322079D02*
X10516373Y-8303031D01*
X10516373Y-8303031D02*
X10506849Y-8274460D01*
X10506849Y-8274460D02*
X10497325Y-8226841D01*
X10497325Y-8226841D02*
X10497325Y-8188746D01*
X10497325Y-8188746D02*
X10506849Y-8141127D01*
X10506849Y-8141127D02*
X10516373Y-8112555D01*
X10516373Y-8112555D02*
X10525896Y-8093508D01*
X10525896Y-8093508D02*
X10544944Y-8064936D01*
X10544944Y-8064936D02*
X10554468Y-8055412D01*
X10630658Y-8150650D02*
X10630658Y-8283984D01*
X10630658Y-8169698D02*
X10640182Y-8160174D01*
X10640182Y-8160174D02*
X10659230Y-8150650D01*
X10659230Y-8150650D02*
X10687801Y-8150650D01*
X10687801Y-8150650D02*
X10706849Y-8160174D01*
X10706849Y-8160174D02*
X10716373Y-8179222D01*
X10716373Y-8179222D02*
X10716373Y-8283984D01*
X10840182Y-8283984D02*
X10821134Y-8274460D01*
X10821134Y-8274460D02*
X10811611Y-8264936D01*
X10811611Y-8264936D02*
X10802087Y-8245888D01*
X10802087Y-8245888D02*
X10802087Y-8188746D01*
X10802087Y-8188746D02*
X10811611Y-8169698D01*
X10811611Y-8169698D02*
X10821134Y-8160174D01*
X10821134Y-8160174D02*
X10840182Y-8150650D01*
X10840182Y-8150650D02*
X10868754Y-8150650D01*
X10868754Y-8150650D02*
X10887801Y-8160174D01*
X10887801Y-8160174D02*
X10897325Y-8169698D01*
X10897325Y-8169698D02*
X10906849Y-8188746D01*
X10906849Y-8188746D02*
X10906849Y-8245888D01*
X10906849Y-8245888D02*
X10897325Y-8264936D01*
X10897325Y-8264936D02*
X10887801Y-8274460D01*
X10887801Y-8274460D02*
X10868754Y-8283984D01*
X10868754Y-8283984D02*
X10840182Y-8283984D01*
X10963992Y-8150650D02*
X11040182Y-8150650D01*
X10992563Y-8083984D02*
X10992563Y-8255412D01*
X10992563Y-8255412D02*
X11002087Y-8274460D01*
X11002087Y-8274460D02*
X11021134Y-8283984D01*
X11021134Y-8283984D02*
X11040182Y-8283984D01*
X11259230Y-8150650D02*
X11259230Y-8350650D01*
X11259230Y-8160174D02*
X11278277Y-8150650D01*
X11278277Y-8150650D02*
X11316373Y-8150650D01*
X11316373Y-8150650D02*
X11335420Y-8160174D01*
X11335420Y-8160174D02*
X11344944Y-8169698D01*
X11344944Y-8169698D02*
X11354468Y-8188746D01*
X11354468Y-8188746D02*
X11354468Y-8245888D01*
X11354468Y-8245888D02*
X11344944Y-8264936D01*
X11344944Y-8264936D02*
X11335420Y-8274460D01*
X11335420Y-8274460D02*
X11316373Y-8283984D01*
X11316373Y-8283984D02*
X11278277Y-8283984D01*
X11278277Y-8283984D02*
X11259230Y-8274460D01*
X11468753Y-8283984D02*
X11449706Y-8274460D01*
X11449706Y-8274460D02*
X11440182Y-8255412D01*
X11440182Y-8255412D02*
X11440182Y-8083984D01*
X11630658Y-8283984D02*
X11630658Y-8179222D01*
X11630658Y-8179222D02*
X11621134Y-8160174D01*
X11621134Y-8160174D02*
X11602087Y-8150650D01*
X11602087Y-8150650D02*
X11563992Y-8150650D01*
X11563992Y-8150650D02*
X11544944Y-8160174D01*
X11630658Y-8274460D02*
X11611611Y-8283984D01*
X11611611Y-8283984D02*
X11563992Y-8283984D01*
X11563992Y-8283984D02*
X11544944Y-8274460D01*
X11544944Y-8274460D02*
X11535420Y-8255412D01*
X11535420Y-8255412D02*
X11535420Y-8236365D01*
X11535420Y-8236365D02*
X11544944Y-8217317D01*
X11544944Y-8217317D02*
X11563992Y-8207793D01*
X11563992Y-8207793D02*
X11611611Y-8207793D01*
X11611611Y-8207793D02*
X11630658Y-8198269D01*
X11697325Y-8150650D02*
X11773515Y-8150650D01*
X11725896Y-8083984D02*
X11725896Y-8255412D01*
X11725896Y-8255412D02*
X11735420Y-8274460D01*
X11735420Y-8274460D02*
X11754468Y-8283984D01*
X11754468Y-8283984D02*
X11773515Y-8283984D01*
X11916373Y-8274460D02*
X11897325Y-8283984D01*
X11897325Y-8283984D02*
X11859230Y-8283984D01*
X11859230Y-8283984D02*
X11840182Y-8274460D01*
X11840182Y-8274460D02*
X11830658Y-8255412D01*
X11830658Y-8255412D02*
X11830658Y-8179222D01*
X11830658Y-8179222D02*
X11840182Y-8160174D01*
X11840182Y-8160174D02*
X11859230Y-8150650D01*
X11859230Y-8150650D02*
X11897325Y-8150650D01*
X11897325Y-8150650D02*
X11916373Y-8160174D01*
X11916373Y-8160174D02*
X11925896Y-8179222D01*
X11925896Y-8179222D02*
X11925896Y-8198269D01*
X11925896Y-8198269D02*
X11830658Y-8217317D01*
X12097325Y-8283984D02*
X12097325Y-8083984D01*
X12097325Y-8274460D02*
X12078277Y-8283984D01*
X12078277Y-8283984D02*
X12040182Y-8283984D01*
X12040182Y-8283984D02*
X12021134Y-8274460D01*
X12021134Y-8274460D02*
X12011611Y-8264936D01*
X12011611Y-8264936D02*
X12002087Y-8245888D01*
X12002087Y-8245888D02*
X12002087Y-8188746D01*
X12002087Y-8188746D02*
X12011611Y-8169698D01*
X12011611Y-8169698D02*
X12021134Y-8160174D01*
X12021134Y-8160174D02*
X12040182Y-8150650D01*
X12040182Y-8150650D02*
X12078277Y-8150650D01*
X12078277Y-8150650D02*
X12097325Y-8160174D01*
X12173515Y-8360174D02*
X12183039Y-8350650D01*
X12183039Y-8350650D02*
X12202087Y-8322079D01*
X12202087Y-8322079D02*
X12211611Y-8303031D01*
X12211611Y-8303031D02*
X12221134Y-8274460D01*
X12221134Y-8274460D02*
X12230658Y-8226841D01*
X12230658Y-8226841D02*
X12230658Y-8188746D01*
X12230658Y-8188746D02*
X12221134Y-8141127D01*
X12221134Y-8141127D02*
X12211611Y-8112555D01*
X12211611Y-8112555D02*
X12202087Y-8093508D01*
X12202087Y-8093508D02*
X12183039Y-8064936D01*
X12183039Y-8064936D02*
X12173515Y-8055412D01*
M02*
