%TF.GenerationSoftware,KiCad,Pcbnew,9.0.5*%
%TF.CreationDate,2025-12-09T16:25:25-06:00*%
%TF.ProjectId,KBoardV1,4b426f61-7264-4563-912e-6b696361645f,rev?*%
%TF.SameCoordinates,Original*%
%TF.FileFunction,Copper,L2,Bot*%
%TF.FilePolarity,Positive*%
%FSLAX46Y46*%
G04 Gerber Fmt 4.6, Leading zero omitted, Abs format (unit mm)*
G04 Created by KiCad (PCBNEW 9.0.5) date 2025-12-09 16:25:25*
%MOMM*%
%LPD*%
G01*
G04 APERTURE LIST*
%TA.AperFunction,ComponentPad*%
%ADD10C,1.700000*%
%TD*%
%TA.AperFunction,ComponentPad*%
%ADD11R,1.700000X1.700000*%
%TD*%
%TA.AperFunction,HeatsinkPad*%
%ADD12O,1.000000X1.600000*%
%TD*%
%TA.AperFunction,HeatsinkPad*%
%ADD13O,1.000000X2.100000*%
%TD*%
%TA.AperFunction,ViaPad*%
%ADD14C,0.600000*%
%TD*%
%TA.AperFunction,Conductor*%
%ADD15C,0.200000*%
%TD*%
G04 APERTURE END LIST*
D10*
%TO.P,J3,20,Pin_20*%
%TO.N,GPIO16*%
X73590000Y-74130000D03*
%TO.P,J3,19,Pin_19*%
%TO.N,GPIO17*%
X73590000Y-71590000D03*
%TO.P,J3,18,Pin_18*%
%TO.N,GND*%
X73590000Y-69050000D03*
%TO.P,J3,17,Pin_17*%
%TO.N,GPIO18*%
X73590000Y-66510000D03*
%TO.P,J3,16,Pin_16*%
%TO.N,GPIO19*%
X73590000Y-63970000D03*
%TO.P,J3,15,Pin_15*%
%TO.N,GPIO20*%
X73590000Y-61430000D03*
%TO.P,J3,14,Pin_14*%
%TO.N,GPIO21*%
X73590000Y-58890000D03*
%TO.P,J3,13,Pin_13*%
%TO.N,GND*%
X73590000Y-56350000D03*
%TO.P,J3,12,Pin_12*%
%TO.N,GPIO22*%
X73590000Y-53810000D03*
%TO.P,J3,11,Pin_11*%
%TO.N,RUN*%
X73590000Y-51270000D03*
%TO.P,J3,10,Pin_10*%
%TO.N,GPIO23*%
X73590000Y-48730000D03*
%TO.P,J3,9,Pin_9*%
%TO.N,GPIO24*%
X73590000Y-46190000D03*
%TO.P,J3,8,Pin_8*%
%TO.N,GND*%
X73590000Y-43650000D03*
%TO.P,J3,7,Pin_7*%
%TO.N,GPIO26_ADC0*%
X73590000Y-41110000D03*
%TO.P,J3,6,Pin_6*%
%TO.N,GPIO27_ADC1*%
X73590000Y-38570000D03*
%TO.P,J3,5,Pin_5*%
%TO.N,+3V3*%
X73590000Y-36030000D03*
%TO.P,J3,4,Pin_4*%
%TO.N,GPIO28_ADC2*%
X73590000Y-33490000D03*
%TO.P,J3,3,Pin_3*%
%TO.N,GND*%
X73590000Y-30950000D03*
%TO.P,J3,2,Pin_2*%
%TO.N,GPIO29_ADC3*%
X73590000Y-28410000D03*
D11*
%TO.P,J3,1,Pin_1*%
%TO.N,VBUS*%
X73590000Y-25870000D03*
%TD*%
%TO.P,J4,1,Pin_1*%
%TO.N,SWCLK*%
X62160000Y-73890000D03*
D10*
%TO.P,J4,2,Pin_2*%
%TO.N,GND*%
X64700000Y-73890000D03*
%TO.P,J4,3,Pin_3*%
%TO.N,SWD*%
X67240000Y-73890000D03*
%TD*%
D11*
%TO.P,J2,1,Pin_1*%
%TO.N,GPIO0*%
X55810000Y-25870000D03*
D10*
%TO.P,J2,2,Pin_2*%
%TO.N,GPIO1*%
X55810000Y-28410000D03*
%TO.P,J2,3,Pin_3*%
%TO.N,GND*%
X55810000Y-30950000D03*
%TO.P,J2,4,Pin_4*%
%TO.N,GPIO2*%
X55810000Y-33490000D03*
%TO.P,J2,5,Pin_5*%
%TO.N,GPIO3*%
X55810000Y-36030000D03*
%TO.P,J2,6,Pin_6*%
%TO.N,GPIO4*%
X55810000Y-38570000D03*
%TO.P,J2,7,Pin_7*%
%TO.N,GPIO5*%
X55810000Y-41110000D03*
%TO.P,J2,8,Pin_8*%
%TO.N,GND*%
X55810000Y-43650000D03*
%TO.P,J2,9,Pin_9*%
%TO.N,GPIO6*%
X55810000Y-46190000D03*
%TO.P,J2,10,Pin_10*%
%TO.N,GPIO7*%
X55810000Y-48730000D03*
%TO.P,J2,11,Pin_11*%
%TO.N,GPIO8*%
X55810000Y-51270000D03*
%TO.P,J2,12,Pin_12*%
%TO.N,GPIO9*%
X55810000Y-53810000D03*
%TO.P,J2,13,Pin_13*%
%TO.N,GND*%
X55810000Y-56350000D03*
%TO.P,J2,14,Pin_14*%
%TO.N,GPIO10*%
X55810000Y-58890000D03*
%TO.P,J2,15,Pin_15*%
%TO.N,GPIO11*%
X55810000Y-61430000D03*
%TO.P,J2,16,Pin_16*%
%TO.N,GPIO12*%
X55810000Y-63970000D03*
%TO.P,J2,17,Pin_17*%
%TO.N,GPIO13*%
X55810000Y-66510000D03*
%TO.P,J2,18,Pin_18*%
%TO.N,GND*%
X55810000Y-69050000D03*
%TO.P,J2,19,Pin_19*%
%TO.N,GPIO14*%
X55810000Y-71590000D03*
%TO.P,J2,20,Pin_20*%
%TO.N,GPIO15*%
X55810000Y-74130000D03*
%TD*%
D12*
%TO.P,J1,S1,SHIELD*%
%TO.N,GND*%
X60380000Y-25940000D03*
D13*
X60380000Y-30120000D03*
D12*
X69020000Y-25940000D03*
D13*
X69020000Y-30120000D03*
%TD*%
D14*
%TO.N,GND*%
X63000000Y-52900000D03*
X64500000Y-48500000D03*
X62213604Y-55213604D03*
X70901999Y-46452978D03*
X64600000Y-70100000D03*
X58900000Y-66800000D03*
X63700000Y-39000000D03*
X57295000Y-44500000D03*
X61000000Y-43300000D03*
X61300000Y-38100000D03*
X58100000Y-29200000D03*
X58200000Y-30400000D03*
X56746446Y-42753554D03*
X57100000Y-43400000D03*
X60300000Y-37300000D03*
X62900000Y-32300000D03*
X60700000Y-41700000D03*
X68396446Y-32896446D03*
X58399000Y-57600000D03*
X62700000Y-64500000D03*
X57400000Y-51800000D03*
X57200000Y-54600000D03*
X70600000Y-59300000D03*
X62000000Y-46700000D03*
X71400000Y-29000000D03*
%TO.N,Net-(J1-CC1)*%
X66400000Y-29400000D03*
X66200000Y-32700000D03*
%TO.N,+1V1*%
X63685786Y-52185786D03*
X66514500Y-51996125D03*
X69360589Y-52139411D03*
%TO.N,GPIO29_ADC3*%
X65000000Y-51471573D03*
%TO.N,+3V3*%
X68500000Y-53800000D03*
X64375637Y-50647385D03*
%TO.N,+1V1*%
X63804262Y-56103124D03*
%TO.N,SWCLK*%
X64268030Y-56642133D03*
%TO.N,SWD*%
X64600000Y-57400000D03*
%TO.N,GPIO16*%
X64100000Y-59100000D03*
%TO.N,GPIO17*%
X64700000Y-58600000D03*
%TO.N,GPIO19*%
X65787914Y-56300000D03*
%TO.N,GPIO22*%
X66700000Y-55300000D03*
%TO.N,GPIO23*%
X69600000Y-57700000D03*
%TO.N,GPIO24*%
X68978640Y-57064081D03*
%TO.N,GPIO26_ADC0*%
X69200000Y-56400000D03*
%TO.N,GPIO27_ADC1*%
X69400000Y-55700000D03*
%TO.N,+3V3*%
X69600000Y-44200000D03*
%TO.N,GPIO28_ADC2*%
X67307313Y-54203151D03*
%TO.N,GPIO15*%
X61500000Y-62700000D03*
%TO.N,GPIO14*%
X60743798Y-56100000D03*
X60800000Y-64200000D03*
%TO.N,GPIO13*%
X60046610Y-56037288D03*
X59700000Y-64100000D03*
%TO.N,GPIO12*%
X58900000Y-63400000D03*
X59500000Y-55600000D03*
%TO.N,GPIO11*%
X57200000Y-61100000D03*
X59100000Y-53800000D03*
%TO.N,SWD*%
X63400000Y-62600000D03*
%TO.N,GPIO15*%
X62900000Y-55600000D03*
%TO.N,SWCLK*%
X62400000Y-62200000D03*
%TD*%
D15*
%TO.N,*%
X67940000Y-61580000D02*
X67980062Y-61539938D01*
%TO.N,GND*%
X63000000Y-52900000D02*
X62213604Y-53686396D01*
X62213604Y-53686396D02*
X62213604Y-55213604D01*
X64500000Y-48500000D02*
X62700000Y-46700000D01*
X62700000Y-46700000D02*
X62000000Y-46700000D01*
X59307521Y-53299000D02*
X59601000Y-53592479D01*
X59601000Y-53592479D02*
X59601000Y-54790479D01*
X59601000Y-54790479D02*
X59292479Y-55099000D01*
X62213604Y-55213604D02*
X62099000Y-55099000D01*
X62099000Y-55099000D02*
X59292479Y-55099000D01*
X70901999Y-46452978D02*
X71000000Y-46354977D01*
X71000000Y-46354977D02*
X71000000Y-46240000D01*
X71000000Y-46240000D02*
X73590000Y-43650000D01*
X61300000Y-66800000D02*
X64600000Y-70100000D01*
X58900000Y-66800000D02*
X61300000Y-66800000D01*
X62800000Y-38100000D02*
X63700000Y-39000000D01*
X61300000Y-38100000D02*
X62800000Y-38100000D01*
X57295000Y-44500000D02*
X59800000Y-44500000D01*
X59800000Y-44500000D02*
X61000000Y-43300000D01*
X57650000Y-30950000D02*
X58200000Y-30400000D01*
X55810000Y-30950000D02*
X57650000Y-30950000D01*
X58100000Y-29200000D02*
X59020000Y-30120000D01*
X59020000Y-30120000D02*
X60380000Y-30120000D01*
X56746446Y-42753554D02*
X56861000Y-42639000D01*
X56861000Y-42639000D02*
X56861000Y-32001000D01*
X56861000Y-32001000D02*
X55810000Y-30950000D01*
X62900000Y-32300000D02*
X62560000Y-32300000D01*
X62560000Y-32300000D02*
X60380000Y-30120000D01*
X57100000Y-43400000D02*
X59000000Y-43400000D01*
X59000000Y-43400000D02*
X60700000Y-41700000D01*
X64694000Y-30266000D02*
X67230000Y-27730000D01*
X69020000Y-30120000D02*
X69020000Y-29520000D01*
X69020000Y-29520000D02*
X67230000Y-27730000D01*
X60380000Y-30120000D02*
X60526000Y-30266000D01*
X60526000Y-30266000D02*
X64694000Y-30266000D01*
X67230000Y-27730000D02*
X69020000Y-25940000D01*
X60380000Y-30120000D02*
X60380000Y-25940000D01*
X60380000Y-25940000D02*
X69020000Y-25940000D01*
X69020000Y-30120000D02*
X69020000Y-25940000D01*
X68396446Y-32896446D02*
X69020000Y-32272892D01*
X69020000Y-32272892D02*
X69020000Y-30120000D01*
X58399000Y-57600000D02*
X58399000Y-63987786D01*
X58399000Y-63987786D02*
X59112214Y-64701000D01*
X59112214Y-64701000D02*
X62499000Y-64701000D01*
X58399000Y-55992479D02*
X58399000Y-57600000D01*
X59292479Y-55099000D02*
X58399000Y-55992479D01*
X58501000Y-53299000D02*
X59307521Y-53299000D01*
X62499000Y-64701000D02*
X62700000Y-64500000D01*
X57200000Y-54600000D02*
X58501000Y-53299000D01*
X57400000Y-54400000D02*
X57400000Y-51800000D01*
X57200000Y-54600000D02*
X57400000Y-54400000D01*
X65286914Y-56092479D02*
X65286914Y-58421113D01*
X70600000Y-59300000D02*
X69496435Y-59300000D01*
X65995435Y-55799000D02*
X65580393Y-55799000D01*
X69496435Y-59300000D02*
X65995435Y-55799000D01*
X65580393Y-55799000D02*
X65286914Y-56092479D01*
X72539000Y-67999000D02*
X73590000Y-69050000D01*
X65286914Y-58421113D02*
X72539000Y-65673199D01*
X72539000Y-65673199D02*
X72539000Y-67999000D01*
X58860000Y-46700000D02*
X62000000Y-46700000D01*
X55810000Y-43650000D02*
X58860000Y-46700000D01*
X55810000Y-56350000D02*
X56861000Y-55299000D01*
X56861000Y-55299000D02*
X56861000Y-44701000D01*
X56861000Y-44701000D02*
X55810000Y-43650000D01*
X71400000Y-29000000D02*
X71400000Y-28900000D01*
X71400000Y-28900000D02*
X69020000Y-26520000D01*
X69020000Y-26520000D02*
X69020000Y-25940000D01*
%TO.N,Net-(J1-CC1)*%
X66200000Y-32700000D02*
X66200000Y-29600000D01*
X66200000Y-29600000D02*
X66400000Y-29400000D01*
%TO.N,+1V1*%
X63685786Y-55984648D02*
X63685786Y-52185786D01*
X63804262Y-56103124D02*
X63685786Y-55984648D01*
X66514500Y-51996125D02*
X66657786Y-52139411D01*
X66657786Y-52139411D02*
X69360589Y-52139411D01*
X63804262Y-56103124D02*
X63873899Y-56033487D01*
%TO.N,GPIO29_ADC3*%
X65000000Y-51100000D02*
X65000000Y-51471573D01*
%TO.N,+3V3*%
X68199103Y-54100897D02*
X68500000Y-53800000D01*
X68118088Y-54100897D02*
X68199103Y-54100897D01*
%TO.N,GPIO29_ADC3*%
X65000000Y-37000000D02*
X65000000Y-51100000D01*
%TO.N,+3V3*%
X64373899Y-50645647D02*
X64375637Y-50647385D01*
X64373899Y-50401760D02*
X64373899Y-50645647D01*
X64373899Y-51013051D02*
X64373899Y-50401760D01*
%TO.N,GPIO29_ADC3*%
X65000000Y-37000000D02*
X73590000Y-28410000D01*
%TO.N,GPIO28_ADC2*%
X73590000Y-33490000D02*
X66614214Y-40465786D01*
X66614214Y-40465786D02*
X65734214Y-40465786D01*
X65734214Y-40465786D02*
X65301000Y-40899000D01*
X65301000Y-49901000D02*
X65500000Y-50100000D01*
X65500000Y-52500000D02*
X66510052Y-53510052D01*
X66510052Y-53510052D02*
X66614214Y-53510052D01*
X65301000Y-40899000D02*
X65301000Y-49901000D01*
X65500000Y-50100000D02*
X65500000Y-52500000D01*
X66614214Y-53510052D02*
X67307313Y-54203151D01*
%TO.N,+3V3*%
X67099792Y-54704151D02*
X67514834Y-54704151D01*
X64373899Y-51013051D02*
X64373899Y-51978258D01*
X64373899Y-51978258D02*
X67099792Y-54704151D01*
X67514834Y-54704151D02*
X68118088Y-54100897D01*
%TO.N,SWCLK*%
X62160000Y-58750163D02*
X64268030Y-56642133D01*
%TO.N,GPIO16*%
X64100000Y-64640000D02*
X64100000Y-59100000D01*
X73590000Y-74130000D02*
X64100000Y-64640000D01*
%TO.N,GPIO17*%
X64700000Y-59200000D02*
X64700000Y-58600000D01*
X71600000Y-66100000D02*
X64700000Y-59200000D01*
X73590000Y-71590000D02*
X71600000Y-69600000D01*
X71600000Y-69600000D02*
X71600000Y-66100000D01*
%TO.N,GPIO18*%
X73590000Y-66510000D02*
X72910000Y-66510000D01*
%TO.N,GPIO19*%
X65787914Y-58496435D02*
X65787914Y-56300000D01*
X71261479Y-63970000D02*
X65787914Y-58496435D01*
X73590000Y-63970000D02*
X71261479Y-63970000D01*
%TO.N,GPIO22*%
X69392479Y-58201000D02*
X66700000Y-55508521D01*
X73590000Y-53810000D02*
X73590000Y-54418521D01*
X66700000Y-55508521D02*
X66700000Y-55300000D01*
X69807521Y-58201000D02*
X69392479Y-58201000D01*
X73590000Y-54418521D02*
X69807521Y-58201000D01*
%TO.N,GPIO23*%
X72539000Y-54761000D02*
X69600000Y-57700000D01*
X72539000Y-49781000D02*
X72539000Y-54761000D01*
X73590000Y-48730000D02*
X72539000Y-49781000D01*
%TO.N,GPIO24*%
X70703000Y-49077000D02*
X70703000Y-55605521D01*
X70703000Y-55605521D02*
X69244440Y-57064081D01*
X69244440Y-57064081D02*
X68978640Y-57064081D01*
X73590000Y-46190000D02*
X70703000Y-49077000D01*
%TO.N,GPIO26_ADC0*%
X70402000Y-44298000D02*
X70402000Y-55406521D01*
X69408521Y-56400000D02*
X69200000Y-56400000D01*
X70402000Y-55406521D02*
X69408521Y-56400000D01*
X73590000Y-41110000D02*
X70402000Y-44298000D01*
%TO.N,GPIO27_ADC1*%
X70101000Y-54999000D02*
X69400000Y-55700000D01*
X70101000Y-42059000D02*
X70101000Y-54999000D01*
X73590000Y-38570000D02*
X70101000Y-42059000D01*
%TO.N,+3V3*%
X73590000Y-36030000D02*
X69600000Y-40020000D01*
X69600000Y-40020000D02*
X69600000Y-44200000D01*
%TO.N,GPIO15*%
X61500000Y-57000000D02*
X62900000Y-55600000D01*
X61500000Y-62700000D02*
X61500000Y-57000000D01*
%TO.N,GPIO14*%
X60800000Y-56156202D02*
X60743798Y-56100000D01*
X60800000Y-64200000D02*
X60800000Y-56156202D01*
%TO.N,GPIO13*%
X59700000Y-64100000D02*
X59700000Y-56383898D01*
X59700000Y-56383898D02*
X60046610Y-56037288D01*
%TO.N,GPIO12*%
X58900000Y-56200000D02*
X59500000Y-55600000D01*
X58900000Y-63400000D02*
X58900000Y-56200000D01*
%TO.N,GPIO11*%
X57200000Y-55700000D02*
X59100000Y-53800000D01*
X57200000Y-61100000D02*
X57200000Y-55700000D01*
%TO.N,SWD*%
X63400000Y-58600000D02*
X64600000Y-57400000D01*
X63400000Y-62600000D02*
X63400000Y-58600000D01*
%TO.N,SWCLK*%
X62400000Y-62200000D02*
X62400000Y-58990163D01*
X62400000Y-58990163D02*
X62160000Y-58750163D01*
%TD*%
%TA.AperFunction,Conductor*%
%TO.N,GND*%
G36*
X59443956Y-25020185D02*
G01*
X59489711Y-25072989D01*
X59499655Y-25142147D01*
X59491478Y-25171952D01*
X59418430Y-25348306D01*
X59418427Y-25348318D01*
X59380000Y-25541504D01*
X59380000Y-25690000D01*
X60080000Y-25690000D01*
X60080000Y-26190000D01*
X59380000Y-26190000D01*
X59380000Y-26338495D01*
X59418427Y-26531681D01*
X59418430Y-26531693D01*
X59493807Y-26713671D01*
X59493814Y-26713684D01*
X59603248Y-26877462D01*
X59603251Y-26877466D01*
X59742533Y-27016748D01*
X59742537Y-27016751D01*
X59906315Y-27126185D01*
X59906328Y-27126192D01*
X60088308Y-27201569D01*
X60130000Y-27209862D01*
X60130000Y-26406988D01*
X60139940Y-26424205D01*
X60195795Y-26480060D01*
X60264204Y-26519556D01*
X60340504Y-26540000D01*
X60419496Y-26540000D01*
X60495796Y-26519556D01*
X60564205Y-26480060D01*
X60620060Y-26424205D01*
X60630000Y-26406988D01*
X60630000Y-27209862D01*
X60671690Y-27201569D01*
X60671692Y-27201569D01*
X60853671Y-27126192D01*
X60853684Y-27126185D01*
X61017462Y-27016751D01*
X61017466Y-27016748D01*
X61156748Y-26877466D01*
X61156751Y-26877462D01*
X61266185Y-26713684D01*
X61266192Y-26713671D01*
X61341569Y-26531693D01*
X61341572Y-26531681D01*
X61379999Y-26338495D01*
X61380000Y-26338492D01*
X61380000Y-26190000D01*
X60680000Y-26190000D01*
X60680000Y-25690000D01*
X61380000Y-25690000D01*
X61380000Y-25541508D01*
X61379999Y-25541504D01*
X61341572Y-25348318D01*
X61341569Y-25348306D01*
X61268522Y-25171952D01*
X61261053Y-25102483D01*
X61292329Y-25040004D01*
X61352418Y-25004352D01*
X61383083Y-25000500D01*
X68016917Y-25000500D01*
X68083956Y-25020185D01*
X68129711Y-25072989D01*
X68139655Y-25142147D01*
X68131478Y-25171952D01*
X68058430Y-25348306D01*
X68058427Y-25348318D01*
X68020000Y-25541504D01*
X68020000Y-25690000D01*
X68720000Y-25690000D01*
X68720000Y-26190000D01*
X68020000Y-26190000D01*
X68020000Y-26338495D01*
X68058427Y-26531681D01*
X68058430Y-26531693D01*
X68133807Y-26713671D01*
X68133814Y-26713684D01*
X68243248Y-26877462D01*
X68243251Y-26877466D01*
X68382533Y-27016748D01*
X68382537Y-27016751D01*
X68546315Y-27126185D01*
X68546328Y-27126192D01*
X68728308Y-27201569D01*
X68770000Y-27209862D01*
X68770000Y-26406988D01*
X68779940Y-26424205D01*
X68835795Y-26480060D01*
X68904204Y-26519556D01*
X68980504Y-26540000D01*
X69059496Y-26540000D01*
X69135796Y-26519556D01*
X69204205Y-26480060D01*
X69260060Y-26424205D01*
X69270000Y-26406988D01*
X69270000Y-27209862D01*
X69311690Y-27201569D01*
X69311692Y-27201569D01*
X69493671Y-27126192D01*
X69493684Y-27126185D01*
X69657462Y-27016751D01*
X69657466Y-27016748D01*
X69796748Y-26877466D01*
X69796751Y-26877462D01*
X69906185Y-26713684D01*
X69906192Y-26713671D01*
X69981569Y-26531693D01*
X69981572Y-26531681D01*
X70019999Y-26338495D01*
X70020000Y-26338492D01*
X70020000Y-26190000D01*
X69320000Y-26190000D01*
X69320000Y-25690000D01*
X70020000Y-25690000D01*
X70020000Y-25541508D01*
X70019999Y-25541504D01*
X69981572Y-25348318D01*
X69981569Y-25348306D01*
X69908522Y-25171952D01*
X69901053Y-25102483D01*
X69932329Y-25040004D01*
X69992418Y-25004352D01*
X70023083Y-25000500D01*
X72315500Y-25000500D01*
X72382539Y-25020185D01*
X72428294Y-25072989D01*
X72439500Y-25124500D01*
X72439500Y-26764856D01*
X72439502Y-26764882D01*
X72442413Y-26789987D01*
X72442415Y-26789991D01*
X72487793Y-26892764D01*
X72487794Y-26892765D01*
X72567235Y-26972206D01*
X72670009Y-27017585D01*
X72695135Y-27020500D01*
X73432873Y-27020499D01*
X73499910Y-27040183D01*
X73545665Y-27092987D01*
X73555609Y-27162146D01*
X73526584Y-27225702D01*
X73467806Y-27263476D01*
X73452270Y-27266972D01*
X73320589Y-27287829D01*
X73148363Y-27343787D01*
X73148360Y-27343788D01*
X72987002Y-27426006D01*
X72840505Y-27532441D01*
X72840500Y-27532445D01*
X72712445Y-27660500D01*
X72712441Y-27660505D01*
X72606006Y-27807002D01*
X72523788Y-27968360D01*
X72523787Y-27968363D01*
X72467829Y-28140589D01*
X72439500Y-28319448D01*
X72439500Y-28500551D01*
X72467829Y-28679412D01*
X72514575Y-28823283D01*
X72516570Y-28893124D01*
X72484325Y-28949281D01*
X70023705Y-31409901D01*
X69962382Y-31443386D01*
X69892690Y-31438402D01*
X69836757Y-31396530D01*
X69812340Y-31331066D01*
X69827192Y-31262793D01*
X69832922Y-31253329D01*
X69906185Y-31143683D01*
X69906192Y-31143671D01*
X69981569Y-30961693D01*
X69981572Y-30961681D01*
X70019999Y-30768495D01*
X70020000Y-30768492D01*
X70020000Y-30370000D01*
X69320000Y-30370000D01*
X69320000Y-29870000D01*
X70020000Y-29870000D01*
X70020000Y-29471508D01*
X70019999Y-29471504D01*
X69981572Y-29278318D01*
X69981569Y-29278306D01*
X69906192Y-29096328D01*
X69906185Y-29096315D01*
X69796751Y-28932537D01*
X69796748Y-28932533D01*
X69657466Y-28793251D01*
X69657462Y-28793248D01*
X69493684Y-28683814D01*
X69493671Y-28683807D01*
X69311691Y-28608429D01*
X69311683Y-28608427D01*
X69270000Y-28600135D01*
X69270000Y-29403011D01*
X69260060Y-29385795D01*
X69204205Y-29329940D01*
X69135796Y-29290444D01*
X69059496Y-29270000D01*
X68980504Y-29270000D01*
X68904204Y-29290444D01*
X68835795Y-29329940D01*
X68779940Y-29385795D01*
X68770000Y-29403011D01*
X68770000Y-28600136D01*
X68769999Y-28600135D01*
X68728316Y-28608427D01*
X68728308Y-28608429D01*
X68546328Y-28683807D01*
X68546315Y-28683814D01*
X68382537Y-28793248D01*
X68382533Y-28793251D01*
X68243248Y-28932536D01*
X68130427Y-29101387D01*
X68129003Y-29100435D01*
X68085742Y-29144451D01*
X68017600Y-29159892D01*
X67951927Y-29136041D01*
X67949907Y-29134306D01*
X67949811Y-29134432D01*
X67943367Y-29129487D01*
X67943365Y-29129485D01*
X67877750Y-29091602D01*
X67812136Y-29053719D01*
X67728398Y-29031282D01*
X67665766Y-29014500D01*
X67514234Y-29014500D01*
X67367863Y-29053719D01*
X67236635Y-29129485D01*
X67160605Y-29205515D01*
X67099281Y-29238999D01*
X67029590Y-29234015D01*
X66973656Y-29192143D01*
X66963941Y-29175080D01*
X66963641Y-29175254D01*
X66880524Y-29031290D01*
X66880518Y-29031282D01*
X66768717Y-28919481D01*
X66768709Y-28919475D01*
X66631790Y-28840426D01*
X66631786Y-28840424D01*
X66631784Y-28840423D01*
X66479057Y-28799500D01*
X66320943Y-28799500D01*
X66168216Y-28840423D01*
X66168209Y-28840426D01*
X66031290Y-28919475D01*
X66031282Y-28919481D01*
X65919481Y-29031282D01*
X65919475Y-29031290D01*
X65840426Y-29168209D01*
X65840423Y-29168216D01*
X65799500Y-29320943D01*
X65799500Y-29479061D01*
X65800041Y-29481078D01*
X65800041Y-29483163D01*
X65800561Y-29487113D01*
X65800041Y-29487181D01*
X65800041Y-29539143D01*
X65800561Y-29539212D01*
X65800041Y-29543155D01*
X65800042Y-29545244D01*
X65799501Y-29547262D01*
X65799500Y-29547273D01*
X65799500Y-32199902D01*
X65779815Y-32266941D01*
X65763181Y-32287583D01*
X65719481Y-32331282D01*
X65719475Y-32331290D01*
X65640426Y-32468209D01*
X65640423Y-32468216D01*
X65599500Y-32620943D01*
X65599500Y-32779056D01*
X65640423Y-32931783D01*
X65640426Y-32931790D01*
X65719475Y-33068709D01*
X65719479Y-33068714D01*
X65719480Y-33068716D01*
X65831284Y-33180520D01*
X65831286Y-33180521D01*
X65831290Y-33180524D01*
X65968209Y-33259573D01*
X65968216Y-33259577D01*
X66120943Y-33300500D01*
X66120945Y-33300500D01*
X66279055Y-33300500D01*
X66279057Y-33300500D01*
X66431784Y-33259577D01*
X66568716Y-33180520D01*
X66680520Y-33068716D01*
X66759577Y-32931784D01*
X66800500Y-32779057D01*
X66800500Y-32620943D01*
X66759577Y-32468216D01*
X66714959Y-32390934D01*
X66680524Y-32331290D01*
X66680518Y-32331282D01*
X66636819Y-32287583D01*
X66603334Y-32226260D01*
X66600500Y-32199902D01*
X66600500Y-30049230D01*
X66620185Y-29982191D01*
X66662499Y-29941843D01*
X66768716Y-29880520D01*
X66860165Y-29789070D01*
X66921484Y-29755588D01*
X66991176Y-29760572D01*
X67047110Y-29802443D01*
X67055230Y-29814753D01*
X67090038Y-29875042D01*
X67129485Y-29943365D01*
X67236635Y-30050515D01*
X67367865Y-30126281D01*
X67514234Y-30165500D01*
X67514236Y-30165500D01*
X67665764Y-30165500D01*
X67665766Y-30165500D01*
X67812135Y-30126281D01*
X67943365Y-30050515D01*
X68050515Y-29943365D01*
X68057077Y-29932000D01*
X68107644Y-29883784D01*
X68164464Y-29870000D01*
X68720000Y-29870000D01*
X68720000Y-30370000D01*
X68020000Y-30370000D01*
X68020000Y-30768495D01*
X68058427Y-30961681D01*
X68058430Y-30961693D01*
X68133807Y-31143671D01*
X68133814Y-31143684D01*
X68243248Y-31307462D01*
X68243251Y-31307466D01*
X68382533Y-31446748D01*
X68382537Y-31446751D01*
X68546315Y-31556185D01*
X68546328Y-31556192D01*
X68728308Y-31631569D01*
X68770000Y-31639862D01*
X68770000Y-30836988D01*
X68779940Y-30854205D01*
X68835795Y-30910060D01*
X68904204Y-30949556D01*
X68980504Y-30970000D01*
X69059496Y-30970000D01*
X69135796Y-30949556D01*
X69204205Y-30910060D01*
X69260060Y-30854205D01*
X69270000Y-30836988D01*
X69270000Y-31639862D01*
X69311690Y-31631569D01*
X69311692Y-31631569D01*
X69493671Y-31556192D01*
X69493683Y-31556185D01*
X69603329Y-31482922D01*
X69670006Y-31462044D01*
X69737386Y-31480528D01*
X69784077Y-31532507D01*
X69795253Y-31601477D01*
X69767368Y-31665540D01*
X69759901Y-31673705D01*
X64679522Y-36754084D01*
X64679518Y-36754090D01*
X64626792Y-36845412D01*
X64626793Y-36845413D01*
X64599500Y-36947273D01*
X64599500Y-49885981D01*
X64579815Y-49953020D01*
X64527011Y-49998775D01*
X64457853Y-50008719D01*
X64443410Y-50005757D01*
X64436054Y-50003786D01*
X64426626Y-50001260D01*
X64321172Y-50001260D01*
X64219312Y-50028553D01*
X64219309Y-50028554D01*
X64127990Y-50081277D01*
X64127982Y-50081283D01*
X64102407Y-50106857D01*
X64076730Y-50126559D01*
X64006927Y-50166860D01*
X64006918Y-50166867D01*
X63895118Y-50278667D01*
X63895112Y-50278675D01*
X63816063Y-50415594D01*
X63816060Y-50415601D01*
X63775137Y-50568328D01*
X63775137Y-50726441D01*
X63816060Y-50879168D01*
X63816063Y-50879175D01*
X63895112Y-51016094D01*
X63895118Y-51016102D01*
X63937080Y-51058064D01*
X63970565Y-51119387D01*
X63973399Y-51145745D01*
X63973399Y-51479568D01*
X63953714Y-51546607D01*
X63900910Y-51592362D01*
X63831752Y-51602306D01*
X63817307Y-51599343D01*
X63764844Y-51585286D01*
X63764843Y-51585286D01*
X63606729Y-51585286D01*
X63454002Y-51626209D01*
X63453995Y-51626212D01*
X63317076Y-51705261D01*
X63317068Y-51705267D01*
X63205267Y-51817068D01*
X63205261Y-51817076D01*
X63126212Y-51953995D01*
X63126209Y-51954002D01*
X63085286Y-52106729D01*
X63085286Y-52264843D01*
X63126198Y-52417527D01*
X63126209Y-52417569D01*
X63126212Y-52417576D01*
X63205261Y-52554495D01*
X63205267Y-52554503D01*
X63248967Y-52598203D01*
X63282452Y-52659526D01*
X63285286Y-52685884D01*
X63285286Y-54919954D01*
X63265601Y-54986993D01*
X63212797Y-55032748D01*
X63143639Y-55042692D01*
X63129197Y-55039729D01*
X62979057Y-54999500D01*
X62820943Y-54999500D01*
X62668216Y-55040423D01*
X62668209Y-55040426D01*
X62531290Y-55119475D01*
X62531282Y-55119481D01*
X62419481Y-55231282D01*
X62419475Y-55231290D01*
X62340426Y-55368209D01*
X62340423Y-55368216D01*
X62299500Y-55520943D01*
X62299500Y-55582745D01*
X62279815Y-55649784D01*
X62263181Y-55670426D01*
X61521365Y-56412241D01*
X61460042Y-56445726D01*
X61390350Y-56440742D01*
X61334417Y-56398870D01*
X61310000Y-56333406D01*
X61313908Y-56292472D01*
X61344298Y-56179057D01*
X61344298Y-56020943D01*
X61303375Y-55868216D01*
X61275235Y-55819475D01*
X61224322Y-55731290D01*
X61224316Y-55731282D01*
X61112514Y-55619480D01*
X61112507Y-55619475D01*
X60975588Y-55540426D01*
X60975584Y-55540424D01*
X60975582Y-55540423D01*
X60822855Y-55499500D01*
X60664741Y-55499500D01*
X60512017Y-55540422D01*
X60512015Y-55540422D01*
X60512014Y-55540423D01*
X60512011Y-55540424D01*
X60512008Y-55540426D01*
X60511508Y-55540715D01*
X60511032Y-55540830D01*
X60504508Y-55543533D01*
X60504086Y-55542514D01*
X60443607Y-55557183D01*
X60387516Y-55540712D01*
X60278394Y-55477711D01*
X60278395Y-55477711D01*
X60190228Y-55454087D01*
X60142340Y-55441255D01*
X60082681Y-55404891D01*
X60063818Y-55375151D01*
X60063641Y-55375254D01*
X60061183Y-55370997D01*
X60059872Y-55368930D01*
X60059579Y-55368224D01*
X60059577Y-55368216D01*
X60038258Y-55331290D01*
X59980524Y-55231290D01*
X59980518Y-55231282D01*
X59868717Y-55119481D01*
X59868709Y-55119475D01*
X59731790Y-55040426D01*
X59731786Y-55040424D01*
X59731784Y-55040423D01*
X59579057Y-54999500D01*
X59420943Y-54999500D01*
X59268216Y-55040423D01*
X59268209Y-55040426D01*
X59131290Y-55119475D01*
X59131282Y-55119481D01*
X59019481Y-55231282D01*
X59019475Y-55231290D01*
X58940426Y-55368209D01*
X58940423Y-55368216D01*
X58899500Y-55520943D01*
X58899500Y-55582745D01*
X58879815Y-55649784D01*
X58863181Y-55670426D01*
X58579522Y-55954084D01*
X58579520Y-55954087D01*
X58528190Y-56042993D01*
X58526793Y-56045412D01*
X58516840Y-56082559D01*
X58505900Y-56123388D01*
X58499500Y-56147274D01*
X58499500Y-62899902D01*
X58479815Y-62966941D01*
X58463181Y-62987583D01*
X58419481Y-63031282D01*
X58419475Y-63031290D01*
X58340426Y-63168209D01*
X58340423Y-63168216D01*
X58299500Y-63320943D01*
X58299500Y-63479057D01*
X58331881Y-63599902D01*
X58340423Y-63631783D01*
X58340426Y-63631790D01*
X58419475Y-63768709D01*
X58419479Y-63768714D01*
X58419480Y-63768716D01*
X58531284Y-63880520D01*
X58531286Y-63880521D01*
X58531290Y-63880524D01*
X58668209Y-63959573D01*
X58668216Y-63959577D01*
X58820943Y-64000500D01*
X58820945Y-64000500D01*
X58975500Y-64000500D01*
X59042539Y-64020185D01*
X59088294Y-64072989D01*
X59099500Y-64124500D01*
X59099500Y-64179057D01*
X59129356Y-64290479D01*
X59140423Y-64331783D01*
X59140426Y-64331790D01*
X59219475Y-64468709D01*
X59219479Y-64468714D01*
X59219480Y-64468716D01*
X59331284Y-64580520D01*
X59331286Y-64580521D01*
X59331290Y-64580524D01*
X59468209Y-64659573D01*
X59468216Y-64659577D01*
X59620943Y-64700500D01*
X59620945Y-64700500D01*
X59779055Y-64700500D01*
X59779057Y-64700500D01*
X59931784Y-64659577D01*
X60068716Y-64580520D01*
X60117747Y-64531488D01*
X60179068Y-64498004D01*
X60248759Y-64502988D01*
X60304693Y-64544859D01*
X60312815Y-64557172D01*
X60319477Y-64568712D01*
X60319479Y-64568715D01*
X60319480Y-64568716D01*
X60431284Y-64680520D01*
X60431286Y-64680521D01*
X60431290Y-64680524D01*
X60558203Y-64753796D01*
X60568216Y-64759577D01*
X60720943Y-64800500D01*
X60720945Y-64800500D01*
X60879055Y-64800500D01*
X60879057Y-64800500D01*
X61031784Y-64759577D01*
X61168716Y-64680520D01*
X61280520Y-64568716D01*
X61359577Y-64431784D01*
X61400500Y-64279057D01*
X61400500Y-64120943D01*
X61359577Y-63968216D01*
X61328193Y-63913857D01*
X61280524Y-63831290D01*
X61280518Y-63831282D01*
X61236819Y-63787583D01*
X61203334Y-63726260D01*
X61200500Y-63699902D01*
X61200500Y-63403032D01*
X61220185Y-63335993D01*
X61272989Y-63290238D01*
X61342147Y-63280294D01*
X61356581Y-63283254D01*
X61420943Y-63300500D01*
X61420946Y-63300500D01*
X61579055Y-63300500D01*
X61579057Y-63300500D01*
X61731784Y-63259577D01*
X61868716Y-63180520D01*
X61980520Y-63068716D01*
X62059577Y-62931784D01*
X62077813Y-62863724D01*
X62114177Y-62804067D01*
X62177023Y-62773537D01*
X62229674Y-62776044D01*
X62320943Y-62800500D01*
X62320946Y-62800500D01*
X62479055Y-62800500D01*
X62479057Y-62800500D01*
X62631784Y-62759577D01*
X62655765Y-62745731D01*
X62723663Y-62729258D01*
X62789691Y-62752110D01*
X62832882Y-62807030D01*
X62837539Y-62821022D01*
X62840423Y-62831784D01*
X62840424Y-62831787D01*
X62840426Y-62831790D01*
X62919475Y-62968709D01*
X62919479Y-62968714D01*
X62919480Y-62968716D01*
X63031284Y-63080520D01*
X63031286Y-63080521D01*
X63031290Y-63080524D01*
X63051942Y-63092447D01*
X63168216Y-63159577D01*
X63320943Y-63200500D01*
X63320945Y-63200500D01*
X63479054Y-63200500D01*
X63479057Y-63200500D01*
X63543408Y-63183257D01*
X63613256Y-63184920D01*
X63671119Y-63224082D01*
X63698623Y-63288311D01*
X63699500Y-63303032D01*
X63699500Y-64587273D01*
X63699500Y-64692727D01*
X63706674Y-64719500D01*
X63726793Y-64794589D01*
X63730206Y-64800500D01*
X63779520Y-64885913D01*
X68146741Y-69253134D01*
X72484325Y-73590717D01*
X72517810Y-73652040D01*
X72514575Y-73716715D01*
X72467829Y-73860587D01*
X72439500Y-74039448D01*
X72439500Y-74220551D01*
X72467829Y-74399410D01*
X72523787Y-74571636D01*
X72523788Y-74571639D01*
X72606003Y-74732993D01*
X72656586Y-74802615D01*
X72680065Y-74868422D01*
X72664239Y-74936476D01*
X72614133Y-74985170D01*
X72556267Y-74999500D01*
X68051887Y-74999500D01*
X67984848Y-74979815D01*
X67939093Y-74927011D01*
X67929149Y-74857853D01*
X67958174Y-74794297D01*
X67979002Y-74775182D01*
X67989494Y-74767558D01*
X67989492Y-74767558D01*
X67989501Y-74767553D01*
X68117553Y-74639501D01*
X68223996Y-74492994D01*
X68306211Y-74331639D01*
X68362171Y-74159409D01*
X68381171Y-74039448D01*
X68390500Y-73980551D01*
X68390500Y-73799448D01*
X68372905Y-73688361D01*
X68362171Y-73620591D01*
X68306211Y-73448361D01*
X68306211Y-73448360D01*
X68267191Y-73371780D01*
X68223996Y-73287006D01*
X68198883Y-73252441D01*
X68117558Y-73140505D01*
X68117554Y-73140500D01*
X67989499Y-73012445D01*
X67989494Y-73012441D01*
X67842997Y-72906006D01*
X67842996Y-72906005D01*
X67842994Y-72906004D01*
X67766906Y-72867235D01*
X67681639Y-72823788D01*
X67681636Y-72823787D01*
X67509410Y-72767829D01*
X67330551Y-72739500D01*
X67330546Y-72739500D01*
X67149454Y-72739500D01*
X67149449Y-72739500D01*
X66970589Y-72767829D01*
X66798363Y-72823787D01*
X66798360Y-72823788D01*
X66637002Y-72906006D01*
X66490505Y-73012441D01*
X66490500Y-73012445D01*
X66362445Y-73140500D01*
X66362441Y-73140505D01*
X66256004Y-73287004D01*
X66188908Y-73418685D01*
X66140933Y-73469480D01*
X66073112Y-73486275D01*
X66006977Y-73463737D01*
X65963527Y-73409021D01*
X65960492Y-73400705D01*
X65951094Y-73371780D01*
X65854624Y-73182449D01*
X65815270Y-73128282D01*
X65815269Y-73128282D01*
X65182962Y-73760590D01*
X65165925Y-73697007D01*
X65100099Y-73582993D01*
X65007007Y-73489901D01*
X64892993Y-73424075D01*
X64829409Y-73407037D01*
X65461716Y-72774728D01*
X65407550Y-72735375D01*
X65218217Y-72638904D01*
X65016129Y-72573242D01*
X64806246Y-72540000D01*
X64593754Y-72540000D01*
X64383872Y-72573242D01*
X64383869Y-72573242D01*
X64181782Y-72638904D01*
X63992439Y-72735380D01*
X63938282Y-72774727D01*
X63938282Y-72774728D01*
X64570591Y-73407037D01*
X64507007Y-73424075D01*
X64392993Y-73489901D01*
X64299901Y-73582993D01*
X64234075Y-73697007D01*
X64217037Y-73760591D01*
X63584728Y-73128282D01*
X63584727Y-73128282D01*
X63545380Y-73182440D01*
X63545377Y-73182445D01*
X63544981Y-73183223D01*
X63544752Y-73183464D01*
X63542838Y-73186590D01*
X63542180Y-73186187D01*
X63497004Y-73234017D01*
X63429183Y-73250809D01*
X63363049Y-73228268D01*
X63319600Y-73173551D01*
X63310499Y-73126923D01*
X63310499Y-72995143D01*
X63310499Y-72995136D01*
X63310497Y-72995117D01*
X63307586Y-72970012D01*
X63307585Y-72970011D01*
X63307585Y-72970009D01*
X63262206Y-72867235D01*
X63182765Y-72787794D01*
X63182763Y-72787793D01*
X63079992Y-72742415D01*
X63054865Y-72739500D01*
X61265143Y-72739500D01*
X61265117Y-72739502D01*
X61240012Y-72742413D01*
X61240008Y-72742415D01*
X61137235Y-72787793D01*
X61057794Y-72867234D01*
X61012415Y-72970006D01*
X61012415Y-72970008D01*
X61009500Y-72995131D01*
X61009500Y-74784856D01*
X61009502Y-74784882D01*
X61012413Y-74809986D01*
X61012414Y-74809990D01*
X61012415Y-74809991D01*
X61019225Y-74825415D01*
X61028297Y-74894690D01*
X60998475Y-74957876D01*
X60939226Y-74994907D01*
X60905791Y-74999500D01*
X56843733Y-74999500D01*
X56776694Y-74979815D01*
X56730939Y-74927011D01*
X56720995Y-74857853D01*
X56743414Y-74802615D01*
X56768887Y-74767554D01*
X56793996Y-74732994D01*
X56876211Y-74571639D01*
X56932171Y-74399409D01*
X56956856Y-74243554D01*
X56960500Y-74220551D01*
X56960500Y-74039448D01*
X56944019Y-73935397D01*
X56932171Y-73860591D01*
X56885424Y-73716715D01*
X56876212Y-73688363D01*
X56876211Y-73688360D01*
X56841679Y-73620589D01*
X56793996Y-73527006D01*
X56736859Y-73448363D01*
X56687558Y-73380505D01*
X56687554Y-73380500D01*
X56559499Y-73252445D01*
X56559494Y-73252441D01*
X56412997Y-73146006D01*
X56412996Y-73146005D01*
X56412994Y-73146004D01*
X56361300Y-73119664D01*
X56251639Y-73063788D01*
X56251636Y-73063787D01*
X56079410Y-73007829D01*
X55919321Y-72982473D01*
X55856186Y-72952544D01*
X55819255Y-72893232D01*
X55820253Y-72823370D01*
X55858863Y-72765137D01*
X55919321Y-72737527D01*
X55989425Y-72726422D01*
X56079409Y-72712171D01*
X56251639Y-72656211D01*
X56412994Y-72573996D01*
X56559501Y-72467553D01*
X56687553Y-72339501D01*
X56793996Y-72192994D01*
X56876211Y-72031639D01*
X56932171Y-71859409D01*
X56946765Y-71767259D01*
X56960500Y-71680551D01*
X56960500Y-71499448D01*
X56944019Y-71395397D01*
X56932171Y-71320591D01*
X56876211Y-71148361D01*
X56876211Y-71148360D01*
X56826459Y-71050718D01*
X56793996Y-70987006D01*
X56731401Y-70900851D01*
X56687558Y-70840505D01*
X56687554Y-70840500D01*
X56559499Y-70712445D01*
X56559494Y-70712441D01*
X56412995Y-70606004D01*
X56281314Y-70538908D01*
X56230519Y-70490934D01*
X56213724Y-70423113D01*
X56236262Y-70356978D01*
X56290977Y-70313527D01*
X56299295Y-70310492D01*
X56328217Y-70301095D01*
X56517554Y-70204622D01*
X56571716Y-70165270D01*
X56571717Y-70165270D01*
X55939409Y-69532962D01*
X56002993Y-69515925D01*
X56117007Y-69450099D01*
X56210099Y-69357007D01*
X56275925Y-69242993D01*
X56292962Y-69179408D01*
X56925270Y-69811717D01*
X56925270Y-69811716D01*
X56964622Y-69757554D01*
X57061095Y-69568217D01*
X57126757Y-69366130D01*
X57126757Y-69366127D01*
X57160000Y-69156246D01*
X57160000Y-68943753D01*
X57126757Y-68733872D01*
X57126757Y-68733869D01*
X57061095Y-68531782D01*
X56964624Y-68342449D01*
X56925270Y-68288282D01*
X56925269Y-68288282D01*
X56292962Y-68920590D01*
X56275925Y-68857007D01*
X56210099Y-68742993D01*
X56117007Y-68649901D01*
X56002993Y-68584075D01*
X55939407Y-68567036D01*
X56571716Y-67934728D01*
X56517550Y-67895375D01*
X56328217Y-67798904D01*
X56299292Y-67789506D01*
X56241616Y-67750068D01*
X56214418Y-67685710D01*
X56226333Y-67616863D01*
X56273577Y-67565388D01*
X56281315Y-67561090D01*
X56412994Y-67493996D01*
X56559501Y-67387553D01*
X56687553Y-67259501D01*
X56793996Y-67112994D01*
X56876211Y-66951639D01*
X56932171Y-66779409D01*
X56946765Y-66687259D01*
X56960500Y-66600551D01*
X56960500Y-66419448D01*
X56936178Y-66265892D01*
X56932171Y-66240591D01*
X56876211Y-66068361D01*
X56876211Y-66068360D01*
X56813565Y-65945413D01*
X56793996Y-65907006D01*
X56731401Y-65820851D01*
X56687558Y-65760505D01*
X56687554Y-65760500D01*
X56559499Y-65632445D01*
X56559494Y-65632441D01*
X56412997Y-65526006D01*
X56412996Y-65526005D01*
X56412994Y-65526004D01*
X56361300Y-65499664D01*
X56251639Y-65443788D01*
X56251636Y-65443787D01*
X56079410Y-65387829D01*
X55919321Y-65362473D01*
X55856186Y-65332544D01*
X55819255Y-65273232D01*
X55820253Y-65203370D01*
X55858863Y-65145137D01*
X55919321Y-65117527D01*
X55989425Y-65106422D01*
X56079409Y-65092171D01*
X56251639Y-65036211D01*
X56412994Y-64953996D01*
X56559501Y-64847553D01*
X56687553Y-64719501D01*
X56793996Y-64572994D01*
X56876211Y-64411639D01*
X56932171Y-64239409D01*
X56950934Y-64120943D01*
X56960500Y-64060551D01*
X56960500Y-63879448D01*
X56941569Y-63759930D01*
X56932171Y-63700591D01*
X56876211Y-63528361D01*
X56876211Y-63528360D01*
X56812352Y-63403032D01*
X56793996Y-63367006D01*
X56771464Y-63335993D01*
X56687558Y-63220505D01*
X56687554Y-63220500D01*
X56559499Y-63092445D01*
X56559494Y-63092441D01*
X56412997Y-62986006D01*
X56412996Y-62986005D01*
X56412994Y-62986004D01*
X56361300Y-62959664D01*
X56251639Y-62903788D01*
X56251636Y-62903787D01*
X56079410Y-62847829D01*
X55919321Y-62822473D01*
X55856186Y-62792544D01*
X55819255Y-62733232D01*
X55820253Y-62663370D01*
X55858863Y-62605137D01*
X55919321Y-62577527D01*
X55989425Y-62566422D01*
X56079409Y-62552171D01*
X56251639Y-62496211D01*
X56412994Y-62413996D01*
X56559501Y-62307553D01*
X56687553Y-62179501D01*
X56793996Y-62032994D01*
X56876211Y-61871639D01*
X56910601Y-61765794D01*
X56950037Y-61708119D01*
X57014396Y-61680920D01*
X57060620Y-61684336D01*
X57120943Y-61700500D01*
X57120946Y-61700500D01*
X57279055Y-61700500D01*
X57279057Y-61700500D01*
X57431784Y-61659577D01*
X57568716Y-61580520D01*
X57680520Y-61468716D01*
X57759577Y-61331784D01*
X57800500Y-61179057D01*
X57800500Y-61020943D01*
X57759577Y-60868216D01*
X57735782Y-60827002D01*
X57680524Y-60731290D01*
X57680518Y-60731282D01*
X57636819Y-60687583D01*
X57603334Y-60626260D01*
X57600500Y-60599902D01*
X57600500Y-55917254D01*
X57620185Y-55850215D01*
X57636819Y-55829573D01*
X59029573Y-54436819D01*
X59090896Y-54403334D01*
X59117254Y-54400500D01*
X59179055Y-54400500D01*
X59179057Y-54400500D01*
X59331784Y-54359577D01*
X59468716Y-54280520D01*
X59580520Y-54168716D01*
X59659577Y-54031784D01*
X59700500Y-53879057D01*
X59700500Y-53720943D01*
X59659577Y-53568216D01*
X59621113Y-53501593D01*
X59580524Y-53431290D01*
X59580518Y-53431282D01*
X59468717Y-53319481D01*
X59468709Y-53319475D01*
X59331790Y-53240426D01*
X59331786Y-53240424D01*
X59331784Y-53240423D01*
X59179057Y-53199500D01*
X59020943Y-53199500D01*
X58868216Y-53240423D01*
X58868209Y-53240426D01*
X58731290Y-53319475D01*
X58731282Y-53319481D01*
X58619481Y-53431282D01*
X58619475Y-53431290D01*
X58540426Y-53568209D01*
X58540423Y-53568216D01*
X58499500Y-53720943D01*
X58499500Y-53782745D01*
X58479815Y-53849784D01*
X58463181Y-53870426D01*
X56879522Y-55454084D01*
X56879520Y-55454087D01*
X56826793Y-55545411D01*
X56806947Y-55619480D01*
X56799500Y-55647271D01*
X56799500Y-55662692D01*
X56779815Y-55729731D01*
X56763181Y-55750373D01*
X56292962Y-56220591D01*
X56275925Y-56157007D01*
X56210099Y-56042993D01*
X56117007Y-55949901D01*
X56002993Y-55884075D01*
X55939407Y-55867036D01*
X56571716Y-55234728D01*
X56517550Y-55195375D01*
X56328217Y-55098904D01*
X56299292Y-55089506D01*
X56241616Y-55050068D01*
X56214418Y-54985710D01*
X56226333Y-54916863D01*
X56273577Y-54865388D01*
X56281315Y-54861090D01*
X56412994Y-54793996D01*
X56559501Y-54687553D01*
X56687553Y-54559501D01*
X56793996Y-54412994D01*
X56876211Y-54251639D01*
X56932171Y-54079409D01*
X56946765Y-53987259D01*
X56960500Y-53900551D01*
X56960500Y-53719448D01*
X56942000Y-53602651D01*
X56932171Y-53540591D01*
X56876211Y-53368361D01*
X56876211Y-53368360D01*
X56811024Y-53240426D01*
X56793996Y-53207006D01*
X56743022Y-53136846D01*
X56687558Y-53060505D01*
X56687554Y-53060500D01*
X56559499Y-52932445D01*
X56559494Y-52932441D01*
X56412997Y-52826006D01*
X56412996Y-52826005D01*
X56412994Y-52826004D01*
X56349932Y-52793872D01*
X56251639Y-52743788D01*
X56251636Y-52743787D01*
X56079410Y-52687829D01*
X55919321Y-52662473D01*
X55856186Y-52632544D01*
X55819255Y-52573232D01*
X55820253Y-52503370D01*
X55858863Y-52445137D01*
X55919321Y-52417527D01*
X55989425Y-52406422D01*
X56079409Y-52392171D01*
X56251639Y-52336211D01*
X56412994Y-52253996D01*
X56559501Y-52147553D01*
X56687553Y-52019501D01*
X56793996Y-51872994D01*
X56876211Y-51711639D01*
X56932171Y-51539409D01*
X56948463Y-51436548D01*
X56960500Y-51360551D01*
X56960500Y-51179448D01*
X56941274Y-51058064D01*
X56932171Y-51000591D01*
X56876211Y-50828361D01*
X56876211Y-50828360D01*
X56824280Y-50726442D01*
X56793996Y-50667006D01*
X56731401Y-50580851D01*
X56687558Y-50520505D01*
X56687554Y-50520500D01*
X56559499Y-50392445D01*
X56559494Y-50392441D01*
X56412997Y-50286006D01*
X56412996Y-50286005D01*
X56412994Y-50286004D01*
X56361300Y-50259664D01*
X56251639Y-50203788D01*
X56251636Y-50203787D01*
X56079410Y-50147829D01*
X55919321Y-50122473D01*
X55856186Y-50092544D01*
X55819255Y-50033232D01*
X55820253Y-49963370D01*
X55858863Y-49905137D01*
X55919321Y-49877527D01*
X55989425Y-49866422D01*
X56079409Y-49852171D01*
X56251639Y-49796211D01*
X56412994Y-49713996D01*
X56559501Y-49607553D01*
X56687553Y-49479501D01*
X56793996Y-49332994D01*
X56876211Y-49171639D01*
X56932171Y-48999409D01*
X56946765Y-48907259D01*
X56960500Y-48820551D01*
X56960500Y-48639448D01*
X56944019Y-48535397D01*
X56932171Y-48460591D01*
X56876211Y-48288361D01*
X56876211Y-48288360D01*
X56824083Y-48186055D01*
X56793996Y-48127006D01*
X56731401Y-48040851D01*
X56687558Y-47980505D01*
X56687554Y-47980500D01*
X56559499Y-47852445D01*
X56559494Y-47852441D01*
X56412997Y-47746006D01*
X56412996Y-47746005D01*
X56412994Y-47746004D01*
X56334447Y-47705982D01*
X56251639Y-47663788D01*
X56251636Y-47663787D01*
X56079410Y-47607829D01*
X55919321Y-47582473D01*
X55856186Y-47552544D01*
X55819255Y-47493232D01*
X55820253Y-47423370D01*
X55858863Y-47365137D01*
X55919321Y-47337527D01*
X55989425Y-47326422D01*
X56079409Y-47312171D01*
X56251639Y-47256211D01*
X56412994Y-47173996D01*
X56559501Y-47067553D01*
X56687553Y-46939501D01*
X56793996Y-46792994D01*
X56876211Y-46631639D01*
X56932171Y-46459409D01*
X56946765Y-46367259D01*
X56960500Y-46280551D01*
X56960500Y-46099448D01*
X56944019Y-45995397D01*
X56932171Y-45920591D01*
X56876211Y-45748361D01*
X56876211Y-45748360D01*
X56847740Y-45692484D01*
X56793996Y-45587006D01*
X56731401Y-45500851D01*
X56687558Y-45440505D01*
X56687554Y-45440500D01*
X56559499Y-45312445D01*
X56559494Y-45312441D01*
X56412995Y-45206004D01*
X56281314Y-45138908D01*
X56230519Y-45090934D01*
X56213724Y-45023113D01*
X56236262Y-44956978D01*
X56290977Y-44913527D01*
X56299295Y-44910492D01*
X56328217Y-44901095D01*
X56517554Y-44804622D01*
X56571716Y-44765270D01*
X56571717Y-44765270D01*
X55939409Y-44132962D01*
X56002993Y-44115925D01*
X56117007Y-44050099D01*
X56210099Y-43957007D01*
X56275925Y-43842993D01*
X56292962Y-43779409D01*
X56925270Y-44411717D01*
X56925270Y-44411716D01*
X56964622Y-44357554D01*
X57061095Y-44168217D01*
X57126757Y-43966130D01*
X57126757Y-43966127D01*
X57160000Y-43756246D01*
X57160000Y-43543753D01*
X57126757Y-43333872D01*
X57126757Y-43333869D01*
X57061095Y-43131782D01*
X56964624Y-42942449D01*
X56925270Y-42888282D01*
X56925269Y-42888282D01*
X56292962Y-43520590D01*
X56275925Y-43457007D01*
X56210099Y-43342993D01*
X56117007Y-43249901D01*
X56002993Y-43184075D01*
X55939407Y-43167036D01*
X56571716Y-42534728D01*
X56517550Y-42495375D01*
X56328217Y-42398904D01*
X56299292Y-42389506D01*
X56241616Y-42350068D01*
X56214418Y-42285710D01*
X56226333Y-42216863D01*
X56273577Y-42165388D01*
X56281315Y-42161090D01*
X56412994Y-42093996D01*
X56559501Y-41987553D01*
X56687553Y-41859501D01*
X56793996Y-41712994D01*
X56876211Y-41551639D01*
X56932171Y-41379409D01*
X56946765Y-41287259D01*
X56960500Y-41200551D01*
X56960500Y-41019448D01*
X56941993Y-40902605D01*
X56932171Y-40840591D01*
X56876211Y-40668361D01*
X56876211Y-40668360D01*
X56847740Y-40612484D01*
X56793996Y-40507006D01*
X56731401Y-40420851D01*
X56687558Y-40360505D01*
X56687554Y-40360500D01*
X56559499Y-40232445D01*
X56559494Y-40232441D01*
X56412997Y-40126006D01*
X56412996Y-40126005D01*
X56412994Y-40126004D01*
X56326638Y-40082003D01*
X56251639Y-40043788D01*
X56251636Y-40043787D01*
X56079410Y-39987829D01*
X55919321Y-39962473D01*
X55856186Y-39932544D01*
X55819255Y-39873232D01*
X55820253Y-39803370D01*
X55858863Y-39745137D01*
X55919321Y-39717527D01*
X55989425Y-39706422D01*
X56079409Y-39692171D01*
X56251639Y-39636211D01*
X56412994Y-39553996D01*
X56559501Y-39447553D01*
X56687553Y-39319501D01*
X56793996Y-39172994D01*
X56876211Y-39011639D01*
X56932171Y-38839409D01*
X56946765Y-38747259D01*
X56960500Y-38660551D01*
X56960500Y-38479448D01*
X56944019Y-38375397D01*
X56932171Y-38300591D01*
X56876211Y-38128361D01*
X56876211Y-38128360D01*
X56847740Y-38072484D01*
X56793996Y-37967006D01*
X56731401Y-37880851D01*
X56687558Y-37820505D01*
X56687554Y-37820500D01*
X56559499Y-37692445D01*
X56559494Y-37692441D01*
X56412997Y-37586006D01*
X56412996Y-37586005D01*
X56412994Y-37586004D01*
X56361300Y-37559664D01*
X56251639Y-37503788D01*
X56251636Y-37503787D01*
X56079410Y-37447829D01*
X55919321Y-37422473D01*
X55856186Y-37392544D01*
X55819255Y-37333232D01*
X55820253Y-37263370D01*
X55858863Y-37205137D01*
X55919321Y-37177527D01*
X55989425Y-37166422D01*
X56079409Y-37152171D01*
X56251639Y-37096211D01*
X56412994Y-37013996D01*
X56559501Y-36907553D01*
X56687553Y-36779501D01*
X56793996Y-36632994D01*
X56876211Y-36471639D01*
X56932171Y-36299409D01*
X56946765Y-36207259D01*
X56960500Y-36120551D01*
X56960500Y-35939448D01*
X56944019Y-35835397D01*
X56932171Y-35760591D01*
X56876211Y-35588361D01*
X56876211Y-35588360D01*
X56847740Y-35532484D01*
X56793996Y-35427006D01*
X56731401Y-35340851D01*
X56687558Y-35280505D01*
X56687554Y-35280500D01*
X56559499Y-35152445D01*
X56559494Y-35152441D01*
X56412997Y-35046006D01*
X56412996Y-35046005D01*
X56412994Y-35046004D01*
X56361300Y-35019664D01*
X56251639Y-34963788D01*
X56251636Y-34963787D01*
X56079410Y-34907829D01*
X55919321Y-34882473D01*
X55856186Y-34852544D01*
X55819255Y-34793232D01*
X55820253Y-34723370D01*
X55858863Y-34665137D01*
X55919321Y-34637527D01*
X55989425Y-34626422D01*
X56079409Y-34612171D01*
X56251639Y-34556211D01*
X56412994Y-34473996D01*
X56559501Y-34367553D01*
X56687553Y-34239501D01*
X56793996Y-34092994D01*
X56876211Y-33931639D01*
X56932171Y-33759409D01*
X56946765Y-33667259D01*
X56960500Y-33580551D01*
X56960500Y-33399448D01*
X56944019Y-33295397D01*
X56932171Y-33220591D01*
X56882825Y-33068716D01*
X56876212Y-33048363D01*
X56876211Y-33048360D01*
X56847740Y-32992484D01*
X56793996Y-32887006D01*
X56731401Y-32800851D01*
X56687558Y-32740505D01*
X56687554Y-32740500D01*
X56559499Y-32612445D01*
X56559494Y-32612441D01*
X56412995Y-32506004D01*
X56281314Y-32438908D01*
X56230519Y-32390934D01*
X56213724Y-32323113D01*
X56236262Y-32256978D01*
X56290977Y-32213527D01*
X56299295Y-32210492D01*
X56328217Y-32201095D01*
X56517554Y-32104622D01*
X56571716Y-32065270D01*
X56571717Y-32065270D01*
X55939408Y-31432962D01*
X56002993Y-31415925D01*
X56117007Y-31350099D01*
X56210099Y-31257007D01*
X56275925Y-31142993D01*
X56292962Y-31079409D01*
X56925270Y-31711717D01*
X56925270Y-31711716D01*
X56964622Y-31657554D01*
X57061095Y-31468217D01*
X57126757Y-31266130D01*
X57126757Y-31266127D01*
X57160000Y-31056246D01*
X57160000Y-30843753D01*
X57126757Y-30633872D01*
X57126757Y-30633869D01*
X57061095Y-30431782D01*
X57032129Y-30374933D01*
X56964624Y-30242449D01*
X56925270Y-30188282D01*
X56925269Y-30188282D01*
X56292962Y-30820590D01*
X56275925Y-30757007D01*
X56210099Y-30642993D01*
X56117007Y-30549901D01*
X56002993Y-30484075D01*
X55939409Y-30467037D01*
X56571716Y-29834728D01*
X56517550Y-29795375D01*
X56328217Y-29698904D01*
X56299292Y-29689506D01*
X56283140Y-29678462D01*
X56264710Y-29671883D01*
X56254890Y-29659144D01*
X56241616Y-29650068D01*
X56233999Y-29632045D01*
X56222052Y-29616547D01*
X56220678Y-29600523D01*
X56214418Y-29585710D01*
X56217754Y-29566429D01*
X56216083Y-29546932D01*
X56223590Y-29532708D01*
X56226333Y-29516863D01*
X56239563Y-29502447D01*
X56248698Y-29485142D01*
X56267191Y-29471504D01*
X59380000Y-29471504D01*
X59380000Y-29870000D01*
X60080000Y-29870000D01*
X60080000Y-30370000D01*
X59380000Y-30370000D01*
X59380000Y-30768495D01*
X59418427Y-30961681D01*
X59418430Y-30961693D01*
X59493807Y-31143671D01*
X59493814Y-31143684D01*
X59603248Y-31307462D01*
X59603251Y-31307466D01*
X59742533Y-31446748D01*
X59742537Y-31446751D01*
X59906315Y-31556185D01*
X59906328Y-31556192D01*
X60088308Y-31631569D01*
X60130000Y-31639862D01*
X60130000Y-30836988D01*
X60139940Y-30854205D01*
X60195795Y-30910060D01*
X60264204Y-30949556D01*
X60340504Y-30970000D01*
X60419496Y-30970000D01*
X60495796Y-30949556D01*
X60564205Y-30910060D01*
X60620060Y-30854205D01*
X60630000Y-30836988D01*
X60630000Y-31639862D01*
X60671690Y-31631569D01*
X60671692Y-31631569D01*
X60853671Y-31556192D01*
X60853684Y-31556185D01*
X61017462Y-31446751D01*
X61017466Y-31446748D01*
X61156748Y-31307466D01*
X61156751Y-31307462D01*
X61266185Y-31143684D01*
X61266192Y-31143671D01*
X61341569Y-30961693D01*
X61341572Y-30961681D01*
X61379999Y-30768495D01*
X61380000Y-30768492D01*
X61380000Y-30370000D01*
X60680000Y-30370000D01*
X60680000Y-29870000D01*
X61235536Y-29870000D01*
X61302575Y-29889685D01*
X61342923Y-29932000D01*
X61349482Y-29943361D01*
X61349484Y-29943364D01*
X61349485Y-29943365D01*
X61456635Y-30050515D01*
X61587865Y-30126281D01*
X61734234Y-30165500D01*
X61734236Y-30165500D01*
X61885764Y-30165500D01*
X61885766Y-30165500D01*
X62032135Y-30126281D01*
X62163365Y-30050515D01*
X62270515Y-29943365D01*
X62346281Y-29812135D01*
X62385500Y-29665766D01*
X62385500Y-29514234D01*
X62346281Y-29367865D01*
X62270515Y-29236635D01*
X62163365Y-29129485D01*
X62097750Y-29091602D01*
X62032136Y-29053719D01*
X61948398Y-29031282D01*
X61885766Y-29014500D01*
X61734234Y-29014500D01*
X61587863Y-29053719D01*
X61456635Y-29129485D01*
X61450189Y-29134432D01*
X61448099Y-29131709D01*
X61400217Y-29157466D01*
X61330558Y-29152043D01*
X61274888Y-29109821D01*
X61269299Y-29100976D01*
X61156751Y-28932537D01*
X61156748Y-28932533D01*
X61017466Y-28793251D01*
X61017462Y-28793248D01*
X60853684Y-28683814D01*
X60853671Y-28683807D01*
X60671691Y-28608429D01*
X60671683Y-28608427D01*
X60630000Y-28600135D01*
X60630000Y-29403011D01*
X60620060Y-29385795D01*
X60564205Y-29329940D01*
X60495796Y-29290444D01*
X60419496Y-29270000D01*
X60340504Y-29270000D01*
X60264204Y-29290444D01*
X60195795Y-29329940D01*
X60139940Y-29385795D01*
X60130000Y-29403011D01*
X60130000Y-28600136D01*
X60129999Y-28600135D01*
X60088316Y-28608427D01*
X60088308Y-28608429D01*
X59906328Y-28683807D01*
X59906315Y-28683814D01*
X59742537Y-28793248D01*
X59742533Y-28793251D01*
X59603251Y-28932533D01*
X59603248Y-28932537D01*
X59493814Y-29096315D01*
X59493807Y-29096328D01*
X59418430Y-29278306D01*
X59418427Y-29278318D01*
X59380000Y-29471504D01*
X56267191Y-29471504D01*
X56269578Y-29469744D01*
X56273577Y-29465388D01*
X56276651Y-29463594D01*
X56278965Y-29462287D01*
X56412994Y-29393996D01*
X56559501Y-29287553D01*
X56687553Y-29159501D01*
X56793996Y-29012994D01*
X56876211Y-28851639D01*
X56932171Y-28679409D01*
X56946765Y-28587259D01*
X56960500Y-28500551D01*
X56960500Y-28319448D01*
X56944019Y-28215397D01*
X56932171Y-28140591D01*
X56876211Y-27968361D01*
X56876211Y-27968360D01*
X56847740Y-27912484D01*
X56793996Y-27807006D01*
X56731401Y-27720851D01*
X56687558Y-27660505D01*
X56687554Y-27660500D01*
X56559499Y-27532445D01*
X56559494Y-27532441D01*
X56412997Y-27426006D01*
X56412996Y-27426005D01*
X56412994Y-27426004D01*
X56361300Y-27399664D01*
X56251639Y-27343788D01*
X56251636Y-27343787D01*
X56079410Y-27287829D01*
X55947728Y-27266972D01*
X55884594Y-27237042D01*
X55847663Y-27177731D01*
X55848661Y-27107868D01*
X55887271Y-27049636D01*
X55951235Y-27021522D01*
X55967120Y-27020499D01*
X56704864Y-27020499D01*
X56704879Y-27020497D01*
X56704882Y-27020497D01*
X56729987Y-27017586D01*
X56729988Y-27017585D01*
X56729991Y-27017585D01*
X56832765Y-26972206D01*
X56912206Y-26892765D01*
X56957585Y-26789991D01*
X56960500Y-26764865D01*
X56960499Y-25690000D01*
X56960499Y-25124500D01*
X56980183Y-25057461D01*
X57032987Y-25011706D01*
X57084499Y-25000500D01*
X59376917Y-25000500D01*
X59443956Y-25020185D01*
G37*
%TD.AperFunction*%
%TA.AperFunction,Conductor*%
G36*
X64234075Y-74082993D02*
G01*
X64299901Y-74197007D01*
X64392993Y-74290099D01*
X64507007Y-74355925D01*
X64570591Y-74372962D01*
X63980373Y-74963181D01*
X63919050Y-74996666D01*
X63892692Y-74999500D01*
X63414210Y-74999500D01*
X63347171Y-74979815D01*
X63301416Y-74927011D01*
X63290723Y-74864236D01*
X63292568Y-74843999D01*
X63307585Y-74809991D01*
X63310500Y-74784865D01*
X63310499Y-74647428D01*
X63311012Y-74641815D01*
X63321865Y-74614368D01*
X63330183Y-74586040D01*
X63334570Y-74582237D01*
X63336705Y-74576841D01*
X63360674Y-74559619D01*
X63382987Y-74540285D01*
X63388733Y-74539458D01*
X63393447Y-74536072D01*
X63422922Y-74534542D01*
X63452145Y-74530341D01*
X63457426Y-74532752D01*
X63463223Y-74532452D01*
X63488846Y-74547101D01*
X63515701Y-74559365D01*
X63520077Y-74564956D01*
X63523879Y-74567130D01*
X63528058Y-74575154D01*
X63542495Y-74593600D01*
X63542829Y-74593396D01*
X63544607Y-74596297D01*
X63544977Y-74596770D01*
X63545373Y-74597547D01*
X63584728Y-74651716D01*
X64217037Y-74019408D01*
X64234075Y-74082993D01*
G37*
%TD.AperFunction*%
%TA.AperFunction,Conductor*%
G36*
X65815270Y-74651717D02*
G01*
X65815270Y-74651716D01*
X65854622Y-74597554D01*
X65951095Y-74408217D01*
X65960492Y-74379295D01*
X65999928Y-74321618D01*
X66064286Y-74294419D01*
X66133133Y-74306331D01*
X66184610Y-74353574D01*
X66188908Y-74361314D01*
X66256004Y-74492995D01*
X66362441Y-74639494D01*
X66362445Y-74639499D01*
X66490500Y-74767554D01*
X66490505Y-74767558D01*
X66500998Y-74775182D01*
X66543664Y-74830512D01*
X66549643Y-74900125D01*
X66517037Y-74961920D01*
X66456199Y-74996277D01*
X66428113Y-74999500D01*
X65507308Y-74999500D01*
X65440269Y-74979815D01*
X65419627Y-74963181D01*
X64829408Y-74372962D01*
X64892993Y-74355925D01*
X65007007Y-74290099D01*
X65100099Y-74197007D01*
X65165925Y-74082993D01*
X65182962Y-74019408D01*
X65815270Y-74651717D01*
G37*
%TD.AperFunction*%
%TA.AperFunction,Conductor*%
G36*
X74663181Y-69769627D02*
G01*
X74696666Y-69830950D01*
X74699500Y-69857308D01*
X74699500Y-70778113D01*
X74679815Y-70845152D01*
X74627011Y-70890907D01*
X74557853Y-70900851D01*
X74494297Y-70871826D01*
X74475182Y-70850998D01*
X74467558Y-70840505D01*
X74467554Y-70840500D01*
X74339499Y-70712445D01*
X74339494Y-70712441D01*
X74192995Y-70606004D01*
X74061314Y-70538908D01*
X74010519Y-70490934D01*
X73993724Y-70423113D01*
X74016262Y-70356978D01*
X74070977Y-70313527D01*
X74079295Y-70310492D01*
X74108217Y-70301095D01*
X74297554Y-70204622D01*
X74351716Y-70165270D01*
X74351717Y-70165270D01*
X73719408Y-69532962D01*
X73782993Y-69515925D01*
X73897007Y-69450099D01*
X73990099Y-69357007D01*
X74055925Y-69242993D01*
X74072962Y-69179408D01*
X74663181Y-69769627D01*
G37*
%TD.AperFunction*%
%TA.AperFunction,Conductor*%
G36*
X68480754Y-61756915D02*
G01*
X68491820Y-61766734D01*
X71015566Y-64290480D01*
X71106891Y-64343207D01*
X71208752Y-64370500D01*
X72426840Y-64370500D01*
X72493879Y-64390185D01*
X72537325Y-64438205D01*
X72603824Y-64568716D01*
X72606006Y-64572997D01*
X72712441Y-64719494D01*
X72712445Y-64719499D01*
X72840500Y-64847554D01*
X72840505Y-64847558D01*
X72893297Y-64885913D01*
X72987006Y-64953996D01*
X73092484Y-65007740D01*
X73148360Y-65036211D01*
X73148363Y-65036212D01*
X73234476Y-65064191D01*
X73320591Y-65092171D01*
X73393639Y-65103740D01*
X73480678Y-65117527D01*
X73543813Y-65147456D01*
X73580744Y-65206768D01*
X73579746Y-65276631D01*
X73541136Y-65334863D01*
X73480678Y-65362473D01*
X73320589Y-65387829D01*
X73148363Y-65443787D01*
X73148360Y-65443788D01*
X72987002Y-65526006D01*
X72840505Y-65632441D01*
X72840500Y-65632445D01*
X72712445Y-65760500D01*
X72712441Y-65760505D01*
X72606006Y-65907002D01*
X72523788Y-66068360D01*
X72523787Y-66068363D01*
X72467829Y-66240589D01*
X72439500Y-66419448D01*
X72439500Y-66600551D01*
X72467829Y-66779410D01*
X72523787Y-66951636D01*
X72523788Y-66951639D01*
X72606006Y-67112997D01*
X72712441Y-67259494D01*
X72712445Y-67259499D01*
X72840500Y-67387554D01*
X72840505Y-67387558D01*
X72968287Y-67480396D01*
X72987006Y-67493996D01*
X73088780Y-67545853D01*
X73118684Y-67561090D01*
X73169480Y-67609065D01*
X73186275Y-67676886D01*
X73163737Y-67743021D01*
X73109022Y-67786472D01*
X73100708Y-67789506D01*
X73071781Y-67798905D01*
X72882439Y-67895380D01*
X72828282Y-67934727D01*
X72828282Y-67934728D01*
X73460591Y-68567037D01*
X73397007Y-68584075D01*
X73282993Y-68649901D01*
X73189901Y-68742993D01*
X73124075Y-68857007D01*
X73107037Y-68920591D01*
X72474728Y-68288282D01*
X72474727Y-68288282D01*
X72435380Y-68342439D01*
X72338904Y-68531782D01*
X72273242Y-68733869D01*
X72273242Y-68733872D01*
X72246973Y-68899728D01*
X72217044Y-68962863D01*
X72157732Y-68999794D01*
X72087870Y-68998796D01*
X72029637Y-68960186D01*
X72001523Y-68896222D01*
X72000500Y-68880330D01*
X72000500Y-66162729D01*
X72000501Y-66162716D01*
X72000501Y-66047274D01*
X72000501Y-66047273D01*
X71973207Y-65945413D01*
X71940181Y-65888211D01*
X71920480Y-65854087D01*
X71845913Y-65779520D01*
X71845910Y-65779518D01*
X70025965Y-63959573D01*
X68161315Y-62094922D01*
X68127830Y-62033599D01*
X68132814Y-61963907D01*
X68174686Y-61907974D01*
X68185087Y-61901113D01*
X68185905Y-61900484D01*
X68185913Y-61900480D01*
X68300542Y-61785851D01*
X68300546Y-61785843D01*
X68305490Y-61779402D01*
X68308216Y-61781493D01*
X68347277Y-61744221D01*
X68415879Y-61730972D01*
X68480754Y-61756915D01*
G37*
%TD.AperFunction*%
%TA.AperFunction,Conductor*%
G36*
X74661917Y-67232959D02*
G01*
X74696277Y-67293796D01*
X74699500Y-67321886D01*
X74699500Y-68242692D01*
X74679815Y-68309731D01*
X74663181Y-68330373D01*
X74072962Y-68920591D01*
X74055925Y-68857007D01*
X73990099Y-68742993D01*
X73897007Y-68649901D01*
X73782993Y-68584075D01*
X73719409Y-68567037D01*
X74351716Y-67934728D01*
X74297550Y-67895375D01*
X74108217Y-67798904D01*
X74079292Y-67789506D01*
X74021616Y-67750068D01*
X73994418Y-67685710D01*
X74006333Y-67616863D01*
X74053577Y-67565388D01*
X74061315Y-67561090D01*
X74192994Y-67493996D01*
X74339501Y-67387553D01*
X74467553Y-67259501D01*
X74475180Y-67249003D01*
X74530508Y-67206336D01*
X74600121Y-67200355D01*
X74661917Y-67232959D01*
G37*
%TD.AperFunction*%
%TA.AperFunction,Conductor*%
G36*
X66538996Y-55913959D02*
G01*
X66541108Y-55916022D01*
X69071998Y-58446912D01*
X69071999Y-58446913D01*
X69146566Y-58521480D01*
X69237892Y-58574207D01*
X69339752Y-58601500D01*
X69339754Y-58601500D01*
X69860246Y-58601500D01*
X69860248Y-58601500D01*
X69962109Y-58574207D01*
X70053434Y-58521480D01*
X72051328Y-56523585D01*
X72112649Y-56490102D01*
X72182341Y-56495086D01*
X72238274Y-56536958D01*
X72261480Y-56591869D01*
X72273242Y-56666128D01*
X72273242Y-56666130D01*
X72338904Y-56868217D01*
X72435375Y-57057550D01*
X72474728Y-57111716D01*
X73107037Y-56479408D01*
X73124075Y-56542993D01*
X73189901Y-56657007D01*
X73282993Y-56750099D01*
X73397007Y-56815925D01*
X73460590Y-56832962D01*
X72828282Y-57465269D01*
X72828282Y-57465270D01*
X72882449Y-57504624D01*
X73071780Y-57601094D01*
X73100705Y-57610492D01*
X73158381Y-57649929D01*
X73185580Y-57714287D01*
X73173667Y-57783134D01*
X73126424Y-57834610D01*
X73118685Y-57838908D01*
X72987004Y-57906004D01*
X72840505Y-58012441D01*
X72840500Y-58012445D01*
X72712445Y-58140500D01*
X72712441Y-58140505D01*
X72606006Y-58287002D01*
X72523788Y-58448360D01*
X72523787Y-58448363D01*
X72467829Y-58620589D01*
X72439500Y-58799448D01*
X72439500Y-58980551D01*
X72467829Y-59159410D01*
X72523787Y-59331636D01*
X72523788Y-59331639D01*
X72606006Y-59492997D01*
X72712441Y-59639494D01*
X72712445Y-59639499D01*
X72840500Y-59767554D01*
X72840505Y-59767558D01*
X72968287Y-59860396D01*
X72987006Y-59873996D01*
X73092484Y-59927740D01*
X73148360Y-59956211D01*
X73148363Y-59956212D01*
X73234476Y-59984191D01*
X73320591Y-60012171D01*
X73393639Y-60023740D01*
X73480678Y-60037527D01*
X73543813Y-60067456D01*
X73580744Y-60126768D01*
X73579746Y-60196631D01*
X73541136Y-60254863D01*
X73480678Y-60282473D01*
X73320589Y-60307829D01*
X73148363Y-60363787D01*
X73148360Y-60363788D01*
X72987002Y-60446006D01*
X72840505Y-60552441D01*
X72840500Y-60552445D01*
X72712445Y-60680500D01*
X72712441Y-60680505D01*
X72606006Y-60827002D01*
X72523788Y-60988360D01*
X72523787Y-60988363D01*
X72467829Y-61160589D01*
X72439500Y-61339448D01*
X72439500Y-61520551D01*
X72467829Y-61699410D01*
X72523787Y-61871636D01*
X72523788Y-61871639D01*
X72606006Y-62032997D01*
X72712441Y-62179494D01*
X72712445Y-62179499D01*
X72840500Y-62307554D01*
X72840505Y-62307558D01*
X72968287Y-62400396D01*
X72987006Y-62413996D01*
X73092484Y-62467740D01*
X73148360Y-62496211D01*
X73148363Y-62496212D01*
X73234476Y-62524191D01*
X73320591Y-62552171D01*
X73393639Y-62563740D01*
X73480678Y-62577527D01*
X73543813Y-62607456D01*
X73580744Y-62666768D01*
X73579746Y-62736631D01*
X73541136Y-62794863D01*
X73480678Y-62822473D01*
X73320589Y-62847829D01*
X73148363Y-62903787D01*
X73148360Y-62903788D01*
X72987002Y-62986006D01*
X72840505Y-63092441D01*
X72840500Y-63092445D01*
X72712445Y-63220500D01*
X72712441Y-63220505D01*
X72606006Y-63367002D01*
X72537325Y-63501795D01*
X72489350Y-63552591D01*
X72426840Y-63569500D01*
X71478734Y-63569500D01*
X71411695Y-63549815D01*
X71391053Y-63533181D01*
X66224733Y-58366861D01*
X66191248Y-58305538D01*
X66188414Y-58279180D01*
X66188414Y-56800098D01*
X66208099Y-56733059D01*
X66224733Y-56712417D01*
X66241785Y-56695365D01*
X66268434Y-56668716D01*
X66347491Y-56531784D01*
X66388414Y-56379057D01*
X66388414Y-56220943D01*
X66347491Y-56068216D01*
X66346041Y-56065704D01*
X66345462Y-56063319D01*
X66344380Y-56060706D01*
X66344787Y-56060537D01*
X66329567Y-55997804D01*
X66352419Y-55931777D01*
X66407339Y-55888586D01*
X66476893Y-55881944D01*
X66538996Y-55913959D01*
G37*
%TD.AperFunction*%
%TA.AperFunction,Conductor*%
G36*
X65435400Y-58722876D02*
G01*
X65474270Y-58749184D01*
X67753265Y-61028179D01*
X67757378Y-61035712D01*
X67764289Y-61040805D01*
X67773870Y-61065914D01*
X67786750Y-61089502D01*
X67786137Y-61098063D01*
X67789198Y-61106084D01*
X67783683Y-61132385D01*
X67781766Y-61159194D01*
X67776621Y-61166066D01*
X67774860Y-61174466D01*
X67753922Y-61202879D01*
X67742129Y-61214850D01*
X67734149Y-61219458D01*
X67619520Y-61334087D01*
X67612222Y-61346727D01*
X67601096Y-61358022D01*
X67540027Y-61391967D01*
X67470300Y-61387507D01*
X67425077Y-61358684D01*
X65194280Y-59127887D01*
X65160795Y-59066564D01*
X65165779Y-58996872D01*
X65177231Y-58976202D01*
X65176457Y-58975755D01*
X65229210Y-58884380D01*
X65259577Y-58831784D01*
X65266815Y-58804771D01*
X65303178Y-58745112D01*
X65366024Y-58714582D01*
X65435400Y-58722876D01*
G37*
%TD.AperFunction*%
%TA.AperFunction,Conductor*%
G36*
X65340065Y-57602461D02*
G01*
X65380594Y-57659375D01*
X65387414Y-57699932D01*
X65387414Y-58138816D01*
X65367729Y-58205855D01*
X65314925Y-58251610D01*
X65245767Y-58261554D01*
X65182211Y-58232529D01*
X65175733Y-58226497D01*
X65068717Y-58119481D01*
X65068712Y-58119477D01*
X64993773Y-58076211D01*
X64945557Y-58025644D01*
X64932335Y-57957037D01*
X64958303Y-57892172D01*
X64968092Y-57881142D01*
X64968711Y-57880522D01*
X64968716Y-57880520D01*
X65080520Y-57768716D01*
X65156028Y-57637931D01*
X65206593Y-57589717D01*
X65275200Y-57576493D01*
X65340065Y-57602461D01*
G37*
%TD.AperFunction*%
%TA.AperFunction,Conductor*%
G36*
X74663181Y-57069627D02*
G01*
X74696666Y-57130950D01*
X74699500Y-57157308D01*
X74699500Y-58078113D01*
X74679815Y-58145152D01*
X74627011Y-58190907D01*
X74557853Y-58200851D01*
X74494297Y-58171826D01*
X74475182Y-58150998D01*
X74467558Y-58140505D01*
X74467554Y-58140500D01*
X74339499Y-58012445D01*
X74339494Y-58012441D01*
X74192995Y-57906004D01*
X74061314Y-57838908D01*
X74010519Y-57790934D01*
X73993724Y-57723113D01*
X74016262Y-57656978D01*
X74070977Y-57613527D01*
X74079295Y-57610492D01*
X74108217Y-57601095D01*
X74297554Y-57504622D01*
X74351716Y-57465270D01*
X74351717Y-57465270D01*
X73719408Y-56832962D01*
X73782993Y-56815925D01*
X73897007Y-56750099D01*
X73990099Y-56657007D01*
X74055925Y-56542993D01*
X74072962Y-56479408D01*
X74663181Y-57069627D01*
G37*
%TD.AperFunction*%
%TA.AperFunction,Conductor*%
G36*
X64297240Y-52500353D02*
G01*
X64311220Y-52500803D01*
X64329037Y-52513079D01*
X64349122Y-52521117D01*
X64360164Y-52530916D01*
X66418267Y-54589019D01*
X66451752Y-54650342D01*
X66446768Y-54720034D01*
X66404896Y-54775967D01*
X66392586Y-54784087D01*
X66331287Y-54819477D01*
X66331282Y-54819481D01*
X66219481Y-54931282D01*
X66219475Y-54931290D01*
X66140426Y-55068209D01*
X66140423Y-55068216D01*
X66099500Y-55220943D01*
X66099500Y-55379057D01*
X66134067Y-55508061D01*
X66140423Y-55531783D01*
X66140425Y-55531788D01*
X66155339Y-55557621D01*
X66171810Y-55625521D01*
X66148957Y-55691548D01*
X66094035Y-55734737D01*
X66024482Y-55741378D01*
X66015858Y-55739394D01*
X65979795Y-55729731D01*
X65866971Y-55699500D01*
X65708857Y-55699500D01*
X65556130Y-55740423D01*
X65556123Y-55740426D01*
X65419204Y-55819475D01*
X65419196Y-55819481D01*
X65307395Y-55931282D01*
X65307389Y-55931290D01*
X65228340Y-56068209D01*
X65228337Y-56068216D01*
X65187414Y-56220943D01*
X65187414Y-56379057D01*
X65217169Y-56490102D01*
X65228337Y-56531783D01*
X65228340Y-56531790D01*
X65307389Y-56668709D01*
X65307395Y-56668717D01*
X65351095Y-56712417D01*
X65384580Y-56773740D01*
X65387414Y-56800098D01*
X65387414Y-57100067D01*
X65367729Y-57167106D01*
X65314925Y-57212861D01*
X65245767Y-57222805D01*
X65182211Y-57193780D01*
X65156027Y-57162066D01*
X65080524Y-57031290D01*
X65080518Y-57031282D01*
X64968717Y-56919481D01*
X64968716Y-56919480D01*
X64918339Y-56890395D01*
X64870124Y-56839829D01*
X64856900Y-56771222D01*
X64860562Y-56750922D01*
X64868530Y-56721190D01*
X64868530Y-56563076D01*
X64827607Y-56410349D01*
X64784052Y-56334908D01*
X64748554Y-56273423D01*
X64748548Y-56273415D01*
X64636747Y-56161614D01*
X64636739Y-56161608D01*
X64499820Y-56082559D01*
X64499816Y-56082557D01*
X64499814Y-56082556D01*
X64499811Y-56082555D01*
X64499806Y-56082553D01*
X64483440Y-56078167D01*
X64423781Y-56041799D01*
X64395765Y-55990489D01*
X64363839Y-55871340D01*
X64351643Y-55850215D01*
X64284786Y-55734414D01*
X64284780Y-55734406D01*
X64172980Y-55622606D01*
X64172978Y-55622604D01*
X64155432Y-55612473D01*
X64148283Y-55608346D01*
X64100069Y-55557777D01*
X64086286Y-55500960D01*
X64086286Y-52685884D01*
X64094271Y-52658688D01*
X64099204Y-52630778D01*
X64104722Y-52623095D01*
X64105971Y-52618845D01*
X64119228Y-52601715D01*
X64120877Y-52599930D01*
X64166306Y-52554502D01*
X64172023Y-52544598D01*
X64181425Y-52534428D01*
X64199992Y-52523320D01*
X64215649Y-52508389D01*
X64229382Y-52505740D01*
X64241386Y-52498560D01*
X64263009Y-52499254D01*
X64284254Y-52495157D01*
X64297240Y-52500353D01*
G37*
%TD.AperFunction*%
%TA.AperFunction,Conductor*%
G36*
X74661917Y-54532959D02*
G01*
X74696277Y-54593796D01*
X74699500Y-54621886D01*
X74699500Y-55542692D01*
X74679815Y-55609731D01*
X74663181Y-55630373D01*
X74072962Y-56220591D01*
X74055925Y-56157007D01*
X73990099Y-56042993D01*
X73897007Y-55949901D01*
X73782993Y-55884075D01*
X73719408Y-55867037D01*
X74351716Y-55234728D01*
X74297550Y-55195375D01*
X74108217Y-55098904D01*
X74079292Y-55089506D01*
X74021616Y-55050068D01*
X73994418Y-54985710D01*
X74006333Y-54916863D01*
X74053577Y-54865388D01*
X74061315Y-54861090D01*
X74192994Y-54793996D01*
X74339501Y-54687553D01*
X74467553Y-54559501D01*
X74475180Y-54549003D01*
X74530508Y-54506336D01*
X74600121Y-54500355D01*
X74661917Y-54532959D01*
G37*
%TD.AperFunction*%
%TA.AperFunction,Conductor*%
G36*
X72203029Y-43165876D02*
G01*
X72258962Y-43207748D01*
X72283379Y-43273212D01*
X72277628Y-43320370D01*
X72273243Y-43333866D01*
X72273242Y-43333872D01*
X72240000Y-43543753D01*
X72240000Y-43756246D01*
X72273242Y-43966127D01*
X72273242Y-43966130D01*
X72338904Y-44168217D01*
X72435375Y-44357550D01*
X72474728Y-44411716D01*
X73107037Y-43779408D01*
X73124075Y-43842993D01*
X73189901Y-43957007D01*
X73282993Y-44050099D01*
X73397007Y-44115925D01*
X73460590Y-44132962D01*
X72828282Y-44765269D01*
X72828282Y-44765270D01*
X72882449Y-44804624D01*
X73071780Y-44901094D01*
X73100705Y-44910492D01*
X73158381Y-44949929D01*
X73185580Y-45014287D01*
X73173667Y-45083134D01*
X73126424Y-45134610D01*
X73118685Y-45138908D01*
X72987004Y-45206004D01*
X72840505Y-45312441D01*
X72840500Y-45312445D01*
X72712445Y-45440500D01*
X72712441Y-45440505D01*
X72606006Y-45587002D01*
X72523788Y-45748360D01*
X72523787Y-45748363D01*
X72467829Y-45920589D01*
X72439500Y-46099448D01*
X72439500Y-46280551D01*
X72467829Y-46459412D01*
X72514575Y-46603283D01*
X72516570Y-46673124D01*
X72484325Y-46729281D01*
X71014181Y-48199426D01*
X70952858Y-48232911D01*
X70883166Y-48227927D01*
X70827233Y-48186055D01*
X70802816Y-48120591D01*
X70802500Y-48111745D01*
X70802500Y-44515254D01*
X70822185Y-44448215D01*
X70838814Y-44427578D01*
X72072017Y-43194375D01*
X72133337Y-43160892D01*
X72203029Y-43165876D01*
G37*
%TD.AperFunction*%
%TA.AperFunction,Conductor*%
G36*
X74663181Y-44369627D02*
G01*
X74696666Y-44430950D01*
X74699500Y-44457308D01*
X74699500Y-45378113D01*
X74679815Y-45445152D01*
X74627011Y-45490907D01*
X74557853Y-45500851D01*
X74494297Y-45471826D01*
X74475182Y-45450998D01*
X74467558Y-45440505D01*
X74467554Y-45440500D01*
X74339499Y-45312445D01*
X74339494Y-45312441D01*
X74192995Y-45206004D01*
X74061314Y-45138908D01*
X74010519Y-45090934D01*
X73993724Y-45023113D01*
X74016262Y-44956978D01*
X74070977Y-44913527D01*
X74079295Y-44910492D01*
X74108217Y-44901095D01*
X74297554Y-44804622D01*
X74351716Y-44765270D01*
X74351717Y-44765270D01*
X73719408Y-44132962D01*
X73782993Y-44115925D01*
X73897007Y-44050099D01*
X73990099Y-43957007D01*
X74055925Y-43842993D01*
X74072962Y-43779408D01*
X74663181Y-44369627D01*
G37*
%TD.AperFunction*%
%TA.AperFunction,Conductor*%
G36*
X74661917Y-41832959D02*
G01*
X74696277Y-41893796D01*
X74699500Y-41921886D01*
X74699500Y-42842692D01*
X74679815Y-42909731D01*
X74663181Y-42930373D01*
X74072962Y-43520591D01*
X74055925Y-43457007D01*
X73990099Y-43342993D01*
X73897007Y-43249901D01*
X73782993Y-43184075D01*
X73719408Y-43167037D01*
X74351716Y-42534728D01*
X74297550Y-42495375D01*
X74108217Y-42398904D01*
X74079292Y-42389506D01*
X74021616Y-42350068D01*
X73994418Y-42285710D01*
X74006333Y-42216863D01*
X74053577Y-42165388D01*
X74061315Y-42161090D01*
X74192994Y-42093996D01*
X74339501Y-41987553D01*
X74467553Y-41859501D01*
X74475180Y-41849003D01*
X74530508Y-41806336D01*
X74600121Y-41800355D01*
X74661917Y-41832959D01*
G37*
%TD.AperFunction*%
%TA.AperFunction,Conductor*%
G36*
X72203030Y-30465874D02*
G01*
X72258963Y-30507746D01*
X72283380Y-30573210D01*
X72277628Y-30620370D01*
X72273244Y-30633863D01*
X72273242Y-30633872D01*
X72240000Y-30843753D01*
X72240000Y-31056246D01*
X72273242Y-31266127D01*
X72273242Y-31266130D01*
X72338904Y-31468217D01*
X72435375Y-31657550D01*
X72474728Y-31711716D01*
X73107037Y-31079408D01*
X73124075Y-31142993D01*
X73189901Y-31257007D01*
X73282993Y-31350099D01*
X73397007Y-31415925D01*
X73460590Y-31432962D01*
X72828282Y-32065269D01*
X72828282Y-32065270D01*
X72882449Y-32104624D01*
X73071780Y-32201094D01*
X73100705Y-32210492D01*
X73158381Y-32249929D01*
X73185580Y-32314287D01*
X73173667Y-32383134D01*
X73126424Y-32434610D01*
X73118685Y-32438908D01*
X72987004Y-32506004D01*
X72840505Y-32612441D01*
X72840500Y-32612445D01*
X72712445Y-32740500D01*
X72712441Y-32740505D01*
X72606006Y-32887002D01*
X72523788Y-33048360D01*
X72523787Y-33048363D01*
X72467829Y-33220589D01*
X72439500Y-33399448D01*
X72439500Y-33580551D01*
X72467829Y-33759410D01*
X72514575Y-33903281D01*
X72516570Y-33973122D01*
X72484325Y-34029280D01*
X66484640Y-40028967D01*
X66423317Y-40062452D01*
X66396959Y-40065286D01*
X65681487Y-40065286D01*
X65579622Y-40092580D01*
X65572112Y-40095691D01*
X65570783Y-40092482D01*
X65518211Y-40105062D01*
X65452256Y-40082003D01*
X65409238Y-40026946D01*
X65400500Y-39981222D01*
X65400500Y-37217253D01*
X65420185Y-37150214D01*
X65436814Y-37129577D01*
X72072017Y-30494373D01*
X72133338Y-30460890D01*
X72203030Y-30465874D01*
G37*
%TD.AperFunction*%
%TA.AperFunction,Conductor*%
G36*
X74663181Y-31669627D02*
G01*
X74696666Y-31730950D01*
X74699500Y-31757308D01*
X74699500Y-32678113D01*
X74679815Y-32745152D01*
X74627011Y-32790907D01*
X74557853Y-32800851D01*
X74494297Y-32771826D01*
X74475182Y-32750998D01*
X74467558Y-32740505D01*
X74467554Y-32740500D01*
X74339499Y-32612445D01*
X74339494Y-32612441D01*
X74192995Y-32506004D01*
X74061314Y-32438908D01*
X74010519Y-32390934D01*
X73993724Y-32323113D01*
X74016262Y-32256978D01*
X74070977Y-32213527D01*
X74079295Y-32210492D01*
X74108217Y-32201095D01*
X74297554Y-32104622D01*
X74351716Y-32065270D01*
X74351717Y-32065270D01*
X73719408Y-31432962D01*
X73782993Y-31415925D01*
X73897007Y-31350099D01*
X73990099Y-31257007D01*
X74055925Y-31142993D01*
X74072962Y-31079408D01*
X74663181Y-31669627D01*
G37*
%TD.AperFunction*%
%TA.AperFunction,Conductor*%
G36*
X55344075Y-31142993D02*
G01*
X55409901Y-31257007D01*
X55502993Y-31350099D01*
X55617007Y-31415925D01*
X55680590Y-31432962D01*
X55048282Y-32065269D01*
X55048282Y-32065270D01*
X55102449Y-32104624D01*
X55291780Y-32201094D01*
X55320705Y-32210492D01*
X55378381Y-32249929D01*
X55405580Y-32314287D01*
X55393667Y-32383134D01*
X55346424Y-32434610D01*
X55338685Y-32438908D01*
X55207004Y-32506004D01*
X55060505Y-32612441D01*
X55060500Y-32612445D01*
X54932445Y-32740500D01*
X54932441Y-32740505D01*
X54924818Y-32750998D01*
X54869488Y-32793664D01*
X54799875Y-32799643D01*
X54738080Y-32767037D01*
X54703723Y-32706199D01*
X54700500Y-32678113D01*
X54700500Y-31757308D01*
X54720185Y-31690269D01*
X54736819Y-31669627D01*
X55327037Y-31079408D01*
X55344075Y-31142993D01*
G37*
%TD.AperFunction*%
%TA.AperFunction,Conductor*%
G36*
X54905703Y-29128173D02*
G01*
X54924818Y-29149001D01*
X54929066Y-29154847D01*
X54932446Y-29159500D01*
X55060500Y-29287554D01*
X55060505Y-29287558D01*
X55188287Y-29380396D01*
X55207006Y-29393996D01*
X55308780Y-29445853D01*
X55338684Y-29461090D01*
X55389480Y-29509065D01*
X55406275Y-29576886D01*
X55383737Y-29643021D01*
X55329022Y-29686472D01*
X55320708Y-29689506D01*
X55291781Y-29698905D01*
X55102439Y-29795380D01*
X55048282Y-29834727D01*
X55048282Y-29834728D01*
X55680591Y-30467037D01*
X55617007Y-30484075D01*
X55502993Y-30549901D01*
X55409901Y-30642993D01*
X55344075Y-30757007D01*
X55327037Y-30820591D01*
X54736819Y-30230373D01*
X54703334Y-30169050D01*
X54700500Y-30142692D01*
X54700500Y-29221886D01*
X54720185Y-29154847D01*
X54772989Y-29109092D01*
X54842147Y-29099148D01*
X54905703Y-29128173D01*
G37*
%TD.AperFunction*%
%TA.AperFunction,Conductor*%
G36*
X74661917Y-29132959D02*
G01*
X74696277Y-29193796D01*
X74699500Y-29221886D01*
X74699500Y-30142692D01*
X74679815Y-30209731D01*
X74663181Y-30230373D01*
X74072962Y-30820591D01*
X74055925Y-30757007D01*
X73990099Y-30642993D01*
X73897007Y-30549901D01*
X73782993Y-30484075D01*
X73719408Y-30467037D01*
X74351716Y-29834728D01*
X74297550Y-29795375D01*
X74108217Y-29698904D01*
X74079292Y-29689506D01*
X74021616Y-29650068D01*
X73994418Y-29585710D01*
X74006333Y-29516863D01*
X74053577Y-29465388D01*
X74061315Y-29461090D01*
X74070182Y-29456572D01*
X74192994Y-29393996D01*
X74339501Y-29287553D01*
X74467553Y-29159501D01*
X74475180Y-29149003D01*
X74530508Y-29106336D01*
X74600121Y-29100355D01*
X74661917Y-29132959D01*
G37*
%TD.AperFunction*%
%TD*%
M02*
