%TF.GenerationSoftware,KiCad,Pcbnew,9.0.5*%
%TF.CreationDate,2025-12-10T19:07:17-06:00*%
%TF.ProjectId,KBoardV1,4b426f61-7264-4563-912e-6b696361645f,rev?*%
%TF.SameCoordinates,Original*%
%TF.FileFunction,Legend,Top*%
%TF.FilePolarity,Positive*%
%FSLAX46Y46*%
G04 Gerber Fmt 4.6, Leading zero omitted, Abs format (unit mm)*
G04 Created by KiCad (PCBNEW 9.0.5) date 2025-12-10 19:07:17*
%MOMM*%
%LPD*%
G01*
G04 APERTURE LIST*
%ADD10C,0.037500*%
%ADD11C,0.150000*%
%ADD12C,0.000600*%
%ADD13C,0.100000*%
%ADD14C,0.120000*%
G04 APERTURE END LIST*
D10*
X71529097Y-75337233D02*
X71529097Y-75108662D01*
X71929097Y-75222948D02*
X71529097Y-75222948D01*
X71929097Y-74975328D02*
X71529097Y-74975328D01*
X71929097Y-74803900D02*
X71719573Y-74803900D01*
X71719573Y-74803900D02*
X71681478Y-74822947D01*
X71681478Y-74822947D02*
X71662430Y-74861043D01*
X71662430Y-74861043D02*
X71662430Y-74918186D01*
X71662430Y-74918186D02*
X71681478Y-74956281D01*
X71681478Y-74956281D02*
X71700526Y-74975328D01*
X71929097Y-74613423D02*
X71662430Y-74613423D01*
X71529097Y-74613423D02*
X71548145Y-74632471D01*
X71548145Y-74632471D02*
X71567192Y-74613423D01*
X71567192Y-74613423D02*
X71548145Y-74594376D01*
X71548145Y-74594376D02*
X71529097Y-74613423D01*
X71529097Y-74613423D02*
X71567192Y-74613423D01*
X71910050Y-74441995D02*
X71929097Y-74403900D01*
X71929097Y-74403900D02*
X71929097Y-74327709D01*
X71929097Y-74327709D02*
X71910050Y-74289614D01*
X71910050Y-74289614D02*
X71871954Y-74270566D01*
X71871954Y-74270566D02*
X71852907Y-74270566D01*
X71852907Y-74270566D02*
X71814811Y-74289614D01*
X71814811Y-74289614D02*
X71795764Y-74327709D01*
X71795764Y-74327709D02*
X71795764Y-74384852D01*
X71795764Y-74384852D02*
X71776716Y-74422947D01*
X71776716Y-74422947D02*
X71738621Y-74441995D01*
X71738621Y-74441995D02*
X71719573Y-74441995D01*
X71719573Y-74441995D02*
X71681478Y-74422947D01*
X71681478Y-74422947D02*
X71662430Y-74384852D01*
X71662430Y-74384852D02*
X71662430Y-74327709D01*
X71662430Y-74327709D02*
X71681478Y-74289614D01*
X71910050Y-73622947D02*
X71929097Y-73661042D01*
X71929097Y-73661042D02*
X71929097Y-73737233D01*
X71929097Y-73737233D02*
X71910050Y-73775328D01*
X71910050Y-73775328D02*
X71891002Y-73794375D01*
X71891002Y-73794375D02*
X71852907Y-73813423D01*
X71852907Y-73813423D02*
X71738621Y-73813423D01*
X71738621Y-73813423D02*
X71700526Y-73794375D01*
X71700526Y-73794375D02*
X71681478Y-73775328D01*
X71681478Y-73775328D02*
X71662430Y-73737233D01*
X71662430Y-73737233D02*
X71662430Y-73661042D01*
X71662430Y-73661042D02*
X71681478Y-73622947D01*
X71929097Y-73451518D02*
X71662430Y-73451518D01*
X71529097Y-73451518D02*
X71548145Y-73470566D01*
X71548145Y-73470566D02*
X71567192Y-73451518D01*
X71567192Y-73451518D02*
X71548145Y-73432471D01*
X71548145Y-73432471D02*
X71529097Y-73451518D01*
X71529097Y-73451518D02*
X71567192Y-73451518D01*
X71929097Y-73261042D02*
X71662430Y-73261042D01*
X71738621Y-73261042D02*
X71700526Y-73241995D01*
X71700526Y-73241995D02*
X71681478Y-73222947D01*
X71681478Y-73222947D02*
X71662430Y-73184852D01*
X71662430Y-73184852D02*
X71662430Y-73146757D01*
X71910050Y-72841995D02*
X71929097Y-72880090D01*
X71929097Y-72880090D02*
X71929097Y-72956281D01*
X71929097Y-72956281D02*
X71910050Y-72994376D01*
X71910050Y-72994376D02*
X71891002Y-73013423D01*
X71891002Y-73013423D02*
X71852907Y-73032471D01*
X71852907Y-73032471D02*
X71738621Y-73032471D01*
X71738621Y-73032471D02*
X71700526Y-73013423D01*
X71700526Y-73013423D02*
X71681478Y-72994376D01*
X71681478Y-72994376D02*
X71662430Y-72956281D01*
X71662430Y-72956281D02*
X71662430Y-72880090D01*
X71662430Y-72880090D02*
X71681478Y-72841995D01*
X71662430Y-72499138D02*
X71929097Y-72499138D01*
X71662430Y-72670566D02*
X71871954Y-72670566D01*
X71871954Y-72670566D02*
X71910050Y-72651519D01*
X71910050Y-72651519D02*
X71929097Y-72613424D01*
X71929097Y-72613424D02*
X71929097Y-72556281D01*
X71929097Y-72556281D02*
X71910050Y-72518185D01*
X71910050Y-72518185D02*
X71891002Y-72499138D01*
X71929097Y-72308661D02*
X71662430Y-72308661D01*
X71529097Y-72308661D02*
X71548145Y-72327709D01*
X71548145Y-72327709D02*
X71567192Y-72308661D01*
X71567192Y-72308661D02*
X71548145Y-72289614D01*
X71548145Y-72289614D02*
X71529097Y-72308661D01*
X71529097Y-72308661D02*
X71567192Y-72308661D01*
X71662430Y-72175328D02*
X71662430Y-72022947D01*
X71529097Y-72118185D02*
X71871954Y-72118185D01*
X71871954Y-72118185D02*
X71910050Y-72099138D01*
X71910050Y-72099138D02*
X71929097Y-72061043D01*
X71929097Y-72061043D02*
X71929097Y-72022947D01*
X71662430Y-71622948D02*
X71929097Y-71546757D01*
X71929097Y-71546757D02*
X71738621Y-71470567D01*
X71738621Y-71470567D02*
X71929097Y-71394376D01*
X71929097Y-71394376D02*
X71662430Y-71318186D01*
X71929097Y-70994376D02*
X71719573Y-70994376D01*
X71719573Y-70994376D02*
X71681478Y-71013423D01*
X71681478Y-71013423D02*
X71662430Y-71051519D01*
X71662430Y-71051519D02*
X71662430Y-71127709D01*
X71662430Y-71127709D02*
X71681478Y-71165804D01*
X71910050Y-70994376D02*
X71929097Y-71032471D01*
X71929097Y-71032471D02*
X71929097Y-71127709D01*
X71929097Y-71127709D02*
X71910050Y-71165804D01*
X71910050Y-71165804D02*
X71871954Y-71184852D01*
X71871954Y-71184852D02*
X71833859Y-71184852D01*
X71833859Y-71184852D02*
X71795764Y-71165804D01*
X71795764Y-71165804D02*
X71776716Y-71127709D01*
X71776716Y-71127709D02*
X71776716Y-71032471D01*
X71776716Y-71032471D02*
X71757669Y-70994376D01*
X71910050Y-70822947D02*
X71929097Y-70784852D01*
X71929097Y-70784852D02*
X71929097Y-70708661D01*
X71929097Y-70708661D02*
X71910050Y-70670566D01*
X71910050Y-70670566D02*
X71871954Y-70651518D01*
X71871954Y-70651518D02*
X71852907Y-70651518D01*
X71852907Y-70651518D02*
X71814811Y-70670566D01*
X71814811Y-70670566D02*
X71795764Y-70708661D01*
X71795764Y-70708661D02*
X71795764Y-70765804D01*
X71795764Y-70765804D02*
X71776716Y-70803899D01*
X71776716Y-70803899D02*
X71738621Y-70822947D01*
X71738621Y-70822947D02*
X71719573Y-70822947D01*
X71719573Y-70822947D02*
X71681478Y-70803899D01*
X71681478Y-70803899D02*
X71662430Y-70765804D01*
X71662430Y-70765804D02*
X71662430Y-70708661D01*
X71662430Y-70708661D02*
X71681478Y-70670566D01*
X71929097Y-70175327D02*
X71662430Y-70175327D01*
X71738621Y-70175327D02*
X71700526Y-70156280D01*
X71700526Y-70156280D02*
X71681478Y-70137232D01*
X71681478Y-70137232D02*
X71662430Y-70099137D01*
X71662430Y-70099137D02*
X71662430Y-70061042D01*
X71910050Y-69775327D02*
X71929097Y-69813423D01*
X71929097Y-69813423D02*
X71929097Y-69889613D01*
X71929097Y-69889613D02*
X71910050Y-69927708D01*
X71910050Y-69927708D02*
X71871954Y-69946756D01*
X71871954Y-69946756D02*
X71719573Y-69946756D01*
X71719573Y-69946756D02*
X71681478Y-69927708D01*
X71681478Y-69927708D02*
X71662430Y-69889613D01*
X71662430Y-69889613D02*
X71662430Y-69813423D01*
X71662430Y-69813423D02*
X71681478Y-69775327D01*
X71681478Y-69775327D02*
X71719573Y-69756280D01*
X71719573Y-69756280D02*
X71757669Y-69756280D01*
X71757669Y-69756280D02*
X71795764Y-69946756D01*
X71662430Y-69622947D02*
X71929097Y-69527709D01*
X71929097Y-69527709D02*
X71662430Y-69432470D01*
X71929097Y-69280089D02*
X71662430Y-69280089D01*
X71529097Y-69280089D02*
X71548145Y-69299137D01*
X71548145Y-69299137D02*
X71567192Y-69280089D01*
X71567192Y-69280089D02*
X71548145Y-69261042D01*
X71548145Y-69261042D02*
X71529097Y-69280089D01*
X71529097Y-69280089D02*
X71567192Y-69280089D01*
X71910050Y-68937232D02*
X71929097Y-68975328D01*
X71929097Y-68975328D02*
X71929097Y-69051518D01*
X71929097Y-69051518D02*
X71910050Y-69089613D01*
X71910050Y-69089613D02*
X71871954Y-69108661D01*
X71871954Y-69108661D02*
X71719573Y-69108661D01*
X71719573Y-69108661D02*
X71681478Y-69089613D01*
X71681478Y-69089613D02*
X71662430Y-69051518D01*
X71662430Y-69051518D02*
X71662430Y-68975328D01*
X71662430Y-68975328D02*
X71681478Y-68937232D01*
X71681478Y-68937232D02*
X71719573Y-68918185D01*
X71719573Y-68918185D02*
X71757669Y-68918185D01*
X71757669Y-68918185D02*
X71795764Y-69108661D01*
X71662430Y-68784852D02*
X71929097Y-68708661D01*
X71929097Y-68708661D02*
X71738621Y-68632471D01*
X71738621Y-68632471D02*
X71929097Y-68556280D01*
X71929097Y-68556280D02*
X71662430Y-68480090D01*
X71910050Y-68175327D02*
X71929097Y-68213423D01*
X71929097Y-68213423D02*
X71929097Y-68289613D01*
X71929097Y-68289613D02*
X71910050Y-68327708D01*
X71910050Y-68327708D02*
X71871954Y-68346756D01*
X71871954Y-68346756D02*
X71719573Y-68346756D01*
X71719573Y-68346756D02*
X71681478Y-68327708D01*
X71681478Y-68327708D02*
X71662430Y-68289613D01*
X71662430Y-68289613D02*
X71662430Y-68213423D01*
X71662430Y-68213423D02*
X71681478Y-68175327D01*
X71681478Y-68175327D02*
X71719573Y-68156280D01*
X71719573Y-68156280D02*
X71757669Y-68156280D01*
X71757669Y-68156280D02*
X71795764Y-68346756D01*
X71929097Y-67813423D02*
X71529097Y-67813423D01*
X71910050Y-67813423D02*
X71929097Y-67851518D01*
X71929097Y-67851518D02*
X71929097Y-67927709D01*
X71929097Y-67927709D02*
X71910050Y-67965804D01*
X71910050Y-67965804D02*
X71891002Y-67984851D01*
X71891002Y-67984851D02*
X71852907Y-68003899D01*
X71852907Y-68003899D02*
X71738621Y-68003899D01*
X71738621Y-68003899D02*
X71700526Y-67984851D01*
X71700526Y-67984851D02*
X71681478Y-67965804D01*
X71681478Y-67965804D02*
X71662430Y-67927709D01*
X71662430Y-67927709D02*
X71662430Y-67851518D01*
X71662430Y-67851518D02*
X71681478Y-67813423D01*
X71929097Y-67318184D02*
X71529097Y-67318184D01*
X71681478Y-67318184D02*
X71662430Y-67280089D01*
X71662430Y-67280089D02*
X71662430Y-67203899D01*
X71662430Y-67203899D02*
X71681478Y-67165803D01*
X71681478Y-67165803D02*
X71700526Y-67146756D01*
X71700526Y-67146756D02*
X71738621Y-67127708D01*
X71738621Y-67127708D02*
X71852907Y-67127708D01*
X71852907Y-67127708D02*
X71891002Y-67146756D01*
X71891002Y-67146756D02*
X71910050Y-67165803D01*
X71910050Y-67165803D02*
X71929097Y-67203899D01*
X71929097Y-67203899D02*
X71929097Y-67280089D01*
X71929097Y-67280089D02*
X71910050Y-67318184D01*
X71662430Y-66994375D02*
X71929097Y-66899137D01*
X71662430Y-66803898D02*
X71929097Y-66899137D01*
X71929097Y-66899137D02*
X72024335Y-66937232D01*
X72024335Y-66937232D02*
X72043383Y-66956279D01*
X72043383Y-66956279D02*
X72062430Y-66994375D01*
X71910050Y-66194374D02*
X71929097Y-66232470D01*
X71929097Y-66232470D02*
X71929097Y-66308660D01*
X71929097Y-66308660D02*
X71910050Y-66346755D01*
X71910050Y-66346755D02*
X71871954Y-66365803D01*
X71871954Y-66365803D02*
X71719573Y-66365803D01*
X71719573Y-66365803D02*
X71681478Y-66346755D01*
X71681478Y-66346755D02*
X71662430Y-66308660D01*
X71662430Y-66308660D02*
X71662430Y-66232470D01*
X71662430Y-66232470D02*
X71681478Y-66194374D01*
X71681478Y-66194374D02*
X71719573Y-66175327D01*
X71719573Y-66175327D02*
X71757669Y-66175327D01*
X71757669Y-66175327D02*
X71795764Y-66365803D01*
X71929097Y-66041994D02*
X71662430Y-65832470D01*
X71662430Y-66041994D02*
X71929097Y-65832470D01*
X71929097Y-65508660D02*
X71719573Y-65508660D01*
X71719573Y-65508660D02*
X71681478Y-65527707D01*
X71681478Y-65527707D02*
X71662430Y-65565803D01*
X71662430Y-65565803D02*
X71662430Y-65641993D01*
X71662430Y-65641993D02*
X71681478Y-65680088D01*
X71910050Y-65508660D02*
X71929097Y-65546755D01*
X71929097Y-65546755D02*
X71929097Y-65641993D01*
X71929097Y-65641993D02*
X71910050Y-65680088D01*
X71910050Y-65680088D02*
X71871954Y-65699136D01*
X71871954Y-65699136D02*
X71833859Y-65699136D01*
X71833859Y-65699136D02*
X71795764Y-65680088D01*
X71795764Y-65680088D02*
X71776716Y-65641993D01*
X71776716Y-65641993D02*
X71776716Y-65546755D01*
X71776716Y-65546755D02*
X71757669Y-65508660D01*
X71910050Y-65146755D02*
X71929097Y-65184850D01*
X71929097Y-65184850D02*
X71929097Y-65261041D01*
X71929097Y-65261041D02*
X71910050Y-65299136D01*
X71910050Y-65299136D02*
X71891002Y-65318183D01*
X71891002Y-65318183D02*
X71852907Y-65337231D01*
X71852907Y-65337231D02*
X71738621Y-65337231D01*
X71738621Y-65337231D02*
X71700526Y-65318183D01*
X71700526Y-65318183D02*
X71681478Y-65299136D01*
X71681478Y-65299136D02*
X71662430Y-65261041D01*
X71662430Y-65261041D02*
X71662430Y-65184850D01*
X71662430Y-65184850D02*
X71681478Y-65146755D01*
X71662430Y-65032469D02*
X71662430Y-64880088D01*
X71529097Y-64975326D02*
X71871954Y-64975326D01*
X71871954Y-64975326D02*
X71910050Y-64956279D01*
X71910050Y-64956279D02*
X71929097Y-64918184D01*
X71929097Y-64918184D02*
X71929097Y-64880088D01*
X71929097Y-64689613D02*
X71910050Y-64727708D01*
X71910050Y-64727708D02*
X71871954Y-64746755D01*
X71871954Y-64746755D02*
X71529097Y-64746755D01*
X71662430Y-64575327D02*
X71929097Y-64480089D01*
X71662430Y-64384850D02*
X71929097Y-64480089D01*
X71929097Y-64480089D02*
X72024335Y-64518184D01*
X72024335Y-64518184D02*
X72043383Y-64537231D01*
X72043383Y-64537231D02*
X72062430Y-64575327D01*
X71662430Y-63965803D02*
X71662430Y-63756279D01*
X71662430Y-63756279D02*
X71929097Y-63965803D01*
X71929097Y-63965803D02*
X71929097Y-63756279D01*
X71910050Y-63451516D02*
X71929097Y-63489612D01*
X71929097Y-63489612D02*
X71929097Y-63565802D01*
X71929097Y-63565802D02*
X71910050Y-63603897D01*
X71910050Y-63603897D02*
X71871954Y-63622945D01*
X71871954Y-63622945D02*
X71719573Y-63622945D01*
X71719573Y-63622945D02*
X71681478Y-63603897D01*
X71681478Y-63603897D02*
X71662430Y-63565802D01*
X71662430Y-63565802D02*
X71662430Y-63489612D01*
X71662430Y-63489612D02*
X71681478Y-63451516D01*
X71681478Y-63451516D02*
X71719573Y-63432469D01*
X71719573Y-63432469D02*
X71757669Y-63432469D01*
X71757669Y-63432469D02*
X71795764Y-63622945D01*
X71929097Y-63261040D02*
X71662430Y-63261040D01*
X71738621Y-63261040D02*
X71700526Y-63241993D01*
X71700526Y-63241993D02*
X71681478Y-63222945D01*
X71681478Y-63222945D02*
X71662430Y-63184850D01*
X71662430Y-63184850D02*
X71662430Y-63146755D01*
X71929097Y-62956279D02*
X71910050Y-62994374D01*
X71910050Y-62994374D02*
X71891002Y-63013421D01*
X71891002Y-63013421D02*
X71852907Y-63032469D01*
X71852907Y-63032469D02*
X71738621Y-63032469D01*
X71738621Y-63032469D02*
X71700526Y-63013421D01*
X71700526Y-63013421D02*
X71681478Y-62994374D01*
X71681478Y-62994374D02*
X71662430Y-62956279D01*
X71662430Y-62956279D02*
X71662430Y-62899136D01*
X71662430Y-62899136D02*
X71681478Y-62861040D01*
X71681478Y-62861040D02*
X71700526Y-62841993D01*
X71700526Y-62841993D02*
X71738621Y-62822945D01*
X71738621Y-62822945D02*
X71852907Y-62822945D01*
X71852907Y-62822945D02*
X71891002Y-62841993D01*
X71891002Y-62841993D02*
X71910050Y-62861040D01*
X71910050Y-62861040D02*
X71929097Y-62899136D01*
X71929097Y-62899136D02*
X71929097Y-62956279D01*
X71662430Y-62346754D02*
X72062430Y-62346754D01*
X71681478Y-62346754D02*
X71662430Y-62308659D01*
X71662430Y-62308659D02*
X71662430Y-62232469D01*
X71662430Y-62232469D02*
X71681478Y-62194373D01*
X71681478Y-62194373D02*
X71700526Y-62175326D01*
X71700526Y-62175326D02*
X71738621Y-62156278D01*
X71738621Y-62156278D02*
X71852907Y-62156278D01*
X71852907Y-62156278D02*
X71891002Y-62175326D01*
X71891002Y-62175326D02*
X71910050Y-62194373D01*
X71910050Y-62194373D02*
X71929097Y-62232469D01*
X71929097Y-62232469D02*
X71929097Y-62308659D01*
X71929097Y-62308659D02*
X71910050Y-62346754D01*
X71929097Y-61984849D02*
X71662430Y-61984849D01*
X71738621Y-61984849D02*
X71700526Y-61965802D01*
X71700526Y-61965802D02*
X71681478Y-61946754D01*
X71681478Y-61946754D02*
X71662430Y-61908659D01*
X71662430Y-61908659D02*
X71662430Y-61870564D01*
X71929097Y-61680088D02*
X71910050Y-61718183D01*
X71910050Y-61718183D02*
X71891002Y-61737230D01*
X71891002Y-61737230D02*
X71852907Y-61756278D01*
X71852907Y-61756278D02*
X71738621Y-61756278D01*
X71738621Y-61756278D02*
X71700526Y-61737230D01*
X71700526Y-61737230D02*
X71681478Y-61718183D01*
X71681478Y-61718183D02*
X71662430Y-61680088D01*
X71662430Y-61680088D02*
X71662430Y-61622945D01*
X71662430Y-61622945D02*
X71681478Y-61584849D01*
X71681478Y-61584849D02*
X71700526Y-61565802D01*
X71700526Y-61565802D02*
X71738621Y-61546754D01*
X71738621Y-61546754D02*
X71852907Y-61546754D01*
X71852907Y-61546754D02*
X71891002Y-61565802D01*
X71891002Y-61565802D02*
X71910050Y-61584849D01*
X71910050Y-61584849D02*
X71929097Y-61622945D01*
X71929097Y-61622945D02*
X71929097Y-61680088D01*
X71662430Y-61432468D02*
X71662430Y-61280087D01*
X71929097Y-61375325D02*
X71586240Y-61375325D01*
X71586240Y-61375325D02*
X71548145Y-61356278D01*
X71548145Y-61356278D02*
X71529097Y-61318183D01*
X71529097Y-61318183D02*
X71529097Y-61280087D01*
X71910050Y-60994373D02*
X71929097Y-61032469D01*
X71929097Y-61032469D02*
X71929097Y-61108659D01*
X71929097Y-61108659D02*
X71910050Y-61146754D01*
X71910050Y-61146754D02*
X71871954Y-61165802D01*
X71871954Y-61165802D02*
X71719573Y-61165802D01*
X71719573Y-61165802D02*
X71681478Y-61146754D01*
X71681478Y-61146754D02*
X71662430Y-61108659D01*
X71662430Y-61108659D02*
X71662430Y-61032469D01*
X71662430Y-61032469D02*
X71681478Y-60994373D01*
X71681478Y-60994373D02*
X71719573Y-60975326D01*
X71719573Y-60975326D02*
X71757669Y-60975326D01*
X71757669Y-60975326D02*
X71795764Y-61165802D01*
X71910050Y-60822945D02*
X71929097Y-60784850D01*
X71929097Y-60784850D02*
X71929097Y-60708659D01*
X71929097Y-60708659D02*
X71910050Y-60670564D01*
X71910050Y-60670564D02*
X71871954Y-60651516D01*
X71871954Y-60651516D02*
X71852907Y-60651516D01*
X71852907Y-60651516D02*
X71814811Y-60670564D01*
X71814811Y-60670564D02*
X71795764Y-60708659D01*
X71795764Y-60708659D02*
X71795764Y-60765802D01*
X71795764Y-60765802D02*
X71776716Y-60803897D01*
X71776716Y-60803897D02*
X71738621Y-60822945D01*
X71738621Y-60822945D02*
X71719573Y-60822945D01*
X71719573Y-60822945D02*
X71681478Y-60803897D01*
X71681478Y-60803897D02*
X71662430Y-60765802D01*
X71662430Y-60765802D02*
X71662430Y-60708659D01*
X71662430Y-60708659D02*
X71681478Y-60670564D01*
X71910050Y-60499135D02*
X71929097Y-60461040D01*
X71929097Y-60461040D02*
X71929097Y-60384849D01*
X71929097Y-60384849D02*
X71910050Y-60346754D01*
X71910050Y-60346754D02*
X71871954Y-60327706D01*
X71871954Y-60327706D02*
X71852907Y-60327706D01*
X71852907Y-60327706D02*
X71814811Y-60346754D01*
X71814811Y-60346754D02*
X71795764Y-60384849D01*
X71795764Y-60384849D02*
X71795764Y-60441992D01*
X71795764Y-60441992D02*
X71776716Y-60480087D01*
X71776716Y-60480087D02*
X71738621Y-60499135D01*
X71738621Y-60499135D02*
X71719573Y-60499135D01*
X71719573Y-60499135D02*
X71681478Y-60480087D01*
X71681478Y-60480087D02*
X71662430Y-60441992D01*
X71662430Y-60441992D02*
X71662430Y-60384849D01*
X71662430Y-60384849D02*
X71681478Y-60346754D01*
X71929097Y-60156277D02*
X71662430Y-60156277D01*
X71529097Y-60156277D02*
X71548145Y-60175325D01*
X71548145Y-60175325D02*
X71567192Y-60156277D01*
X71567192Y-60156277D02*
X71548145Y-60137230D01*
X71548145Y-60137230D02*
X71529097Y-60156277D01*
X71529097Y-60156277D02*
X71567192Y-60156277D01*
X71929097Y-59908659D02*
X71910050Y-59946754D01*
X71910050Y-59946754D02*
X71891002Y-59965801D01*
X71891002Y-59965801D02*
X71852907Y-59984849D01*
X71852907Y-59984849D02*
X71738621Y-59984849D01*
X71738621Y-59984849D02*
X71700526Y-59965801D01*
X71700526Y-59965801D02*
X71681478Y-59946754D01*
X71681478Y-59946754D02*
X71662430Y-59908659D01*
X71662430Y-59908659D02*
X71662430Y-59851516D01*
X71662430Y-59851516D02*
X71681478Y-59813420D01*
X71681478Y-59813420D02*
X71700526Y-59794373D01*
X71700526Y-59794373D02*
X71738621Y-59775325D01*
X71738621Y-59775325D02*
X71852907Y-59775325D01*
X71852907Y-59775325D02*
X71891002Y-59794373D01*
X71891002Y-59794373D02*
X71910050Y-59813420D01*
X71910050Y-59813420D02*
X71929097Y-59851516D01*
X71929097Y-59851516D02*
X71929097Y-59908659D01*
X71662430Y-59603896D02*
X71929097Y-59603896D01*
X71700526Y-59603896D02*
X71681478Y-59584849D01*
X71681478Y-59584849D02*
X71662430Y-59546754D01*
X71662430Y-59546754D02*
X71662430Y-59489611D01*
X71662430Y-59489611D02*
X71681478Y-59451515D01*
X71681478Y-59451515D02*
X71719573Y-59432468D01*
X71719573Y-59432468D02*
X71929097Y-59432468D01*
X71929097Y-59070563D02*
X71719573Y-59070563D01*
X71719573Y-59070563D02*
X71681478Y-59089610D01*
X71681478Y-59089610D02*
X71662430Y-59127706D01*
X71662430Y-59127706D02*
X71662430Y-59203896D01*
X71662430Y-59203896D02*
X71681478Y-59241991D01*
X71910050Y-59070563D02*
X71929097Y-59108658D01*
X71929097Y-59108658D02*
X71929097Y-59203896D01*
X71929097Y-59203896D02*
X71910050Y-59241991D01*
X71910050Y-59241991D02*
X71871954Y-59261039D01*
X71871954Y-59261039D02*
X71833859Y-59261039D01*
X71833859Y-59261039D02*
X71795764Y-59241991D01*
X71795764Y-59241991D02*
X71776716Y-59203896D01*
X71776716Y-59203896D02*
X71776716Y-59108658D01*
X71776716Y-59108658D02*
X71757669Y-59070563D01*
X71929097Y-58822944D02*
X71910050Y-58861039D01*
X71910050Y-58861039D02*
X71871954Y-58880086D01*
X71871954Y-58880086D02*
X71529097Y-58880086D01*
X71910050Y-58689610D02*
X71929097Y-58651515D01*
X71929097Y-58651515D02*
X71929097Y-58575324D01*
X71929097Y-58575324D02*
X71910050Y-58537229D01*
X71910050Y-58537229D02*
X71871954Y-58518181D01*
X71871954Y-58518181D02*
X71852907Y-58518181D01*
X71852907Y-58518181D02*
X71814811Y-58537229D01*
X71814811Y-58537229D02*
X71795764Y-58575324D01*
X71795764Y-58575324D02*
X71795764Y-58632467D01*
X71795764Y-58632467D02*
X71776716Y-58670562D01*
X71776716Y-58670562D02*
X71738621Y-58689610D01*
X71738621Y-58689610D02*
X71719573Y-58689610D01*
X71719573Y-58689610D02*
X71681478Y-58670562D01*
X71681478Y-58670562D02*
X71662430Y-58632467D01*
X71662430Y-58632467D02*
X71662430Y-58575324D01*
X71662430Y-58575324D02*
X71681478Y-58537229D01*
X71891002Y-58346752D02*
X71910050Y-58327705D01*
X71910050Y-58327705D02*
X71929097Y-58346752D01*
X71929097Y-58346752D02*
X71910050Y-58365800D01*
X71910050Y-58365800D02*
X71891002Y-58346752D01*
X71891002Y-58346752D02*
X71929097Y-58346752D01*
D11*
X69066666Y-32454819D02*
X69066666Y-33169104D01*
X69066666Y-33169104D02*
X69019047Y-33311961D01*
X69019047Y-33311961D02*
X68923809Y-33407200D01*
X68923809Y-33407200D02*
X68780952Y-33454819D01*
X68780952Y-33454819D02*
X68685714Y-33454819D01*
X70066666Y-33454819D02*
X69495238Y-33454819D01*
X69780952Y-33454819D02*
X69780952Y-32454819D01*
X69780952Y-32454819D02*
X69685714Y-32597676D01*
X69685714Y-32597676D02*
X69590476Y-32692914D01*
X69590476Y-32692914D02*
X69495238Y-32740533D01*
X57723809Y-62178628D02*
X57723809Y-62654819D01*
X57390476Y-61654819D02*
X57723809Y-62178628D01*
X57723809Y-62178628D02*
X58057142Y-61654819D01*
X58914285Y-62654819D02*
X58342857Y-62654819D01*
X58628571Y-62654819D02*
X58628571Y-61654819D01*
X58628571Y-61654819D02*
X58533333Y-61797676D01*
X58533333Y-61797676D02*
X58438095Y-61892914D01*
X58438095Y-61892914D02*
X58342857Y-61940533D01*
X61205750Y-50203246D02*
X61778170Y-50775666D01*
X61778170Y-50775666D02*
X61879185Y-50809338D01*
X61879185Y-50809338D02*
X61946529Y-50809338D01*
X61946529Y-50809338D02*
X62047544Y-50775666D01*
X62047544Y-50775666D02*
X62182231Y-50640979D01*
X62182231Y-50640979D02*
X62215903Y-50539964D01*
X62215903Y-50539964D02*
X62215903Y-50472620D01*
X62215903Y-50472620D02*
X62182231Y-50371605D01*
X62182231Y-50371605D02*
X61609811Y-49799185D01*
X63024025Y-49799185D02*
X62619964Y-50203246D01*
X62821994Y-50001216D02*
X62114888Y-49294109D01*
X62114888Y-49294109D02*
X62148559Y-49462468D01*
X62148559Y-49462468D02*
X62148559Y-49597155D01*
X62148559Y-49597155D02*
X62114888Y-49698170D01*
X63477864Y-47954797D02*
X64287387Y-47954797D01*
X64287387Y-47954797D02*
X64382625Y-47907178D01*
X64382625Y-47907178D02*
X64430245Y-47859559D01*
X64430245Y-47859559D02*
X64477864Y-47764321D01*
X64477864Y-47764321D02*
X64477864Y-47573845D01*
X64477864Y-47573845D02*
X64430245Y-47478607D01*
X64430245Y-47478607D02*
X64382625Y-47430988D01*
X64382625Y-47430988D02*
X64287387Y-47383369D01*
X64287387Y-47383369D02*
X63477864Y-47383369D01*
X63477864Y-47002416D02*
X63477864Y-46383369D01*
X63477864Y-46383369D02*
X63858816Y-46716702D01*
X63858816Y-46716702D02*
X63858816Y-46573845D01*
X63858816Y-46573845D02*
X63906435Y-46478607D01*
X63906435Y-46478607D02*
X63954054Y-46430988D01*
X63954054Y-46430988D02*
X64049292Y-46383369D01*
X64049292Y-46383369D02*
X64287387Y-46383369D01*
X64287387Y-46383369D02*
X64382625Y-46430988D01*
X64382625Y-46430988D02*
X64430245Y-46478607D01*
X64430245Y-46478607D02*
X64477864Y-46573845D01*
X64477864Y-46573845D02*
X64477864Y-46859559D01*
X64477864Y-46859559D02*
X64430245Y-46954797D01*
X64430245Y-46954797D02*
X64382625Y-47002416D01*
X63166667Y-39757200D02*
X63309524Y-39804819D01*
X63309524Y-39804819D02*
X63547619Y-39804819D01*
X63547619Y-39804819D02*
X63642857Y-39757200D01*
X63642857Y-39757200D02*
X63690476Y-39709580D01*
X63690476Y-39709580D02*
X63738095Y-39614342D01*
X63738095Y-39614342D02*
X63738095Y-39519104D01*
X63738095Y-39519104D02*
X63690476Y-39423866D01*
X63690476Y-39423866D02*
X63642857Y-39376247D01*
X63642857Y-39376247D02*
X63547619Y-39328628D01*
X63547619Y-39328628D02*
X63357143Y-39281009D01*
X63357143Y-39281009D02*
X63261905Y-39233390D01*
X63261905Y-39233390D02*
X63214286Y-39185771D01*
X63214286Y-39185771D02*
X63166667Y-39090533D01*
X63166667Y-39090533D02*
X63166667Y-38995295D01*
X63166667Y-38995295D02*
X63214286Y-38900057D01*
X63214286Y-38900057D02*
X63261905Y-38852438D01*
X63261905Y-38852438D02*
X63357143Y-38804819D01*
X63357143Y-38804819D02*
X63595238Y-38804819D01*
X63595238Y-38804819D02*
X63738095Y-38852438D01*
X64071429Y-38804819D02*
X64309524Y-39804819D01*
X64309524Y-39804819D02*
X64500000Y-39090533D01*
X64500000Y-39090533D02*
X64690476Y-39804819D01*
X64690476Y-39804819D02*
X64928572Y-38804819D01*
X65833333Y-39804819D02*
X65261905Y-39804819D01*
X65547619Y-39804819D02*
X65547619Y-38804819D01*
X65547619Y-38804819D02*
X65452381Y-38947676D01*
X65452381Y-38947676D02*
X65357143Y-39042914D01*
X65357143Y-39042914D02*
X65261905Y-39090533D01*
D12*
%TO.C,REF\u002A\u002A*%
X59690000Y-63490000D02*
X59690000Y-67223800D01*
X59690000Y-67223800D02*
X59690000Y-70957600D01*
X59690000Y-70957600D02*
X60223400Y-70957600D01*
X60223400Y-63490000D02*
X59690000Y-63490000D01*
X60223400Y-70957600D02*
X60756800Y-70957600D01*
X60756800Y-63490000D02*
X60223400Y-63490000D01*
X60756800Y-65029865D02*
X60756800Y-63490000D01*
X60756800Y-66569731D02*
X60756800Y-65029865D01*
X60756800Y-67890190D02*
X61102577Y-68208917D01*
X60756800Y-69423895D02*
X60756800Y-67890190D01*
X60756800Y-70957600D02*
X60756800Y-69423895D01*
X61089106Y-66243598D02*
X60756800Y-66569731D01*
X61102577Y-68208917D02*
X61257130Y-68341283D01*
X61415522Y-67110567D02*
X61542995Y-66911219D01*
X61542525Y-67536381D02*
X61409004Y-67326988D01*
X61542995Y-66911219D02*
X61719591Y-66652300D01*
X61718650Y-67795300D02*
X61542525Y-67536381D01*
X61719591Y-66652300D02*
X62285945Y-66672184D01*
X62136922Y-66051140D02*
X61742481Y-65960193D01*
X62285945Y-66672184D02*
X62852300Y-66692068D01*
X62288973Y-67770392D02*
X61718650Y-67795300D01*
X62400987Y-68559745D02*
X62703341Y-68913284D01*
X62703341Y-68913284D02*
X62900614Y-69154444D01*
X62796793Y-65415820D02*
X62550119Y-65712199D01*
X62852300Y-66692068D02*
X63303195Y-65833984D01*
X62859295Y-67745483D02*
X62288973Y-67770392D01*
X62900614Y-69154444D02*
X63122067Y-69417544D01*
X63122067Y-69417544D02*
X63333905Y-69663157D01*
X63268381Y-68532392D02*
X62859295Y-67745483D01*
X63303195Y-65833984D02*
X63670778Y-65157027D01*
X63333905Y-69663157D02*
X63498077Y-69846071D01*
X63390516Y-64727011D02*
X62796793Y-65415820D01*
X63644303Y-69231195D02*
X63268381Y-68532392D01*
X63670778Y-65157027D02*
X63960002Y-64681159D01*
X63950902Y-69742291D02*
X63644303Y-69231195D01*
X63995204Y-64124979D02*
X63390516Y-64727011D01*
X63999646Y-70309652D02*
X64239867Y-70509656D01*
X64000293Y-69812270D02*
X63950902Y-69742291D01*
X64236360Y-64298670D02*
X64513328Y-63976621D01*
X64236664Y-70147166D02*
X64000293Y-69812270D01*
X64239867Y-70509656D02*
X64662731Y-70831611D01*
X64510985Y-63685006D02*
X63995204Y-64124979D01*
X64513328Y-63976621D02*
X64555014Y-63928150D01*
X64555014Y-63928150D02*
X64679163Y-63789210D01*
X64671440Y-70651043D02*
X64404291Y-70353140D01*
X64679163Y-63789210D02*
X64770979Y-63672561D01*
X64706273Y-70695098D02*
X64671440Y-70651043D01*
X64766741Y-70771574D02*
X64706273Y-70695098D01*
X61089106Y-66243598D02*
G75*
G02*
X61326664Y-66041107I1559094J-1588502D01*
G01*
X61326667Y-66041112D02*
G75*
G02*
X61515411Y-65959367I271233J-367488D01*
G01*
X61380589Y-67223746D02*
G75*
G02*
X61415522Y-67110567I201311J-154D01*
G01*
X61391732Y-68433760D02*
G75*
G02*
X61257132Y-68341280I594568J1009560D01*
G01*
X61409004Y-67326988D02*
G75*
G02*
X61380590Y-67223746I172796J103088D01*
G01*
X61502558Y-68486616D02*
G75*
G02*
X61391734Y-68433756I246742J659916D01*
G01*
X61515412Y-65959370D02*
G75*
G02*
X61742481Y-65960194I111338J-606010D01*
G01*
X61578827Y-68489384D02*
G75*
G02*
X61502550Y-68486638I-34027J115584D01*
G01*
X61578827Y-68489384D02*
G75*
G02*
X61981070Y-68391434I1256173J-4283716D01*
G01*
X61981071Y-68391437D02*
G75*
G02*
X62193630Y-68409339I74729J-383563D01*
G01*
X62193631Y-68409337D02*
G75*
G02*
X62400969Y-68559760I-171331J-454263D01*
G01*
X62218085Y-66034999D02*
G75*
G02*
X62136922Y-66051142I-56885J73899D01*
G01*
X62361958Y-65911019D02*
G75*
G02*
X62218085Y-66034999I-1195558J1241919D01*
G01*
X62550119Y-65712199D02*
G75*
G02*
X62361958Y-65911019I-2229211J1921254D01*
G01*
X63960002Y-64681159D02*
G75*
G02*
X64513332Y-63976624I4430698J-2910241D01*
G01*
X63999646Y-70309652D02*
G75*
G02*
X63498081Y-69846068I2660554J3381652D01*
G01*
X64404291Y-70353140D02*
G75*
G02*
X64000290Y-69812272I3739909J3214840D01*
G01*
X64510985Y-63685006D02*
G75*
G02*
X64816461Y-63566167I305515J-333294D01*
G01*
X64706273Y-70695098D02*
G75*
G02*
X64825753Y-70861074I-901573J-775002D01*
G01*
X64814210Y-70881400D02*
G75*
G02*
X64662730Y-70831612I-10J255300D01*
G01*
X64816461Y-63566200D02*
G75*
G02*
X64827771Y-63585977I39J-13100D01*
G01*
X64825753Y-70861074D02*
G75*
G02*
X64814210Y-70881384I-11453J-6926D01*
G01*
X64827722Y-63585948D02*
G75*
G02*
X64770977Y-63672560I-976622J577948D01*
G01*
D13*
X60756800Y-66569731D02*
X61196503Y-66138196D01*
X61326667Y-66041112D01*
X61416379Y-65989479D01*
X61515422Y-65959370D01*
X61628988Y-65949233D01*
X61742481Y-65960193D01*
X62143628Y-66052686D01*
X62179354Y-66052573D01*
X62218085Y-66034999D01*
X62291730Y-65974991D01*
X62361958Y-65911019D01*
X62458324Y-65813827D01*
X62550119Y-65712199D01*
X62796793Y-65415820D01*
X62990000Y-65190000D01*
X63093655Y-65071415D01*
X63390516Y-64727011D01*
X63692860Y-64425995D01*
X63840000Y-64280000D01*
X63900000Y-64220000D01*
X63995204Y-64124979D01*
X64090000Y-64040000D01*
X64253095Y-63904992D01*
X64390000Y-63790000D01*
X64510985Y-63685006D01*
X64570000Y-63640000D01*
X64667549Y-63591407D01*
X64710000Y-63580000D01*
X64760000Y-63570000D01*
X64816461Y-63566200D01*
X64827830Y-63572725D01*
X64827830Y-63585875D01*
X64800350Y-63629882D01*
X64770979Y-63672561D01*
X64750000Y-63700000D01*
X64725071Y-63731870D01*
X64679163Y-63789210D01*
X64555014Y-63928150D01*
X64374844Y-64137645D01*
X64060000Y-64540000D01*
X63840000Y-64880000D01*
X63681732Y-65157027D01*
X63520000Y-65440000D01*
X63303195Y-65833984D01*
X62852300Y-66692068D01*
X61719590Y-66652300D01*
X61387884Y-67170199D01*
X61380589Y-67223900D01*
X61387805Y-67277315D01*
X61408987Y-67326988D01*
X61475765Y-67431684D01*
X61718650Y-67795300D01*
X62859295Y-67745483D01*
X63456342Y-68893950D01*
X63644303Y-69231195D01*
X63797603Y-69486743D01*
X64000293Y-69812270D01*
X64366420Y-70331013D01*
X64537866Y-70502092D01*
X64671440Y-70651043D01*
X64766741Y-70771574D01*
X64825795Y-70861145D01*
X64825923Y-70874636D01*
X64814210Y-70881383D01*
X64780000Y-70881400D01*
X64662731Y-70831612D01*
X64239867Y-70509656D01*
X64119757Y-70409654D01*
X63653131Y-70005610D01*
X63333905Y-69663157D01*
X62703341Y-68913284D01*
X62400987Y-68559745D01*
X62295210Y-68462068D01*
X62193631Y-68409337D01*
X62088596Y-68385602D01*
X61981076Y-68391437D01*
X61778813Y-68435744D01*
X61578829Y-68489384D01*
X61540465Y-68500821D01*
X61502558Y-68486613D01*
X61445991Y-68462603D01*
X61391743Y-68433760D01*
X61325954Y-68389867D01*
X61257130Y-68330834D01*
X61102577Y-68208917D01*
X60756800Y-67890190D01*
X60756800Y-70957600D01*
X59690000Y-70957600D01*
X59690000Y-63490000D01*
X60756800Y-63490000D01*
X60756800Y-66569731D01*
G36*
X60756800Y-66569731D02*
G01*
X61196503Y-66138196D01*
X61326667Y-66041112D01*
X61416379Y-65989479D01*
X61515422Y-65959370D01*
X61628988Y-65949233D01*
X61742481Y-65960193D01*
X62143628Y-66052686D01*
X62179354Y-66052573D01*
X62218085Y-66034999D01*
X62291730Y-65974991D01*
X62361958Y-65911019D01*
X62458324Y-65813827D01*
X62550119Y-65712199D01*
X62796793Y-65415820D01*
X62990000Y-65190000D01*
X63093655Y-65071415D01*
X63390516Y-64727011D01*
X63692860Y-64425995D01*
X63840000Y-64280000D01*
X63900000Y-64220000D01*
X63995204Y-64124979D01*
X64090000Y-64040000D01*
X64253095Y-63904992D01*
X64390000Y-63790000D01*
X64510985Y-63685006D01*
X64570000Y-63640000D01*
X64667549Y-63591407D01*
X64710000Y-63580000D01*
X64760000Y-63570000D01*
X64816461Y-63566200D01*
X64827830Y-63572725D01*
X64827830Y-63585875D01*
X64800350Y-63629882D01*
X64770979Y-63672561D01*
X64750000Y-63700000D01*
X64725071Y-63731870D01*
X64679163Y-63789210D01*
X64555014Y-63928150D01*
X64374844Y-64137645D01*
X64060000Y-64540000D01*
X63840000Y-64880000D01*
X63681732Y-65157027D01*
X63520000Y-65440000D01*
X63303195Y-65833984D01*
X62852300Y-66692068D01*
X61719590Y-66652300D01*
X61387884Y-67170199D01*
X61380589Y-67223900D01*
X61387805Y-67277315D01*
X61408987Y-67326988D01*
X61475765Y-67431684D01*
X61718650Y-67795300D01*
X62859295Y-67745483D01*
X63456342Y-68893950D01*
X63644303Y-69231195D01*
X63797603Y-69486743D01*
X64000293Y-69812270D01*
X64366420Y-70331013D01*
X64537866Y-70502092D01*
X64671440Y-70651043D01*
X64766741Y-70771574D01*
X64825795Y-70861145D01*
X64825923Y-70874636D01*
X64814210Y-70881383D01*
X64780000Y-70881400D01*
X64662731Y-70831612D01*
X64239867Y-70509656D01*
X64119757Y-70409654D01*
X63653131Y-70005610D01*
X63333905Y-69663157D01*
X62703341Y-68913284D01*
X62400987Y-68559745D01*
X62295210Y-68462068D01*
X62193631Y-68409337D01*
X62088596Y-68385602D01*
X61981076Y-68391437D01*
X61778813Y-68435744D01*
X61578829Y-68489384D01*
X61540465Y-68500821D01*
X61502558Y-68486613D01*
X61445991Y-68462603D01*
X61391743Y-68433760D01*
X61325954Y-68389867D01*
X61257130Y-68330834D01*
X61102577Y-68208917D01*
X60756800Y-67890190D01*
X60756800Y-70957600D01*
X59690000Y-70957600D01*
X59690000Y-63490000D01*
X60756800Y-63490000D01*
X60756800Y-66569731D01*
G37*
D14*
%TO.C,J1*%
X69400000Y-28890000D02*
X69400000Y-26890000D01*
X69400000Y-24990000D02*
X69400000Y-23090000D01*
X69400000Y-23090000D02*
X60000000Y-23090000D01*
X60000000Y-28890000D02*
X60000000Y-26890000D01*
X60000000Y-24990000D02*
X60000000Y-23090000D01*
%TO.C,C5*%
X67229779Y-58438896D02*
X67382282Y-58591399D01*
X67738896Y-57929779D02*
X67891399Y-58082282D01*
%TO.C,C10*%
X65092164Y-59440000D02*
X65307836Y-59440000D01*
X65092164Y-60160000D02*
X65307836Y-60160000D01*
%TO.C,J4*%
X60780000Y-75270000D02*
X60780000Y-73890000D01*
X62160000Y-75270000D02*
X60780000Y-75270000D01*
X63430000Y-72510000D02*
X68620000Y-72510000D01*
X63430000Y-75270000D02*
X63430000Y-72510000D01*
X63430000Y-75270000D02*
X68620000Y-75270000D01*
X68620000Y-75270000D02*
X68620000Y-72510000D01*
%TO.C,C13*%
X59740000Y-35112164D02*
X59740000Y-35327836D01*
X60460000Y-35112164D02*
X60460000Y-35327836D01*
%TO.C,C17*%
X70069190Y-52321693D02*
X70221693Y-52169190D01*
X70578307Y-52830810D02*
X70730810Y-52678307D01*
%TO.C,C3*%
X62382282Y-48491399D02*
X62229779Y-48338896D01*
X62891399Y-47982282D02*
X62738896Y-47829779D01*
%TO.C,C6*%
X58560000Y-51157836D02*
X58560000Y-50942164D01*
X57840000Y-51157836D02*
X57840000Y-50942164D01*
%TO.C,C2*%
X63340000Y-60472164D02*
X63340000Y-60687836D01*
X64060000Y-60472164D02*
X64060000Y-60687836D01*
%TO.C,C8*%
X70712164Y-55240000D02*
X70927836Y-55240000D01*
X70712164Y-55960000D02*
X70927836Y-55960000D01*
%TO.C,R1*%
X66736359Y-32420000D02*
X67043641Y-32420000D01*
X66736359Y-33180000D02*
X67043641Y-33180000D01*
%TO.C,C4*%
X69840000Y-47427836D02*
X69840000Y-47212164D01*
X70560000Y-47427836D02*
X70560000Y-47212164D01*
%TO.C,C7*%
X68972164Y-45140000D02*
X69187836Y-45140000D01*
X68972164Y-45860000D02*
X69187836Y-45860000D01*
%TO.C,R7*%
X66320000Y-44456359D02*
X66320000Y-44763641D01*
X67080000Y-44456359D02*
X67080000Y-44763641D01*
%TO.C,C1*%
X70840000Y-47427836D02*
X70840000Y-47212164D01*
X71560000Y-47427836D02*
X71560000Y-47212164D01*
%TO.C,Y1*%
X61860000Y-58039999D02*
X57740000Y-58039999D01*
X61860000Y-61460001D02*
X61860000Y-58039999D01*
%TO.C,U2*%
X60740000Y-34440000D02*
X61740000Y-34440000D01*
X60740000Y-35960000D02*
X60740000Y-34440000D01*
X60790000Y-35960000D02*
X60740000Y-35960000D01*
X62690000Y-35960000D02*
X61910000Y-35960000D01*
X62860000Y-34440000D02*
X63860000Y-34440000D01*
X63860000Y-34440000D02*
X63860000Y-35960000D01*
X63860000Y-35960000D02*
X63810000Y-35960000D01*
X62250000Y-36740000D02*
X61920000Y-36500000D01*
X62250000Y-36260000D01*
X62250000Y-36740000D01*
G36*
X62250000Y-36740000D02*
G01*
X61920000Y-36500000D01*
X62250000Y-36260000D01*
X62250000Y-36740000D01*
G37*
%TO.C,C16*%
X62340000Y-60627836D02*
X62340000Y-60412164D01*
X63060000Y-60627836D02*
X63060000Y-60412164D01*
%TO.C,R5*%
X59836360Y-57120000D02*
X60143642Y-57120000D01*
X59836360Y-57880000D02*
X60143642Y-57880000D01*
%TO.C,R6*%
X64046359Y-44920000D02*
X64353641Y-44920000D01*
X64046359Y-45680000D02*
X64353641Y-45680000D01*
%TO.C,R4*%
X69300564Y-50262035D02*
X69083283Y-50479316D01*
X69837965Y-50799436D02*
X69620684Y-51016717D01*
%TO.C,R3*%
X68562035Y-49600564D02*
X68779316Y-49383283D01*
X69099436Y-50137965D02*
X69316717Y-49920684D01*
%TO.C,C12*%
X68840000Y-47447836D02*
X68840000Y-47232164D01*
X69560000Y-47447836D02*
X69560000Y-47232164D01*
%TO.C,C11*%
X69369190Y-51621693D02*
X69521693Y-51469190D01*
X69878307Y-52130810D02*
X70030810Y-51978307D01*
%TO.C,C14*%
X63040000Y-33407836D02*
X63040000Y-33192164D01*
X63760000Y-33407836D02*
X63760000Y-33192164D01*
%TO.C,U1*%
X59594689Y-54000000D02*
X60054308Y-53540380D01*
X60054309Y-54459619D02*
X59594689Y-54000000D01*
X64240381Y-49354309D02*
X64700000Y-48894689D01*
X64700000Y-48894689D02*
X65159620Y-49354308D01*
X64700000Y-59105311D02*
X64240380Y-58645692D01*
X65159619Y-58645691D02*
X64700000Y-59105311D01*
X69345691Y-53540381D02*
X69805311Y-54000000D01*
X69805311Y-54000000D02*
X69345692Y-54459620D01*
X63611056Y-49234100D02*
X63208005Y-49170461D01*
X63547416Y-48831049D01*
X63611056Y-49234100D01*
G36*
X63611056Y-49234100D02*
G01*
X63208005Y-49170461D01*
X63547416Y-48831049D01*
X63611056Y-49234100D01*
G37*
%TO.C,C9*%
X70712164Y-54240000D02*
X70927836Y-54240000D01*
X70712164Y-54960000D02*
X70927836Y-54960000D01*
%TO.C,C15*%
X60207836Y-61640000D02*
X59992164Y-61640000D01*
X60207836Y-62360000D02*
X59992164Y-62360000D01*
%TO.C,R2*%
X66736359Y-33420000D02*
X67043641Y-33420000D01*
X66736359Y-34180000D02*
X67043641Y-34180000D01*
%TO.C,U3*%
X65089432Y-46015000D02*
X67885000Y-46015000D01*
X67885000Y-48285000D02*
X64665000Y-48285000D01*
X64795000Y-46010000D02*
X64655000Y-45820000D01*
X64935000Y-45820000D01*
X64795000Y-46010000D01*
G36*
X64795000Y-46010000D02*
G01*
X64655000Y-45820000D01*
X64935000Y-45820000D01*
X64795000Y-46010000D01*
G37*
%TO.C,J2*%
X54430000Y-24490000D02*
X55810000Y-24490000D01*
X54430000Y-25870000D02*
X54430000Y-24490000D01*
X54430000Y-27140000D02*
X54430000Y-75510000D01*
X54430000Y-27140000D02*
X57190000Y-27140000D01*
X54430000Y-75510000D02*
X57190000Y-75510000D01*
X57190000Y-27140000D02*
X57190000Y-75510000D01*
%TO.C,SW1*%
X62430000Y-40030000D02*
X66570000Y-40030000D01*
X62430000Y-40330000D02*
X62430000Y-40030000D01*
X62430000Y-43170000D02*
X62430000Y-42870000D01*
X66570000Y-40030000D02*
X66570000Y-40330000D01*
X66570000Y-42870000D02*
X66570000Y-43170000D01*
X66570000Y-43170000D02*
X62430000Y-43170000D01*
%TO.C,J3*%
X72210000Y-24490000D02*
X73590000Y-24490000D01*
X72210000Y-25870000D02*
X72210000Y-24490000D01*
X72210000Y-27140000D02*
X72210000Y-75510000D01*
X72210000Y-27140000D02*
X74970000Y-27140000D01*
X72210000Y-75510000D02*
X74970000Y-75510000D01*
X74970000Y-27140000D02*
X74970000Y-75510000D01*
%TD*%
M02*
