M48
; DRILL file {KiCad 9.0.5} date 2025-12-09T16:25:20-0600
; FORMAT={-:-/ absolute / metric / decimal}
; #@! TF.CreationDate,2025-12-09T16:25:20-06:00
; #@! TF.GenerationSoftware,Kicad,Pcbnew,9.0.5
; #@! TF.FileFunction,Plated,1,2,PTH
FMAT,2
METRIC
; #@! TA.AperFunction,Plated,PTH,ViaDrill
T1C0.300
; #@! TA.AperFunction,Plated,PTH,ComponentDrill
T2C0.600
; #@! TA.AperFunction,Plated,PTH,ComponentDrill
T3C1.000
%
G90
G05
T1
X56.746Y-42.754
X57.1Y-43.4
X57.2Y-54.6
X57.2Y-61.1
X57.295Y-44.5
X57.4Y-51.8
X58.1Y-29.2
X58.2Y-30.4
X58.399Y-57.6
X58.9Y-63.4
X58.9Y-66.8
X59.1Y-53.8
X59.5Y-55.6
X59.7Y-64.1
X60.047Y-56.037
X60.3Y-37.3
X60.7Y-41.7
X60.744Y-56.1
X60.8Y-64.2
X61.0Y-43.3
X61.3Y-38.1
X61.5Y-62.7
X62.0Y-46.7
X62.214Y-55.214
X62.4Y-62.2
X62.7Y-64.5
X62.9Y-32.3
X62.9Y-55.6
X63.0Y-52.9
X63.4Y-62.6
X63.686Y-52.186
X63.7Y-39.0
X63.804Y-56.103
X64.1Y-59.1
X64.268Y-56.642
X64.376Y-50.647
X64.5Y-48.5
X64.6Y-57.4
X64.6Y-70.1
X64.7Y-58.6
X65.0Y-51.472
X65.788Y-56.3
X66.2Y-32.7
X66.4Y-29.4
X66.514Y-51.996
X66.7Y-55.3
X67.307Y-54.203
X68.396Y-32.896
X68.5Y-53.8
X68.979Y-57.064
X69.2Y-56.4
X69.361Y-52.139
X69.4Y-55.7
X69.6Y-44.2
X69.6Y-57.7
X70.6Y-59.3
X70.902Y-46.453
X71.4Y-29.0
T3
X55.81Y-25.87
X55.81Y-28.41
X55.81Y-30.95
X55.81Y-33.49
X55.81Y-36.03
X55.81Y-38.57
X55.81Y-41.11
X55.81Y-43.65
X55.81Y-46.19
X55.81Y-48.73
X55.81Y-51.27
X55.81Y-53.81
X55.81Y-56.35
X55.81Y-58.89
X55.81Y-61.43
X55.81Y-63.97
X55.81Y-66.51
X55.81Y-69.05
X55.81Y-71.59
X55.81Y-74.13
X62.16Y-73.89
X64.7Y-73.89
X67.24Y-73.89
X73.59Y-25.87
X73.59Y-28.41
X73.59Y-30.95
X73.59Y-33.49
X73.59Y-36.03
X73.59Y-38.57
X73.59Y-41.11
X73.59Y-43.65
X73.59Y-46.19
X73.59Y-48.73
X73.59Y-51.27
X73.59Y-53.81
X73.59Y-56.35
X73.59Y-58.89
X73.59Y-61.43
X73.59Y-63.97
X73.59Y-66.51
X73.59Y-69.05
X73.59Y-71.59
X73.59Y-74.13
T2
G00X60.38Y-26.24
M15
G01X60.38Y-25.64
M16
G05
G00X60.38Y-30.67
M15
G01X60.38Y-29.57
M16
G05
G00X69.02Y-26.24
M15
G01X69.02Y-25.64
M16
G05
G00X69.02Y-30.67
M15
G01X69.02Y-29.57
M16
G05
M30
