%TF.GenerationSoftware,KiCad,Pcbnew,9.0.5*%
%TF.CreationDate,2025-12-09T16:25:20-06:00*%
%TF.ProjectId,KBoardV1,4b426f61-7264-4563-912e-6b696361645f,rev?*%
%TF.SameCoordinates,Original*%
%TF.FileFunction,Drillmap*%
%TF.FilePolarity,Positive*%
%FSLAX45Y45*%
G04 Gerber Fmt 4.5, Leading zero omitted, Abs format (unit mm)*
G04 Created by KiCad (PCBNEW 9.0.5) date 2025-12-09 16:25:20*
%MOMM*%
%LPD*%
G01*
G04 APERTURE LIST*
%ADD10C,0.050000*%
%ADD11C,0.200000*%
%ADD12C,0.100000*%
G04 APERTURE END LIST*
D10*
X5420000Y-2450000D02*
X7520000Y-2450000D01*
X7520000Y-7550000D01*
X5420000Y-7550000D01*
X5420000Y-2450000D01*
D11*
D12*
X5659645Y-4260355D02*
X5689645Y-4290355D01*
X5689645Y-4260355D02*
X5659645Y-4290355D01*
X5695000Y-4325000D02*
X5725000Y-4355000D01*
X5725000Y-4325000D02*
X5695000Y-4355000D01*
X5705000Y-5445000D02*
X5735000Y-5475000D01*
X5735000Y-5445000D02*
X5705000Y-5475000D01*
X5705000Y-6095000D02*
X5735000Y-6125000D01*
X5735000Y-6095000D02*
X5705000Y-6125000D01*
X5714500Y-4435000D02*
X5744500Y-4465000D01*
X5744500Y-4435000D02*
X5714500Y-4465000D01*
X5725000Y-5165000D02*
X5755000Y-5195000D01*
X5755000Y-5165000D02*
X5725000Y-5195000D01*
X5795000Y-2905000D02*
X5825000Y-2935000D01*
X5825000Y-2905000D02*
X5795000Y-2935000D01*
X5805000Y-3025000D02*
X5835000Y-3055000D01*
X5835000Y-3025000D02*
X5805000Y-3055000D01*
X5824900Y-5745000D02*
X5854900Y-5775000D01*
X5854900Y-5745000D02*
X5824900Y-5775000D01*
X5875000Y-6325000D02*
X5905000Y-6355000D01*
X5905000Y-6325000D02*
X5875000Y-6355000D01*
X5875000Y-6665000D02*
X5905000Y-6695000D01*
X5905000Y-6665000D02*
X5875000Y-6695000D01*
X5895000Y-5365000D02*
X5925000Y-5395000D01*
X5925000Y-5365000D02*
X5895000Y-5395000D01*
X5935000Y-5545000D02*
X5965000Y-5575000D01*
X5965000Y-5545000D02*
X5935000Y-5575000D01*
X5955000Y-6395000D02*
X5985000Y-6425000D01*
X5985000Y-6395000D02*
X5955000Y-6425000D01*
X5989661Y-5588729D02*
X6019661Y-5618729D01*
X6019661Y-5588729D02*
X5989661Y-5618729D01*
X6015000Y-3715000D02*
X6045000Y-3745000D01*
X6045000Y-3715000D02*
X6015000Y-3745000D01*
X6055000Y-4155000D02*
X6085000Y-4185000D01*
X6085000Y-4155000D02*
X6055000Y-4185000D01*
X6059380Y-5595000D02*
X6089380Y-5625000D01*
X6089380Y-5595000D02*
X6059380Y-5625000D01*
X6065000Y-6405000D02*
X6095000Y-6435000D01*
X6095000Y-6405000D02*
X6065000Y-6435000D01*
X6085000Y-4315000D02*
X6115000Y-4345000D01*
X6115000Y-4315000D02*
X6085000Y-4345000D01*
X6115000Y-3795000D02*
X6145000Y-3825000D01*
X6145000Y-3795000D02*
X6115000Y-3825000D01*
X6135000Y-6255000D02*
X6165000Y-6285000D01*
X6165000Y-6255000D02*
X6135000Y-6285000D01*
X6185000Y-4655000D02*
X6215000Y-4685000D01*
X6215000Y-4655000D02*
X6185000Y-4685000D01*
X6206360Y-5506360D02*
X6236360Y-5536360D01*
X6236360Y-5506360D02*
X6206360Y-5536360D01*
X6225000Y-6205000D02*
X6255000Y-6235000D01*
X6255000Y-6205000D02*
X6225000Y-6235000D01*
X6255000Y-6435000D02*
X6285000Y-6465000D01*
X6285000Y-6435000D02*
X6255000Y-6465000D01*
X6275000Y-3215000D02*
X6305000Y-3245000D01*
X6305000Y-3215000D02*
X6275000Y-3245000D01*
X6275000Y-5545000D02*
X6305000Y-5575000D01*
X6305000Y-5545000D02*
X6275000Y-5575000D01*
X6285000Y-5275000D02*
X6315000Y-5305000D01*
X6315000Y-5275000D02*
X6285000Y-5305000D01*
X6325000Y-6245000D02*
X6355000Y-6275000D01*
X6355000Y-6245000D02*
X6325000Y-6275000D01*
X6353579Y-5203579D02*
X6383579Y-5233579D01*
X6383579Y-5203579D02*
X6353579Y-5233579D01*
X6355000Y-3885000D02*
X6385000Y-3915000D01*
X6385000Y-3885000D02*
X6355000Y-3915000D01*
X6365426Y-5595312D02*
X6395426Y-5625312D01*
X6395426Y-5595312D02*
X6365426Y-5625312D01*
X6395000Y-5895000D02*
X6425000Y-5925000D01*
X6425000Y-5895000D02*
X6395000Y-5925000D01*
X6411803Y-5649213D02*
X6441803Y-5679213D01*
X6441803Y-5649213D02*
X6411803Y-5679213D01*
X6422564Y-5049739D02*
X6452564Y-5079739D01*
X6452564Y-5049739D02*
X6422564Y-5079739D01*
X6435000Y-4835000D02*
X6465000Y-4865000D01*
X6465000Y-4835000D02*
X6435000Y-4865000D01*
X6445000Y-5725000D02*
X6475000Y-5755000D01*
X6475000Y-5725000D02*
X6445000Y-5755000D01*
X6445000Y-6995000D02*
X6475000Y-7025000D01*
X6475000Y-6995000D02*
X6445000Y-7025000D01*
X6455000Y-5845000D02*
X6485000Y-5875000D01*
X6485000Y-5845000D02*
X6455000Y-5875000D01*
X6485000Y-5132157D02*
X6515000Y-5162157D01*
X6515000Y-5132157D02*
X6485000Y-5162157D01*
X6563791Y-5615000D02*
X6593791Y-5645000D01*
X6593791Y-5615000D02*
X6563791Y-5645000D01*
X6605000Y-3255000D02*
X6635000Y-3285000D01*
X6635000Y-3255000D02*
X6605000Y-3285000D01*
X6625000Y-2925000D02*
X6655000Y-2955000D01*
X6655000Y-2925000D02*
X6625000Y-2955000D01*
X6636450Y-5184613D02*
X6666450Y-5214613D01*
X6666450Y-5184613D02*
X6636450Y-5214613D01*
X6655000Y-5515000D02*
X6685000Y-5545000D01*
X6685000Y-5515000D02*
X6655000Y-5545000D01*
X6715731Y-5405315D02*
X6745731Y-5435315D01*
X6745731Y-5405315D02*
X6715731Y-5435315D01*
X6824645Y-3274645D02*
X6854645Y-3304645D01*
X6854645Y-3274645D02*
X6824645Y-3304645D01*
X6835000Y-5365000D02*
X6865000Y-5395000D01*
X6865000Y-5365000D02*
X6835000Y-5395000D01*
X6882864Y-5691408D02*
X6912864Y-5721408D01*
X6912864Y-5691408D02*
X6882864Y-5721408D01*
X6905000Y-5625000D02*
X6935000Y-5655000D01*
X6935000Y-5625000D02*
X6905000Y-5655000D01*
X6921059Y-5198941D02*
X6951059Y-5228941D01*
X6951059Y-5198941D02*
X6921059Y-5228941D01*
X6925000Y-5555000D02*
X6955000Y-5585000D01*
X6955000Y-5555000D02*
X6925000Y-5585000D01*
X6945000Y-4405000D02*
X6975000Y-4435000D01*
X6975000Y-4405000D02*
X6945000Y-4435000D01*
X6945000Y-5755000D02*
X6975000Y-5785000D01*
X6975000Y-5755000D02*
X6945000Y-5785000D01*
X7045000Y-5915000D02*
X7075000Y-5945000D01*
X7075000Y-5915000D02*
X7045000Y-5945000D01*
X7075200Y-4630298D02*
X7105200Y-4660298D01*
X7105200Y-4630298D02*
X7075200Y-4660298D01*
X7125000Y-2885000D02*
X7155000Y-2915000D01*
X7155000Y-2885000D02*
X7125000Y-2915000D01*
X6068000Y-2594000D02*
G75*
G02*
X6008000Y-2594000I-30000J0D01*
G01*
X6008000Y-2594000D02*
G75*
G02*
X6068000Y-2594000I30000J0D01*
G01*
X6068000Y-2624000D02*
X6068000Y-2564000D01*
X6008000Y-2564000D02*
G75*
G02*
X6068000Y-2564000I30000J0D01*
G01*
X6008000Y-2564000D02*
X6008000Y-2624000D01*
X6008000Y-2624000D02*
G75*
G03*
X6068000Y-2624000I30000J0D01*
G01*
X6068000Y-3012000D02*
G75*
G02*
X6008000Y-3012000I-30000J0D01*
G01*
X6008000Y-3012000D02*
G75*
G02*
X6068000Y-3012000I30000J0D01*
G01*
X6068000Y-3067000D02*
X6068000Y-2957000D01*
X6008000Y-2957000D02*
G75*
G02*
X6068000Y-2957000I30000J0D01*
G01*
X6008000Y-2957000D02*
X6008000Y-3067000D01*
X6008000Y-3067000D02*
G75*
G03*
X6068000Y-3067000I30000J0D01*
G01*
X6932000Y-2594000D02*
G75*
G02*
X6872000Y-2594000I-30000J0D01*
G01*
X6872000Y-2594000D02*
G75*
G02*
X6932000Y-2594000I30000J0D01*
G01*
X6932000Y-2624000D02*
X6932000Y-2564000D01*
X6872000Y-2564000D02*
G75*
G02*
X6932000Y-2564000I30000J0D01*
G01*
X6872000Y-2564000D02*
X6872000Y-2624000D01*
X6872000Y-2624000D02*
G75*
G03*
X6932000Y-2624000I30000J0D01*
G01*
X6932000Y-3012000D02*
G75*
G02*
X6872000Y-3012000I-30000J0D01*
G01*
X6872000Y-3012000D02*
G75*
G02*
X6932000Y-3012000I30000J0D01*
G01*
X6932000Y-3067000D02*
X6932000Y-2957000D01*
X6872000Y-2957000D02*
G75*
G02*
X6932000Y-2957000I30000J0D01*
G01*
X6872000Y-2957000D02*
X6872000Y-3067000D01*
X6872000Y-3067000D02*
G75*
G03*
X6932000Y-3067000I30000J0D01*
G01*
X5581000Y-2537000D02*
X5581000Y-2637000D01*
X5531000Y-2587000D02*
X5631000Y-2587000D01*
X5581000Y-2791000D02*
X5581000Y-2891000D01*
X5531000Y-2841000D02*
X5631000Y-2841000D01*
X5581000Y-3045000D02*
X5581000Y-3145000D01*
X5531000Y-3095000D02*
X5631000Y-3095000D01*
X5581000Y-3299000D02*
X5581000Y-3399000D01*
X5531000Y-3349000D02*
X5631000Y-3349000D01*
X5581000Y-3553000D02*
X5581000Y-3653000D01*
X5531000Y-3603000D02*
X5631000Y-3603000D01*
X5581000Y-3807000D02*
X5581000Y-3907000D01*
X5531000Y-3857000D02*
X5631000Y-3857000D01*
X5581000Y-4061000D02*
X5581000Y-4161000D01*
X5531000Y-4111000D02*
X5631000Y-4111000D01*
X5581000Y-4315000D02*
X5581000Y-4415000D01*
X5531000Y-4365000D02*
X5631000Y-4365000D01*
X5581000Y-4569000D02*
X5581000Y-4669000D01*
X5531000Y-4619000D02*
X5631000Y-4619000D01*
X5581000Y-4823000D02*
X5581000Y-4923000D01*
X5531000Y-4873000D02*
X5631000Y-4873000D01*
X5581000Y-5077000D02*
X5581000Y-5177000D01*
X5531000Y-5127000D02*
X5631000Y-5127000D01*
X5581000Y-5331000D02*
X5581000Y-5431000D01*
X5531000Y-5381000D02*
X5631000Y-5381000D01*
X5581000Y-5585000D02*
X5581000Y-5685000D01*
X5531000Y-5635000D02*
X5631000Y-5635000D01*
X5581000Y-5839000D02*
X5581000Y-5939000D01*
X5531000Y-5889000D02*
X5631000Y-5889000D01*
X5581000Y-6093000D02*
X5581000Y-6193000D01*
X5531000Y-6143000D02*
X5631000Y-6143000D01*
X5581000Y-6347000D02*
X5581000Y-6447000D01*
X5531000Y-6397000D02*
X5631000Y-6397000D01*
X5581000Y-6601000D02*
X5581000Y-6701000D01*
X5531000Y-6651000D02*
X5631000Y-6651000D01*
X5581000Y-6855000D02*
X5581000Y-6955000D01*
X5531000Y-6905000D02*
X5631000Y-6905000D01*
X5581000Y-7109000D02*
X5581000Y-7209000D01*
X5531000Y-7159000D02*
X5631000Y-7159000D01*
X5581000Y-7363000D02*
X5581000Y-7463000D01*
X5531000Y-7413000D02*
X5631000Y-7413000D01*
X6216000Y-7339000D02*
X6216000Y-7439000D01*
X6166000Y-7389000D02*
X6266000Y-7389000D01*
X6470000Y-7339000D02*
X6470000Y-7439000D01*
X6420000Y-7389000D02*
X6520000Y-7389000D01*
X6724000Y-7339000D02*
X6724000Y-7439000D01*
X6674000Y-7389000D02*
X6774000Y-7389000D01*
X7359000Y-2537000D02*
X7359000Y-2637000D01*
X7309000Y-2587000D02*
X7409000Y-2587000D01*
X7359000Y-2791000D02*
X7359000Y-2891000D01*
X7309000Y-2841000D02*
X7409000Y-2841000D01*
X7359000Y-3045000D02*
X7359000Y-3145000D01*
X7309000Y-3095000D02*
X7409000Y-3095000D01*
X7359000Y-3299000D02*
X7359000Y-3399000D01*
X7309000Y-3349000D02*
X7409000Y-3349000D01*
X7359000Y-3553000D02*
X7359000Y-3653000D01*
X7309000Y-3603000D02*
X7409000Y-3603000D01*
X7359000Y-3807000D02*
X7359000Y-3907000D01*
X7309000Y-3857000D02*
X7409000Y-3857000D01*
X7359000Y-4061000D02*
X7359000Y-4161000D01*
X7309000Y-4111000D02*
X7409000Y-4111000D01*
X7359000Y-4315000D02*
X7359000Y-4415000D01*
X7309000Y-4365000D02*
X7409000Y-4365000D01*
X7359000Y-4569000D02*
X7359000Y-4669000D01*
X7309000Y-4619000D02*
X7409000Y-4619000D01*
X7359000Y-4823000D02*
X7359000Y-4923000D01*
X7309000Y-4873000D02*
X7409000Y-4873000D01*
X7359000Y-5077000D02*
X7359000Y-5177000D01*
X7309000Y-5127000D02*
X7409000Y-5127000D01*
X7359000Y-5331000D02*
X7359000Y-5431000D01*
X7309000Y-5381000D02*
X7409000Y-5381000D01*
X7359000Y-5585000D02*
X7359000Y-5685000D01*
X7309000Y-5635000D02*
X7409000Y-5635000D01*
X7359000Y-5839000D02*
X7359000Y-5939000D01*
X7309000Y-5889000D02*
X7409000Y-5889000D01*
X7359000Y-6093000D02*
X7359000Y-6193000D01*
X7309000Y-6143000D02*
X7409000Y-6143000D01*
X7359000Y-6347000D02*
X7359000Y-6447000D01*
X7309000Y-6397000D02*
X7409000Y-6397000D01*
X7359000Y-6601000D02*
X7359000Y-6701000D01*
X7309000Y-6651000D02*
X7409000Y-6651000D01*
X7359000Y-6855000D02*
X7359000Y-6955000D01*
X7309000Y-6905000D02*
X7409000Y-6905000D01*
X7359000Y-7109000D02*
X7359000Y-7209000D01*
X7309000Y-7159000D02*
X7409000Y-7159000D01*
X7359000Y-7363000D02*
X7359000Y-7463000D01*
X7309000Y-7413000D02*
X7409000Y-7413000D01*
D11*
X5678277Y-7863984D02*
X5678277Y-7663984D01*
X5678277Y-7663984D02*
X5725896Y-7663984D01*
X5725896Y-7663984D02*
X5754467Y-7673508D01*
X5754467Y-7673508D02*
X5773515Y-7692555D01*
X5773515Y-7692555D02*
X5783039Y-7711603D01*
X5783039Y-7711603D02*
X5792562Y-7749698D01*
X5792562Y-7749698D02*
X5792562Y-7778269D01*
X5792562Y-7778269D02*
X5783039Y-7816365D01*
X5783039Y-7816365D02*
X5773515Y-7835412D01*
X5773515Y-7835412D02*
X5754467Y-7854460D01*
X5754467Y-7854460D02*
X5725896Y-7863984D01*
X5725896Y-7863984D02*
X5678277Y-7863984D01*
X5878277Y-7863984D02*
X5878277Y-7730650D01*
X5878277Y-7768746D02*
X5887801Y-7749698D01*
X5887801Y-7749698D02*
X5897324Y-7740174D01*
X5897324Y-7740174D02*
X5916372Y-7730650D01*
X5916372Y-7730650D02*
X5935420Y-7730650D01*
X6002086Y-7863984D02*
X6002086Y-7730650D01*
X6002086Y-7663984D02*
X5992562Y-7673508D01*
X5992562Y-7673508D02*
X6002086Y-7683031D01*
X6002086Y-7683031D02*
X6011610Y-7673508D01*
X6011610Y-7673508D02*
X6002086Y-7663984D01*
X6002086Y-7663984D02*
X6002086Y-7683031D01*
X6125896Y-7863984D02*
X6106848Y-7854460D01*
X6106848Y-7854460D02*
X6097324Y-7835412D01*
X6097324Y-7835412D02*
X6097324Y-7663984D01*
X6230658Y-7863984D02*
X6211610Y-7854460D01*
X6211610Y-7854460D02*
X6202086Y-7835412D01*
X6202086Y-7835412D02*
X6202086Y-7663984D01*
X6459229Y-7863984D02*
X6459229Y-7663984D01*
X6459229Y-7663984D02*
X6525896Y-7806841D01*
X6525896Y-7806841D02*
X6592562Y-7663984D01*
X6592562Y-7663984D02*
X6592562Y-7863984D01*
X6773515Y-7863984D02*
X6773515Y-7759222D01*
X6773515Y-7759222D02*
X6763991Y-7740174D01*
X6763991Y-7740174D02*
X6744943Y-7730650D01*
X6744943Y-7730650D02*
X6706848Y-7730650D01*
X6706848Y-7730650D02*
X6687801Y-7740174D01*
X6773515Y-7854460D02*
X6754467Y-7863984D01*
X6754467Y-7863984D02*
X6706848Y-7863984D01*
X6706848Y-7863984D02*
X6687801Y-7854460D01*
X6687801Y-7854460D02*
X6678277Y-7835412D01*
X6678277Y-7835412D02*
X6678277Y-7816365D01*
X6678277Y-7816365D02*
X6687801Y-7797317D01*
X6687801Y-7797317D02*
X6706848Y-7787793D01*
X6706848Y-7787793D02*
X6754467Y-7787793D01*
X6754467Y-7787793D02*
X6773515Y-7778269D01*
X6868753Y-7730650D02*
X6868753Y-7930650D01*
X6868753Y-7740174D02*
X6887801Y-7730650D01*
X6887801Y-7730650D02*
X6925896Y-7730650D01*
X6925896Y-7730650D02*
X6944943Y-7740174D01*
X6944943Y-7740174D02*
X6954467Y-7749698D01*
X6954467Y-7749698D02*
X6963991Y-7768746D01*
X6963991Y-7768746D02*
X6963991Y-7825888D01*
X6963991Y-7825888D02*
X6954467Y-7844936D01*
X6954467Y-7844936D02*
X6944943Y-7854460D01*
X6944943Y-7854460D02*
X6925896Y-7863984D01*
X6925896Y-7863984D02*
X6887801Y-7863984D01*
X6887801Y-7863984D02*
X6868753Y-7854460D01*
X7049705Y-7844936D02*
X7059229Y-7854460D01*
X7059229Y-7854460D02*
X7049705Y-7863984D01*
X7049705Y-7863984D02*
X7040182Y-7854460D01*
X7040182Y-7854460D02*
X7049705Y-7844936D01*
X7049705Y-7844936D02*
X7049705Y-7863984D01*
X7049705Y-7740174D02*
X7059229Y-7749698D01*
X7059229Y-7749698D02*
X7049705Y-7759222D01*
X7049705Y-7759222D02*
X7040182Y-7749698D01*
X7040182Y-7749698D02*
X7049705Y-7740174D01*
X7049705Y-7740174D02*
X7049705Y-7759222D01*
D12*
X5387500Y-8177500D02*
X5417500Y-8207500D01*
X5417500Y-8177500D02*
X5387500Y-8207500D01*
D11*
X5716372Y-8083984D02*
X5735420Y-8083984D01*
X5735420Y-8083984D02*
X5754467Y-8093508D01*
X5754467Y-8093508D02*
X5763991Y-8103031D01*
X5763991Y-8103031D02*
X5773515Y-8122079D01*
X5773515Y-8122079D02*
X5783039Y-8160174D01*
X5783039Y-8160174D02*
X5783039Y-8207793D01*
X5783039Y-8207793D02*
X5773515Y-8245888D01*
X5773515Y-8245888D02*
X5763991Y-8264936D01*
X5763991Y-8264936D02*
X5754467Y-8274460D01*
X5754467Y-8274460D02*
X5735420Y-8283984D01*
X5735420Y-8283984D02*
X5716372Y-8283984D01*
X5716372Y-8283984D02*
X5697324Y-8274460D01*
X5697324Y-8274460D02*
X5687801Y-8264936D01*
X5687801Y-8264936D02*
X5678277Y-8245888D01*
X5678277Y-8245888D02*
X5668753Y-8207793D01*
X5668753Y-8207793D02*
X5668753Y-8160174D01*
X5668753Y-8160174D02*
X5678277Y-8122079D01*
X5678277Y-8122079D02*
X5687801Y-8103031D01*
X5687801Y-8103031D02*
X5697324Y-8093508D01*
X5697324Y-8093508D02*
X5716372Y-8083984D01*
X5868753Y-8264936D02*
X5878277Y-8274460D01*
X5878277Y-8274460D02*
X5868753Y-8283984D01*
X5868753Y-8283984D02*
X5859229Y-8274460D01*
X5859229Y-8274460D02*
X5868753Y-8264936D01*
X5868753Y-8264936D02*
X5868753Y-8283984D01*
X5944943Y-8083984D02*
X6068753Y-8083984D01*
X6068753Y-8083984D02*
X6002086Y-8160174D01*
X6002086Y-8160174D02*
X6030658Y-8160174D01*
X6030658Y-8160174D02*
X6049705Y-8169698D01*
X6049705Y-8169698D02*
X6059229Y-8179222D01*
X6059229Y-8179222D02*
X6068753Y-8198269D01*
X6068753Y-8198269D02*
X6068753Y-8245888D01*
X6068753Y-8245888D02*
X6059229Y-8264936D01*
X6059229Y-8264936D02*
X6049705Y-8274460D01*
X6049705Y-8274460D02*
X6030658Y-8283984D01*
X6030658Y-8283984D02*
X5973515Y-8283984D01*
X5973515Y-8283984D02*
X5954467Y-8274460D01*
X5954467Y-8274460D02*
X5944943Y-8264936D01*
X6192562Y-8083984D02*
X6211610Y-8083984D01*
X6211610Y-8083984D02*
X6230658Y-8093508D01*
X6230658Y-8093508D02*
X6240182Y-8103031D01*
X6240182Y-8103031D02*
X6249705Y-8122079D01*
X6249705Y-8122079D02*
X6259229Y-8160174D01*
X6259229Y-8160174D02*
X6259229Y-8207793D01*
X6259229Y-8207793D02*
X6249705Y-8245888D01*
X6249705Y-8245888D02*
X6240182Y-8264936D01*
X6240182Y-8264936D02*
X6230658Y-8274460D01*
X6230658Y-8274460D02*
X6211610Y-8283984D01*
X6211610Y-8283984D02*
X6192562Y-8283984D01*
X6192562Y-8283984D02*
X6173515Y-8274460D01*
X6173515Y-8274460D02*
X6163991Y-8264936D01*
X6163991Y-8264936D02*
X6154467Y-8245888D01*
X6154467Y-8245888D02*
X6144943Y-8207793D01*
X6144943Y-8207793D02*
X6144943Y-8160174D01*
X6144943Y-8160174D02*
X6154467Y-8122079D01*
X6154467Y-8122079D02*
X6163991Y-8103031D01*
X6163991Y-8103031D02*
X6173515Y-8093508D01*
X6173515Y-8093508D02*
X6192562Y-8083984D01*
X6383039Y-8083984D02*
X6402086Y-8083984D01*
X6402086Y-8083984D02*
X6421134Y-8093508D01*
X6421134Y-8093508D02*
X6430658Y-8103031D01*
X6430658Y-8103031D02*
X6440182Y-8122079D01*
X6440182Y-8122079D02*
X6449705Y-8160174D01*
X6449705Y-8160174D02*
X6449705Y-8207793D01*
X6449705Y-8207793D02*
X6440182Y-8245888D01*
X6440182Y-8245888D02*
X6430658Y-8264936D01*
X6430658Y-8264936D02*
X6421134Y-8274460D01*
X6421134Y-8274460D02*
X6402086Y-8283984D01*
X6402086Y-8283984D02*
X6383039Y-8283984D01*
X6383039Y-8283984D02*
X6363991Y-8274460D01*
X6363991Y-8274460D02*
X6354467Y-8264936D01*
X6354467Y-8264936D02*
X6344943Y-8245888D01*
X6344943Y-8245888D02*
X6335420Y-8207793D01*
X6335420Y-8207793D02*
X6335420Y-8160174D01*
X6335420Y-8160174D02*
X6344943Y-8122079D01*
X6344943Y-8122079D02*
X6354467Y-8103031D01*
X6354467Y-8103031D02*
X6363991Y-8093508D01*
X6363991Y-8093508D02*
X6383039Y-8083984D01*
X6535420Y-8283984D02*
X6535420Y-8150650D01*
X6535420Y-8169698D02*
X6544943Y-8160174D01*
X6544943Y-8160174D02*
X6563991Y-8150650D01*
X6563991Y-8150650D02*
X6592563Y-8150650D01*
X6592563Y-8150650D02*
X6611610Y-8160174D01*
X6611610Y-8160174D02*
X6621134Y-8179222D01*
X6621134Y-8179222D02*
X6621134Y-8283984D01*
X6621134Y-8179222D02*
X6630658Y-8160174D01*
X6630658Y-8160174D02*
X6649705Y-8150650D01*
X6649705Y-8150650D02*
X6678277Y-8150650D01*
X6678277Y-8150650D02*
X6697324Y-8160174D01*
X6697324Y-8160174D02*
X6706848Y-8179222D01*
X6706848Y-8179222D02*
X6706848Y-8283984D01*
X6802086Y-8283984D02*
X6802086Y-8150650D01*
X6802086Y-8169698D02*
X6811610Y-8160174D01*
X6811610Y-8160174D02*
X6830658Y-8150650D01*
X6830658Y-8150650D02*
X6859229Y-8150650D01*
X6859229Y-8150650D02*
X6878277Y-8160174D01*
X6878277Y-8160174D02*
X6887801Y-8179222D01*
X6887801Y-8179222D02*
X6887801Y-8283984D01*
X6887801Y-8179222D02*
X6897324Y-8160174D01*
X6897324Y-8160174D02*
X6916372Y-8150650D01*
X6916372Y-8150650D02*
X6944943Y-8150650D01*
X6944943Y-8150650D02*
X6963991Y-8160174D01*
X6963991Y-8160174D02*
X6973515Y-8179222D01*
X6973515Y-8179222D02*
X6973515Y-8283984D01*
X7363991Y-8074460D02*
X7192563Y-8331603D01*
X7621134Y-8083984D02*
X7640182Y-8083984D01*
X7640182Y-8083984D02*
X7659229Y-8093508D01*
X7659229Y-8093508D02*
X7668753Y-8103031D01*
X7668753Y-8103031D02*
X7678277Y-8122079D01*
X7678277Y-8122079D02*
X7687801Y-8160174D01*
X7687801Y-8160174D02*
X7687801Y-8207793D01*
X7687801Y-8207793D02*
X7678277Y-8245888D01*
X7678277Y-8245888D02*
X7668753Y-8264936D01*
X7668753Y-8264936D02*
X7659229Y-8274460D01*
X7659229Y-8274460D02*
X7640182Y-8283984D01*
X7640182Y-8283984D02*
X7621134Y-8283984D01*
X7621134Y-8283984D02*
X7602086Y-8274460D01*
X7602086Y-8274460D02*
X7592563Y-8264936D01*
X7592563Y-8264936D02*
X7583039Y-8245888D01*
X7583039Y-8245888D02*
X7573515Y-8207793D01*
X7573515Y-8207793D02*
X7573515Y-8160174D01*
X7573515Y-8160174D02*
X7583039Y-8122079D01*
X7583039Y-8122079D02*
X7592563Y-8103031D01*
X7592563Y-8103031D02*
X7602086Y-8093508D01*
X7602086Y-8093508D02*
X7621134Y-8083984D01*
X7773515Y-8264936D02*
X7783039Y-8274460D01*
X7783039Y-8274460D02*
X7773515Y-8283984D01*
X7773515Y-8283984D02*
X7763991Y-8274460D01*
X7763991Y-8274460D02*
X7773515Y-8264936D01*
X7773515Y-8264936D02*
X7773515Y-8283984D01*
X7906848Y-8083984D02*
X7925896Y-8083984D01*
X7925896Y-8083984D02*
X7944944Y-8093508D01*
X7944944Y-8093508D02*
X7954467Y-8103031D01*
X7954467Y-8103031D02*
X7963991Y-8122079D01*
X7963991Y-8122079D02*
X7973515Y-8160174D01*
X7973515Y-8160174D02*
X7973515Y-8207793D01*
X7973515Y-8207793D02*
X7963991Y-8245888D01*
X7963991Y-8245888D02*
X7954467Y-8264936D01*
X7954467Y-8264936D02*
X7944944Y-8274460D01*
X7944944Y-8274460D02*
X7925896Y-8283984D01*
X7925896Y-8283984D02*
X7906848Y-8283984D01*
X7906848Y-8283984D02*
X7887801Y-8274460D01*
X7887801Y-8274460D02*
X7878277Y-8264936D01*
X7878277Y-8264936D02*
X7868753Y-8245888D01*
X7868753Y-8245888D02*
X7859229Y-8207793D01*
X7859229Y-8207793D02*
X7859229Y-8160174D01*
X7859229Y-8160174D02*
X7868753Y-8122079D01*
X7868753Y-8122079D02*
X7878277Y-8103031D01*
X7878277Y-8103031D02*
X7887801Y-8093508D01*
X7887801Y-8093508D02*
X7906848Y-8083984D01*
X8163991Y-8283984D02*
X8049706Y-8283984D01*
X8106848Y-8283984D02*
X8106848Y-8083984D01*
X8106848Y-8083984D02*
X8087801Y-8112555D01*
X8087801Y-8112555D02*
X8068753Y-8131603D01*
X8068753Y-8131603D02*
X8049706Y-8141127D01*
X8354467Y-8283984D02*
X8240182Y-8283984D01*
X8297325Y-8283984D02*
X8297325Y-8083984D01*
X8297325Y-8083984D02*
X8278277Y-8112555D01*
X8278277Y-8112555D02*
X8259229Y-8131603D01*
X8259229Y-8131603D02*
X8240182Y-8141127D01*
X8468753Y-8169698D02*
X8449706Y-8160174D01*
X8449706Y-8160174D02*
X8440182Y-8150650D01*
X8440182Y-8150650D02*
X8430658Y-8131603D01*
X8430658Y-8131603D02*
X8430658Y-8122079D01*
X8430658Y-8122079D02*
X8440182Y-8103031D01*
X8440182Y-8103031D02*
X8449706Y-8093508D01*
X8449706Y-8093508D02*
X8468753Y-8083984D01*
X8468753Y-8083984D02*
X8506849Y-8083984D01*
X8506849Y-8083984D02*
X8525896Y-8093508D01*
X8525896Y-8093508D02*
X8535420Y-8103031D01*
X8535420Y-8103031D02*
X8544944Y-8122079D01*
X8544944Y-8122079D02*
X8544944Y-8131603D01*
X8544944Y-8131603D02*
X8535420Y-8150650D01*
X8535420Y-8150650D02*
X8525896Y-8160174D01*
X8525896Y-8160174D02*
X8506849Y-8169698D01*
X8506849Y-8169698D02*
X8468753Y-8169698D01*
X8468753Y-8169698D02*
X8449706Y-8179222D01*
X8449706Y-8179222D02*
X8440182Y-8188746D01*
X8440182Y-8188746D02*
X8430658Y-8207793D01*
X8430658Y-8207793D02*
X8430658Y-8245888D01*
X8430658Y-8245888D02*
X8440182Y-8264936D01*
X8440182Y-8264936D02*
X8449706Y-8274460D01*
X8449706Y-8274460D02*
X8468753Y-8283984D01*
X8468753Y-8283984D02*
X8506849Y-8283984D01*
X8506849Y-8283984D02*
X8525896Y-8274460D01*
X8525896Y-8274460D02*
X8535420Y-8264936D01*
X8535420Y-8264936D02*
X8544944Y-8245888D01*
X8544944Y-8245888D02*
X8544944Y-8207793D01*
X8544944Y-8207793D02*
X8535420Y-8188746D01*
X8535420Y-8188746D02*
X8525896Y-8179222D01*
X8525896Y-8179222D02*
X8506849Y-8169698D01*
X8621134Y-8083984D02*
X8621134Y-8122079D01*
X8697325Y-8083984D02*
X8697325Y-8122079D01*
X8992563Y-8360174D02*
X8983039Y-8350650D01*
X8983039Y-8350650D02*
X8963991Y-8322079D01*
X8963991Y-8322079D02*
X8954468Y-8303031D01*
X8954468Y-8303031D02*
X8944944Y-8274460D01*
X8944944Y-8274460D02*
X8935420Y-8226841D01*
X8935420Y-8226841D02*
X8935420Y-8188746D01*
X8935420Y-8188746D02*
X8944944Y-8141127D01*
X8944944Y-8141127D02*
X8954468Y-8112555D01*
X8954468Y-8112555D02*
X8963991Y-8093508D01*
X8963991Y-8093508D02*
X8983039Y-8064936D01*
X8983039Y-8064936D02*
X8992563Y-8055412D01*
X9163991Y-8083984D02*
X9068753Y-8083984D01*
X9068753Y-8083984D02*
X9059230Y-8179222D01*
X9059230Y-8179222D02*
X9068753Y-8169698D01*
X9068753Y-8169698D02*
X9087801Y-8160174D01*
X9087801Y-8160174D02*
X9135420Y-8160174D01*
X9135420Y-8160174D02*
X9154468Y-8169698D01*
X9154468Y-8169698D02*
X9163991Y-8179222D01*
X9163991Y-8179222D02*
X9173515Y-8198269D01*
X9173515Y-8198269D02*
X9173515Y-8245888D01*
X9173515Y-8245888D02*
X9163991Y-8264936D01*
X9163991Y-8264936D02*
X9154468Y-8274460D01*
X9154468Y-8274460D02*
X9135420Y-8283984D01*
X9135420Y-8283984D02*
X9087801Y-8283984D01*
X9087801Y-8283984D02*
X9068753Y-8274460D01*
X9068753Y-8274460D02*
X9059230Y-8264936D01*
X9287801Y-8169698D02*
X9268753Y-8160174D01*
X9268753Y-8160174D02*
X9259230Y-8150650D01*
X9259230Y-8150650D02*
X9249706Y-8131603D01*
X9249706Y-8131603D02*
X9249706Y-8122079D01*
X9249706Y-8122079D02*
X9259230Y-8103031D01*
X9259230Y-8103031D02*
X9268753Y-8093508D01*
X9268753Y-8093508D02*
X9287801Y-8083984D01*
X9287801Y-8083984D02*
X9325896Y-8083984D01*
X9325896Y-8083984D02*
X9344944Y-8093508D01*
X9344944Y-8093508D02*
X9354468Y-8103031D01*
X9354468Y-8103031D02*
X9363991Y-8122079D01*
X9363991Y-8122079D02*
X9363991Y-8131603D01*
X9363991Y-8131603D02*
X9354468Y-8150650D01*
X9354468Y-8150650D02*
X9344944Y-8160174D01*
X9344944Y-8160174D02*
X9325896Y-8169698D01*
X9325896Y-8169698D02*
X9287801Y-8169698D01*
X9287801Y-8169698D02*
X9268753Y-8179222D01*
X9268753Y-8179222D02*
X9259230Y-8188746D01*
X9259230Y-8188746D02*
X9249706Y-8207793D01*
X9249706Y-8207793D02*
X9249706Y-8245888D01*
X9249706Y-8245888D02*
X9259230Y-8264936D01*
X9259230Y-8264936D02*
X9268753Y-8274460D01*
X9268753Y-8274460D02*
X9287801Y-8283984D01*
X9287801Y-8283984D02*
X9325896Y-8283984D01*
X9325896Y-8283984D02*
X9344944Y-8274460D01*
X9344944Y-8274460D02*
X9354468Y-8264936D01*
X9354468Y-8264936D02*
X9363991Y-8245888D01*
X9363991Y-8245888D02*
X9363991Y-8207793D01*
X9363991Y-8207793D02*
X9354468Y-8188746D01*
X9354468Y-8188746D02*
X9344944Y-8179222D01*
X9344944Y-8179222D02*
X9325896Y-8169698D01*
X9602087Y-8283984D02*
X9602087Y-8083984D01*
X9687801Y-8283984D02*
X9687801Y-8179222D01*
X9687801Y-8179222D02*
X9678277Y-8160174D01*
X9678277Y-8160174D02*
X9659230Y-8150650D01*
X9659230Y-8150650D02*
X9630658Y-8150650D01*
X9630658Y-8150650D02*
X9611611Y-8160174D01*
X9611611Y-8160174D02*
X9602087Y-8169698D01*
X9811611Y-8283984D02*
X9792563Y-8274460D01*
X9792563Y-8274460D02*
X9783039Y-8264936D01*
X9783039Y-8264936D02*
X9773515Y-8245888D01*
X9773515Y-8245888D02*
X9773515Y-8188746D01*
X9773515Y-8188746D02*
X9783039Y-8169698D01*
X9783039Y-8169698D02*
X9792563Y-8160174D01*
X9792563Y-8160174D02*
X9811611Y-8150650D01*
X9811611Y-8150650D02*
X9840182Y-8150650D01*
X9840182Y-8150650D02*
X9859230Y-8160174D01*
X9859230Y-8160174D02*
X9868753Y-8169698D01*
X9868753Y-8169698D02*
X9878277Y-8188746D01*
X9878277Y-8188746D02*
X9878277Y-8245888D01*
X9878277Y-8245888D02*
X9868753Y-8264936D01*
X9868753Y-8264936D02*
X9859230Y-8274460D01*
X9859230Y-8274460D02*
X9840182Y-8283984D01*
X9840182Y-8283984D02*
X9811611Y-8283984D01*
X9992563Y-8283984D02*
X9973515Y-8274460D01*
X9973515Y-8274460D02*
X9963992Y-8255412D01*
X9963992Y-8255412D02*
X9963992Y-8083984D01*
X10144944Y-8274460D02*
X10125896Y-8283984D01*
X10125896Y-8283984D02*
X10087801Y-8283984D01*
X10087801Y-8283984D02*
X10068753Y-8274460D01*
X10068753Y-8274460D02*
X10059230Y-8255412D01*
X10059230Y-8255412D02*
X10059230Y-8179222D01*
X10059230Y-8179222D02*
X10068753Y-8160174D01*
X10068753Y-8160174D02*
X10087801Y-8150650D01*
X10087801Y-8150650D02*
X10125896Y-8150650D01*
X10125896Y-8150650D02*
X10144944Y-8160174D01*
X10144944Y-8160174D02*
X10154468Y-8179222D01*
X10154468Y-8179222D02*
X10154468Y-8198269D01*
X10154468Y-8198269D02*
X10059230Y-8217317D01*
X10230658Y-8274460D02*
X10249706Y-8283984D01*
X10249706Y-8283984D02*
X10287801Y-8283984D01*
X10287801Y-8283984D02*
X10306849Y-8274460D01*
X10306849Y-8274460D02*
X10316373Y-8255412D01*
X10316373Y-8255412D02*
X10316373Y-8245888D01*
X10316373Y-8245888D02*
X10306849Y-8226841D01*
X10306849Y-8226841D02*
X10287801Y-8217317D01*
X10287801Y-8217317D02*
X10259230Y-8217317D01*
X10259230Y-8217317D02*
X10240182Y-8207793D01*
X10240182Y-8207793D02*
X10230658Y-8188746D01*
X10230658Y-8188746D02*
X10230658Y-8179222D01*
X10230658Y-8179222D02*
X10240182Y-8160174D01*
X10240182Y-8160174D02*
X10259230Y-8150650D01*
X10259230Y-8150650D02*
X10287801Y-8150650D01*
X10287801Y-8150650D02*
X10306849Y-8160174D01*
X10383039Y-8360174D02*
X10392563Y-8350650D01*
X10392563Y-8350650D02*
X10411611Y-8322079D01*
X10411611Y-8322079D02*
X10421134Y-8303031D01*
X10421134Y-8303031D02*
X10430658Y-8274460D01*
X10430658Y-8274460D02*
X10440182Y-8226841D01*
X10440182Y-8226841D02*
X10440182Y-8188746D01*
X10440182Y-8188746D02*
X10430658Y-8141127D01*
X10430658Y-8141127D02*
X10421134Y-8112555D01*
X10421134Y-8112555D02*
X10411611Y-8093508D01*
X10411611Y-8093508D02*
X10392563Y-8064936D01*
X10392563Y-8064936D02*
X10383039Y-8055412D01*
D12*
X5417500Y-8456500D02*
G75*
G02*
X5357500Y-8456500I-30000J0D01*
G01*
X5357500Y-8456500D02*
G75*
G02*
X5417500Y-8456500I30000J0D01*
G01*
D11*
X5716372Y-8347984D02*
X5735420Y-8347984D01*
X5735420Y-8347984D02*
X5754467Y-8357508D01*
X5754467Y-8357508D02*
X5763991Y-8367031D01*
X5763991Y-8367031D02*
X5773515Y-8386079D01*
X5773515Y-8386079D02*
X5783039Y-8424174D01*
X5783039Y-8424174D02*
X5783039Y-8471793D01*
X5783039Y-8471793D02*
X5773515Y-8509889D01*
X5773515Y-8509889D02*
X5763991Y-8528936D01*
X5763991Y-8528936D02*
X5754467Y-8538460D01*
X5754467Y-8538460D02*
X5735420Y-8547984D01*
X5735420Y-8547984D02*
X5716372Y-8547984D01*
X5716372Y-8547984D02*
X5697324Y-8538460D01*
X5697324Y-8538460D02*
X5687801Y-8528936D01*
X5687801Y-8528936D02*
X5678277Y-8509889D01*
X5678277Y-8509889D02*
X5668753Y-8471793D01*
X5668753Y-8471793D02*
X5668753Y-8424174D01*
X5668753Y-8424174D02*
X5678277Y-8386079D01*
X5678277Y-8386079D02*
X5687801Y-8367031D01*
X5687801Y-8367031D02*
X5697324Y-8357508D01*
X5697324Y-8357508D02*
X5716372Y-8347984D01*
X5868753Y-8528936D02*
X5878277Y-8538460D01*
X5878277Y-8538460D02*
X5868753Y-8547984D01*
X5868753Y-8547984D02*
X5859229Y-8538460D01*
X5859229Y-8538460D02*
X5868753Y-8528936D01*
X5868753Y-8528936D02*
X5868753Y-8547984D01*
X6049705Y-8347984D02*
X6011610Y-8347984D01*
X6011610Y-8347984D02*
X5992562Y-8357508D01*
X5992562Y-8357508D02*
X5983039Y-8367031D01*
X5983039Y-8367031D02*
X5963991Y-8395603D01*
X5963991Y-8395603D02*
X5954467Y-8433698D01*
X5954467Y-8433698D02*
X5954467Y-8509889D01*
X5954467Y-8509889D02*
X5963991Y-8528936D01*
X5963991Y-8528936D02*
X5973515Y-8538460D01*
X5973515Y-8538460D02*
X5992562Y-8547984D01*
X5992562Y-8547984D02*
X6030658Y-8547984D01*
X6030658Y-8547984D02*
X6049705Y-8538460D01*
X6049705Y-8538460D02*
X6059229Y-8528936D01*
X6059229Y-8528936D02*
X6068753Y-8509889D01*
X6068753Y-8509889D02*
X6068753Y-8462270D01*
X6068753Y-8462270D02*
X6059229Y-8443222D01*
X6059229Y-8443222D02*
X6049705Y-8433698D01*
X6049705Y-8433698D02*
X6030658Y-8424174D01*
X6030658Y-8424174D02*
X5992562Y-8424174D01*
X5992562Y-8424174D02*
X5973515Y-8433698D01*
X5973515Y-8433698D02*
X5963991Y-8443222D01*
X5963991Y-8443222D02*
X5954467Y-8462270D01*
X6192562Y-8347984D02*
X6211610Y-8347984D01*
X6211610Y-8347984D02*
X6230658Y-8357508D01*
X6230658Y-8357508D02*
X6240182Y-8367031D01*
X6240182Y-8367031D02*
X6249705Y-8386079D01*
X6249705Y-8386079D02*
X6259229Y-8424174D01*
X6259229Y-8424174D02*
X6259229Y-8471793D01*
X6259229Y-8471793D02*
X6249705Y-8509889D01*
X6249705Y-8509889D02*
X6240182Y-8528936D01*
X6240182Y-8528936D02*
X6230658Y-8538460D01*
X6230658Y-8538460D02*
X6211610Y-8547984D01*
X6211610Y-8547984D02*
X6192562Y-8547984D01*
X6192562Y-8547984D02*
X6173515Y-8538460D01*
X6173515Y-8538460D02*
X6163991Y-8528936D01*
X6163991Y-8528936D02*
X6154467Y-8509889D01*
X6154467Y-8509889D02*
X6144943Y-8471793D01*
X6144943Y-8471793D02*
X6144943Y-8424174D01*
X6144943Y-8424174D02*
X6154467Y-8386079D01*
X6154467Y-8386079D02*
X6163991Y-8367031D01*
X6163991Y-8367031D02*
X6173515Y-8357508D01*
X6173515Y-8357508D02*
X6192562Y-8347984D01*
X6383039Y-8347984D02*
X6402086Y-8347984D01*
X6402086Y-8347984D02*
X6421134Y-8357508D01*
X6421134Y-8357508D02*
X6430658Y-8367031D01*
X6430658Y-8367031D02*
X6440182Y-8386079D01*
X6440182Y-8386079D02*
X6449705Y-8424174D01*
X6449705Y-8424174D02*
X6449705Y-8471793D01*
X6449705Y-8471793D02*
X6440182Y-8509889D01*
X6440182Y-8509889D02*
X6430658Y-8528936D01*
X6430658Y-8528936D02*
X6421134Y-8538460D01*
X6421134Y-8538460D02*
X6402086Y-8547984D01*
X6402086Y-8547984D02*
X6383039Y-8547984D01*
X6383039Y-8547984D02*
X6363991Y-8538460D01*
X6363991Y-8538460D02*
X6354467Y-8528936D01*
X6354467Y-8528936D02*
X6344943Y-8509889D01*
X6344943Y-8509889D02*
X6335420Y-8471793D01*
X6335420Y-8471793D02*
X6335420Y-8424174D01*
X6335420Y-8424174D02*
X6344943Y-8386079D01*
X6344943Y-8386079D02*
X6354467Y-8367031D01*
X6354467Y-8367031D02*
X6363991Y-8357508D01*
X6363991Y-8357508D02*
X6383039Y-8347984D01*
X6535420Y-8547984D02*
X6535420Y-8414650D01*
X6535420Y-8433698D02*
X6544943Y-8424174D01*
X6544943Y-8424174D02*
X6563991Y-8414650D01*
X6563991Y-8414650D02*
X6592563Y-8414650D01*
X6592563Y-8414650D02*
X6611610Y-8424174D01*
X6611610Y-8424174D02*
X6621134Y-8443222D01*
X6621134Y-8443222D02*
X6621134Y-8547984D01*
X6621134Y-8443222D02*
X6630658Y-8424174D01*
X6630658Y-8424174D02*
X6649705Y-8414650D01*
X6649705Y-8414650D02*
X6678277Y-8414650D01*
X6678277Y-8414650D02*
X6697324Y-8424174D01*
X6697324Y-8424174D02*
X6706848Y-8443222D01*
X6706848Y-8443222D02*
X6706848Y-8547984D01*
X6802086Y-8547984D02*
X6802086Y-8414650D01*
X6802086Y-8433698D02*
X6811610Y-8424174D01*
X6811610Y-8424174D02*
X6830658Y-8414650D01*
X6830658Y-8414650D02*
X6859229Y-8414650D01*
X6859229Y-8414650D02*
X6878277Y-8424174D01*
X6878277Y-8424174D02*
X6887801Y-8443222D01*
X6887801Y-8443222D02*
X6887801Y-8547984D01*
X6887801Y-8443222D02*
X6897324Y-8424174D01*
X6897324Y-8424174D02*
X6916372Y-8414650D01*
X6916372Y-8414650D02*
X6944943Y-8414650D01*
X6944943Y-8414650D02*
X6963991Y-8424174D01*
X6963991Y-8424174D02*
X6973515Y-8443222D01*
X6973515Y-8443222D02*
X6973515Y-8547984D01*
X7363991Y-8338460D02*
X7192563Y-8595603D01*
X7621134Y-8347984D02*
X7640182Y-8347984D01*
X7640182Y-8347984D02*
X7659229Y-8357508D01*
X7659229Y-8357508D02*
X7668753Y-8367031D01*
X7668753Y-8367031D02*
X7678277Y-8386079D01*
X7678277Y-8386079D02*
X7687801Y-8424174D01*
X7687801Y-8424174D02*
X7687801Y-8471793D01*
X7687801Y-8471793D02*
X7678277Y-8509889D01*
X7678277Y-8509889D02*
X7668753Y-8528936D01*
X7668753Y-8528936D02*
X7659229Y-8538460D01*
X7659229Y-8538460D02*
X7640182Y-8547984D01*
X7640182Y-8547984D02*
X7621134Y-8547984D01*
X7621134Y-8547984D02*
X7602086Y-8538460D01*
X7602086Y-8538460D02*
X7592563Y-8528936D01*
X7592563Y-8528936D02*
X7583039Y-8509889D01*
X7583039Y-8509889D02*
X7573515Y-8471793D01*
X7573515Y-8471793D02*
X7573515Y-8424174D01*
X7573515Y-8424174D02*
X7583039Y-8386079D01*
X7583039Y-8386079D02*
X7592563Y-8367031D01*
X7592563Y-8367031D02*
X7602086Y-8357508D01*
X7602086Y-8357508D02*
X7621134Y-8347984D01*
X7773515Y-8528936D02*
X7783039Y-8538460D01*
X7783039Y-8538460D02*
X7773515Y-8547984D01*
X7773515Y-8547984D02*
X7763991Y-8538460D01*
X7763991Y-8538460D02*
X7773515Y-8528936D01*
X7773515Y-8528936D02*
X7773515Y-8547984D01*
X7906848Y-8347984D02*
X7925896Y-8347984D01*
X7925896Y-8347984D02*
X7944944Y-8357508D01*
X7944944Y-8357508D02*
X7954467Y-8367031D01*
X7954467Y-8367031D02*
X7963991Y-8386079D01*
X7963991Y-8386079D02*
X7973515Y-8424174D01*
X7973515Y-8424174D02*
X7973515Y-8471793D01*
X7973515Y-8471793D02*
X7963991Y-8509889D01*
X7963991Y-8509889D02*
X7954467Y-8528936D01*
X7954467Y-8528936D02*
X7944944Y-8538460D01*
X7944944Y-8538460D02*
X7925896Y-8547984D01*
X7925896Y-8547984D02*
X7906848Y-8547984D01*
X7906848Y-8547984D02*
X7887801Y-8538460D01*
X7887801Y-8538460D02*
X7878277Y-8528936D01*
X7878277Y-8528936D02*
X7868753Y-8509889D01*
X7868753Y-8509889D02*
X7859229Y-8471793D01*
X7859229Y-8471793D02*
X7859229Y-8424174D01*
X7859229Y-8424174D02*
X7868753Y-8386079D01*
X7868753Y-8386079D02*
X7878277Y-8367031D01*
X7878277Y-8367031D02*
X7887801Y-8357508D01*
X7887801Y-8357508D02*
X7906848Y-8347984D01*
X8049706Y-8367031D02*
X8059229Y-8357508D01*
X8059229Y-8357508D02*
X8078277Y-8347984D01*
X8078277Y-8347984D02*
X8125896Y-8347984D01*
X8125896Y-8347984D02*
X8144944Y-8357508D01*
X8144944Y-8357508D02*
X8154467Y-8367031D01*
X8154467Y-8367031D02*
X8163991Y-8386079D01*
X8163991Y-8386079D02*
X8163991Y-8405127D01*
X8163991Y-8405127D02*
X8154467Y-8433698D01*
X8154467Y-8433698D02*
X8040182Y-8547984D01*
X8040182Y-8547984D02*
X8163991Y-8547984D01*
X8230658Y-8347984D02*
X8354467Y-8347984D01*
X8354467Y-8347984D02*
X8287801Y-8424174D01*
X8287801Y-8424174D02*
X8316372Y-8424174D01*
X8316372Y-8424174D02*
X8335420Y-8433698D01*
X8335420Y-8433698D02*
X8344944Y-8443222D01*
X8344944Y-8443222D02*
X8354467Y-8462270D01*
X8354467Y-8462270D02*
X8354467Y-8509889D01*
X8354467Y-8509889D02*
X8344944Y-8528936D01*
X8344944Y-8528936D02*
X8335420Y-8538460D01*
X8335420Y-8538460D02*
X8316372Y-8547984D01*
X8316372Y-8547984D02*
X8259229Y-8547984D01*
X8259229Y-8547984D02*
X8240182Y-8538460D01*
X8240182Y-8538460D02*
X8230658Y-8528936D01*
X8525896Y-8347984D02*
X8487801Y-8347984D01*
X8487801Y-8347984D02*
X8468753Y-8357508D01*
X8468753Y-8357508D02*
X8459229Y-8367031D01*
X8459229Y-8367031D02*
X8440182Y-8395603D01*
X8440182Y-8395603D02*
X8430658Y-8433698D01*
X8430658Y-8433698D02*
X8430658Y-8509889D01*
X8430658Y-8509889D02*
X8440182Y-8528936D01*
X8440182Y-8528936D02*
X8449706Y-8538460D01*
X8449706Y-8538460D02*
X8468753Y-8547984D01*
X8468753Y-8547984D02*
X8506849Y-8547984D01*
X8506849Y-8547984D02*
X8525896Y-8538460D01*
X8525896Y-8538460D02*
X8535420Y-8528936D01*
X8535420Y-8528936D02*
X8544944Y-8509889D01*
X8544944Y-8509889D02*
X8544944Y-8462270D01*
X8544944Y-8462270D02*
X8535420Y-8443222D01*
X8535420Y-8443222D02*
X8525896Y-8433698D01*
X8525896Y-8433698D02*
X8506849Y-8424174D01*
X8506849Y-8424174D02*
X8468753Y-8424174D01*
X8468753Y-8424174D02*
X8449706Y-8433698D01*
X8449706Y-8433698D02*
X8440182Y-8443222D01*
X8440182Y-8443222D02*
X8430658Y-8462270D01*
X8621134Y-8347984D02*
X8621134Y-8386079D01*
X8697325Y-8347984D02*
X8697325Y-8386079D01*
X8992563Y-8624174D02*
X8983039Y-8614650D01*
X8983039Y-8614650D02*
X8963991Y-8586079D01*
X8963991Y-8586079D02*
X8954468Y-8567031D01*
X8954468Y-8567031D02*
X8944944Y-8538460D01*
X8944944Y-8538460D02*
X8935420Y-8490841D01*
X8935420Y-8490841D02*
X8935420Y-8452746D01*
X8935420Y-8452746D02*
X8944944Y-8405127D01*
X8944944Y-8405127D02*
X8954468Y-8376555D01*
X8954468Y-8376555D02*
X8963991Y-8357508D01*
X8963991Y-8357508D02*
X8983039Y-8328936D01*
X8983039Y-8328936D02*
X8992563Y-8319412D01*
X9106849Y-8347984D02*
X9125896Y-8347984D01*
X9125896Y-8347984D02*
X9144944Y-8357508D01*
X9144944Y-8357508D02*
X9154468Y-8367031D01*
X9154468Y-8367031D02*
X9163991Y-8386079D01*
X9163991Y-8386079D02*
X9173515Y-8424174D01*
X9173515Y-8424174D02*
X9173515Y-8471793D01*
X9173515Y-8471793D02*
X9163991Y-8509889D01*
X9163991Y-8509889D02*
X9154468Y-8528936D01*
X9154468Y-8528936D02*
X9144944Y-8538460D01*
X9144944Y-8538460D02*
X9125896Y-8547984D01*
X9125896Y-8547984D02*
X9106849Y-8547984D01*
X9106849Y-8547984D02*
X9087801Y-8538460D01*
X9087801Y-8538460D02*
X9078277Y-8528936D01*
X9078277Y-8528936D02*
X9068753Y-8509889D01*
X9068753Y-8509889D02*
X9059230Y-8471793D01*
X9059230Y-8471793D02*
X9059230Y-8424174D01*
X9059230Y-8424174D02*
X9068753Y-8386079D01*
X9068753Y-8386079D02*
X9078277Y-8367031D01*
X9078277Y-8367031D02*
X9087801Y-8357508D01*
X9087801Y-8357508D02*
X9106849Y-8347984D01*
X9411611Y-8547984D02*
X9411611Y-8347984D01*
X9497325Y-8547984D02*
X9497325Y-8443222D01*
X9497325Y-8443222D02*
X9487801Y-8424174D01*
X9487801Y-8424174D02*
X9468753Y-8414650D01*
X9468753Y-8414650D02*
X9440182Y-8414650D01*
X9440182Y-8414650D02*
X9421134Y-8424174D01*
X9421134Y-8424174D02*
X9411611Y-8433698D01*
X9621134Y-8547984D02*
X9602087Y-8538460D01*
X9602087Y-8538460D02*
X9592563Y-8528936D01*
X9592563Y-8528936D02*
X9583039Y-8509889D01*
X9583039Y-8509889D02*
X9583039Y-8452746D01*
X9583039Y-8452746D02*
X9592563Y-8433698D01*
X9592563Y-8433698D02*
X9602087Y-8424174D01*
X9602087Y-8424174D02*
X9621134Y-8414650D01*
X9621134Y-8414650D02*
X9649706Y-8414650D01*
X9649706Y-8414650D02*
X9668753Y-8424174D01*
X9668753Y-8424174D02*
X9678277Y-8433698D01*
X9678277Y-8433698D02*
X9687801Y-8452746D01*
X9687801Y-8452746D02*
X9687801Y-8509889D01*
X9687801Y-8509889D02*
X9678277Y-8528936D01*
X9678277Y-8528936D02*
X9668753Y-8538460D01*
X9668753Y-8538460D02*
X9649706Y-8547984D01*
X9649706Y-8547984D02*
X9621134Y-8547984D01*
X9802087Y-8547984D02*
X9783039Y-8538460D01*
X9783039Y-8538460D02*
X9773515Y-8519412D01*
X9773515Y-8519412D02*
X9773515Y-8347984D01*
X9954468Y-8538460D02*
X9935420Y-8547984D01*
X9935420Y-8547984D02*
X9897325Y-8547984D01*
X9897325Y-8547984D02*
X9878277Y-8538460D01*
X9878277Y-8538460D02*
X9868753Y-8519412D01*
X9868753Y-8519412D02*
X9868753Y-8443222D01*
X9868753Y-8443222D02*
X9878277Y-8424174D01*
X9878277Y-8424174D02*
X9897325Y-8414650D01*
X9897325Y-8414650D02*
X9935420Y-8414650D01*
X9935420Y-8414650D02*
X9954468Y-8424174D01*
X9954468Y-8424174D02*
X9963992Y-8443222D01*
X9963992Y-8443222D02*
X9963992Y-8462270D01*
X9963992Y-8462270D02*
X9868753Y-8481317D01*
X10040182Y-8538460D02*
X10059230Y-8547984D01*
X10059230Y-8547984D02*
X10097325Y-8547984D01*
X10097325Y-8547984D02*
X10116373Y-8538460D01*
X10116373Y-8538460D02*
X10125896Y-8519412D01*
X10125896Y-8519412D02*
X10125896Y-8509889D01*
X10125896Y-8509889D02*
X10116373Y-8490841D01*
X10116373Y-8490841D02*
X10097325Y-8481317D01*
X10097325Y-8481317D02*
X10068753Y-8481317D01*
X10068753Y-8481317D02*
X10049706Y-8471793D01*
X10049706Y-8471793D02*
X10040182Y-8452746D01*
X10040182Y-8452746D02*
X10040182Y-8443222D01*
X10040182Y-8443222D02*
X10049706Y-8424174D01*
X10049706Y-8424174D02*
X10068753Y-8414650D01*
X10068753Y-8414650D02*
X10097325Y-8414650D01*
X10097325Y-8414650D02*
X10116373Y-8424174D01*
X10363992Y-8471793D02*
X10516373Y-8471793D01*
X10440182Y-8547984D02*
X10440182Y-8395603D01*
X10849706Y-8414650D02*
X10849706Y-8547984D01*
X10802087Y-8338460D02*
X10754468Y-8481317D01*
X10754468Y-8481317D02*
X10878277Y-8481317D01*
X11097325Y-8538460D02*
X11116373Y-8547984D01*
X11116373Y-8547984D02*
X11154468Y-8547984D01*
X11154468Y-8547984D02*
X11173516Y-8538460D01*
X11173516Y-8538460D02*
X11183039Y-8519412D01*
X11183039Y-8519412D02*
X11183039Y-8509889D01*
X11183039Y-8509889D02*
X11173516Y-8490841D01*
X11173516Y-8490841D02*
X11154468Y-8481317D01*
X11154468Y-8481317D02*
X11125896Y-8481317D01*
X11125896Y-8481317D02*
X11106849Y-8471793D01*
X11106849Y-8471793D02*
X11097325Y-8452746D01*
X11097325Y-8452746D02*
X11097325Y-8443222D01*
X11097325Y-8443222D02*
X11106849Y-8424174D01*
X11106849Y-8424174D02*
X11125896Y-8414650D01*
X11125896Y-8414650D02*
X11154468Y-8414650D01*
X11154468Y-8414650D02*
X11173516Y-8424174D01*
X11297325Y-8547984D02*
X11278277Y-8538460D01*
X11278277Y-8538460D02*
X11268754Y-8519412D01*
X11268754Y-8519412D02*
X11268754Y-8347984D01*
X11402087Y-8547984D02*
X11383039Y-8538460D01*
X11383039Y-8538460D02*
X11373515Y-8528936D01*
X11373515Y-8528936D02*
X11363992Y-8509889D01*
X11363992Y-8509889D02*
X11363992Y-8452746D01*
X11363992Y-8452746D02*
X11373515Y-8433698D01*
X11373515Y-8433698D02*
X11383039Y-8424174D01*
X11383039Y-8424174D02*
X11402087Y-8414650D01*
X11402087Y-8414650D02*
X11430658Y-8414650D01*
X11430658Y-8414650D02*
X11449706Y-8424174D01*
X11449706Y-8424174D02*
X11459230Y-8433698D01*
X11459230Y-8433698D02*
X11468754Y-8452746D01*
X11468754Y-8452746D02*
X11468754Y-8509889D01*
X11468754Y-8509889D02*
X11459230Y-8528936D01*
X11459230Y-8528936D02*
X11449706Y-8538460D01*
X11449706Y-8538460D02*
X11430658Y-8547984D01*
X11430658Y-8547984D02*
X11402087Y-8547984D01*
X11525896Y-8414650D02*
X11602087Y-8414650D01*
X11554468Y-8347984D02*
X11554468Y-8519412D01*
X11554468Y-8519412D02*
X11563992Y-8538460D01*
X11563992Y-8538460D02*
X11583039Y-8547984D01*
X11583039Y-8547984D02*
X11602087Y-8547984D01*
X11659230Y-8538460D02*
X11678277Y-8547984D01*
X11678277Y-8547984D02*
X11716373Y-8547984D01*
X11716373Y-8547984D02*
X11735420Y-8538460D01*
X11735420Y-8538460D02*
X11744944Y-8519412D01*
X11744944Y-8519412D02*
X11744944Y-8509889D01*
X11744944Y-8509889D02*
X11735420Y-8490841D01*
X11735420Y-8490841D02*
X11716373Y-8481317D01*
X11716373Y-8481317D02*
X11687801Y-8481317D01*
X11687801Y-8481317D02*
X11668754Y-8471793D01*
X11668754Y-8471793D02*
X11659230Y-8452746D01*
X11659230Y-8452746D02*
X11659230Y-8443222D01*
X11659230Y-8443222D02*
X11668754Y-8424174D01*
X11668754Y-8424174D02*
X11687801Y-8414650D01*
X11687801Y-8414650D02*
X11716373Y-8414650D01*
X11716373Y-8414650D02*
X11735420Y-8424174D01*
X11811611Y-8624174D02*
X11821135Y-8614650D01*
X11821135Y-8614650D02*
X11840182Y-8586079D01*
X11840182Y-8586079D02*
X11849706Y-8567031D01*
X11849706Y-8567031D02*
X11859230Y-8538460D01*
X11859230Y-8538460D02*
X11868754Y-8490841D01*
X11868754Y-8490841D02*
X11868754Y-8452746D01*
X11868754Y-8452746D02*
X11859230Y-8405127D01*
X11859230Y-8405127D02*
X11849706Y-8376555D01*
X11849706Y-8376555D02*
X11840182Y-8357508D01*
X11840182Y-8357508D02*
X11821135Y-8328936D01*
X11821135Y-8328936D02*
X11811611Y-8319412D01*
D12*
X5367500Y-8670500D02*
X5367500Y-8770500D01*
X5317500Y-8720500D02*
X5417500Y-8720500D01*
D11*
X5783039Y-8811984D02*
X5668753Y-8811984D01*
X5725896Y-8811984D02*
X5725896Y-8611984D01*
X5725896Y-8611984D02*
X5706848Y-8640555D01*
X5706848Y-8640555D02*
X5687801Y-8659603D01*
X5687801Y-8659603D02*
X5668753Y-8669127D01*
X5868753Y-8792936D02*
X5878277Y-8802460D01*
X5878277Y-8802460D02*
X5868753Y-8811984D01*
X5868753Y-8811984D02*
X5859229Y-8802460D01*
X5859229Y-8802460D02*
X5868753Y-8792936D01*
X5868753Y-8792936D02*
X5868753Y-8811984D01*
X6002086Y-8611984D02*
X6021134Y-8611984D01*
X6021134Y-8611984D02*
X6040182Y-8621508D01*
X6040182Y-8621508D02*
X6049705Y-8631031D01*
X6049705Y-8631031D02*
X6059229Y-8650079D01*
X6059229Y-8650079D02*
X6068753Y-8688174D01*
X6068753Y-8688174D02*
X6068753Y-8735793D01*
X6068753Y-8735793D02*
X6059229Y-8773889D01*
X6059229Y-8773889D02*
X6049705Y-8792936D01*
X6049705Y-8792936D02*
X6040182Y-8802460D01*
X6040182Y-8802460D02*
X6021134Y-8811984D01*
X6021134Y-8811984D02*
X6002086Y-8811984D01*
X6002086Y-8811984D02*
X5983039Y-8802460D01*
X5983039Y-8802460D02*
X5973515Y-8792936D01*
X5973515Y-8792936D02*
X5963991Y-8773889D01*
X5963991Y-8773889D02*
X5954467Y-8735793D01*
X5954467Y-8735793D02*
X5954467Y-8688174D01*
X5954467Y-8688174D02*
X5963991Y-8650079D01*
X5963991Y-8650079D02*
X5973515Y-8631031D01*
X5973515Y-8631031D02*
X5983039Y-8621508D01*
X5983039Y-8621508D02*
X6002086Y-8611984D01*
X6192562Y-8611984D02*
X6211610Y-8611984D01*
X6211610Y-8611984D02*
X6230658Y-8621508D01*
X6230658Y-8621508D02*
X6240182Y-8631031D01*
X6240182Y-8631031D02*
X6249705Y-8650079D01*
X6249705Y-8650079D02*
X6259229Y-8688174D01*
X6259229Y-8688174D02*
X6259229Y-8735793D01*
X6259229Y-8735793D02*
X6249705Y-8773889D01*
X6249705Y-8773889D02*
X6240182Y-8792936D01*
X6240182Y-8792936D02*
X6230658Y-8802460D01*
X6230658Y-8802460D02*
X6211610Y-8811984D01*
X6211610Y-8811984D02*
X6192562Y-8811984D01*
X6192562Y-8811984D02*
X6173515Y-8802460D01*
X6173515Y-8802460D02*
X6163991Y-8792936D01*
X6163991Y-8792936D02*
X6154467Y-8773889D01*
X6154467Y-8773889D02*
X6144943Y-8735793D01*
X6144943Y-8735793D02*
X6144943Y-8688174D01*
X6144943Y-8688174D02*
X6154467Y-8650079D01*
X6154467Y-8650079D02*
X6163991Y-8631031D01*
X6163991Y-8631031D02*
X6173515Y-8621508D01*
X6173515Y-8621508D02*
X6192562Y-8611984D01*
X6383039Y-8611984D02*
X6402086Y-8611984D01*
X6402086Y-8611984D02*
X6421134Y-8621508D01*
X6421134Y-8621508D02*
X6430658Y-8631031D01*
X6430658Y-8631031D02*
X6440182Y-8650079D01*
X6440182Y-8650079D02*
X6449705Y-8688174D01*
X6449705Y-8688174D02*
X6449705Y-8735793D01*
X6449705Y-8735793D02*
X6440182Y-8773889D01*
X6440182Y-8773889D02*
X6430658Y-8792936D01*
X6430658Y-8792936D02*
X6421134Y-8802460D01*
X6421134Y-8802460D02*
X6402086Y-8811984D01*
X6402086Y-8811984D02*
X6383039Y-8811984D01*
X6383039Y-8811984D02*
X6363991Y-8802460D01*
X6363991Y-8802460D02*
X6354467Y-8792936D01*
X6354467Y-8792936D02*
X6344943Y-8773889D01*
X6344943Y-8773889D02*
X6335420Y-8735793D01*
X6335420Y-8735793D02*
X6335420Y-8688174D01*
X6335420Y-8688174D02*
X6344943Y-8650079D01*
X6344943Y-8650079D02*
X6354467Y-8631031D01*
X6354467Y-8631031D02*
X6363991Y-8621508D01*
X6363991Y-8621508D02*
X6383039Y-8611984D01*
X6535420Y-8811984D02*
X6535420Y-8678650D01*
X6535420Y-8697698D02*
X6544943Y-8688174D01*
X6544943Y-8688174D02*
X6563991Y-8678650D01*
X6563991Y-8678650D02*
X6592563Y-8678650D01*
X6592563Y-8678650D02*
X6611610Y-8688174D01*
X6611610Y-8688174D02*
X6621134Y-8707222D01*
X6621134Y-8707222D02*
X6621134Y-8811984D01*
X6621134Y-8707222D02*
X6630658Y-8688174D01*
X6630658Y-8688174D02*
X6649705Y-8678650D01*
X6649705Y-8678650D02*
X6678277Y-8678650D01*
X6678277Y-8678650D02*
X6697324Y-8688174D01*
X6697324Y-8688174D02*
X6706848Y-8707222D01*
X6706848Y-8707222D02*
X6706848Y-8811984D01*
X6802086Y-8811984D02*
X6802086Y-8678650D01*
X6802086Y-8697698D02*
X6811610Y-8688174D01*
X6811610Y-8688174D02*
X6830658Y-8678650D01*
X6830658Y-8678650D02*
X6859229Y-8678650D01*
X6859229Y-8678650D02*
X6878277Y-8688174D01*
X6878277Y-8688174D02*
X6887801Y-8707222D01*
X6887801Y-8707222D02*
X6887801Y-8811984D01*
X6887801Y-8707222D02*
X6897324Y-8688174D01*
X6897324Y-8688174D02*
X6916372Y-8678650D01*
X6916372Y-8678650D02*
X6944943Y-8678650D01*
X6944943Y-8678650D02*
X6963991Y-8688174D01*
X6963991Y-8688174D02*
X6973515Y-8707222D01*
X6973515Y-8707222D02*
X6973515Y-8811984D01*
X7363991Y-8602460D02*
X7192563Y-8859603D01*
X7621134Y-8611984D02*
X7640182Y-8611984D01*
X7640182Y-8611984D02*
X7659229Y-8621508D01*
X7659229Y-8621508D02*
X7668753Y-8631031D01*
X7668753Y-8631031D02*
X7678277Y-8650079D01*
X7678277Y-8650079D02*
X7687801Y-8688174D01*
X7687801Y-8688174D02*
X7687801Y-8735793D01*
X7687801Y-8735793D02*
X7678277Y-8773889D01*
X7678277Y-8773889D02*
X7668753Y-8792936D01*
X7668753Y-8792936D02*
X7659229Y-8802460D01*
X7659229Y-8802460D02*
X7640182Y-8811984D01*
X7640182Y-8811984D02*
X7621134Y-8811984D01*
X7621134Y-8811984D02*
X7602086Y-8802460D01*
X7602086Y-8802460D02*
X7592563Y-8792936D01*
X7592563Y-8792936D02*
X7583039Y-8773889D01*
X7583039Y-8773889D02*
X7573515Y-8735793D01*
X7573515Y-8735793D02*
X7573515Y-8688174D01*
X7573515Y-8688174D02*
X7583039Y-8650079D01*
X7583039Y-8650079D02*
X7592563Y-8631031D01*
X7592563Y-8631031D02*
X7602086Y-8621508D01*
X7602086Y-8621508D02*
X7621134Y-8611984D01*
X7773515Y-8792936D02*
X7783039Y-8802460D01*
X7783039Y-8802460D02*
X7773515Y-8811984D01*
X7773515Y-8811984D02*
X7763991Y-8802460D01*
X7763991Y-8802460D02*
X7773515Y-8792936D01*
X7773515Y-8792936D02*
X7773515Y-8811984D01*
X7906848Y-8611984D02*
X7925896Y-8611984D01*
X7925896Y-8611984D02*
X7944944Y-8621508D01*
X7944944Y-8621508D02*
X7954467Y-8631031D01*
X7954467Y-8631031D02*
X7963991Y-8650079D01*
X7963991Y-8650079D02*
X7973515Y-8688174D01*
X7973515Y-8688174D02*
X7973515Y-8735793D01*
X7973515Y-8735793D02*
X7963991Y-8773889D01*
X7963991Y-8773889D02*
X7954467Y-8792936D01*
X7954467Y-8792936D02*
X7944944Y-8802460D01*
X7944944Y-8802460D02*
X7925896Y-8811984D01*
X7925896Y-8811984D02*
X7906848Y-8811984D01*
X7906848Y-8811984D02*
X7887801Y-8802460D01*
X7887801Y-8802460D02*
X7878277Y-8792936D01*
X7878277Y-8792936D02*
X7868753Y-8773889D01*
X7868753Y-8773889D02*
X7859229Y-8735793D01*
X7859229Y-8735793D02*
X7859229Y-8688174D01*
X7859229Y-8688174D02*
X7868753Y-8650079D01*
X7868753Y-8650079D02*
X7878277Y-8631031D01*
X7878277Y-8631031D02*
X7887801Y-8621508D01*
X7887801Y-8621508D02*
X7906848Y-8611984D01*
X8040182Y-8611984D02*
X8163991Y-8611984D01*
X8163991Y-8611984D02*
X8097325Y-8688174D01*
X8097325Y-8688174D02*
X8125896Y-8688174D01*
X8125896Y-8688174D02*
X8144944Y-8697698D01*
X8144944Y-8697698D02*
X8154467Y-8707222D01*
X8154467Y-8707222D02*
X8163991Y-8726270D01*
X8163991Y-8726270D02*
X8163991Y-8773889D01*
X8163991Y-8773889D02*
X8154467Y-8792936D01*
X8154467Y-8792936D02*
X8144944Y-8802460D01*
X8144944Y-8802460D02*
X8125896Y-8811984D01*
X8125896Y-8811984D02*
X8068753Y-8811984D01*
X8068753Y-8811984D02*
X8049706Y-8802460D01*
X8049706Y-8802460D02*
X8040182Y-8792936D01*
X8259229Y-8811984D02*
X8297325Y-8811984D01*
X8297325Y-8811984D02*
X8316372Y-8802460D01*
X8316372Y-8802460D02*
X8325896Y-8792936D01*
X8325896Y-8792936D02*
X8344944Y-8764365D01*
X8344944Y-8764365D02*
X8354467Y-8726270D01*
X8354467Y-8726270D02*
X8354467Y-8650079D01*
X8354467Y-8650079D02*
X8344944Y-8631031D01*
X8344944Y-8631031D02*
X8335420Y-8621508D01*
X8335420Y-8621508D02*
X8316372Y-8611984D01*
X8316372Y-8611984D02*
X8278277Y-8611984D01*
X8278277Y-8611984D02*
X8259229Y-8621508D01*
X8259229Y-8621508D02*
X8249706Y-8631031D01*
X8249706Y-8631031D02*
X8240182Y-8650079D01*
X8240182Y-8650079D02*
X8240182Y-8697698D01*
X8240182Y-8697698D02*
X8249706Y-8716746D01*
X8249706Y-8716746D02*
X8259229Y-8726270D01*
X8259229Y-8726270D02*
X8278277Y-8735793D01*
X8278277Y-8735793D02*
X8316372Y-8735793D01*
X8316372Y-8735793D02*
X8335420Y-8726270D01*
X8335420Y-8726270D02*
X8344944Y-8716746D01*
X8344944Y-8716746D02*
X8354467Y-8697698D01*
X8525896Y-8678650D02*
X8525896Y-8811984D01*
X8478277Y-8602460D02*
X8430658Y-8745317D01*
X8430658Y-8745317D02*
X8554468Y-8745317D01*
X8621134Y-8611984D02*
X8621134Y-8650079D01*
X8697325Y-8611984D02*
X8697325Y-8650079D01*
X8992563Y-8888174D02*
X8983039Y-8878650D01*
X8983039Y-8878650D02*
X8963991Y-8850079D01*
X8963991Y-8850079D02*
X8954468Y-8831031D01*
X8954468Y-8831031D02*
X8944944Y-8802460D01*
X8944944Y-8802460D02*
X8935420Y-8754841D01*
X8935420Y-8754841D02*
X8935420Y-8716746D01*
X8935420Y-8716746D02*
X8944944Y-8669127D01*
X8944944Y-8669127D02*
X8954468Y-8640555D01*
X8954468Y-8640555D02*
X8963991Y-8621508D01*
X8963991Y-8621508D02*
X8983039Y-8592936D01*
X8983039Y-8592936D02*
X8992563Y-8583412D01*
X9154468Y-8678650D02*
X9154468Y-8811984D01*
X9106849Y-8602460D02*
X9059230Y-8745317D01*
X9059230Y-8745317D02*
X9183039Y-8745317D01*
X9240182Y-8611984D02*
X9363991Y-8611984D01*
X9363991Y-8611984D02*
X9297325Y-8688174D01*
X9297325Y-8688174D02*
X9325896Y-8688174D01*
X9325896Y-8688174D02*
X9344944Y-8697698D01*
X9344944Y-8697698D02*
X9354468Y-8707222D01*
X9354468Y-8707222D02*
X9363991Y-8726270D01*
X9363991Y-8726270D02*
X9363991Y-8773889D01*
X9363991Y-8773889D02*
X9354468Y-8792936D01*
X9354468Y-8792936D02*
X9344944Y-8802460D01*
X9344944Y-8802460D02*
X9325896Y-8811984D01*
X9325896Y-8811984D02*
X9268753Y-8811984D01*
X9268753Y-8811984D02*
X9249706Y-8802460D01*
X9249706Y-8802460D02*
X9240182Y-8792936D01*
X9602087Y-8811984D02*
X9602087Y-8611984D01*
X9687801Y-8811984D02*
X9687801Y-8707222D01*
X9687801Y-8707222D02*
X9678277Y-8688174D01*
X9678277Y-8688174D02*
X9659230Y-8678650D01*
X9659230Y-8678650D02*
X9630658Y-8678650D01*
X9630658Y-8678650D02*
X9611611Y-8688174D01*
X9611611Y-8688174D02*
X9602087Y-8697698D01*
X9811611Y-8811984D02*
X9792563Y-8802460D01*
X9792563Y-8802460D02*
X9783039Y-8792936D01*
X9783039Y-8792936D02*
X9773515Y-8773889D01*
X9773515Y-8773889D02*
X9773515Y-8716746D01*
X9773515Y-8716746D02*
X9783039Y-8697698D01*
X9783039Y-8697698D02*
X9792563Y-8688174D01*
X9792563Y-8688174D02*
X9811611Y-8678650D01*
X9811611Y-8678650D02*
X9840182Y-8678650D01*
X9840182Y-8678650D02*
X9859230Y-8688174D01*
X9859230Y-8688174D02*
X9868753Y-8697698D01*
X9868753Y-8697698D02*
X9878277Y-8716746D01*
X9878277Y-8716746D02*
X9878277Y-8773889D01*
X9878277Y-8773889D02*
X9868753Y-8792936D01*
X9868753Y-8792936D02*
X9859230Y-8802460D01*
X9859230Y-8802460D02*
X9840182Y-8811984D01*
X9840182Y-8811984D02*
X9811611Y-8811984D01*
X9992563Y-8811984D02*
X9973515Y-8802460D01*
X9973515Y-8802460D02*
X9963992Y-8783412D01*
X9963992Y-8783412D02*
X9963992Y-8611984D01*
X10144944Y-8802460D02*
X10125896Y-8811984D01*
X10125896Y-8811984D02*
X10087801Y-8811984D01*
X10087801Y-8811984D02*
X10068753Y-8802460D01*
X10068753Y-8802460D02*
X10059230Y-8783412D01*
X10059230Y-8783412D02*
X10059230Y-8707222D01*
X10059230Y-8707222D02*
X10068753Y-8688174D01*
X10068753Y-8688174D02*
X10087801Y-8678650D01*
X10087801Y-8678650D02*
X10125896Y-8678650D01*
X10125896Y-8678650D02*
X10144944Y-8688174D01*
X10144944Y-8688174D02*
X10154468Y-8707222D01*
X10154468Y-8707222D02*
X10154468Y-8726270D01*
X10154468Y-8726270D02*
X10059230Y-8745317D01*
X10230658Y-8802460D02*
X10249706Y-8811984D01*
X10249706Y-8811984D02*
X10287801Y-8811984D01*
X10287801Y-8811984D02*
X10306849Y-8802460D01*
X10306849Y-8802460D02*
X10316373Y-8783412D01*
X10316373Y-8783412D02*
X10316373Y-8773889D01*
X10316373Y-8773889D02*
X10306849Y-8754841D01*
X10306849Y-8754841D02*
X10287801Y-8745317D01*
X10287801Y-8745317D02*
X10259230Y-8745317D01*
X10259230Y-8745317D02*
X10240182Y-8735793D01*
X10240182Y-8735793D02*
X10230658Y-8716746D01*
X10230658Y-8716746D02*
X10230658Y-8707222D01*
X10230658Y-8707222D02*
X10240182Y-8688174D01*
X10240182Y-8688174D02*
X10259230Y-8678650D01*
X10259230Y-8678650D02*
X10287801Y-8678650D01*
X10287801Y-8678650D02*
X10306849Y-8688174D01*
X10383039Y-8888174D02*
X10392563Y-8878650D01*
X10392563Y-8878650D02*
X10411611Y-8850079D01*
X10411611Y-8850079D02*
X10421134Y-8831031D01*
X10421134Y-8831031D02*
X10430658Y-8802460D01*
X10430658Y-8802460D02*
X10440182Y-8754841D01*
X10440182Y-8754841D02*
X10440182Y-8716746D01*
X10440182Y-8716746D02*
X10430658Y-8669127D01*
X10430658Y-8669127D02*
X10421134Y-8640555D01*
X10421134Y-8640555D02*
X10411611Y-8621508D01*
X10411611Y-8621508D02*
X10392563Y-8592936D01*
X10392563Y-8592936D02*
X10383039Y-8583412D01*
M02*
