%TF.GenerationSoftware,KiCad,Pcbnew,9.0.5*%
%TF.CreationDate,2025-12-09T16:25:26-06:00*%
%TF.ProjectId,KBoardV1,4b426f61-7264-4563-912e-6b696361645f,rev?*%
%TF.SameCoordinates,Original*%
%TF.FileFunction,Soldermask,Top*%
%TF.FilePolarity,Negative*%
%FSLAX46Y46*%
G04 Gerber Fmt 4.6, Leading zero omitted, Abs format (unit mm)*
G04 Created by KiCad (PCBNEW 9.0.5) date 2025-12-09 16:25:26*
%MOMM*%
%LPD*%
G01*
G04 APERTURE LIST*
G04 Aperture macros list*
%AMRoundRect*
0 Rectangle with rounded corners*
0 $1 Rounding radius*
0 $2 $3 $4 $5 $6 $7 $8 $9 X,Y pos of 4 corners*
0 Add a 4 corners polygon primitive as box body*
4,1,4,$2,$3,$4,$5,$6,$7,$8,$9,$2,$3,0*
0 Add four circle primitives for the rounded corners*
1,1,$1+$1,$2,$3*
1,1,$1+$1,$4,$5*
1,1,$1+$1,$6,$7*
1,1,$1+$1,$8,$9*
0 Add four rect primitives between the rounded corners*
20,1,$1+$1,$2,$3,$4,$5,0*
20,1,$1+$1,$4,$5,$6,$7,0*
20,1,$1+$1,$6,$7,$8,$9,0*
20,1,$1+$1,$8,$9,$2,$3,0*%
%AMRotRect*
0 Rectangle, with rotation*
0 The origin of the aperture is its center*
0 $1 length*
0 $2 width*
0 $3 Rotation angle, in degrees counterclockwise*
0 Add horizontal line*
21,1,$1,$2,0,0,$3*%
G04 Aperture macros list end*
%ADD10C,1.700000*%
%ADD11R,1.700000X1.700000*%
%ADD12RotRect,3.200000X3.200000X315.000000*%
%ADD13RoundRect,0.050000X-0.309359X-0.238649X-0.238649X-0.309359X0.309359X0.238649X0.238649X0.309359X0*%
%ADD14RoundRect,0.050000X-0.309359X0.238649X0.238649X-0.309359X0.309359X-0.238649X-0.238649X0.309359X0*%
%ADD15R,0.200000X1.600000*%
%ADD16RoundRect,0.062500X-0.387500X-0.062500X0.387500X-0.062500X0.387500X0.062500X-0.387500X0.062500X0*%
%ADD17RoundRect,0.140000X-0.140000X-0.170000X0.140000X-0.170000X0.140000X0.170000X-0.140000X0.170000X0*%
%ADD18RoundRect,0.140000X-0.219203X-0.021213X-0.021213X-0.219203X0.219203X0.021213X0.021213X0.219203X0*%
%ADD19RoundRect,0.135000X-0.135000X-0.185000X0.135000X-0.185000X0.135000X0.185000X-0.135000X0.185000X0*%
%ADD20RoundRect,0.140000X-0.170000X0.140000X-0.170000X-0.140000X0.170000X-0.140000X0.170000X0.140000X0*%
%ADD21RoundRect,0.140000X0.170000X-0.140000X0.170000X0.140000X-0.170000X0.140000X-0.170000X-0.140000X0*%
%ADD22RoundRect,0.140000X0.021213X-0.219203X0.219203X-0.021213X-0.021213X0.219203X-0.219203X0.021213X0*%
%ADD23RoundRect,0.250000X0.450000X0.350000X-0.450000X0.350000X-0.450000X-0.350000X0.450000X-0.350000X0*%
%ADD24RoundRect,0.150000X0.150000X-0.587500X0.150000X0.587500X-0.150000X0.587500X-0.150000X-0.587500X0*%
%ADD25RoundRect,0.200000X-0.200000X-0.800000X0.200000X-0.800000X0.200000X0.800000X-0.200000X0.800000X0*%
%ADD26RoundRect,0.135000X-0.185000X0.135000X-0.185000X-0.135000X0.185000X-0.135000X0.185000X0.135000X0*%
%ADD27RoundRect,0.135000X-0.035355X0.226274X-0.226274X0.035355X0.035355X-0.226274X0.226274X-0.035355X0*%
%ADD28RoundRect,0.135000X0.035355X-0.226274X0.226274X-0.035355X-0.035355X0.226274X-0.226274X0.035355X0*%
%ADD29RoundRect,0.140000X0.140000X0.170000X-0.140000X0.170000X-0.140000X-0.170000X0.140000X-0.170000X0*%
%ADD30RoundRect,0.140000X0.219203X0.021213X0.021213X0.219203X-0.219203X-0.021213X-0.021213X-0.219203X0*%
%ADD31O,1.000000X1.600000*%
%ADD32O,1.000000X2.100000*%
%ADD33R,0.600000X1.450000*%
%ADD34R,0.300000X1.450000*%
%ADD35C,0.650000*%
G04 APERTURE END LIST*
D10*
%TO.C,J3*%
X73590000Y-74130000D03*
X73590000Y-71590000D03*
X73590000Y-69050000D03*
X73590000Y-66510000D03*
X73590000Y-63970000D03*
X73590000Y-61430000D03*
X73590000Y-58890000D03*
X73590000Y-56350000D03*
X73590000Y-53810000D03*
X73590000Y-51270000D03*
X73590000Y-48730000D03*
X73590000Y-46190000D03*
X73590000Y-43650000D03*
X73590000Y-41110000D03*
X73590000Y-38570000D03*
X73590000Y-36030000D03*
X73590000Y-33490000D03*
X73590000Y-30950000D03*
X73590000Y-28410000D03*
D11*
X73590000Y-25870000D03*
%TD*%
D12*
%TO.C,U1*%
X64700000Y-54000000D03*
D13*
X65292202Y-49730843D03*
X65575045Y-50013686D03*
X65857888Y-50296528D03*
X66140730Y-50579371D03*
X66423573Y-50862214D03*
X66706415Y-51145057D03*
X66989258Y-51427899D03*
X67272100Y-51710741D03*
X67554944Y-51993584D03*
X67837787Y-52276427D03*
X68120629Y-52559270D03*
X68403472Y-52842113D03*
X68686314Y-53124955D03*
X68969157Y-53407798D03*
D14*
X68969157Y-54592202D03*
X68686314Y-54875045D03*
X68403472Y-55157888D03*
X68120629Y-55440730D03*
X67837786Y-55723573D03*
X67554943Y-56006415D03*
X67272101Y-56289258D03*
X66989259Y-56572100D03*
X66706416Y-56854944D03*
X66423573Y-57137787D03*
X66140730Y-57420629D03*
X65857887Y-57703472D03*
X65575045Y-57986314D03*
X65292202Y-58269157D03*
D13*
X64107798Y-58269157D03*
X63824955Y-57986314D03*
X63542112Y-57703472D03*
X63259270Y-57420629D03*
X62976427Y-57137786D03*
X62693585Y-56854943D03*
X62410742Y-56572101D03*
X62127900Y-56289259D03*
X61845056Y-56006416D03*
X61562213Y-55723573D03*
X61279371Y-55440730D03*
X60996528Y-55157887D03*
X60713686Y-54875045D03*
X60430843Y-54592202D03*
D14*
X60430843Y-53407798D03*
X60713686Y-53124955D03*
X60996528Y-52842112D03*
X61279371Y-52559270D03*
X61562214Y-52276427D03*
X61845057Y-51993585D03*
X62127899Y-51710742D03*
X62410741Y-51427900D03*
X62693584Y-51145056D03*
X62976427Y-50862213D03*
X63259270Y-50579371D03*
X63542113Y-50296528D03*
X63824955Y-50013686D03*
X64107798Y-49730843D03*
%TD*%
D15*
%TO.C,U3*%
X66275000Y-47150000D03*
D16*
X67700000Y-46400000D03*
X67700000Y-46900000D03*
X67700000Y-47400000D03*
X67700000Y-47900000D03*
X64850000Y-47900000D03*
X64850000Y-47400000D03*
X64850000Y-46900000D03*
X64850000Y-46400000D03*
%TD*%
D17*
%TO.C,C8*%
X71300000Y-55600000D03*
X70340000Y-55600000D03*
%TD*%
D18*
%TO.C,C5*%
X67900000Y-58600000D03*
X67221178Y-57921178D03*
%TD*%
D19*
%TO.C,R5*%
X59480002Y-57500000D03*
X60500000Y-57500000D03*
%TD*%
D20*
%TO.C,C2*%
X63700000Y-61060000D03*
X63700000Y-60100000D03*
%TD*%
D21*
%TO.C,C16*%
X62700000Y-61000000D03*
X62700000Y-60040000D03*
%TD*%
D22*
%TO.C,C11*%
X70039411Y-51460589D03*
X69360589Y-52139411D03*
%TD*%
D23*
%TO.C,Y1*%
X60900000Y-60600000D03*
X58700000Y-60600000D03*
X58700000Y-58900000D03*
X60900000Y-58900000D03*
%TD*%
D24*
%TO.C,U2*%
X61350000Y-36137500D03*
X63250000Y-36137500D03*
X62300000Y-34262500D03*
%TD*%
D25*
%TO.C,SW1*%
X62400000Y-41600000D03*
X66600000Y-41600000D03*
%TD*%
D26*
%TO.C,R7*%
X66700000Y-44100000D03*
X66700000Y-45120000D03*
%TD*%
D19*
%TO.C,R6*%
X63690000Y-45300000D03*
X64710000Y-45300000D03*
%TD*%
D27*
%TO.C,R4*%
X69821248Y-50278752D03*
X69100000Y-51000000D03*
%TD*%
D28*
%TO.C,R3*%
X68578752Y-50121248D03*
X69300000Y-49400000D03*
%TD*%
D19*
%TO.C,R2*%
X66380000Y-33800000D03*
X67400000Y-33800000D03*
%TD*%
D11*
%TO.C,J4*%
X62160000Y-73890000D03*
D10*
X64700000Y-73890000D03*
X67240000Y-73890000D03*
%TD*%
D11*
%TO.C,J2*%
X55810000Y-25870000D03*
D10*
X55810000Y-28410000D03*
X55810000Y-30950000D03*
X55810000Y-33490000D03*
X55810000Y-36030000D03*
X55810000Y-38570000D03*
X55810000Y-41110000D03*
X55810000Y-43650000D03*
X55810000Y-46190000D03*
X55810000Y-48730000D03*
X55810000Y-51270000D03*
X55810000Y-53810000D03*
X55810000Y-56350000D03*
X55810000Y-58890000D03*
X55810000Y-61430000D03*
X55810000Y-63970000D03*
X55810000Y-66510000D03*
X55810000Y-69050000D03*
X55810000Y-71590000D03*
X55810000Y-74130000D03*
%TD*%
D22*
%TO.C,C17*%
X70060589Y-52839411D03*
X70739411Y-52160589D03*
%TD*%
D29*
%TO.C,C15*%
X60580000Y-62000000D03*
X59620000Y-62000000D03*
%TD*%
D21*
%TO.C,C14*%
X63400000Y-33780000D03*
X63400000Y-32820000D03*
%TD*%
D20*
%TO.C,C13*%
X60100000Y-34740000D03*
X60100000Y-35700000D03*
%TD*%
D21*
%TO.C,C12*%
X69200000Y-47820000D03*
X69200000Y-46860000D03*
%TD*%
D17*
%TO.C,C10*%
X64720000Y-59800000D03*
X65680000Y-59800000D03*
%TD*%
%TO.C,C9*%
X70340000Y-54600000D03*
X71300000Y-54600000D03*
%TD*%
%TO.C,C7*%
X68600000Y-45500000D03*
X69560000Y-45500000D03*
%TD*%
D20*
%TO.C,C6*%
X58200000Y-51100000D03*
X58200000Y-52060000D03*
%TD*%
D21*
%TO.C,C4*%
X70200000Y-47800000D03*
X70200000Y-46840000D03*
%TD*%
D30*
%TO.C,C3*%
X62900000Y-48500000D03*
X62221178Y-47821178D03*
%TD*%
D21*
%TO.C,C1*%
X71200000Y-47800000D03*
X71200000Y-46840000D03*
%TD*%
D31*
%TO.C,J1*%
X60380000Y-25940000D03*
D32*
X60380000Y-30120000D03*
D31*
X69020000Y-25940000D03*
D32*
X69020000Y-30120000D03*
D33*
X67950000Y-31035000D03*
X67150000Y-31035000D03*
D34*
X66450000Y-31035000D03*
X65450000Y-31035000D03*
X63950000Y-31035000D03*
X62950000Y-31035000D03*
D33*
X62250000Y-31035000D03*
X61450000Y-31035000D03*
X61450000Y-31035000D03*
X62250000Y-31035000D03*
D34*
X63450000Y-31035000D03*
X64450000Y-31035000D03*
X64950000Y-31035000D03*
X65950000Y-31035000D03*
D33*
X67150000Y-31035000D03*
X67950000Y-31035000D03*
D35*
X61810000Y-29590000D03*
X67590000Y-29590000D03*
%TD*%
D19*
%TO.C,R1*%
X66380000Y-32800000D03*
X67400000Y-32800000D03*
%TD*%
M02*
