%TF.GenerationSoftware,KiCad,Pcbnew,9.0.5*%
%TF.CreationDate,2025-12-09T16:25:25-06:00*%
%TF.ProjectId,KBoardV1,4b426f61-7264-4563-912e-6b696361645f,rev?*%
%TF.SameCoordinates,Original*%
%TF.FileFunction,Copper,L1,Top*%
%TF.FilePolarity,Positive*%
%FSLAX46Y46*%
G04 Gerber Fmt 4.6, Leading zero omitted, Abs format (unit mm)*
G04 Created by KiCad (PCBNEW 9.0.5) date 2025-12-09 16:25:25*
%MOMM*%
%LPD*%
G01*
G04 APERTURE LIST*
G04 Aperture macros list*
%AMRoundRect*
0 Rectangle with rounded corners*
0 $1 Rounding radius*
0 $2 $3 $4 $5 $6 $7 $8 $9 X,Y pos of 4 corners*
0 Add a 4 corners polygon primitive as box body*
4,1,4,$2,$3,$4,$5,$6,$7,$8,$9,$2,$3,0*
0 Add four circle primitives for the rounded corners*
1,1,$1+$1,$2,$3*
1,1,$1+$1,$4,$5*
1,1,$1+$1,$6,$7*
1,1,$1+$1,$8,$9*
0 Add four rect primitives between the rounded corners*
20,1,$1+$1,$2,$3,$4,$5,0*
20,1,$1+$1,$4,$5,$6,$7,0*
20,1,$1+$1,$6,$7,$8,$9,0*
20,1,$1+$1,$8,$9,$2,$3,0*%
%AMRotRect*
0 Rectangle, with rotation*
0 The origin of the aperture is its center*
0 $1 length*
0 $2 width*
0 $3 Rotation angle, in degrees counterclockwise*
0 Add horizontal line*
21,1,$1,$2,0,0,$3*%
G04 Aperture macros list end*
%TA.AperFunction,ComponentPad*%
%ADD10C,1.700000*%
%TD*%
%TA.AperFunction,ComponentPad*%
%ADD11R,1.700000X1.700000*%
%TD*%
%TA.AperFunction,HeatsinkPad*%
%ADD12RotRect,3.200000X3.200000X315.000000*%
%TD*%
%TA.AperFunction,SMDPad,CuDef*%
%ADD13RoundRect,0.050000X-0.309359X-0.238649X-0.238649X-0.309359X0.309359X0.238649X0.238649X0.309359X0*%
%TD*%
%TA.AperFunction,SMDPad,CuDef*%
%ADD14RoundRect,0.050000X-0.309359X0.238649X0.238649X-0.309359X0.309359X-0.238649X-0.238649X0.309359X0*%
%TD*%
%TA.AperFunction,HeatsinkPad*%
%ADD15R,0.200000X1.600000*%
%TD*%
%TA.AperFunction,SMDPad,CuDef*%
%ADD16RoundRect,0.062500X-0.387500X-0.062500X0.387500X-0.062500X0.387500X0.062500X-0.387500X0.062500X0*%
%TD*%
%TA.AperFunction,SMDPad,CuDef*%
%ADD17RoundRect,0.140000X-0.140000X-0.170000X0.140000X-0.170000X0.140000X0.170000X-0.140000X0.170000X0*%
%TD*%
%TA.AperFunction,SMDPad,CuDef*%
%ADD18RoundRect,0.140000X-0.219203X-0.021213X-0.021213X-0.219203X0.219203X0.021213X0.021213X0.219203X0*%
%TD*%
%TA.AperFunction,SMDPad,CuDef*%
%ADD19RoundRect,0.135000X-0.135000X-0.185000X0.135000X-0.185000X0.135000X0.185000X-0.135000X0.185000X0*%
%TD*%
%TA.AperFunction,SMDPad,CuDef*%
%ADD20RoundRect,0.140000X-0.170000X0.140000X-0.170000X-0.140000X0.170000X-0.140000X0.170000X0.140000X0*%
%TD*%
%TA.AperFunction,SMDPad,CuDef*%
%ADD21RoundRect,0.140000X0.170000X-0.140000X0.170000X0.140000X-0.170000X0.140000X-0.170000X-0.140000X0*%
%TD*%
%TA.AperFunction,SMDPad,CuDef*%
%ADD22RoundRect,0.140000X0.021213X-0.219203X0.219203X-0.021213X-0.021213X0.219203X-0.219203X0.021213X0*%
%TD*%
%TA.AperFunction,SMDPad,CuDef*%
%ADD23RoundRect,0.250000X0.450000X0.350000X-0.450000X0.350000X-0.450000X-0.350000X0.450000X-0.350000X0*%
%TD*%
%TA.AperFunction,SMDPad,CuDef*%
%ADD24RoundRect,0.150000X0.150000X-0.587500X0.150000X0.587500X-0.150000X0.587500X-0.150000X-0.587500X0*%
%TD*%
%TA.AperFunction,SMDPad,CuDef*%
%ADD25RoundRect,0.200000X-0.200000X-0.800000X0.200000X-0.800000X0.200000X0.800000X-0.200000X0.800000X0*%
%TD*%
%TA.AperFunction,SMDPad,CuDef*%
%ADD26RoundRect,0.135000X-0.185000X0.135000X-0.185000X-0.135000X0.185000X-0.135000X0.185000X0.135000X0*%
%TD*%
%TA.AperFunction,SMDPad,CuDef*%
%ADD27RoundRect,0.135000X-0.035355X0.226274X-0.226274X0.035355X0.035355X-0.226274X0.226274X-0.035355X0*%
%TD*%
%TA.AperFunction,SMDPad,CuDef*%
%ADD28RoundRect,0.135000X0.035355X-0.226274X0.226274X-0.035355X-0.035355X0.226274X-0.226274X0.035355X0*%
%TD*%
%TA.AperFunction,SMDPad,CuDef*%
%ADD29RoundRect,0.140000X0.140000X0.170000X-0.140000X0.170000X-0.140000X-0.170000X0.140000X-0.170000X0*%
%TD*%
%TA.AperFunction,SMDPad,CuDef*%
%ADD30RoundRect,0.140000X0.219203X0.021213X0.021213X0.219203X-0.219203X-0.021213X-0.021213X-0.219203X0*%
%TD*%
%TA.AperFunction,HeatsinkPad*%
%ADD31O,1.000000X1.600000*%
%TD*%
%TA.AperFunction,HeatsinkPad*%
%ADD32O,1.000000X2.100000*%
%TD*%
%TA.AperFunction,SMDPad,CuDef*%
%ADD33R,0.600000X1.450000*%
%TD*%
%TA.AperFunction,SMDPad,CuDef*%
%ADD34R,0.300000X1.450000*%
%TD*%
%TA.AperFunction,ViaPad*%
%ADD35C,0.600000*%
%TD*%
%TA.AperFunction,Conductor*%
%ADD36C,0.200000*%
%TD*%
G04 APERTURE END LIST*
D10*
%TO.P,J3,20,Pin_20*%
%TO.N,GPIO16*%
X73590000Y-74130000D03*
%TO.P,J3,19,Pin_19*%
%TO.N,GPIO17*%
X73590000Y-71590000D03*
%TO.P,J3,18,Pin_18*%
%TO.N,GND*%
X73590000Y-69050000D03*
%TO.P,J3,17,Pin_17*%
%TO.N,GPIO18*%
X73590000Y-66510000D03*
%TO.P,J3,16,Pin_16*%
%TO.N,GPIO19*%
X73590000Y-63970000D03*
%TO.P,J3,15,Pin_15*%
%TO.N,GPIO20*%
X73590000Y-61430000D03*
%TO.P,J3,14,Pin_14*%
%TO.N,GPIO21*%
X73590000Y-58890000D03*
%TO.P,J3,13,Pin_13*%
%TO.N,GND*%
X73590000Y-56350000D03*
%TO.P,J3,12,Pin_12*%
%TO.N,GPIO22*%
X73590000Y-53810000D03*
%TO.P,J3,11,Pin_11*%
%TO.N,RUN*%
X73590000Y-51270000D03*
%TO.P,J3,10,Pin_10*%
%TO.N,GPIO23*%
X73590000Y-48730000D03*
%TO.P,J3,9,Pin_9*%
%TO.N,GPIO24*%
X73590000Y-46190000D03*
%TO.P,J3,8,Pin_8*%
%TO.N,GND*%
X73590000Y-43650000D03*
%TO.P,J3,7,Pin_7*%
%TO.N,GPIO26_ADC0*%
X73590000Y-41110000D03*
%TO.P,J3,6,Pin_6*%
%TO.N,GPIO27_ADC1*%
X73590000Y-38570000D03*
%TO.P,J3,5,Pin_5*%
%TO.N,+3V3*%
X73590000Y-36030000D03*
%TO.P,J3,4,Pin_4*%
%TO.N,GPIO28_ADC2*%
X73590000Y-33490000D03*
%TO.P,J3,3,Pin_3*%
%TO.N,GND*%
X73590000Y-30950000D03*
%TO.P,J3,2,Pin_2*%
%TO.N,GPIO29_ADC3*%
X73590000Y-28410000D03*
D11*
%TO.P,J3,1,Pin_1*%
%TO.N,VBUS*%
X73590000Y-25870000D03*
%TD*%
D12*
%TO.P,U1,57,GND*%
%TO.N,GND*%
X64700000Y-54000000D03*
D13*
%TO.P,U1,56,QSPI_SS*%
%TO.N,QSPI_SS*%
X65292202Y-49730843D03*
%TO.P,U1,55,QSPI_SD1*%
%TO.N,QSPI_SD1*%
X65575045Y-50013686D03*
%TO.P,U1,54,QSPI_SD2*%
%TO.N,QSPI_SD2*%
X65857888Y-50296528D03*
%TO.P,U1,53,QSPI_SD0*%
%TO.N,QSPI_SD0*%
X66140730Y-50579371D03*
%TO.P,U1,52,QSPI_SCLK*%
%TO.N,QSPI_SCLK*%
X66423573Y-50862214D03*
%TO.P,U1,51,QSPI_SD3*%
%TO.N,QSPI_SD3*%
X66706415Y-51145057D03*
%TO.P,U1,50,DVDD*%
%TO.N,+1V1*%
X66989258Y-51427899D03*
%TO.P,U1,49,IOVDD*%
%TO.N,+3V3*%
X67272100Y-51710741D03*
%TO.P,U1,48,USB_VDD*%
X67554944Y-51993584D03*
%TO.P,U1,47,USB_DP*%
%TO.N,Net-(U1-USB_DP)*%
X67837787Y-52276427D03*
%TO.P,U1,46,USB_DM*%
%TO.N,Net-(U1-USB_DM)*%
X68120629Y-52559270D03*
%TO.P,U1,45,VREG_VOUT*%
%TO.N,+1V1*%
X68403472Y-52842113D03*
%TO.P,U1,44,VREG_IN*%
%TO.N,+3V3*%
X68686314Y-53124955D03*
%TO.P,U1,43,ADC_AVDD*%
X68969157Y-53407798D03*
D14*
%TO.P,U1,42,IOVDD*%
X68969157Y-54592202D03*
%TO.P,U1,41,GPIO29_ADC3*%
%TO.N,GPIO29_ADC3*%
X68686314Y-54875045D03*
%TO.P,U1,40,GPIO28_ADC2*%
%TO.N,GPIO28_ADC2*%
X68403472Y-55157888D03*
%TO.P,U1,39,GPIO27_ADC1*%
%TO.N,GPIO27_ADC1*%
X68120629Y-55440730D03*
%TO.P,U1,38,GPIO26_ADC0*%
%TO.N,GPIO26_ADC0*%
X67837786Y-55723573D03*
%TO.P,U1,37,GPIO25*%
%TO.N,unconnected-(U1-GPIO25-Pad37)*%
X67554943Y-56006415D03*
%TO.P,U1,36,GPIO24*%
%TO.N,GPIO24*%
X67272101Y-56289258D03*
%TO.P,U1,35,GPIO23*%
%TO.N,GPIO23*%
X66989259Y-56572100D03*
%TO.P,U1,34,GPIO22*%
%TO.N,GPIO22*%
X66706416Y-56854944D03*
%TO.P,U1,33,IOVDD*%
%TO.N,+3V3*%
X66423573Y-57137787D03*
%TO.P,U1,32,GPIO21*%
%TO.N,GPIO21*%
X66140730Y-57420629D03*
%TO.P,U1,31,GPIO20*%
%TO.N,GPIO20*%
X65857887Y-57703472D03*
%TO.P,U1,30,GPIO19*%
%TO.N,GPIO19*%
X65575045Y-57986314D03*
%TO.P,U1,29,GPIO18*%
%TO.N,GPIO18*%
X65292202Y-58269157D03*
D13*
%TO.P,U1,28,GPIO17*%
%TO.N,GPIO17*%
X64107798Y-58269157D03*
%TO.P,U1,27,GPIO16*%
%TO.N,GPIO16*%
X63824955Y-57986314D03*
%TO.P,U1,26,RUN*%
%TO.N,unconnected-(U1-RUN-Pad26)*%
X63542112Y-57703472D03*
%TO.P,U1,25,SWD*%
%TO.N,SWD*%
X63259270Y-57420629D03*
%TO.P,U1,24,SWCLK*%
%TO.N,SWCLK*%
X62976427Y-57137786D03*
%TO.P,U1,23,DVDD*%
%TO.N,+1V1*%
X62693585Y-56854943D03*
%TO.P,U1,22,IOVDD*%
%TO.N,+3V3*%
X62410742Y-56572101D03*
%TO.P,U1,21,XOUT*%
%TO.N,XOUT*%
X62127900Y-56289259D03*
%TO.P,U1,20,XIN*%
%TO.N,XIN*%
X61845056Y-56006416D03*
%TO.P,U1,19,TESTEN*%
%TO.N,GND*%
X61562213Y-55723573D03*
%TO.P,U1,18,GPIO15*%
%TO.N,GPIO15*%
X61279371Y-55440730D03*
%TO.P,U1,17,GPIO14*%
%TO.N,GPIO14*%
X60996528Y-55157887D03*
%TO.P,U1,16,GPIO13*%
%TO.N,GPIO13*%
X60713686Y-54875045D03*
%TO.P,U1,15,GPIO12*%
%TO.N,GPIO12*%
X60430843Y-54592202D03*
D14*
%TO.P,U1,14,GPIO11*%
%TO.N,GPIO11*%
X60430843Y-53407798D03*
%TO.P,U1,13,GPIO10*%
%TO.N,GPIO10*%
X60713686Y-53124955D03*
%TO.P,U1,12,GPIO9*%
%TO.N,GPIO9*%
X60996528Y-52842112D03*
%TO.P,U1,11,GPIO8*%
%TO.N,GPIO8*%
X61279371Y-52559270D03*
%TO.P,U1,10,IOVDD*%
%TO.N,+3V3*%
X61562214Y-52276427D03*
%TO.P,U1,9,GPIO7*%
%TO.N,GPIO7*%
X61845057Y-51993585D03*
%TO.P,U1,8,GPIO6*%
%TO.N,GPIO6*%
X62127899Y-51710742D03*
%TO.P,U1,7,GPIO5*%
%TO.N,GPIO5*%
X62410741Y-51427900D03*
%TO.P,U1,6,GPIO4*%
%TO.N,GPIO4*%
X62693584Y-51145056D03*
%TO.P,U1,5,GPIO3*%
%TO.N,GPIO3*%
X62976427Y-50862213D03*
%TO.P,U1,4,GPIO2*%
%TO.N,GPIO2*%
X63259270Y-50579371D03*
%TO.P,U1,3,GPIO1*%
%TO.N,GPIO1*%
X63542113Y-50296528D03*
%TO.P,U1,2,GPIO0*%
%TO.N,GPIO0*%
X63824955Y-50013686D03*
%TO.P,U1,1,IOVDD*%
%TO.N,+3V3*%
X64107798Y-49730843D03*
%TD*%
D15*
%TO.P,U3,9*%
%TO.N,N/C*%
X66275000Y-47150000D03*
D16*
%TO.P,U3,8,VCC*%
%TO.N,+3V3*%
X67700000Y-46400000D03*
%TO.P,U3,7,~{HOLD}/~{RESET}/IO_{3}*%
%TO.N,QSPI_SD3*%
X67700000Y-46900000D03*
%TO.P,U3,6,CLK*%
%TO.N,QSPI_SCLK*%
X67700000Y-47400000D03*
%TO.P,U3,5,DI/IO_{0}*%
%TO.N,QSPI_SD0*%
X67700000Y-47900000D03*
%TO.P,U3,4,GND*%
%TO.N,GND*%
X64850000Y-47900000D03*
%TO.P,U3,3,~{WP}/IO_{2}*%
%TO.N,QSPI_SD2*%
X64850000Y-47400000D03*
%TO.P,U3,2,DO/IO_{1}*%
%TO.N,QSPI_SD1*%
X64850000Y-46900000D03*
%TO.P,U3,1,~{CS}*%
%TO.N,QSPI_SS*%
X64850000Y-46400000D03*
%TD*%
D17*
%TO.P,C8,2*%
%TO.N,GND*%
X71300000Y-55600000D03*
%TO.P,C8,1*%
%TO.N,+3V3*%
X70340000Y-55600000D03*
%TD*%
D18*
%TO.P,C5,2*%
%TO.N,GND*%
X67900000Y-58600000D03*
%TO.P,C5,1*%
%TO.N,+3V3*%
X67221178Y-57921178D03*
%TD*%
D19*
%TO.P,R5,1*%
%TO.N,Net-(C16-Pad2)*%
X59480002Y-57500000D03*
%TO.P,R5,2*%
%TO.N,XOUT*%
X60500000Y-57500000D03*
%TD*%
D20*
%TO.P,C2,2*%
%TO.N,GND*%
X63700000Y-61060000D03*
%TO.P,C2,1*%
%TO.N,+3V3*%
X63700000Y-60100000D03*
%TD*%
D21*
%TO.P,C16,1*%
%TO.N,GND*%
X62700000Y-61000000D03*
%TO.P,C16,2*%
%TO.N,Net-(C16-Pad2)*%
X62700000Y-60040000D03*
%TD*%
D22*
%TO.P,C11,2*%
%TO.N,GND*%
X70039411Y-51460589D03*
%TO.P,C11,1*%
%TO.N,+1V1*%
X69360589Y-52139411D03*
%TD*%
D23*
%TO.P,Y1,4,4*%
%TO.N,GND*%
X60900000Y-60600000D03*
%TO.P,Y1,3,3*%
%TO.N,XIN*%
X58700000Y-60600000D03*
%TO.P,Y1,2,2*%
%TO.N,GND*%
X58700000Y-58900000D03*
%TO.P,Y1,1,1*%
%TO.N,Net-(C16-Pad2)*%
X60900000Y-58900000D03*
%TD*%
D24*
%TO.P,U2,1,GND*%
%TO.N,GND*%
X61350000Y-36137500D03*
%TO.P,U2,2,VO*%
%TO.N,+3V3*%
X63250000Y-36137500D03*
%TO.P,U2,3,VI*%
%TO.N,VBUS*%
X62300000Y-34262500D03*
%TD*%
D25*
%TO.P,SW1,1,1*%
%TO.N,GND*%
X62400000Y-41600000D03*
%TO.P,SW1,2,2*%
%TO.N,Net-(R7-Pad1)*%
X66600000Y-41600000D03*
%TD*%
D26*
%TO.P,R7,1*%
%TO.N,Net-(R7-Pad1)*%
X66700000Y-44100000D03*
%TO.P,R7,2*%
%TO.N,QSPI_SS*%
X66700000Y-45120000D03*
%TD*%
D19*
%TO.P,R6,1*%
%TO.N,+3V3*%
X63690000Y-45300000D03*
%TO.P,R6,2*%
%TO.N,QSPI_SS*%
X64710000Y-45300000D03*
%TD*%
D27*
%TO.P,R4,1*%
%TO.N,USB_D-*%
X69821248Y-50278752D03*
%TO.P,R4,2*%
%TO.N,Net-(U1-USB_DM)*%
X69100000Y-51000000D03*
%TD*%
D28*
%TO.P,R3,1*%
%TO.N,Net-(U1-USB_DP)*%
X68578752Y-50121248D03*
%TO.P,R3,2*%
%TO.N,USB_D+*%
X69300000Y-49400000D03*
%TD*%
D19*
%TO.P,R2,1*%
%TO.N,Net-(J1-CC2)*%
X66380000Y-33800000D03*
%TO.P,R2,2*%
%TO.N,GND*%
X67400000Y-33800000D03*
%TD*%
D11*
%TO.P,J4,1,Pin_1*%
%TO.N,SWCLK*%
X62160000Y-73890000D03*
D10*
%TO.P,J4,2,Pin_2*%
%TO.N,GND*%
X64700000Y-73890000D03*
%TO.P,J4,3,Pin_3*%
%TO.N,SWD*%
X67240000Y-73890000D03*
%TD*%
D11*
%TO.P,J2,1,Pin_1*%
%TO.N,GPIO0*%
X55810000Y-25870000D03*
D10*
%TO.P,J2,2,Pin_2*%
%TO.N,GPIO1*%
X55810000Y-28410000D03*
%TO.P,J2,3,Pin_3*%
%TO.N,GND*%
X55810000Y-30950000D03*
%TO.P,J2,4,Pin_4*%
%TO.N,GPIO2*%
X55810000Y-33490000D03*
%TO.P,J2,5,Pin_5*%
%TO.N,GPIO3*%
X55810000Y-36030000D03*
%TO.P,J2,6,Pin_6*%
%TO.N,GPIO4*%
X55810000Y-38570000D03*
%TO.P,J2,7,Pin_7*%
%TO.N,GPIO5*%
X55810000Y-41110000D03*
%TO.P,J2,8,Pin_8*%
%TO.N,GND*%
X55810000Y-43650000D03*
%TO.P,J2,9,Pin_9*%
%TO.N,GPIO6*%
X55810000Y-46190000D03*
%TO.P,J2,10,Pin_10*%
%TO.N,GPIO7*%
X55810000Y-48730000D03*
%TO.P,J2,11,Pin_11*%
%TO.N,GPIO8*%
X55810000Y-51270000D03*
%TO.P,J2,12,Pin_12*%
%TO.N,GPIO9*%
X55810000Y-53810000D03*
%TO.P,J2,13,Pin_13*%
%TO.N,GND*%
X55810000Y-56350000D03*
%TO.P,J2,14,Pin_14*%
%TO.N,GPIO10*%
X55810000Y-58890000D03*
%TO.P,J2,15,Pin_15*%
%TO.N,GPIO11*%
X55810000Y-61430000D03*
%TO.P,J2,16,Pin_16*%
%TO.N,GPIO12*%
X55810000Y-63970000D03*
%TO.P,J2,17,Pin_17*%
%TO.N,GPIO13*%
X55810000Y-66510000D03*
%TO.P,J2,18,Pin_18*%
%TO.N,GND*%
X55810000Y-69050000D03*
%TO.P,J2,19,Pin_19*%
%TO.N,GPIO14*%
X55810000Y-71590000D03*
%TO.P,J2,20,Pin_20*%
%TO.N,GPIO15*%
X55810000Y-74130000D03*
%TD*%
D22*
%TO.P,C17,1*%
%TO.N,+3V3*%
X70060589Y-52839411D03*
%TO.P,C17,2*%
%TO.N,GND*%
X70739411Y-52160589D03*
%TD*%
D29*
%TO.P,C15,1*%
%TO.N,GND*%
X60580000Y-62000000D03*
%TO.P,C15,2*%
%TO.N,XIN*%
X59620000Y-62000000D03*
%TD*%
D21*
%TO.P,C14,1*%
%TO.N,+3V3*%
X63400000Y-33780000D03*
%TO.P,C14,2*%
%TO.N,GND*%
X63400000Y-32820000D03*
%TD*%
D20*
%TO.P,C13,1*%
%TO.N,VBUS*%
X60100000Y-34740000D03*
%TO.P,C13,2*%
%TO.N,GND*%
X60100000Y-35700000D03*
%TD*%
D21*
%TO.P,C12,1*%
%TO.N,+1V1*%
X69200000Y-47820000D03*
%TO.P,C12,2*%
%TO.N,GND*%
X69200000Y-46860000D03*
%TD*%
D17*
%TO.P,C10,1*%
%TO.N,+1V1*%
X64720000Y-59800000D03*
%TO.P,C10,2*%
%TO.N,GND*%
X65680000Y-59800000D03*
%TD*%
%TO.P,C9,1*%
%TO.N,+3V3*%
X70340000Y-54600000D03*
%TO.P,C9,2*%
%TO.N,GND*%
X71300000Y-54600000D03*
%TD*%
%TO.P,C7,1*%
%TO.N,+3V3*%
X68600000Y-45500000D03*
%TO.P,C7,2*%
%TO.N,GND*%
X69560000Y-45500000D03*
%TD*%
D20*
%TO.P,C6,1*%
%TO.N,+3V3*%
X58200000Y-51100000D03*
%TO.P,C6,2*%
%TO.N,GND*%
X58200000Y-52060000D03*
%TD*%
D21*
%TO.P,C4,1*%
%TO.N,+3V3*%
X70200000Y-47800000D03*
%TO.P,C4,2*%
%TO.N,GND*%
X70200000Y-46840000D03*
%TD*%
D30*
%TO.P,C3,1*%
%TO.N,+3V3*%
X62900000Y-48500000D03*
%TO.P,C3,2*%
%TO.N,GND*%
X62221178Y-47821178D03*
%TD*%
D21*
%TO.P,C1,1*%
%TO.N,+3V3*%
X71200000Y-47800000D03*
%TO.P,C1,2*%
%TO.N,GND*%
X71200000Y-46840000D03*
%TD*%
D31*
%TO.P,J1,S1,SHIELD*%
%TO.N,GND*%
X60380000Y-25940000D03*
D32*
X60380000Y-30120000D03*
D31*
X69020000Y-25940000D03*
D32*
X69020000Y-30120000D03*
D33*
%TO.P,J1,B12,GND*%
X67950000Y-31035000D03*
%TO.P,J1,B9,VBUS*%
%TO.N,VBUS*%
X67150000Y-31035000D03*
D34*
%TO.P,J1,B8*%
%TO.N,N/C*%
X66450000Y-31035000D03*
%TO.P,J1,B7,D-*%
%TO.N,USB_D-*%
X65450000Y-31035000D03*
%TO.P,J1,B6,D+*%
%TO.N,USB_D+*%
X63950000Y-31035000D03*
%TO.P,J1,B5,CC2*%
%TO.N,Net-(J1-CC2)*%
X62950000Y-31035000D03*
D33*
%TO.P,J1,B4,VBUS*%
%TO.N,VBUS*%
X62250000Y-31035000D03*
%TO.P,J1,B1,GND*%
%TO.N,GND*%
X61450000Y-31035000D03*
%TO.P,J1,A12,GND*%
X61450000Y-31035000D03*
%TO.P,J1,A9,VBUS*%
%TO.N,VBUS*%
X62250000Y-31035000D03*
D34*
%TO.P,J1,A8*%
%TO.N,N/C*%
X63450000Y-31035000D03*
%TO.P,J1,A7,D-*%
%TO.N,USB_D-*%
X64450000Y-31035000D03*
%TO.P,J1,A6,D+*%
%TO.N,USB_D+*%
X64950000Y-31035000D03*
%TO.P,J1,A5,CC1*%
%TO.N,Net-(J1-CC1)*%
X65950000Y-31035000D03*
D33*
%TO.P,J1,A4,VBUS*%
%TO.N,VBUS*%
X67150000Y-31035000D03*
%TO.P,J1,A1,GND*%
%TO.N,GND*%
X67950000Y-31035000D03*
%TD*%
D19*
%TO.P,R1,1*%
%TO.N,Net-(J1-CC1)*%
X66380000Y-32800000D03*
%TO.P,R1,2*%
%TO.N,GND*%
X67400000Y-32800000D03*
%TD*%
D35*
%TO.N,GND*%
X63000000Y-52900000D03*
X64500000Y-48500000D03*
X62213604Y-55213604D03*
X70901999Y-46452978D03*
X64600000Y-70100000D03*
X58900000Y-66800000D03*
X63700000Y-39000000D03*
X57295000Y-44500000D03*
X61000000Y-43300000D03*
X61300000Y-38100000D03*
X58100000Y-29200000D03*
X58200000Y-30400000D03*
X56746446Y-42753554D03*
X57100000Y-43400000D03*
X60300000Y-37300000D03*
X62900000Y-32300000D03*
X60700000Y-41700000D03*
X68396446Y-32896446D03*
X58399000Y-57600000D03*
X62700000Y-64500000D03*
X57400000Y-51800000D03*
X57200000Y-54600000D03*
X70600000Y-59300000D03*
X62000000Y-46700000D03*
X71400000Y-29000000D03*
%TO.N,Net-(J1-CC1)*%
X66400000Y-29400000D03*
X66200000Y-32700000D03*
%TO.N,+1V1*%
X63685786Y-52185786D03*
X66514500Y-51996125D03*
X69360589Y-52139411D03*
%TO.N,GPIO29_ADC3*%
X65000000Y-51471573D03*
%TO.N,+3V3*%
X68500000Y-53800000D03*
X64375637Y-50647385D03*
%TO.N,+1V1*%
X63804262Y-56103124D03*
%TO.N,SWCLK*%
X64268030Y-56642133D03*
%TO.N,SWD*%
X64600000Y-57400000D03*
%TO.N,GPIO16*%
X64100000Y-59100000D03*
%TO.N,GPIO17*%
X64700000Y-58600000D03*
%TO.N,GPIO19*%
X65787914Y-56300000D03*
%TO.N,GPIO22*%
X66700000Y-55300000D03*
%TO.N,GPIO23*%
X69600000Y-57700000D03*
%TO.N,GPIO24*%
X68978640Y-57064081D03*
%TO.N,GPIO26_ADC0*%
X69200000Y-56400000D03*
%TO.N,GPIO27_ADC1*%
X69400000Y-55700000D03*
%TO.N,+3V3*%
X69600000Y-44200000D03*
%TO.N,GPIO28_ADC2*%
X67307313Y-54203151D03*
%TO.N,GPIO15*%
X61500000Y-62700000D03*
%TO.N,GPIO14*%
X60743798Y-56100000D03*
X60800000Y-64200000D03*
%TO.N,GPIO13*%
X60046610Y-56037288D03*
X59700000Y-64100000D03*
%TO.N,GPIO12*%
X58900000Y-63400000D03*
X59500000Y-55600000D03*
%TO.N,GPIO11*%
X57200000Y-61100000D03*
X59100000Y-53800000D03*
%TO.N,SWD*%
X63400000Y-62600000D03*
%TO.N,GPIO15*%
X62900000Y-55600000D03*
%TO.N,SWCLK*%
X62400000Y-62200000D03*
%TD*%
D36*
%TO.N,GND*%
X64100000Y-54000000D02*
X63000000Y-52900000D01*
X64700000Y-54000000D02*
X64100000Y-54000000D01*
X64850000Y-48150000D02*
X64500000Y-48500000D01*
X64850000Y-47900000D02*
X64850000Y-48150000D01*
%TO.N,QSPI_SD1*%
X64850000Y-46900000D02*
X64000000Y-46900000D01*
X64000000Y-46900000D02*
X63800000Y-47100000D01*
X63800000Y-47100000D02*
X63800000Y-48571689D01*
X65700000Y-49000000D02*
X65900000Y-49200000D01*
X63800000Y-48571689D02*
X64264156Y-49035845D01*
X64264156Y-49035845D02*
X64300001Y-49000000D01*
X64300001Y-49000000D02*
X65700000Y-49000000D01*
X65900000Y-49688731D02*
X65575045Y-50013686D01*
X65900000Y-49200000D02*
X65900000Y-49688731D01*
%TO.N,QSPI_SS*%
X64850000Y-46400000D02*
X64000000Y-46400000D01*
X64533476Y-49730843D02*
X65292202Y-49730843D01*
X64000000Y-46400000D02*
X63400000Y-47000000D01*
X63500000Y-47938641D02*
X63500000Y-48697367D01*
X63400000Y-47000000D02*
X63400000Y-47838641D01*
X63400000Y-47838641D02*
X63500000Y-47938641D01*
X63500000Y-48697367D02*
X64533476Y-49730843D01*
%TO.N,GND*%
X61703635Y-55723573D02*
X62213604Y-55213604D01*
X61562213Y-55723573D02*
X61703635Y-55723573D01*
%TO.N,GPIO15*%
X61279371Y-55440730D02*
X62020101Y-54700000D01*
X62020101Y-54700000D02*
X62427322Y-54700000D01*
X62427322Y-54700000D02*
X62900000Y-55172678D01*
X62900000Y-55172678D02*
X62900000Y-55600000D01*
%TO.N,GND*%
X65680000Y-59800000D02*
X64420000Y-61060000D01*
X64420000Y-61060000D02*
X63700000Y-61060000D01*
X71200000Y-46750979D02*
X70901999Y-46452978D01*
X71200000Y-46840000D02*
X71200000Y-46750979D01*
X69560000Y-45500000D02*
X69560000Y-46200000D01*
X69560000Y-46200000D02*
X70200000Y-46840000D01*
X70200000Y-46840000D02*
X71200000Y-46840000D01*
X69200000Y-46860000D02*
X70180000Y-46860000D01*
X70180000Y-46860000D02*
X70200000Y-46840000D01*
X55810000Y-69050000D02*
X58060000Y-66800000D01*
X58060000Y-66800000D02*
X58900000Y-66800000D01*
X64700000Y-70200000D02*
X64700000Y-73890000D01*
X64600000Y-70100000D02*
X64700000Y-70200000D01*
X55810000Y-43650000D02*
X56445000Y-43650000D01*
X56445000Y-43650000D02*
X57295000Y-44500000D01*
X63700000Y-39000000D02*
X62400000Y-40300000D01*
X61000000Y-38400000D02*
X61300000Y-38100000D01*
X61000000Y-43300000D02*
X61000000Y-38400000D01*
X62400000Y-40300000D02*
X62400000Y-41600000D01*
X58200000Y-29300000D02*
X58100000Y-29200000D01*
X58200000Y-30400000D02*
X58200000Y-29300000D01*
X55850000Y-43650000D02*
X56746446Y-42753554D01*
X55810000Y-43650000D02*
X55850000Y-43650000D01*
X60100000Y-37100000D02*
X60300000Y-37300000D01*
X60100000Y-35700000D02*
X60100000Y-37100000D01*
X61350000Y-36137500D02*
X61663046Y-36137500D01*
X61663046Y-36137500D02*
X62889000Y-34911546D01*
X62889000Y-33331000D02*
X63400000Y-32820000D01*
X62889000Y-34911546D02*
X62889000Y-33331000D01*
X63400000Y-32800000D02*
X62900000Y-32300000D01*
X63400000Y-32820000D02*
X63400000Y-32800000D01*
X60100000Y-35700000D02*
X60912500Y-35700000D01*
X60912500Y-35700000D02*
X61350000Y-36137500D01*
X62400000Y-41600000D02*
X62400000Y-37187500D01*
X62400000Y-37187500D02*
X61350000Y-36137500D01*
X62400000Y-41600000D02*
X62400000Y-46300000D01*
X62400000Y-46300000D02*
X62000000Y-46700000D01*
X55810000Y-43650000D02*
X56850000Y-43650000D01*
X56850000Y-43650000D02*
X57100000Y-43400000D01*
X60700000Y-41700000D02*
X62300000Y-41700000D01*
X62300000Y-41700000D02*
X62400000Y-41600000D01*
X67950000Y-31035000D02*
X68105000Y-31035000D01*
X68105000Y-31035000D02*
X69020000Y-30120000D01*
X67492892Y-33800000D02*
X68396446Y-32896446D01*
X67400000Y-33800000D02*
X67492892Y-33800000D01*
X58700000Y-57901000D02*
X58399000Y-57600000D01*
X58700000Y-58900000D02*
X58700000Y-57901000D01*
X62700000Y-62608521D02*
X62901000Y-62407521D01*
X62901000Y-62407521D02*
X62901000Y-61201000D01*
X62700000Y-64500000D02*
X62700000Y-62608521D01*
X62901000Y-61201000D02*
X62700000Y-61000000D01*
X55810000Y-56350000D02*
X57200000Y-54960000D01*
X57200000Y-54960000D02*
X57200000Y-54600000D01*
X57400000Y-51800000D02*
X57940000Y-51800000D01*
X57940000Y-51800000D02*
X58200000Y-52060000D01*
X60580000Y-62000000D02*
X60580000Y-60920000D01*
X60580000Y-60920000D02*
X60900000Y-60600000D01*
X60900000Y-60600000D02*
X60400000Y-60600000D01*
X60400000Y-60600000D02*
X58700000Y-58900000D01*
X60900000Y-60600000D02*
X62300000Y-60600000D01*
X62300000Y-60600000D02*
X62700000Y-61000000D01*
X63700000Y-61060000D02*
X62760000Y-61060000D01*
X62760000Y-61060000D02*
X62700000Y-61000000D01*
X73590000Y-69050000D02*
X65600000Y-61060000D01*
X65600000Y-61060000D02*
X63700000Y-61060000D01*
X69900000Y-58600000D02*
X70600000Y-59300000D01*
X67900000Y-58600000D02*
X69900000Y-58600000D01*
X70039411Y-51460589D02*
X70739411Y-52160589D01*
X73590000Y-56350000D02*
X70739411Y-53499411D01*
X70739411Y-53499411D02*
X70739411Y-52160589D01*
X67900000Y-58600000D02*
X71340000Y-58600000D01*
X71340000Y-58600000D02*
X73590000Y-56350000D01*
X62000000Y-46700000D02*
X62000000Y-47600000D01*
X62000000Y-47600000D02*
X62221178Y-47821178D01*
X71640000Y-29000000D02*
X71400000Y-29000000D01*
X73590000Y-30950000D02*
X71640000Y-29000000D01*
X73590000Y-43650000D02*
X72539000Y-42599000D01*
X72539000Y-42599000D02*
X72539000Y-32001000D01*
X72539000Y-32001000D02*
X73590000Y-30950000D01*
%TO.N,Net-(J1-CC1)*%
X66400000Y-29400000D02*
X65950000Y-29850000D01*
X66380000Y-32800000D02*
X66300000Y-32800000D01*
X66300000Y-32800000D02*
X66200000Y-32700000D01*
X65950000Y-29850000D02*
X65950000Y-31035000D01*
%TO.N,VBUS*%
X67703596Y-34321000D02*
X66102082Y-34321000D01*
X70022000Y-32002596D02*
X67703596Y-34321000D01*
X65602000Y-33820918D02*
X65602000Y-32100000D01*
X66741000Y-32100000D02*
X67150000Y-31691000D01*
X66102082Y-34321000D02*
X65602000Y-33820918D01*
X70022000Y-29154958D02*
X70022000Y-32002596D01*
X65602000Y-32100000D02*
X66741000Y-32100000D01*
X67150000Y-31691000D02*
X67150000Y-31035000D01*
%TO.N,+3V3*%
X68969157Y-54592202D02*
X68969157Y-54269157D01*
X68969157Y-54269157D02*
X68500000Y-53800000D01*
X67221178Y-57921178D02*
X67301000Y-58001000D01*
X69192479Y-58001000D02*
X69392479Y-58201000D01*
X67301000Y-58001000D02*
X69192479Y-58001000D01*
X69392479Y-58201000D02*
X69807521Y-58201000D01*
X69807521Y-58201000D02*
X70340000Y-57668521D01*
X70340000Y-57668521D02*
X70340000Y-55600000D01*
X62400000Y-52554924D02*
X62236258Y-52718666D01*
X62236258Y-52718666D02*
X62236258Y-54083258D01*
X64375637Y-50647385D02*
X62468098Y-52554924D01*
X62468098Y-52554924D02*
X62400000Y-52554924D01*
%TO.N,+1V1*%
X63685786Y-52185786D02*
X63685786Y-52077266D01*
X63685786Y-52077266D02*
X64792479Y-50970573D01*
X66514500Y-51856119D02*
X66514500Y-51996125D01*
X66375538Y-51717157D02*
X66514500Y-51856119D01*
X66700000Y-51717157D02*
X66989258Y-51427899D01*
X64792479Y-50970573D02*
X65628954Y-50970573D01*
X65628954Y-50970573D02*
X66375538Y-51717157D01*
X66375538Y-51717157D02*
X66700000Y-51717157D01*
%TO.N,GPIO29_ADC3*%
X65000000Y-51471573D02*
X65282842Y-51471573D01*
X65282842Y-51471573D02*
X68686314Y-54875045D01*
X68686314Y-54875045D02*
X68686314Y-54786314D01*
%TO.N,+3V3*%
X67200000Y-52681625D02*
X68318375Y-53800000D01*
X68318375Y-53800000D02*
X68500000Y-53800000D01*
X68686314Y-53124955D02*
X68686314Y-53613686D01*
X68686314Y-53613686D02*
X68500000Y-53800000D01*
X68500000Y-53800000D02*
X68576955Y-53800000D01*
X68576955Y-53800000D02*
X68969157Y-53407798D01*
%TO.N,GPIO29_ADC3*%
X68686314Y-54875045D02*
X68675045Y-54875045D01*
%TO.N,+3V3*%
X64375637Y-50647385D02*
X64571514Y-50451508D01*
X64571514Y-50451508D02*
X64571514Y-50194559D01*
X64571514Y-50194559D02*
X64107798Y-49730843D01*
%TO.N,+1V1*%
X63585411Y-56103124D02*
X63804262Y-56103124D01*
X62833592Y-56854943D02*
X63585411Y-56103124D01*
X62693585Y-56854943D02*
X62833592Y-56854943D01*
%TO.N,+3V3*%
X61840711Y-52554924D02*
X62400000Y-52554924D01*
X62410742Y-56572101D02*
X62881843Y-56101000D01*
X62881843Y-56101000D02*
X63107521Y-56101000D01*
X63401000Y-55807521D02*
X63401000Y-55248000D01*
X63107521Y-56101000D02*
X63401000Y-55807521D01*
X63401000Y-55248000D02*
X62236258Y-54083258D01*
X61562214Y-52276427D02*
X61840711Y-52554924D01*
X67200000Y-52681625D02*
X67200000Y-52348528D01*
X67200000Y-52348528D02*
X67554944Y-51993584D01*
X63250000Y-36137500D02*
X63250000Y-36633198D01*
X63250000Y-36633198D02*
X69600000Y-42983198D01*
X69600000Y-42983198D02*
X69600000Y-44200000D01*
X68600000Y-45500000D02*
X69000000Y-45100000D01*
X69000000Y-45100000D02*
X69000000Y-44800000D01*
X67700000Y-46400000D02*
X68600000Y-45500000D01*
%TO.N,GPIO18*%
X66800000Y-60400000D02*
X72910000Y-66510000D01*
X72910000Y-66510000D02*
X73590000Y-66510000D01*
%TO.N,GPIO20*%
X65857887Y-57703472D02*
X66136384Y-57981969D01*
X66136384Y-58844905D02*
X67891479Y-60600000D01*
X66136384Y-57981969D02*
X66136384Y-58844905D01*
X68700000Y-60600000D02*
X69530000Y-61430000D01*
X67891479Y-60600000D02*
X68700000Y-60600000D01*
X69530000Y-61430000D02*
X73590000Y-61430000D01*
%TO.N,GPIO21*%
X68000000Y-60000000D02*
X72480000Y-60000000D01*
X72480000Y-60000000D02*
X73590000Y-58890000D01*
%TO.N,VBUS*%
X73590000Y-25870000D02*
X73306958Y-25870000D01*
X73306958Y-25870000D02*
X70022000Y-29154958D01*
%TO.N,SWCLK*%
X64268030Y-56642133D02*
X64203056Y-56707107D01*
X62976427Y-57137786D02*
X63407107Y-56707107D01*
X64203056Y-56707107D02*
X63407107Y-56707107D01*
%TO.N,SWD*%
X64342133Y-57142133D02*
X63537766Y-57142133D01*
X64600000Y-57400000D02*
X64342133Y-57142133D01*
X63537766Y-57142133D02*
X63259270Y-57420629D01*
%TO.N,GPIO16*%
X64100000Y-59100000D02*
X64035663Y-59100000D01*
X64035663Y-59100000D02*
X63546459Y-58610796D01*
X63546459Y-58610796D02*
X63546459Y-58264810D01*
X63546459Y-58264810D02*
X63824955Y-57986314D01*
%TO.N,GPIO17*%
X64700000Y-58600000D02*
X64438641Y-58600000D01*
X64438641Y-58600000D02*
X64107798Y-58269157D01*
%TO.N,GPIO18*%
X66800000Y-60400000D02*
X66800000Y-60100000D01*
X65292202Y-58592202D02*
X65292202Y-58269157D01*
X66800000Y-60100000D02*
X65292202Y-58592202D01*
%TO.N,GPIO19*%
X65100000Y-57511269D02*
X65575045Y-57986314D01*
X65100000Y-56987914D02*
X65100000Y-57511269D01*
X65787914Y-56300000D02*
X65100000Y-56987914D01*
%TO.N,GPIO21*%
X68000000Y-60000000D02*
X66600000Y-58600000D01*
X66600000Y-58600000D02*
X66600000Y-57879899D01*
X66600000Y-57879899D02*
X66140730Y-57420629D01*
%TO.N,GPIO22*%
X66287914Y-55712086D02*
X66287914Y-56436442D01*
X66287914Y-56436442D02*
X66706416Y-56854944D01*
X66700000Y-55300000D02*
X66287914Y-55712086D01*
%TO.N,GPIO23*%
X67977152Y-57700000D02*
X66989259Y-56712107D01*
X66989259Y-56712107D02*
X66989259Y-56572100D01*
X69600000Y-57700000D02*
X67977152Y-57700000D01*
%TO.N,GPIO24*%
X68978640Y-57064081D02*
X68046924Y-57064081D01*
X68046924Y-57064081D02*
X67272101Y-56289258D01*
%TO.N,GPIO26_ADC0*%
X68514213Y-56400000D02*
X67837786Y-55723573D01*
X69200000Y-56400000D02*
X68514213Y-56400000D01*
%TO.N,GPIO27_ADC1*%
X69380773Y-55719227D02*
X68399126Y-55719227D01*
X69400000Y-55700000D02*
X69380773Y-55719227D01*
X68399126Y-55719227D02*
X68120629Y-55440730D01*
%TO.N,+3V3*%
X69600000Y-44200000D02*
X69600000Y-44443872D01*
X69600000Y-44443872D02*
X69956128Y-44800000D01*
%TO.N,GPIO28_ADC2*%
X67448735Y-54203151D02*
X68403472Y-55157888D01*
X67307313Y-54203151D02*
X67448735Y-54203151D01*
%TO.N,GPIO15*%
X55810000Y-74130000D02*
X61500000Y-68440000D01*
X61500000Y-68440000D02*
X61500000Y-62700000D01*
%TO.N,GPIO14*%
X60800000Y-66600000D02*
X60800000Y-64200000D01*
X55810000Y-71590000D02*
X60800000Y-66600000D01*
X60743798Y-56100000D02*
X60718032Y-56074234D01*
X60718032Y-56074234D02*
X60718032Y-55436383D01*
X60718032Y-55436383D02*
X60996528Y-55157887D01*
%TO.N,GPIO13*%
X60046610Y-56037288D02*
X60046610Y-55542121D01*
X55810000Y-66510000D02*
X57290000Y-66510000D01*
X57290000Y-66510000D02*
X59700000Y-64100000D01*
X60046610Y-55542121D02*
X60713686Y-54875045D01*
%TO.N,GPIO12*%
X55810000Y-63970000D02*
X58330000Y-63970000D01*
X58330000Y-63970000D02*
X58900000Y-63400000D01*
X59500000Y-55523045D02*
X60430843Y-54592202D01*
X59500000Y-55600000D02*
X59500000Y-55523045D01*
%TO.N,GPIO11*%
X55810000Y-61430000D02*
X56870000Y-61430000D01*
X56870000Y-61430000D02*
X57200000Y-61100000D01*
X59100000Y-53800000D02*
X60038641Y-53800000D01*
X60038641Y-53800000D02*
X60430843Y-53407798D01*
%TO.N,GPIO10*%
X58175678Y-56524322D02*
X58175678Y-53875678D01*
X59351356Y-52700000D02*
X60288731Y-52700000D01*
X55810000Y-58890000D02*
X58175678Y-56524322D01*
X58175678Y-53875678D02*
X59351356Y-52700000D01*
X60288731Y-52700000D02*
X60713686Y-53124955D01*
%TO.N,GPIO9*%
X55810000Y-53810000D02*
X57815678Y-53810000D01*
X57815678Y-53810000D02*
X59525678Y-52100000D01*
X59525678Y-52100000D02*
X60254416Y-52100000D01*
X60254416Y-52100000D02*
X60996528Y-52842112D01*
%TO.N,GPIO8*%
X55810000Y-51270000D02*
X55970000Y-51270000D01*
X55970000Y-51270000D02*
X57600000Y-52900000D01*
X57600000Y-52900000D02*
X58300000Y-52900000D01*
X58300000Y-52900000D02*
X59400000Y-51800000D01*
X59400000Y-51800000D02*
X60520101Y-51800000D01*
X60520101Y-51800000D02*
X61279371Y-52559270D01*
%TO.N,GPIO7*%
X55810000Y-48730000D02*
X58581472Y-48730000D01*
X58581472Y-48730000D02*
X61845057Y-51993585D01*
%TO.N,GPIO6*%
X55810000Y-46190000D02*
X56607157Y-46190000D01*
X56607157Y-46190000D02*
X62127899Y-51710742D01*
%TO.N,GPIO5*%
X55810000Y-41110000D02*
X57795000Y-43095000D01*
X57795000Y-43095000D02*
X57795000Y-46812159D01*
X57795000Y-46812159D02*
X62410741Y-51427900D01*
%TO.N,GPIO4*%
X55810000Y-38570000D02*
X58096000Y-40856000D01*
X58096000Y-40856000D02*
X58096000Y-46547472D01*
X58096000Y-46547472D02*
X62693584Y-51145056D01*
%TO.N,GPIO3*%
X55810000Y-36030000D02*
X58397000Y-38617000D01*
X58397000Y-38617000D02*
X58397000Y-46282786D01*
X58397000Y-46282786D02*
X62976427Y-50862213D01*
%TO.N,GPIO2*%
X55810000Y-33490000D02*
X58698000Y-36378000D01*
X58698000Y-36378000D02*
X58698000Y-46018101D01*
X58698000Y-46018101D02*
X63259270Y-50579371D01*
%TO.N,GPIO1*%
X58709000Y-28410000D02*
X58999000Y-28700000D01*
X58999000Y-28700000D02*
X58999000Y-45753415D01*
X55810000Y-28410000D02*
X58709000Y-28410000D01*
X58999000Y-45753415D02*
X63542113Y-50296528D01*
%TO.N,GPIO0*%
X55810000Y-25870000D02*
X57770000Y-25870000D01*
X57770000Y-25870000D02*
X59300000Y-27400000D01*
X59300000Y-27400000D02*
X59300000Y-45622664D01*
X59300000Y-45622664D02*
X63691022Y-50013686D01*
X63691022Y-50013686D02*
X63824955Y-50013686D01*
%TO.N,+3V3*%
X63690000Y-45300000D02*
X62900000Y-46090000D01*
X62900000Y-46090000D02*
X62900000Y-48500000D01*
%TO.N,VBUS*%
X70022000Y-29154958D02*
X69134042Y-28267000D01*
X69134042Y-28267000D02*
X64093000Y-28267000D01*
X64093000Y-28267000D02*
X62250000Y-30110000D01*
X62250000Y-30110000D02*
X62250000Y-31035000D01*
%TO.N,Net-(J1-CC2)*%
X62950000Y-31035000D02*
X62950000Y-30184322D01*
X67044082Y-32279000D02*
X66851000Y-32472082D01*
X62950000Y-30184322D02*
X64566322Y-28568000D01*
X69319918Y-32279000D02*
X67044082Y-32279000D01*
X66851000Y-33329000D02*
X66380000Y-33800000D01*
X64566322Y-28568000D02*
X69009364Y-28568000D01*
X69009364Y-28568000D02*
X69721000Y-29279636D01*
X69721000Y-29279636D02*
X69721000Y-31877918D01*
X66851000Y-32472082D02*
X66851000Y-33329000D01*
X69721000Y-31877918D02*
X69319918Y-32279000D01*
%TO.N,VBUS*%
X62300000Y-34262500D02*
X62300000Y-31085000D01*
X62300000Y-31085000D02*
X62250000Y-31035000D01*
X60100000Y-34740000D02*
X61822500Y-34740000D01*
X61822500Y-34740000D02*
X62300000Y-34262500D01*
%TO.N,+3V3*%
X63400000Y-33780000D02*
X63400000Y-35987500D01*
X63400000Y-35987500D02*
X63250000Y-36137500D01*
%TO.N,USB_D+*%
X65131597Y-38085318D02*
G75*
G03*
X65471009Y-38085318I169706J169704D01*
G01*
X66996397Y-38596396D02*
X67081251Y-38681251D01*
X70525678Y-49400000D02*
X69300000Y-49400000D01*
X66232723Y-37832723D02*
G75*
G02*
X66232695Y-38172106I-169723J-169677D01*
G01*
X65384195Y-36984195D02*
G75*
G02*
X65384195Y-37323605I-169695J-169705D01*
G01*
X65895290Y-38509566D02*
G75*
G03*
X65895261Y-38849005I169710J-169734D01*
G01*
X65980142Y-38933829D02*
G75*
G03*
X66319554Y-38933829I169706J169704D01*
G01*
X65808458Y-37747868D02*
G75*
G02*
X66147869Y-37747868I169705J-169707D01*
G01*
X65384195Y-37323606D02*
X65046745Y-37661055D01*
X66656986Y-38596396D02*
G75*
G02*
X66996397Y-38596395I169706J-169707D01*
G01*
X64500000Y-32100000D02*
X64500000Y-36100000D01*
X72201000Y-47724678D02*
X70525678Y-49400000D01*
X64500000Y-36100000D02*
X65384195Y-36984195D01*
X65046745Y-37661055D02*
G75*
G03*
X65046705Y-38000505I169755J-169745D01*
G01*
X65046745Y-38000466D02*
X65131597Y-38085318D01*
X66147869Y-37747868D02*
X66232723Y-37832723D01*
X65471009Y-38085318D02*
X65808458Y-37747868D01*
X66319554Y-38933829D02*
X66656986Y-38596396D01*
X72201000Y-43801000D02*
X72201000Y-47724678D01*
X66232723Y-38172134D02*
X65895290Y-38509566D01*
X65895290Y-38848977D02*
X65980142Y-38933829D01*
X67081251Y-38681251D02*
X67320805Y-38920805D01*
X67320805Y-38920805D02*
X72201000Y-43801000D01*
%TO.N,USB_D-*%
X65301000Y-36177231D02*
X65301000Y-36475322D01*
X65764304Y-36599215D02*
X65841947Y-36521569D01*
X65424892Y-36599214D02*
G75*
G03*
X65764305Y-36599216I169708J169714D01*
G01*
X66188566Y-37362889D02*
X66273420Y-37447742D01*
X65301000Y-36475322D02*
X65424892Y-36599214D01*
X70178134Y-50278752D02*
X69821248Y-50278752D01*
X66931144Y-38105466D02*
X72502000Y-43676322D01*
X72502000Y-47954886D02*
X70178134Y-50278752D01*
X66181359Y-36521570D02*
X66266211Y-36606422D01*
X66266211Y-36945834D02*
X66188565Y-37023477D01*
X72502000Y-43676322D02*
X72502000Y-47954886D01*
X66273420Y-37447742D02*
X66931144Y-38105466D01*
X66266211Y-36606422D02*
G75*
G02*
X66266183Y-36945806I-169711J-169678D01*
G01*
X65841947Y-36521569D02*
G75*
G02*
X66181406Y-36521522I169753J-169731D01*
G01*
X66188565Y-37023477D02*
G75*
G03*
X66188548Y-37362906I169735J-169723D01*
G01*
X65100000Y-30100000D02*
X65292000Y-30100000D01*
X65292000Y-30100000D02*
X65301000Y-30109000D01*
X65301000Y-35596248D02*
X65301000Y-35725356D01*
X65301000Y-30109000D02*
X65301000Y-35596248D01*
X65301000Y-35725356D02*
X65301000Y-36177231D01*
X65100000Y-30100000D02*
X64500000Y-30100000D01*
%TO.N,USB_D+*%
X64500000Y-32100000D02*
X64900000Y-32100000D01*
X63950000Y-31035000D02*
X63950000Y-32050000D01*
X63950000Y-32050000D02*
X64000000Y-32100000D01*
X64000000Y-32100000D02*
X64500000Y-32100000D01*
X64900000Y-32100000D02*
X64950000Y-32050000D01*
X64950000Y-32050000D02*
X64950000Y-31035000D01*
%TO.N,USB_D-*%
X65450000Y-30150000D02*
X65400000Y-30100000D01*
X65450000Y-31035000D02*
X65450000Y-30150000D01*
X65400000Y-30100000D02*
X65100000Y-30100000D01*
X64450000Y-30150000D02*
X64500000Y-30100000D01*
X64450000Y-31035000D02*
X64450000Y-30150000D01*
%TO.N,QSPI_SD0*%
X66597000Y-49003000D02*
X67700000Y-47900000D01*
%TO.N,QSPI_SCLK*%
X67700000Y-47400000D02*
X68200000Y-47400000D01*
X68200000Y-47400000D02*
X68387161Y-47587161D01*
X68387161Y-48112839D02*
X66898000Y-49602000D01*
X66898000Y-49602000D02*
X66898000Y-50387787D01*
X68387161Y-47587161D02*
X68387161Y-48112839D01*
X66898000Y-50387787D02*
X66423573Y-50862214D01*
%TO.N,QSPI_SD3*%
X67199000Y-49801000D02*
X68689000Y-48311000D01*
X68689000Y-48311000D02*
X68689000Y-47389000D01*
X67199000Y-50652472D02*
X67199000Y-49801000D01*
X66706415Y-51145057D02*
X67199000Y-50652472D01*
X68689000Y-47389000D02*
X68200000Y-46900000D01*
X68200000Y-46900000D02*
X67700000Y-46900000D01*
%TO.N,QSPI_SD0*%
X66597000Y-49003000D02*
X66597000Y-50123101D01*
X66597000Y-50123101D02*
X66140730Y-50579371D01*
%TO.N,+1V1*%
X69200000Y-47820000D02*
X69200000Y-48235508D01*
X69200000Y-48235508D02*
X67500000Y-49935508D01*
X67500000Y-49935508D02*
X67500000Y-50917157D01*
X67500000Y-50917157D02*
X66989258Y-51427899D01*
%TO.N,+3V3*%
X67831597Y-51716931D02*
X67831597Y-51200000D01*
X67272100Y-51710741D02*
X67782841Y-51200000D01*
X67782841Y-51200000D02*
X67831597Y-51200000D01*
X71200000Y-47800000D02*
X70200000Y-47800000D01*
X70163194Y-47800000D02*
X67831597Y-50131597D01*
X67554944Y-51993584D02*
X67831597Y-51716931D01*
X67831597Y-51200000D02*
X67831597Y-50131597D01*
X70200000Y-47800000D02*
X70163194Y-47800000D01*
X71800000Y-47600000D02*
X71600000Y-47800000D01*
X71600000Y-47800000D02*
X71200000Y-47800000D01*
X67700000Y-46400000D02*
X67840000Y-46400000D01*
%TO.N,QSPI_SD2*%
X64850000Y-47400000D02*
X65299999Y-47400000D01*
X65299999Y-47400000D02*
X66276389Y-48376390D01*
X66276389Y-48376390D02*
X66276389Y-49878027D01*
X66276389Y-49878027D02*
X65857888Y-50296528D01*
%TO.N,QSPI_SS*%
X64710000Y-45300000D02*
X66520000Y-45300000D01*
X66520000Y-45300000D02*
X66700000Y-45120000D01*
X64850000Y-46400000D02*
X64850000Y-45440000D01*
X64850000Y-45440000D02*
X64710000Y-45300000D01*
%TO.N,Net-(U1-USB_DP)*%
X68578752Y-50121248D02*
X68378752Y-50321248D01*
X68378752Y-50321248D02*
X68378752Y-51735462D01*
%TO.N,+3V3*%
X68969157Y-54592202D02*
X69332202Y-54592202D01*
X69332202Y-54592202D02*
X70340000Y-55600000D01*
X68969157Y-53407798D02*
X69147798Y-53407798D01*
X69147798Y-53407798D02*
X70340000Y-54600000D01*
X70060589Y-52839411D02*
X68971858Y-52839411D01*
X68971858Y-52839411D02*
X68686314Y-53124955D01*
%TO.N,+1V1*%
X69360589Y-52139411D02*
X69106174Y-52139411D01*
X69106174Y-52139411D02*
X68403472Y-52842113D01*
%TO.N,Net-(U1-USB_DM)*%
X69100000Y-51000000D02*
X69100000Y-51579899D01*
X69100000Y-51579899D02*
X68120629Y-52559270D01*
%TO.N,Net-(U1-USB_DP)*%
X68378752Y-51735462D02*
X67837787Y-52276427D01*
%TO.N,+3V3*%
X62900000Y-48500000D02*
X62900000Y-48523045D01*
X62900000Y-48523045D02*
X64107798Y-49730843D01*
X58200000Y-51100000D02*
X60385787Y-51100000D01*
X60385787Y-51100000D02*
X61562214Y-52276427D01*
%TO.N,XIN*%
X59620000Y-62000000D02*
X59620000Y-61520000D01*
X59620000Y-61520000D02*
X58700000Y-60600000D01*
X58700000Y-60600000D02*
X57800000Y-60600000D01*
X57200000Y-58000000D02*
X58600000Y-56600000D01*
X57200000Y-60000000D02*
X57200000Y-58000000D01*
X57800000Y-60600000D02*
X57200000Y-60000000D01*
X58600000Y-56600000D02*
X61251472Y-56600000D01*
X61251472Y-56600000D02*
X61845056Y-56006416D01*
%TO.N,Net-(C16-Pad2)*%
X59480002Y-57500000D02*
X59500000Y-57500000D01*
X59500000Y-57500000D02*
X60900000Y-58900000D01*
%TO.N,+1V1*%
X62415088Y-58389410D02*
X63644678Y-59619000D01*
X62415088Y-57133440D02*
X62415088Y-58389410D01*
X62693585Y-56854943D02*
X62415088Y-57133440D01*
X63644678Y-59619000D02*
X64539000Y-59619000D01*
X64539000Y-59619000D02*
X64720000Y-59800000D01*
%TO.N,+3V3*%
X62410742Y-56572101D02*
X62410742Y-56589258D01*
X62410742Y-56589258D02*
X61900000Y-57100000D01*
X61900000Y-57100000D02*
X61900000Y-58300000D01*
X61900000Y-58300000D02*
X63700000Y-60100000D01*
%TO.N,Net-(C16-Pad2)*%
X62700000Y-60040000D02*
X62040000Y-60040000D01*
X62040000Y-60040000D02*
X60900000Y-58900000D01*
%TO.N,XOUT*%
X60500000Y-57500000D02*
X60917159Y-57500000D01*
X60917159Y-57500000D02*
X62127900Y-56289259D01*
%TO.N,+3V3*%
X67221178Y-57921178D02*
X67206964Y-57921178D01*
X67206964Y-57921178D02*
X66423573Y-57137787D01*
%TO.N,Net-(R7-Pad1)*%
X66600000Y-44000000D02*
X66700000Y-44100000D01*
X66600000Y-41600000D02*
X66600000Y-44000000D01*
%TO.N,+3V3*%
X69956128Y-44800000D02*
X71800000Y-46643872D01*
X71800000Y-46643872D02*
X71800000Y-47600000D01*
X69000000Y-44800000D02*
X69956128Y-44800000D01*
%TO.N,SWD*%
X67240000Y-73890000D02*
X67240000Y-66440000D01*
X67240000Y-66440000D02*
X63400000Y-62600000D01*
%TO.N,SWCLK*%
X62160000Y-73890000D02*
X62160000Y-62440000D01*
X62160000Y-62440000D02*
X62400000Y-62200000D01*
%TD*%
%TA.AperFunction,Conductor*%
%TO.N,GND*%
G36*
X64234075Y-74082993D02*
G01*
X64299901Y-74197007D01*
X64392993Y-74290099D01*
X64507007Y-74355925D01*
X64570591Y-74372962D01*
X63980373Y-74963181D01*
X63919050Y-74996666D01*
X63892692Y-74999500D01*
X63414210Y-74999500D01*
X63347171Y-74979815D01*
X63301416Y-74927011D01*
X63290723Y-74864236D01*
X63292568Y-74843999D01*
X63307585Y-74809991D01*
X63310500Y-74784865D01*
X63310499Y-74647428D01*
X63311012Y-74641815D01*
X63321865Y-74614368D01*
X63330183Y-74586040D01*
X63334570Y-74582237D01*
X63336705Y-74576841D01*
X63360674Y-74559619D01*
X63382987Y-74540285D01*
X63388733Y-74539458D01*
X63393447Y-74536072D01*
X63422922Y-74534542D01*
X63452145Y-74530341D01*
X63457426Y-74532752D01*
X63463223Y-74532452D01*
X63488846Y-74547101D01*
X63515701Y-74559365D01*
X63520077Y-74564956D01*
X63523879Y-74567130D01*
X63528058Y-74575154D01*
X63542495Y-74593600D01*
X63542829Y-74593396D01*
X63544607Y-74596297D01*
X63544977Y-74596770D01*
X63545373Y-74597547D01*
X63584728Y-74651716D01*
X64217037Y-74019408D01*
X64234075Y-74082993D01*
G37*
%TD.AperFunction*%
%TA.AperFunction,Conductor*%
G36*
X65815270Y-74651717D02*
G01*
X65815270Y-74651716D01*
X65854622Y-74597554D01*
X65951095Y-74408217D01*
X65960492Y-74379295D01*
X65999928Y-74321618D01*
X66064286Y-74294419D01*
X66133133Y-74306331D01*
X66184610Y-74353574D01*
X66188908Y-74361314D01*
X66256004Y-74492995D01*
X66362441Y-74639494D01*
X66362445Y-74639499D01*
X66490500Y-74767554D01*
X66490505Y-74767558D01*
X66500998Y-74775182D01*
X66543664Y-74830512D01*
X66549643Y-74900125D01*
X66517037Y-74961920D01*
X66456199Y-74996277D01*
X66428113Y-74999500D01*
X65507308Y-74999500D01*
X65440269Y-74979815D01*
X65419627Y-74963181D01*
X64829408Y-74372962D01*
X64892993Y-74355925D01*
X65007007Y-74290099D01*
X65100099Y-74197007D01*
X65165925Y-74082993D01*
X65182962Y-74019408D01*
X65815270Y-74651717D01*
G37*
%TD.AperFunction*%
%TA.AperFunction,Conductor*%
G36*
X65873039Y-59819685D02*
G01*
X65918794Y-59872489D01*
X65930000Y-59924000D01*
X65930000Y-60604503D01*
X66076195Y-60562031D01*
X66215374Y-60479721D01*
X66221544Y-60474936D01*
X66222552Y-60476236D01*
X66275736Y-60447189D01*
X66345428Y-60452165D01*
X66401366Y-60494031D01*
X66421881Y-60536256D01*
X66426793Y-60554588D01*
X66479520Y-60645913D01*
X66479522Y-60645915D01*
X72412016Y-66578409D01*
X72445501Y-66639732D01*
X72446808Y-66646692D01*
X72467829Y-66779410D01*
X72523787Y-66951636D01*
X72523788Y-66951639D01*
X72606006Y-67112997D01*
X72712441Y-67259494D01*
X72712445Y-67259499D01*
X72840500Y-67387554D01*
X72840505Y-67387558D01*
X72968287Y-67480396D01*
X72987006Y-67493996D01*
X73088780Y-67545853D01*
X73118684Y-67561090D01*
X73169480Y-67609065D01*
X73186275Y-67676886D01*
X73163737Y-67743021D01*
X73109022Y-67786472D01*
X73100708Y-67789506D01*
X73071781Y-67798905D01*
X72882439Y-67895380D01*
X72828282Y-67934727D01*
X72828282Y-67934728D01*
X73460591Y-68567037D01*
X73397007Y-68584075D01*
X73282993Y-68649901D01*
X73189901Y-68742993D01*
X73124075Y-68857007D01*
X73107037Y-68920591D01*
X72474728Y-68288282D01*
X72474727Y-68288282D01*
X72435380Y-68342439D01*
X72338904Y-68531782D01*
X72273242Y-68733869D01*
X72273242Y-68733872D01*
X72240000Y-68943753D01*
X72240000Y-69156246D01*
X72273242Y-69366127D01*
X72273242Y-69366130D01*
X72338904Y-69568217D01*
X72435375Y-69757550D01*
X72474728Y-69811716D01*
X73107037Y-69179408D01*
X73124075Y-69242993D01*
X73189901Y-69357007D01*
X73282993Y-69450099D01*
X73397007Y-69515925D01*
X73460590Y-69532962D01*
X72828282Y-70165269D01*
X72828282Y-70165270D01*
X72882449Y-70204624D01*
X73071780Y-70301094D01*
X73100705Y-70310492D01*
X73158381Y-70349929D01*
X73185580Y-70414287D01*
X73173667Y-70483134D01*
X73126424Y-70534610D01*
X73118685Y-70538908D01*
X72987004Y-70606004D01*
X72840505Y-70712441D01*
X72840500Y-70712445D01*
X72712445Y-70840500D01*
X72712441Y-70840505D01*
X72606006Y-70987002D01*
X72523788Y-71148360D01*
X72523787Y-71148363D01*
X72467829Y-71320589D01*
X72439500Y-71499448D01*
X72439500Y-71680551D01*
X72467829Y-71859410D01*
X72523787Y-72031636D01*
X72523788Y-72031639D01*
X72606006Y-72192997D01*
X72712441Y-72339494D01*
X72712445Y-72339499D01*
X72840500Y-72467554D01*
X72840505Y-72467558D01*
X72940214Y-72540000D01*
X72987006Y-72573996D01*
X73068462Y-72615500D01*
X73148360Y-72656211D01*
X73148363Y-72656212D01*
X73229392Y-72682539D01*
X73320591Y-72712171D01*
X73393639Y-72723740D01*
X73480678Y-72737527D01*
X73543813Y-72767456D01*
X73580744Y-72826768D01*
X73579746Y-72896631D01*
X73541136Y-72954863D01*
X73480678Y-72982473D01*
X73320589Y-73007829D01*
X73148363Y-73063787D01*
X73148360Y-73063788D01*
X72987002Y-73146006D01*
X72840505Y-73252441D01*
X72840500Y-73252445D01*
X72712445Y-73380500D01*
X72712441Y-73380505D01*
X72606006Y-73527002D01*
X72523788Y-73688360D01*
X72523787Y-73688363D01*
X72467829Y-73860589D01*
X72439500Y-74039448D01*
X72439500Y-74220551D01*
X72467829Y-74399410D01*
X72523787Y-74571636D01*
X72523788Y-74571639D01*
X72606003Y-74732993D01*
X72656586Y-74802615D01*
X72680065Y-74868422D01*
X72664239Y-74936476D01*
X72614133Y-74985170D01*
X72556267Y-74999500D01*
X68051887Y-74999500D01*
X67984848Y-74979815D01*
X67939093Y-74927011D01*
X67929149Y-74857853D01*
X67958174Y-74794297D01*
X67979002Y-74775182D01*
X67989494Y-74767558D01*
X67989492Y-74767558D01*
X67989501Y-74767553D01*
X68117553Y-74639501D01*
X68223996Y-74492994D01*
X68306211Y-74331639D01*
X68362171Y-74159409D01*
X68381171Y-74039448D01*
X68390500Y-73980551D01*
X68390500Y-73799448D01*
X68372905Y-73688361D01*
X68362171Y-73620591D01*
X68306211Y-73448361D01*
X68306211Y-73448360D01*
X68267191Y-73371780D01*
X68223996Y-73287006D01*
X68198883Y-73252441D01*
X68117558Y-73140505D01*
X68117554Y-73140500D01*
X67989499Y-73012445D01*
X67989494Y-73012441D01*
X67842997Y-72906006D01*
X67842996Y-72906005D01*
X67842994Y-72906004D01*
X67708205Y-72837325D01*
X67657409Y-72789350D01*
X67640500Y-72726840D01*
X67640500Y-66387275D01*
X67640500Y-66387273D01*
X67613207Y-66285413D01*
X67613207Y-66285412D01*
X67560480Y-66194087D01*
X64036819Y-62670426D01*
X64003334Y-62609103D01*
X64000500Y-62582745D01*
X64000500Y-62520945D01*
X64000500Y-62520943D01*
X63959577Y-62368216D01*
X63959573Y-62368209D01*
X63880524Y-62231290D01*
X63880518Y-62231282D01*
X63768717Y-62119481D01*
X63768709Y-62119475D01*
X63631790Y-62040426D01*
X63631785Y-62040423D01*
X63538938Y-62015545D01*
X63479278Y-61979179D01*
X63448749Y-61916332D01*
X63451536Y-61893027D01*
X63450000Y-61893027D01*
X63450000Y-61838789D01*
X63950000Y-61838789D01*
X63970910Y-61837145D01*
X64126195Y-61792031D01*
X64265374Y-61709721D01*
X64265383Y-61709714D01*
X64379714Y-61595383D01*
X64379721Y-61595374D01*
X64462031Y-61456195D01*
X64504504Y-61310000D01*
X63950000Y-61310000D01*
X63950000Y-61838789D01*
X63450000Y-61838789D01*
X63450000Y-61310000D01*
X62871362Y-61310000D01*
X62841921Y-61301355D01*
X62811935Y-61294832D01*
X62806919Y-61291077D01*
X62804323Y-61290315D01*
X62783681Y-61273681D01*
X62736319Y-61226319D01*
X62702834Y-61164996D01*
X62700000Y-61138638D01*
X62700000Y-60874000D01*
X62719685Y-60806961D01*
X62772489Y-60761206D01*
X62824000Y-60750000D01*
X63528638Y-60750000D01*
X63595677Y-60769685D01*
X63616319Y-60786319D01*
X63640000Y-60810000D01*
X64504504Y-60810000D01*
X64462031Y-60663804D01*
X64422891Y-60597621D01*
X64405708Y-60529897D01*
X64427868Y-60463634D01*
X64482334Y-60419871D01*
X64529623Y-60410500D01*
X64913070Y-60410500D01*
X64942809Y-60407711D01*
X64942809Y-60407710D01*
X64942819Y-60407710D01*
X64965427Y-60399798D01*
X65035202Y-60396236D01*
X65094061Y-60429159D01*
X65144616Y-60479714D01*
X65144625Y-60479721D01*
X65283804Y-60562031D01*
X65430000Y-60604504D01*
X65430000Y-59924000D01*
X65449685Y-59856961D01*
X65502489Y-59811206D01*
X65554000Y-59800000D01*
X65806000Y-59800000D01*
X65873039Y-59819685D01*
G37*
%TD.AperFunction*%
%TA.AperFunction,Conductor*%
G36*
X62747287Y-62737434D02*
G01*
X62771944Y-62741580D01*
X62779738Y-62748665D01*
X62789691Y-62752110D01*
X62805145Y-62771761D01*
X62823645Y-62788578D01*
X62829950Y-62803302D01*
X62832882Y-62807030D01*
X62837539Y-62821022D01*
X62840423Y-62831784D01*
X62840424Y-62831787D01*
X62840426Y-62831790D01*
X62919475Y-62968709D01*
X62919479Y-62968714D01*
X62919480Y-62968716D01*
X63031284Y-63080520D01*
X63031286Y-63080521D01*
X63031290Y-63080524D01*
X63165680Y-63158113D01*
X63168216Y-63159577D01*
X63320943Y-63200500D01*
X63382745Y-63200500D01*
X63449784Y-63220185D01*
X63470426Y-63236819D01*
X66803181Y-66569574D01*
X66836666Y-66630897D01*
X66839500Y-66657255D01*
X66839500Y-72726840D01*
X66819815Y-72793879D01*
X66771795Y-72837325D01*
X66637002Y-72906006D01*
X66490505Y-73012441D01*
X66490500Y-73012445D01*
X66362445Y-73140500D01*
X66362441Y-73140505D01*
X66256004Y-73287004D01*
X66188908Y-73418685D01*
X66140933Y-73469480D01*
X66073112Y-73486275D01*
X66006977Y-73463737D01*
X65963527Y-73409021D01*
X65960492Y-73400705D01*
X65951094Y-73371780D01*
X65854624Y-73182449D01*
X65815270Y-73128282D01*
X65815269Y-73128282D01*
X65182962Y-73760590D01*
X65165925Y-73697007D01*
X65100099Y-73582993D01*
X65007007Y-73489901D01*
X64892993Y-73424075D01*
X64829409Y-73407037D01*
X65461716Y-72774728D01*
X65407550Y-72735375D01*
X65218217Y-72638904D01*
X65016129Y-72573242D01*
X64806246Y-72540000D01*
X64593754Y-72540000D01*
X64383872Y-72573242D01*
X64383869Y-72573242D01*
X64181782Y-72638904D01*
X63992439Y-72735380D01*
X63938282Y-72774727D01*
X63938282Y-72774728D01*
X64570591Y-73407037D01*
X64507007Y-73424075D01*
X64392993Y-73489901D01*
X64299901Y-73582993D01*
X64234075Y-73697007D01*
X64217037Y-73760591D01*
X63584728Y-73128282D01*
X63584727Y-73128282D01*
X63545380Y-73182440D01*
X63545377Y-73182445D01*
X63544981Y-73183223D01*
X63544752Y-73183464D01*
X63542838Y-73186590D01*
X63542180Y-73186187D01*
X63497004Y-73234017D01*
X63429183Y-73250809D01*
X63363049Y-73228268D01*
X63319600Y-73173551D01*
X63310499Y-73126923D01*
X63310499Y-72995143D01*
X63310499Y-72995136D01*
X63310497Y-72995117D01*
X63307586Y-72970012D01*
X63307585Y-72970011D01*
X63307585Y-72970009D01*
X63262206Y-72867235D01*
X63182765Y-72787794D01*
X63182763Y-72787793D01*
X63079992Y-72742415D01*
X63054868Y-72739500D01*
X63054865Y-72739500D01*
X62684500Y-72739500D01*
X62617461Y-72719815D01*
X62571706Y-72667011D01*
X62560500Y-72615500D01*
X62560500Y-62871957D01*
X62580185Y-62804918D01*
X62625769Y-62765419D01*
X62624743Y-62763642D01*
X62631784Y-62759577D01*
X62655765Y-62745731D01*
X62680058Y-62739837D01*
X62703041Y-62729995D01*
X62713427Y-62731741D01*
X62723663Y-62729258D01*
X62747287Y-62737434D01*
G37*
%TD.AperFunction*%
%TA.AperFunction,Conductor*%
G36*
X74663181Y-69769627D02*
G01*
X74696666Y-69830950D01*
X74699500Y-69857308D01*
X74699500Y-70778113D01*
X74679815Y-70845152D01*
X74627011Y-70890907D01*
X74557853Y-70900851D01*
X74494297Y-70871826D01*
X74475182Y-70850998D01*
X74467558Y-70840505D01*
X74467554Y-70840500D01*
X74339499Y-70712445D01*
X74339494Y-70712441D01*
X74192995Y-70606004D01*
X74061314Y-70538908D01*
X74010519Y-70490934D01*
X73993724Y-70423113D01*
X74016262Y-70356978D01*
X74070977Y-70313527D01*
X74079295Y-70310492D01*
X74108217Y-70301095D01*
X74297554Y-70204622D01*
X74351716Y-70165270D01*
X74351717Y-70165270D01*
X73719408Y-69532962D01*
X73782993Y-69515925D01*
X73897007Y-69450099D01*
X73990099Y-69357007D01*
X74055925Y-69242993D01*
X74072962Y-69179408D01*
X74663181Y-69769627D01*
G37*
%TD.AperFunction*%
%TA.AperFunction,Conductor*%
G36*
X60238257Y-64502236D02*
G01*
X60248759Y-64502988D01*
X60268772Y-64517969D01*
X60290999Y-64529429D01*
X60300899Y-64542019D01*
X60304693Y-64544859D01*
X60312815Y-64557172D01*
X60319477Y-64568712D01*
X60319481Y-64568717D01*
X60363181Y-64612417D01*
X60396666Y-64673740D01*
X60399500Y-64700098D01*
X60399500Y-66382744D01*
X60379815Y-66449783D01*
X60363181Y-66470425D01*
X57327985Y-69505620D01*
X57266662Y-69539105D01*
X57196970Y-69534121D01*
X57141037Y-69492249D01*
X57116620Y-69426785D01*
X57122375Y-69379616D01*
X57126756Y-69366132D01*
X57126757Y-69366127D01*
X57160000Y-69156246D01*
X57160000Y-68943753D01*
X57126757Y-68733872D01*
X57126757Y-68733869D01*
X57061095Y-68531782D01*
X56964624Y-68342449D01*
X56925270Y-68288282D01*
X56925269Y-68288282D01*
X56292962Y-68920589D01*
X56275925Y-68857007D01*
X56210099Y-68742993D01*
X56117007Y-68649901D01*
X56002993Y-68584075D01*
X55939407Y-68567036D01*
X56571716Y-67934728D01*
X56517550Y-67895375D01*
X56328217Y-67798904D01*
X56299292Y-67789506D01*
X56241616Y-67750068D01*
X56214418Y-67685710D01*
X56226333Y-67616863D01*
X56273577Y-67565388D01*
X56281315Y-67561090D01*
X56412994Y-67493996D01*
X56559501Y-67387553D01*
X56687553Y-67259501D01*
X56793996Y-67112994D01*
X56862675Y-66978205D01*
X56910650Y-66927409D01*
X56973160Y-66910500D01*
X57342725Y-66910500D01*
X57342727Y-66910500D01*
X57444588Y-66883207D01*
X57535913Y-66830480D01*
X59629573Y-64736818D01*
X59690896Y-64703334D01*
X59717254Y-64700500D01*
X59779055Y-64700500D01*
X59779057Y-64700500D01*
X59931784Y-64659577D01*
X60068716Y-64580520D01*
X60117747Y-64531488D01*
X60139686Y-64519508D01*
X60159343Y-64504051D01*
X60169826Y-64503050D01*
X60179068Y-64498004D01*
X60204004Y-64499787D01*
X60228897Y-64497411D01*
X60238257Y-64502236D01*
G37*
%TD.AperFunction*%
%TA.AperFunction,Conductor*%
G36*
X74661917Y-67232959D02*
G01*
X74696277Y-67293796D01*
X74699500Y-67321886D01*
X74699500Y-68242692D01*
X74679815Y-68309731D01*
X74663181Y-68330373D01*
X74072962Y-68920591D01*
X74055925Y-68857007D01*
X73990099Y-68742993D01*
X73897007Y-68649901D01*
X73782993Y-68584075D01*
X73719409Y-68567037D01*
X74351716Y-67934728D01*
X74297550Y-67895375D01*
X74108217Y-67798904D01*
X74079292Y-67789506D01*
X74021616Y-67750068D01*
X73994418Y-67685710D01*
X74006333Y-67616863D01*
X74053577Y-67565388D01*
X74061315Y-67561090D01*
X74192994Y-67493996D01*
X74339501Y-67387553D01*
X74467553Y-67259501D01*
X74475180Y-67249003D01*
X74530508Y-67206336D01*
X74600121Y-67200355D01*
X74661917Y-67232959D01*
G37*
%TD.AperFunction*%
%TA.AperFunction,Conductor*%
G36*
X57896811Y-61373053D02*
G01*
X57977658Y-61434361D01*
X58118436Y-61489877D01*
X58206898Y-61500500D01*
X58953846Y-61500500D01*
X59020885Y-61520185D01*
X59066640Y-61572989D01*
X59076584Y-61642147D01*
X59070887Y-61665455D01*
X59042291Y-61747173D01*
X59042289Y-61747185D01*
X59039500Y-61776929D01*
X59039500Y-62223070D01*
X59042289Y-62252814D01*
X59042291Y-62252826D01*
X59069746Y-62331284D01*
X59086148Y-62378157D01*
X59165001Y-62484999D01*
X59271843Y-62563852D01*
X59310003Y-62577204D01*
X59397173Y-62607708D01*
X59397177Y-62607708D01*
X59397181Y-62607710D01*
X59412036Y-62609103D01*
X59426930Y-62610500D01*
X59426934Y-62610500D01*
X59813070Y-62610500D01*
X59842809Y-62607711D01*
X59842809Y-62607710D01*
X59842819Y-62607710D01*
X59865427Y-62599798D01*
X59935202Y-62596236D01*
X59994061Y-62629159D01*
X60044616Y-62679714D01*
X60044625Y-62679721D01*
X60183804Y-62762031D01*
X60330000Y-62804504D01*
X60330000Y-62124000D01*
X60349685Y-62056961D01*
X60402489Y-62011206D01*
X60454000Y-62000000D01*
X60580000Y-62000000D01*
X60580000Y-61874000D01*
X60599685Y-61806961D01*
X60652489Y-61761206D01*
X60704000Y-61750000D01*
X61358790Y-61750000D01*
X61373716Y-61733853D01*
X61433678Y-61697987D01*
X61452171Y-61694667D01*
X61502696Y-61689506D01*
X61669119Y-61634358D01*
X61669124Y-61634356D01*
X61818344Y-61542316D01*
X61835641Y-61525019D01*
X61845089Y-61519859D01*
X61851776Y-61511422D01*
X61875217Y-61503406D01*
X61896963Y-61491532D01*
X61907701Y-61492299D01*
X61917888Y-61488817D01*
X61941941Y-61494747D01*
X61966655Y-61496515D01*
X61977062Y-61503407D01*
X61985726Y-61505544D01*
X62002612Y-61520329D01*
X62013387Y-61527465D01*
X62032534Y-61547697D01*
X62047684Y-61577357D01*
X62063636Y-61606568D01*
X62063509Y-61608338D01*
X62064317Y-61609919D01*
X62061027Y-61643052D01*
X62058654Y-61676260D01*
X62057562Y-61677958D01*
X62057415Y-61679447D01*
X62053136Y-61684845D01*
X62030153Y-61720611D01*
X61919478Y-61831286D01*
X61919475Y-61831290D01*
X61840426Y-61968209D01*
X61840421Y-61968220D01*
X61822186Y-62036274D01*
X61785821Y-62095934D01*
X61722974Y-62126462D01*
X61670321Y-62123954D01*
X61579057Y-62099500D01*
X61420943Y-62099500D01*
X61268216Y-62140423D01*
X61268209Y-62140426D01*
X61131289Y-62219475D01*
X61124908Y-62224373D01*
X61059740Y-62249570D01*
X61049418Y-62250000D01*
X60830000Y-62250000D01*
X60830000Y-62804504D01*
X60855165Y-62823399D01*
X60907739Y-62857390D01*
X60933578Y-62906240D01*
X60940422Y-62931781D01*
X60940426Y-62931790D01*
X61019475Y-63068709D01*
X61019481Y-63068717D01*
X61063181Y-63112417D01*
X61096666Y-63173740D01*
X61099500Y-63200098D01*
X61099500Y-63496967D01*
X61079815Y-63564006D01*
X61027011Y-63609761D01*
X60957853Y-63619705D01*
X60943408Y-63616742D01*
X60879058Y-63599500D01*
X60879057Y-63599500D01*
X60720943Y-63599500D01*
X60568216Y-63640423D01*
X60568209Y-63640426D01*
X60431290Y-63719475D01*
X60431282Y-63719481D01*
X60382252Y-63768511D01*
X60320929Y-63801995D01*
X60251237Y-63797010D01*
X60195304Y-63755139D01*
X60187183Y-63742825D01*
X60180522Y-63731287D01*
X60180518Y-63731282D01*
X60068717Y-63619481D01*
X60068709Y-63619475D01*
X59931790Y-63540426D01*
X59931786Y-63540424D01*
X59931784Y-63540423D01*
X59779057Y-63499500D01*
X59624500Y-63499500D01*
X59557461Y-63479815D01*
X59511706Y-63427011D01*
X59500500Y-63375500D01*
X59500500Y-63320945D01*
X59500500Y-63320943D01*
X59459577Y-63168216D01*
X59415829Y-63092441D01*
X59380524Y-63031290D01*
X59380518Y-63031282D01*
X59268717Y-62919481D01*
X59268709Y-62919475D01*
X59131790Y-62840426D01*
X59131786Y-62840424D01*
X59131784Y-62840423D01*
X58979057Y-62799500D01*
X58820943Y-62799500D01*
X58668216Y-62840423D01*
X58668209Y-62840426D01*
X58531290Y-62919475D01*
X58531282Y-62919481D01*
X58419481Y-63031282D01*
X58419475Y-63031290D01*
X58340426Y-63168209D01*
X58340423Y-63168216D01*
X58299500Y-63320943D01*
X58299500Y-63382745D01*
X58290855Y-63412185D01*
X58284332Y-63442172D01*
X58280577Y-63447187D01*
X58279815Y-63449784D01*
X58263181Y-63470426D01*
X58200426Y-63533181D01*
X58139103Y-63566666D01*
X58112745Y-63569500D01*
X56973160Y-63569500D01*
X56906121Y-63549815D01*
X56862675Y-63501795D01*
X56846691Y-63470426D01*
X56793996Y-63367006D01*
X56760531Y-63320945D01*
X56687558Y-63220505D01*
X56687554Y-63220500D01*
X56559499Y-63092445D01*
X56559494Y-63092441D01*
X56412997Y-62986006D01*
X56412996Y-62986005D01*
X56412994Y-62986004D01*
X56361300Y-62959664D01*
X56251639Y-62903788D01*
X56251636Y-62903787D01*
X56079410Y-62847829D01*
X55919321Y-62822473D01*
X55856186Y-62792544D01*
X55819255Y-62733232D01*
X55820253Y-62663370D01*
X55858863Y-62605137D01*
X55919321Y-62577527D01*
X55989425Y-62566422D01*
X56079409Y-62552171D01*
X56251639Y-62496211D01*
X56412994Y-62413996D01*
X56559501Y-62307553D01*
X56687553Y-62179501D01*
X56793996Y-62032994D01*
X56868068Y-61887619D01*
X56916043Y-61836824D01*
X56946456Y-61824141D01*
X57024588Y-61803207D01*
X57115913Y-61750480D01*
X57129574Y-61736819D01*
X57190897Y-61703334D01*
X57217255Y-61700500D01*
X57279055Y-61700500D01*
X57279057Y-61700500D01*
X57431784Y-61659577D01*
X57568716Y-61580520D01*
X57680520Y-61468716D01*
X57714501Y-61409857D01*
X57765067Y-61361643D01*
X57833673Y-61348419D01*
X57896811Y-61373053D01*
G37*
%TD.AperFunction*%
%TA.AperFunction,Conductor*%
G36*
X72343111Y-48758093D02*
G01*
X72366057Y-48759734D01*
X72376135Y-48767279D01*
X72388265Y-48770653D01*
X72403576Y-48787821D01*
X72421990Y-48801606D01*
X72427501Y-48814648D01*
X72434770Y-48822798D01*
X72445196Y-48856517D01*
X72467829Y-48999410D01*
X72523787Y-49171636D01*
X72523788Y-49171639D01*
X72606006Y-49332997D01*
X72712441Y-49479494D01*
X72712445Y-49479499D01*
X72840500Y-49607554D01*
X72840505Y-49607558D01*
X72960969Y-49695079D01*
X72987006Y-49713996D01*
X73092484Y-49767740D01*
X73148360Y-49796211D01*
X73148363Y-49796212D01*
X73234476Y-49824191D01*
X73320591Y-49852171D01*
X73393639Y-49863740D01*
X73480678Y-49877527D01*
X73543813Y-49907456D01*
X73580744Y-49966768D01*
X73579746Y-50036631D01*
X73541136Y-50094863D01*
X73480678Y-50122473D01*
X73320589Y-50147829D01*
X73148363Y-50203787D01*
X73148360Y-50203788D01*
X72987002Y-50286006D01*
X72840505Y-50392441D01*
X72840500Y-50392445D01*
X72712445Y-50520500D01*
X72712441Y-50520505D01*
X72606006Y-50667002D01*
X72523788Y-50828360D01*
X72523787Y-50828363D01*
X72467829Y-51000589D01*
X72439500Y-51179448D01*
X72439500Y-51360551D01*
X72467829Y-51539410D01*
X72523787Y-51711636D01*
X72523788Y-51711639D01*
X72570153Y-51802633D01*
X72587978Y-51837617D01*
X72606006Y-51872997D01*
X72712441Y-52019494D01*
X72712445Y-52019499D01*
X72840500Y-52147554D01*
X72840505Y-52147558D01*
X72968287Y-52240396D01*
X72987006Y-52253996D01*
X73084098Y-52303467D01*
X73148360Y-52336211D01*
X73148363Y-52336212D01*
X73234476Y-52364191D01*
X73320591Y-52392171D01*
X73393639Y-52403740D01*
X73480678Y-52417527D01*
X73543813Y-52447456D01*
X73580744Y-52506768D01*
X73579746Y-52576631D01*
X73541136Y-52634863D01*
X73480678Y-52662473D01*
X73320589Y-52687829D01*
X73148363Y-52743787D01*
X73148360Y-52743788D01*
X72987002Y-52826006D01*
X72840505Y-52932441D01*
X72840500Y-52932445D01*
X72712445Y-53060500D01*
X72712441Y-53060505D01*
X72606006Y-53207002D01*
X72523788Y-53368360D01*
X72523787Y-53368363D01*
X72467829Y-53540589D01*
X72439500Y-53719448D01*
X72439500Y-53900551D01*
X72467829Y-54079410D01*
X72523787Y-54251636D01*
X72523788Y-54251639D01*
X72579664Y-54361300D01*
X72605535Y-54412074D01*
X72606006Y-54412997D01*
X72712441Y-54559494D01*
X72712445Y-54559499D01*
X72840500Y-54687554D01*
X72840505Y-54687558D01*
X72943969Y-54762728D01*
X72987006Y-54793996D01*
X73088780Y-54845853D01*
X73118684Y-54861090D01*
X73169480Y-54909065D01*
X73186275Y-54976886D01*
X73163737Y-55043021D01*
X73109022Y-55086472D01*
X73100708Y-55089506D01*
X73071781Y-55098905D01*
X72882439Y-55195380D01*
X72828282Y-55234727D01*
X72828282Y-55234728D01*
X73460591Y-55867037D01*
X73397007Y-55884075D01*
X73282993Y-55949901D01*
X73189901Y-56042993D01*
X73124075Y-56157007D01*
X73107037Y-56220591D01*
X72474728Y-55588282D01*
X72474727Y-55588282D01*
X72435380Y-55642439D01*
X72338905Y-55831779D01*
X72322309Y-55882856D01*
X72260434Y-56114727D01*
X72240000Y-56243752D01*
X72240000Y-56456246D01*
X72273242Y-56666127D01*
X72273242Y-56666130D01*
X72338904Y-56868217D01*
X72435375Y-57057550D01*
X72474728Y-57111716D01*
X73107037Y-56479408D01*
X73124075Y-56542993D01*
X73189901Y-56657007D01*
X73282993Y-56750099D01*
X73397007Y-56815925D01*
X73460590Y-56832962D01*
X72828282Y-57465269D01*
X72828282Y-57465270D01*
X72882449Y-57504624D01*
X73071780Y-57601094D01*
X73100705Y-57610492D01*
X73158381Y-57649929D01*
X73185580Y-57714287D01*
X73173667Y-57783134D01*
X73126424Y-57834610D01*
X73118685Y-57838908D01*
X72987004Y-57906004D01*
X72840505Y-58012441D01*
X72840500Y-58012445D01*
X72712445Y-58140500D01*
X72712441Y-58140505D01*
X72606006Y-58287002D01*
X72523788Y-58448360D01*
X72523787Y-58448363D01*
X72467829Y-58620589D01*
X72439500Y-58799448D01*
X72439500Y-58980551D01*
X72467829Y-59159412D01*
X72514575Y-59303283D01*
X72515009Y-59318493D01*
X72520328Y-59332753D01*
X72515986Y-59352708D01*
X72516570Y-59373124D01*
X72508481Y-59387211D01*
X72505476Y-59401026D01*
X72484328Y-59429278D01*
X72350424Y-59563182D01*
X72289104Y-59596666D01*
X72262745Y-59599500D01*
X68270861Y-59599500D01*
X68203822Y-59579815D01*
X68158067Y-59527011D01*
X68148123Y-59457853D01*
X68177148Y-59394297D01*
X68211123Y-59366838D01*
X68257964Y-59341086D01*
X68273911Y-59327465D01*
X67810904Y-58864458D01*
X67777419Y-58803135D01*
X67782403Y-58733443D01*
X67810904Y-58689096D01*
X67989096Y-58510904D01*
X68050419Y-58477419D01*
X68120111Y-58482403D01*
X68164458Y-58510904D01*
X68627463Y-58973909D01*
X68627464Y-58973909D01*
X68641088Y-58957960D01*
X68718988Y-58816262D01*
X68718991Y-58816252D01*
X68759202Y-58659641D01*
X68759203Y-58659634D01*
X68759203Y-58525500D01*
X68761753Y-58516814D01*
X68760465Y-58507853D01*
X68771443Y-58483812D01*
X68778888Y-58458461D01*
X68785728Y-58452533D01*
X68789490Y-58444297D01*
X68811724Y-58430007D01*
X68831692Y-58412706D01*
X68842206Y-58410418D01*
X68848268Y-58406523D01*
X68883203Y-58401500D01*
X68975225Y-58401500D01*
X69042264Y-58421185D01*
X69062906Y-58437819D01*
X69064928Y-58439841D01*
X69064931Y-58439845D01*
X69071999Y-58446913D01*
X69146566Y-58521480D01*
X69224186Y-58566294D01*
X69224185Y-58566294D01*
X69237885Y-58574204D01*
X69237890Y-58574206D01*
X69237892Y-58574207D01*
X69339752Y-58601501D01*
X69339754Y-58601501D01*
X69452802Y-58601501D01*
X69452818Y-58601500D01*
X69860246Y-58601500D01*
X69860248Y-58601500D01*
X69962109Y-58574207D01*
X70053434Y-58521480D01*
X70660480Y-57914434D01*
X70713207Y-57823109D01*
X70740500Y-57721248D01*
X70740500Y-57615794D01*
X70740500Y-56479739D01*
X70760185Y-56412700D01*
X70812989Y-56366945D01*
X70882147Y-56357001D01*
X70899095Y-56360663D01*
X71050000Y-56404504D01*
X71050000Y-56404503D01*
X71550000Y-56404503D01*
X71696195Y-56362031D01*
X71835374Y-56279721D01*
X71835383Y-56279714D01*
X71949714Y-56165383D01*
X71949720Y-56165375D01*
X72023557Y-56040523D01*
X72074398Y-55850000D01*
X71550000Y-55850000D01*
X71550000Y-56404503D01*
X71050000Y-56404503D01*
X71050000Y-55350000D01*
X71550000Y-55350000D01*
X72078790Y-55350000D01*
X72077145Y-55329089D01*
X72032032Y-55173805D01*
X72025715Y-55163125D01*
X72008530Y-55095402D01*
X72025715Y-55036875D01*
X72032031Y-55026195D01*
X72077145Y-54870910D01*
X72078790Y-54850000D01*
X71550000Y-54850000D01*
X71550000Y-55350000D01*
X71050000Y-55350000D01*
X71050000Y-53795494D01*
X71550000Y-53795494D01*
X71550000Y-54350000D01*
X72078790Y-54350000D01*
X72077145Y-54329089D01*
X72032031Y-54173804D01*
X71949721Y-54034625D01*
X71949714Y-54034616D01*
X71835383Y-53920285D01*
X71835374Y-53920278D01*
X71696193Y-53837967D01*
X71696190Y-53837965D01*
X71550001Y-53795493D01*
X71550000Y-53795494D01*
X71050000Y-53795494D01*
X71049998Y-53795493D01*
X70903809Y-53837965D01*
X70903806Y-53837967D01*
X70764625Y-53920278D01*
X70764619Y-53920283D01*
X70714060Y-53970841D01*
X70652736Y-54004325D01*
X70585426Y-54000200D01*
X70562822Y-53992290D01*
X70562814Y-53992289D01*
X70533070Y-53989500D01*
X70533066Y-53989500D01*
X70347255Y-53989500D01*
X70280216Y-53969815D01*
X70259574Y-53953181D01*
X70019707Y-53713314D01*
X69986222Y-53651991D01*
X69991206Y-53582299D01*
X70033078Y-53526366D01*
X70088904Y-53503019D01*
X70213108Y-53484299D01*
X70332748Y-53426684D01*
X70337400Y-53422830D01*
X70342121Y-53418917D01*
X70355759Y-53407618D01*
X70628796Y-53134581D01*
X70647862Y-53111570D01*
X70658254Y-53089991D01*
X70705076Y-53038131D01*
X70769974Y-53019792D01*
X70841475Y-53019792D01*
X70841480Y-53019791D01*
X70998092Y-52979580D01*
X70998100Y-52979577D01*
X71131504Y-52906237D01*
X71131505Y-52906237D01*
X70422176Y-52196908D01*
X70385856Y-52160588D01*
X71092964Y-52160588D01*
X71092964Y-52160589D01*
X71485058Y-52552683D01*
X71485059Y-52552682D01*
X71558399Y-52419278D01*
X71558402Y-52419270D01*
X71598613Y-52262658D01*
X71598614Y-52262653D01*
X71598614Y-52100955D01*
X71598613Y-52100947D01*
X71558402Y-51944336D01*
X71558399Y-51944326D01*
X71480503Y-51802633D01*
X71466874Y-51786676D01*
X71092964Y-52160588D01*
X70385856Y-52160588D01*
X70209081Y-51983812D01*
X69950315Y-51725046D01*
X69916830Y-51663723D01*
X69921814Y-51594031D01*
X69950315Y-51549683D01*
X70039410Y-51460588D01*
X70392964Y-51460588D01*
X70392964Y-51460589D01*
X70739410Y-51807035D01*
X71113320Y-51433124D01*
X71113320Y-51433122D01*
X71097372Y-51419500D01*
X70955672Y-51341599D01*
X70949301Y-51339964D01*
X70889263Y-51304225D01*
X70860034Y-51250691D01*
X70858401Y-51244331D01*
X70858400Y-51244327D01*
X70780501Y-51102632D01*
X70766874Y-51086676D01*
X70392964Y-51460588D01*
X70039410Y-51460588D01*
X69950314Y-51371492D01*
X69916829Y-51310169D01*
X69921813Y-51240477D01*
X69950314Y-51196130D01*
X70413320Y-50733124D01*
X70412313Y-50707473D01*
X70410698Y-50704999D01*
X70410200Y-50635131D01*
X70441740Y-50581538D01*
X72235044Y-48788233D01*
X72246091Y-48782201D01*
X72254200Y-48772569D01*
X72276177Y-48765773D01*
X72296365Y-48754750D01*
X72308923Y-48755648D01*
X72320951Y-48751929D01*
X72343111Y-48758093D01*
G37*
%TD.AperFunction*%
%TA.AperFunction,Conductor*%
G36*
X58885936Y-57020185D02*
G01*
X58931691Y-57072989D01*
X58941635Y-57142147D01*
X58935938Y-57165455D01*
X58912260Y-57233118D01*
X58912260Y-57233120D01*
X58909502Y-57262538D01*
X58909502Y-57737453D01*
X58912260Y-57766874D01*
X58912261Y-57766881D01*
X58929144Y-57815128D01*
X58943041Y-57854844D01*
X58950000Y-57895797D01*
X58950000Y-58776000D01*
X58930315Y-58843039D01*
X58877511Y-58888794D01*
X58826000Y-58900000D01*
X58574000Y-58900000D01*
X58506961Y-58880315D01*
X58461206Y-58827511D01*
X58450000Y-58776000D01*
X58450000Y-57800000D01*
X58265753Y-57800000D01*
X58198714Y-57780315D01*
X58152959Y-57727511D01*
X58143015Y-57658353D01*
X58172040Y-57594797D01*
X58178044Y-57588348D01*
X58729574Y-57036819D01*
X58756501Y-57022115D01*
X58782320Y-57005523D01*
X58788520Y-57004631D01*
X58790897Y-57003334D01*
X58817255Y-57000500D01*
X58818897Y-57000500D01*
X58885936Y-57020185D01*
G37*
%TD.AperFunction*%
%TA.AperFunction,Conductor*%
G36*
X74663181Y-57069627D02*
G01*
X74696666Y-57130950D01*
X74699500Y-57157308D01*
X74699500Y-58078113D01*
X74679815Y-58145152D01*
X74627011Y-58190907D01*
X74557853Y-58200851D01*
X74494297Y-58171826D01*
X74475182Y-58150998D01*
X74467558Y-58140505D01*
X74467554Y-58140500D01*
X74339499Y-58012445D01*
X74339494Y-58012441D01*
X74192995Y-57906004D01*
X74061314Y-57838908D01*
X74010519Y-57790934D01*
X73993724Y-57723113D01*
X74016262Y-57656978D01*
X74070977Y-57613527D01*
X74079295Y-57610492D01*
X74108217Y-57601095D01*
X74297554Y-57504622D01*
X74351716Y-57465270D01*
X74351717Y-57465270D01*
X73719408Y-56832962D01*
X73782993Y-56815925D01*
X73897007Y-56750099D01*
X73990099Y-56657007D01*
X74055925Y-56542993D01*
X74072962Y-56479408D01*
X74663181Y-57069627D01*
G37*
%TD.AperFunction*%
%TA.AperFunction,Conductor*%
G36*
X57718217Y-54230185D02*
G01*
X57763972Y-54282989D01*
X57775178Y-54334500D01*
X57775178Y-56307066D01*
X57755493Y-56374105D01*
X57738859Y-56394747D01*
X57327985Y-56805621D01*
X57266662Y-56839106D01*
X57196970Y-56834122D01*
X57141037Y-56792250D01*
X57116620Y-56726786D01*
X57122374Y-56679619D01*
X57126757Y-56666129D01*
X57126757Y-56666127D01*
X57160000Y-56456246D01*
X57160000Y-56243753D01*
X57126757Y-56033872D01*
X57126757Y-56033869D01*
X57061095Y-55831782D01*
X56964624Y-55642449D01*
X56925270Y-55588282D01*
X56925269Y-55588282D01*
X56292962Y-56220589D01*
X56275925Y-56157007D01*
X56210099Y-56042993D01*
X56117007Y-55949901D01*
X56002993Y-55884075D01*
X55939407Y-55867036D01*
X56571716Y-55234728D01*
X56517550Y-55195375D01*
X56328217Y-55098904D01*
X56299292Y-55089506D01*
X56241616Y-55050068D01*
X56214418Y-54985710D01*
X56226333Y-54916863D01*
X56273577Y-54865388D01*
X56281315Y-54861090D01*
X56412994Y-54793996D01*
X56559501Y-54687553D01*
X56687553Y-54559501D01*
X56793996Y-54412994D01*
X56856751Y-54289830D01*
X56862675Y-54278205D01*
X56910650Y-54227409D01*
X56973160Y-54210500D01*
X57651178Y-54210500D01*
X57718217Y-54230185D01*
G37*
%TD.AperFunction*%
%TA.AperFunction,Conductor*%
G36*
X64547651Y-51884306D02*
G01*
X64591998Y-51912807D01*
X64631284Y-51952093D01*
X64631286Y-51952094D01*
X64631290Y-51952097D01*
X64748037Y-52019500D01*
X64768216Y-52031150D01*
X64920943Y-52072073D01*
X64920945Y-52072073D01*
X65079054Y-52072073D01*
X65079057Y-52072073D01*
X65197527Y-52040329D01*
X65267374Y-52041992D01*
X65317299Y-52072423D01*
X66865370Y-53620494D01*
X66898855Y-53681817D01*
X66893871Y-53751509D01*
X66865372Y-53795854D01*
X66826795Y-53834432D01*
X66826788Y-53834441D01*
X66747739Y-53971360D01*
X66747736Y-53971367D01*
X66706813Y-54124094D01*
X66706813Y-54282208D01*
X66741611Y-54412074D01*
X66747736Y-54434934D01*
X66747737Y-54434937D01*
X66793095Y-54513500D01*
X66809568Y-54581401D01*
X66786715Y-54647427D01*
X66731794Y-54690618D01*
X66685708Y-54699500D01*
X66620943Y-54699500D01*
X66468216Y-54740423D01*
X66468209Y-54740426D01*
X66331290Y-54819475D01*
X66331282Y-54819481D01*
X66219481Y-54931282D01*
X66219475Y-54931290D01*
X66140426Y-55068209D01*
X66140423Y-55068216D01*
X66099500Y-55220943D01*
X66099500Y-55282745D01*
X66079815Y-55349784D01*
X66063181Y-55370426D01*
X65967436Y-55466170D01*
X65967434Y-55466173D01*
X65914708Y-55557496D01*
X65903683Y-55598642D01*
X65903682Y-55598646D01*
X65901283Y-55607598D01*
X65864916Y-55667257D01*
X65802068Y-55697784D01*
X65781509Y-55699500D01*
X65708857Y-55699500D01*
X65556130Y-55740423D01*
X65556123Y-55740426D01*
X65419204Y-55819475D01*
X65419196Y-55819481D01*
X65307395Y-55931282D01*
X65307389Y-55931290D01*
X65228340Y-56068209D01*
X65228337Y-56068216D01*
X65187414Y-56220943D01*
X65187414Y-56282745D01*
X65178769Y-56312185D01*
X65172246Y-56342172D01*
X65168491Y-56347187D01*
X65167729Y-56349784D01*
X65151099Y-56370421D01*
X65094988Y-56426533D01*
X65039399Y-56482122D01*
X64978076Y-56515606D01*
X64908384Y-56510622D01*
X64852451Y-56468750D01*
X64831943Y-56426533D01*
X64827607Y-56410349D01*
X64791141Y-56347187D01*
X64748554Y-56273423D01*
X64748548Y-56273415D01*
X64636747Y-56161614D01*
X64636739Y-56161608D01*
X64499820Y-56082559D01*
X64499816Y-56082557D01*
X64499814Y-56082556D01*
X64499811Y-56082555D01*
X64499806Y-56082553D01*
X64483440Y-56078167D01*
X64423781Y-56041799D01*
X64395765Y-55990489D01*
X64363839Y-55871340D01*
X64353146Y-55852819D01*
X64284786Y-55734414D01*
X64284780Y-55734406D01*
X64172979Y-55622605D01*
X64172971Y-55622599D01*
X64036052Y-55543550D01*
X64036047Y-55543547D01*
X63951687Y-55520943D01*
X63893405Y-55505326D01*
X63833746Y-55468962D01*
X63803217Y-55406115D01*
X63801500Y-55385552D01*
X63801500Y-55195276D01*
X63801500Y-55195273D01*
X63781588Y-55120958D01*
X63781588Y-55120957D01*
X63781588Y-55120956D01*
X63775679Y-55098905D01*
X63774207Y-55093412D01*
X63721480Y-55002087D01*
X62673077Y-53953684D01*
X62639592Y-53892361D01*
X62636758Y-53866003D01*
X62636758Y-52991597D01*
X62656443Y-52924558D01*
X62698757Y-52884210D01*
X62714011Y-52875404D01*
X63032408Y-52557005D01*
X63093731Y-52523521D01*
X63163422Y-52528505D01*
X63207770Y-52557006D01*
X63317070Y-52666306D01*
X63317072Y-52666307D01*
X63317076Y-52666310D01*
X63426211Y-52729318D01*
X63454002Y-52745363D01*
X63606729Y-52786286D01*
X63606731Y-52786286D01*
X63764841Y-52786286D01*
X63764843Y-52786286D01*
X63917570Y-52745363D01*
X64054502Y-52666306D01*
X64166306Y-52554502D01*
X64245363Y-52417570D01*
X64286286Y-52264843D01*
X64286286Y-52106729D01*
X64286286Y-52104266D01*
X64286127Y-52103840D01*
X64286286Y-52103109D01*
X64286286Y-52098602D01*
X64287266Y-52098602D01*
X64292801Y-52073160D01*
X64297638Y-52042144D01*
X64300403Y-52038210D01*
X64300979Y-52035567D01*
X64322127Y-52007316D01*
X64416638Y-51912805D01*
X64477959Y-51879322D01*
X64547651Y-51884306D01*
G37*
%TD.AperFunction*%
%TA.AperFunction,Conductor*%
G36*
X74661917Y-54532959D02*
G01*
X74696277Y-54593796D01*
X74699500Y-54621886D01*
X74699500Y-55542692D01*
X74679815Y-55609731D01*
X74663181Y-55630373D01*
X74072962Y-56220591D01*
X74055925Y-56157007D01*
X73990099Y-56042993D01*
X73897007Y-55949901D01*
X73782993Y-55884075D01*
X73719409Y-55867037D01*
X74351716Y-55234728D01*
X74297550Y-55195375D01*
X74108217Y-55098904D01*
X74079292Y-55089506D01*
X74021616Y-55050068D01*
X73994418Y-54985710D01*
X74006333Y-54916863D01*
X74053577Y-54865388D01*
X74061315Y-54861090D01*
X74192994Y-54793996D01*
X74339501Y-54687553D01*
X74467553Y-54559501D01*
X74475180Y-54549003D01*
X74530508Y-54506336D01*
X74600121Y-54500355D01*
X74661917Y-54532959D01*
G37*
%TD.AperFunction*%
%TA.AperFunction,Conductor*%
G36*
X58431256Y-49150185D02*
G01*
X58451898Y-49166819D01*
X59772898Y-50487819D01*
X59806383Y-50549142D01*
X59801399Y-50618834D01*
X59759527Y-50674767D01*
X59694063Y-50699184D01*
X59685217Y-50699500D01*
X58787819Y-50699500D01*
X58720780Y-50679815D01*
X58688050Y-50649135D01*
X58684999Y-50645001D01*
X58622984Y-50599232D01*
X58578157Y-50566148D01*
X58578155Y-50566147D01*
X58452826Y-50522291D01*
X58452814Y-50522289D01*
X58423070Y-50519500D01*
X58423066Y-50519500D01*
X57976934Y-50519500D01*
X57976930Y-50519500D01*
X57947185Y-50522289D01*
X57947173Y-50522291D01*
X57821844Y-50566147D01*
X57715001Y-50645001D01*
X57636147Y-50751844D01*
X57592291Y-50877173D01*
X57592289Y-50877185D01*
X57589500Y-50906929D01*
X57589500Y-51293070D01*
X57592289Y-51322814D01*
X57592290Y-51322822D01*
X57600200Y-51345426D01*
X57603761Y-51415205D01*
X57570841Y-51474060D01*
X57520283Y-51524619D01*
X57520278Y-51524625D01*
X57437969Y-51663803D01*
X57392854Y-51819089D01*
X57392854Y-51819090D01*
X57391532Y-51835891D01*
X57366646Y-51901179D01*
X57310414Y-51942648D01*
X57240688Y-51947133D01*
X57180233Y-51913840D01*
X56954911Y-51688518D01*
X56921426Y-51627195D01*
X56924661Y-51562519D01*
X56932171Y-51539409D01*
X56951843Y-51415205D01*
X56960500Y-51360551D01*
X56960500Y-51179448D01*
X56937677Y-51035355D01*
X56932171Y-51000591D01*
X56904191Y-50914476D01*
X56876212Y-50828363D01*
X56876211Y-50828360D01*
X56814615Y-50707473D01*
X56793996Y-50667006D01*
X56731401Y-50580851D01*
X56687558Y-50520505D01*
X56687554Y-50520500D01*
X56559499Y-50392445D01*
X56559494Y-50392441D01*
X56412997Y-50286006D01*
X56412996Y-50286005D01*
X56412994Y-50286004D01*
X56361300Y-50259664D01*
X56251639Y-50203788D01*
X56251636Y-50203787D01*
X56079410Y-50147829D01*
X55919321Y-50122473D01*
X55856186Y-50092544D01*
X55819255Y-50033232D01*
X55820253Y-49963370D01*
X55858863Y-49905137D01*
X55919321Y-49877527D01*
X55989425Y-49866422D01*
X56079409Y-49852171D01*
X56251639Y-49796211D01*
X56412994Y-49713996D01*
X56559501Y-49607553D01*
X56687553Y-49479501D01*
X56793996Y-49332994D01*
X56862675Y-49198205D01*
X56910650Y-49147409D01*
X56973160Y-49130500D01*
X58364217Y-49130500D01*
X58431256Y-49150185D01*
G37*
%TD.AperFunction*%
%TA.AperFunction,Conductor*%
G36*
X62593116Y-35311936D02*
G01*
X62643603Y-35360237D01*
X62659962Y-35428164D01*
X62653158Y-35463000D01*
X62652354Y-35465298D01*
X62652353Y-35465300D01*
X62649500Y-35495730D01*
X62649500Y-36779269D01*
X62652353Y-36809699D01*
X62652353Y-36809701D01*
X62686596Y-36907558D01*
X62697207Y-36937882D01*
X62777850Y-37047150D01*
X62887118Y-37127793D01*
X62929845Y-37142744D01*
X63015299Y-37172646D01*
X63045730Y-37175500D01*
X63045734Y-37175500D01*
X63174547Y-37175500D01*
X63241586Y-37195185D01*
X63262228Y-37211819D01*
X66202550Y-40152141D01*
X66236035Y-40213464D01*
X66231051Y-40283156D01*
X66189179Y-40339089D01*
X66158211Y-40356001D01*
X66157673Y-40356201D01*
X66157664Y-40356206D01*
X66042455Y-40442452D01*
X66042452Y-40442455D01*
X65956206Y-40557664D01*
X65956202Y-40557671D01*
X65905908Y-40692517D01*
X65899501Y-40752116D01*
X65899500Y-40752135D01*
X65899500Y-42447870D01*
X65899501Y-42447876D01*
X65905908Y-42507483D01*
X65956202Y-42642328D01*
X65956206Y-42642335D01*
X66025358Y-42734709D01*
X66042454Y-42757546D01*
X66149811Y-42837914D01*
X66191682Y-42893847D01*
X66199500Y-42937180D01*
X66199500Y-43618297D01*
X66179815Y-43685336D01*
X66175270Y-43691930D01*
X66125619Y-43759204D01*
X66125619Y-43759205D01*
X66082258Y-43883118D01*
X66082258Y-43883120D01*
X66079500Y-43912538D01*
X66079500Y-44287453D01*
X66082258Y-44316874D01*
X66082260Y-44316884D01*
X66125619Y-44440794D01*
X66125619Y-44440795D01*
X66196154Y-44536367D01*
X66203113Y-44555421D01*
X66214490Y-44572224D01*
X66214857Y-44587575D01*
X66220125Y-44601996D01*
X66215677Y-44621789D01*
X66216164Y-44642074D01*
X66206708Y-44661712D01*
X66204809Y-44670166D01*
X66202276Y-44674521D01*
X66199415Y-44679215D01*
X66125619Y-44779206D01*
X66108254Y-44828830D01*
X66101436Y-44840021D01*
X66084892Y-44855064D01*
X66071864Y-44873230D01*
X66059548Y-44878111D01*
X66049744Y-44887028D01*
X66027694Y-44890739D01*
X66006911Y-44898978D01*
X65995544Y-44899500D01*
X65289816Y-44899500D01*
X65222777Y-44879815D01*
X65190046Y-44849134D01*
X65156425Y-44803580D01*
X65156423Y-44803577D01*
X65050794Y-44725619D01*
X65050792Y-44725618D01*
X64926880Y-44682258D01*
X64897461Y-44679500D01*
X64522546Y-44679500D01*
X64493125Y-44682258D01*
X64493115Y-44682260D01*
X64369205Y-44725619D01*
X64369204Y-44725619D01*
X64273633Y-44796154D01*
X64208004Y-44820125D01*
X64139834Y-44804809D01*
X64126367Y-44796154D01*
X64030794Y-44725619D01*
X63906880Y-44682258D01*
X63877461Y-44679500D01*
X63502546Y-44679500D01*
X63473125Y-44682258D01*
X63473115Y-44682260D01*
X63349207Y-44725618D01*
X63243576Y-44803576D01*
X63165618Y-44909207D01*
X63122258Y-45033118D01*
X63122258Y-45033120D01*
X63119500Y-45062538D01*
X63119500Y-45252745D01*
X63099815Y-45319784D01*
X63083181Y-45340426D01*
X62579522Y-45844084D01*
X62579520Y-45844087D01*
X62532675Y-45925225D01*
X62526793Y-45935412D01*
X62509667Y-45999328D01*
X62509667Y-45999329D01*
X62509666Y-45999328D01*
X62499500Y-46037269D01*
X62499500Y-46847369D01*
X62479815Y-46914408D01*
X62427011Y-46960163D01*
X62357853Y-46970107D01*
X62344666Y-46967474D01*
X62323249Y-46961975D01*
X62161536Y-46961975D01*
X62004925Y-47002186D01*
X62004915Y-47002189D01*
X61863222Y-47080086D01*
X61863213Y-47080092D01*
X61847265Y-47093712D01*
X62310273Y-47556719D01*
X62314610Y-47564663D01*
X62321859Y-47570089D01*
X62331095Y-47594851D01*
X62343758Y-47618042D01*
X62343112Y-47627070D01*
X62346276Y-47635553D01*
X62340658Y-47661375D01*
X62338774Y-47687733D01*
X62332956Y-47696785D01*
X62331425Y-47703826D01*
X62310274Y-47732081D01*
X62230724Y-47811632D01*
X62169401Y-47845117D01*
X62099709Y-47840133D01*
X62055361Y-47811632D01*
X59736819Y-45493090D01*
X59703334Y-45431767D01*
X59700500Y-45405409D01*
X59700500Y-42456582D01*
X61500001Y-42456582D01*
X61506408Y-42527102D01*
X61506409Y-42527107D01*
X61556981Y-42689396D01*
X61644927Y-42834877D01*
X61765122Y-42955072D01*
X61910604Y-43043019D01*
X61910603Y-43043019D01*
X62072894Y-43093590D01*
X62072893Y-43093590D01*
X62143408Y-43099998D01*
X62143426Y-43099999D01*
X62650000Y-43099999D01*
X62656581Y-43099999D01*
X62727102Y-43093591D01*
X62727107Y-43093590D01*
X62889396Y-43043018D01*
X63034877Y-42955072D01*
X63155072Y-42834877D01*
X63243019Y-42689395D01*
X63293590Y-42527106D01*
X63300000Y-42456572D01*
X63300000Y-41850000D01*
X62650000Y-41850000D01*
X62650000Y-43099999D01*
X62143426Y-43099999D01*
X62149999Y-43099998D01*
X62150000Y-43099998D01*
X62150000Y-41850000D01*
X61500001Y-41850000D01*
X61500001Y-42456582D01*
X59700500Y-42456582D01*
X59700500Y-40743427D01*
X61500000Y-40743427D01*
X61500000Y-41350000D01*
X62150000Y-41350000D01*
X62650000Y-41350000D01*
X63299999Y-41350000D01*
X63299999Y-40743417D01*
X63293591Y-40672897D01*
X63293590Y-40672892D01*
X63243018Y-40510603D01*
X63155072Y-40365122D01*
X63034877Y-40244927D01*
X62889395Y-40156980D01*
X62889396Y-40156980D01*
X62727105Y-40106409D01*
X62727106Y-40106409D01*
X62656572Y-40100000D01*
X62650000Y-40100000D01*
X62650000Y-41350000D01*
X62150000Y-41350000D01*
X62150000Y-40100000D01*
X62149999Y-40099999D01*
X62143436Y-40100000D01*
X62143417Y-40100001D01*
X62072897Y-40106408D01*
X62072892Y-40106409D01*
X61910603Y-40156981D01*
X61765122Y-40244927D01*
X61644927Y-40365122D01*
X61556980Y-40510604D01*
X61506409Y-40672893D01*
X61500000Y-40743427D01*
X59700500Y-40743427D01*
X59700500Y-36601167D01*
X59720185Y-36534128D01*
X59772989Y-36488373D01*
X59834224Y-36477549D01*
X59850000Y-36478789D01*
X59850000Y-35824000D01*
X59869685Y-35756961D01*
X59922489Y-35711206D01*
X59974000Y-35700000D01*
X60226000Y-35700000D01*
X60293039Y-35719685D01*
X60338794Y-35772489D01*
X60350000Y-35824000D01*
X60350000Y-36478789D01*
X60370908Y-36477145D01*
X60391402Y-36471191D01*
X60461272Y-36471389D01*
X60519943Y-36509330D01*
X60548787Y-36572968D01*
X60550000Y-36590267D01*
X60550000Y-36790649D01*
X60552899Y-36827489D01*
X60552900Y-36827495D01*
X60598716Y-36985193D01*
X60598717Y-36985196D01*
X60682314Y-37126552D01*
X60682321Y-37126561D01*
X60798438Y-37242678D01*
X60798447Y-37242685D01*
X60939801Y-37326281D01*
X61097514Y-37372100D01*
X61097511Y-37372100D01*
X61099998Y-37372295D01*
X61100000Y-37372295D01*
X61600000Y-37372295D01*
X61600001Y-37372295D01*
X61602486Y-37372100D01*
X61760198Y-37326281D01*
X61901552Y-37242685D01*
X61901561Y-37242678D01*
X62017678Y-37126561D01*
X62017685Y-37126552D01*
X62101282Y-36985196D01*
X62101283Y-36985193D01*
X62147099Y-36827495D01*
X62147100Y-36827489D01*
X62149999Y-36790649D01*
X62150000Y-36790634D01*
X62150000Y-36387500D01*
X61600000Y-36387500D01*
X61600000Y-37372295D01*
X61100000Y-37372295D01*
X61100000Y-36261500D01*
X61119685Y-36194461D01*
X61172489Y-36148706D01*
X61224000Y-36137500D01*
X61350000Y-36137500D01*
X61350000Y-36011500D01*
X61369685Y-35944461D01*
X61422489Y-35898706D01*
X61474000Y-35887500D01*
X62150000Y-35887500D01*
X62150000Y-35484365D01*
X62149999Y-35484350D01*
X62147100Y-35447508D01*
X62146967Y-35446780D01*
X62147010Y-35446368D01*
X62146603Y-35441192D01*
X62147563Y-35441116D01*
X62154286Y-35377295D01*
X62198009Y-35322797D01*
X62264255Y-35300589D01*
X62268949Y-35300500D01*
X62504265Y-35300500D01*
X62504266Y-35300500D01*
X62524532Y-35298599D01*
X62593116Y-35311936D01*
G37*
%TD.AperFunction*%
%TA.AperFunction,Conductor*%
G36*
X71143039Y-46609685D02*
G01*
X71188794Y-46662489D01*
X71200000Y-46714000D01*
X71200000Y-46966000D01*
X71180315Y-47033039D01*
X71127511Y-47078794D01*
X71076000Y-47090000D01*
X70126433Y-47090000D01*
X70094996Y-47107166D01*
X70068638Y-47110000D01*
X69324000Y-47110000D01*
X69256961Y-47090315D01*
X69211206Y-47037511D01*
X69200000Y-46986000D01*
X69200000Y-46721362D01*
X69208644Y-46691921D01*
X69215168Y-46661935D01*
X69218922Y-46656919D01*
X69219685Y-46654323D01*
X69236319Y-46633681D01*
X69243681Y-46626319D01*
X69305004Y-46592834D01*
X69331362Y-46590000D01*
X71076000Y-46590000D01*
X71143039Y-46609685D01*
G37*
%TD.AperFunction*%
%TA.AperFunction,Conductor*%
G36*
X57307130Y-43732772D02*
G01*
X57365363Y-43771382D01*
X57393477Y-43835345D01*
X57394500Y-43851238D01*
X57394500Y-46111588D01*
X57374815Y-46178627D01*
X57322011Y-46224382D01*
X57252853Y-46234326D01*
X57189297Y-46205301D01*
X57182819Y-46199269D01*
X56965755Y-45982205D01*
X56933820Y-45925178D01*
X56933677Y-45925225D01*
X56933442Y-45924503D01*
X56932861Y-45923465D01*
X56932170Y-45920588D01*
X56876213Y-45748366D01*
X56876211Y-45748360D01*
X56823230Y-45644381D01*
X56793996Y-45587006D01*
X56779042Y-45566423D01*
X56687558Y-45440505D01*
X56687554Y-45440500D01*
X56559499Y-45312445D01*
X56559494Y-45312441D01*
X56412995Y-45206004D01*
X56281314Y-45138908D01*
X56230519Y-45090934D01*
X56213724Y-45023113D01*
X56236262Y-44956978D01*
X56290977Y-44913527D01*
X56299295Y-44910492D01*
X56328217Y-44901095D01*
X56517554Y-44804622D01*
X56571716Y-44765270D01*
X56571717Y-44765270D01*
X55939409Y-44132962D01*
X56002993Y-44115925D01*
X56117007Y-44050099D01*
X56210099Y-43957007D01*
X56275925Y-43842993D01*
X56292962Y-43779409D01*
X56925270Y-44411717D01*
X56925270Y-44411716D01*
X56964622Y-44357554D01*
X57061095Y-44168217D01*
X57126757Y-43966130D01*
X57126757Y-43966127D01*
X57148027Y-43831840D01*
X57177956Y-43768705D01*
X57237268Y-43731774D01*
X57307130Y-43732772D01*
G37*
%TD.AperFunction*%
%TA.AperFunction,Conductor*%
G36*
X74663181Y-44369627D02*
G01*
X74696666Y-44430950D01*
X74699500Y-44457308D01*
X74699500Y-45378113D01*
X74679815Y-45445152D01*
X74627011Y-45490907D01*
X74557853Y-45500851D01*
X74494297Y-45471826D01*
X74475182Y-45450998D01*
X74467558Y-45440505D01*
X74467554Y-45440500D01*
X74339499Y-45312445D01*
X74339494Y-45312441D01*
X74192995Y-45206004D01*
X74061314Y-45138908D01*
X74010519Y-45090934D01*
X73993724Y-45023113D01*
X74016262Y-44956978D01*
X74070977Y-44913527D01*
X74079295Y-44910492D01*
X74108217Y-44901095D01*
X74297554Y-44804622D01*
X74351716Y-44765270D01*
X74351717Y-44765270D01*
X73719408Y-44132962D01*
X73782993Y-44115925D01*
X73897007Y-44050099D01*
X73990099Y-43957007D01*
X74055925Y-43842993D01*
X74072962Y-43779408D01*
X74663181Y-44369627D01*
G37*
%TD.AperFunction*%
%TA.AperFunction,Conductor*%
G36*
X73499914Y-27040184D02*
G01*
X73545669Y-27092988D01*
X73555613Y-27162146D01*
X73526588Y-27225702D01*
X73467810Y-27263476D01*
X73452273Y-27266972D01*
X73320589Y-27287829D01*
X73148363Y-27343787D01*
X73148360Y-27343788D01*
X72987002Y-27426006D01*
X72840505Y-27532441D01*
X72840500Y-27532445D01*
X72712445Y-27660500D01*
X72712441Y-27660505D01*
X72606006Y-27807002D01*
X72523788Y-27968360D01*
X72523787Y-27968363D01*
X72467829Y-28140589D01*
X72439500Y-28319448D01*
X72439500Y-28500551D01*
X72467829Y-28679410D01*
X72523787Y-28851636D01*
X72523788Y-28851639D01*
X72606006Y-29012997D01*
X72712441Y-29159494D01*
X72712445Y-29159499D01*
X72840500Y-29287554D01*
X72840505Y-29287558D01*
X72957023Y-29372212D01*
X72987006Y-29393996D01*
X73065728Y-29434107D01*
X73118684Y-29461090D01*
X73169480Y-29509065D01*
X73186275Y-29576886D01*
X73163737Y-29643021D01*
X73109022Y-29686472D01*
X73100708Y-29689506D01*
X73071781Y-29698905D01*
X72882439Y-29795380D01*
X72828282Y-29834727D01*
X72828282Y-29834728D01*
X73460591Y-30467037D01*
X73397007Y-30484075D01*
X73282993Y-30549901D01*
X73189901Y-30642993D01*
X73124075Y-30757007D01*
X73107037Y-30820591D01*
X72474728Y-30188282D01*
X72474727Y-30188282D01*
X72435380Y-30242439D01*
X72338904Y-30431782D01*
X72273242Y-30633869D01*
X72273242Y-30633872D01*
X72240000Y-30843753D01*
X72240000Y-31056246D01*
X72273242Y-31266127D01*
X72273242Y-31266130D01*
X72338904Y-31468217D01*
X72435375Y-31657550D01*
X72474728Y-31711716D01*
X73107037Y-31079408D01*
X73124075Y-31142993D01*
X73189901Y-31257007D01*
X73282993Y-31350099D01*
X73397007Y-31415925D01*
X73460590Y-31432962D01*
X72828282Y-32065269D01*
X72828282Y-32065270D01*
X72882449Y-32104624D01*
X73071780Y-32201094D01*
X73100705Y-32210492D01*
X73158381Y-32249929D01*
X73185580Y-32314287D01*
X73173667Y-32383134D01*
X73126424Y-32434610D01*
X73118685Y-32438908D01*
X72987004Y-32506004D01*
X72840505Y-32612441D01*
X72840500Y-32612445D01*
X72712445Y-32740500D01*
X72712441Y-32740505D01*
X72606006Y-32887002D01*
X72523788Y-33048360D01*
X72523787Y-33048363D01*
X72467829Y-33220589D01*
X72439500Y-33399448D01*
X72439500Y-33580551D01*
X72467829Y-33759410D01*
X72523787Y-33931636D01*
X72523788Y-33931639D01*
X72606006Y-34092997D01*
X72712441Y-34239494D01*
X72712445Y-34239499D01*
X72840500Y-34367554D01*
X72840505Y-34367558D01*
X72968287Y-34460396D01*
X72987006Y-34473996D01*
X73092484Y-34527740D01*
X73148360Y-34556211D01*
X73148363Y-34556212D01*
X73234476Y-34584191D01*
X73320591Y-34612171D01*
X73393639Y-34623740D01*
X73480678Y-34637527D01*
X73543813Y-34667456D01*
X73580744Y-34726768D01*
X73579746Y-34796631D01*
X73541136Y-34854863D01*
X73480678Y-34882473D01*
X73320589Y-34907829D01*
X73148363Y-34963787D01*
X73148360Y-34963788D01*
X72987002Y-35046006D01*
X72840505Y-35152441D01*
X72840500Y-35152445D01*
X72712445Y-35280500D01*
X72712441Y-35280505D01*
X72606006Y-35427002D01*
X72523788Y-35588360D01*
X72523787Y-35588363D01*
X72467829Y-35760589D01*
X72439500Y-35939448D01*
X72439500Y-36120551D01*
X72467829Y-36299410D01*
X72523787Y-36471636D01*
X72523788Y-36471639D01*
X72555629Y-36534128D01*
X72605872Y-36632735D01*
X72606006Y-36632997D01*
X72712441Y-36779494D01*
X72712445Y-36779499D01*
X72840500Y-36907554D01*
X72840505Y-36907558D01*
X72947362Y-36985193D01*
X72987006Y-37013996D01*
X73069041Y-37055795D01*
X73148360Y-37096211D01*
X73148363Y-37096212D01*
X73199676Y-37112884D01*
X73320591Y-37152171D01*
X73393639Y-37163740D01*
X73480678Y-37177527D01*
X73543813Y-37207456D01*
X73580744Y-37266768D01*
X73579746Y-37336631D01*
X73541136Y-37394863D01*
X73480678Y-37422473D01*
X73320589Y-37447829D01*
X73148363Y-37503787D01*
X73148360Y-37503788D01*
X72987002Y-37586006D01*
X72840505Y-37692441D01*
X72840500Y-37692445D01*
X72712445Y-37820500D01*
X72712441Y-37820505D01*
X72606006Y-37967002D01*
X72523788Y-38128360D01*
X72523787Y-38128363D01*
X72467829Y-38300589D01*
X72439500Y-38479448D01*
X72439500Y-38660551D01*
X72467829Y-38839410D01*
X72523787Y-39011636D01*
X72523788Y-39011639D01*
X72573540Y-39109281D01*
X72602806Y-39166718D01*
X72606006Y-39172997D01*
X72712441Y-39319494D01*
X72712445Y-39319499D01*
X72840500Y-39447554D01*
X72840505Y-39447558D01*
X72968287Y-39540396D01*
X72987006Y-39553996D01*
X73092484Y-39607740D01*
X73148360Y-39636211D01*
X73148363Y-39636212D01*
X73234476Y-39664191D01*
X73320591Y-39692171D01*
X73393639Y-39703740D01*
X73480678Y-39717527D01*
X73543813Y-39747456D01*
X73580744Y-39806768D01*
X73579746Y-39876631D01*
X73541136Y-39934863D01*
X73480678Y-39962473D01*
X73320589Y-39987829D01*
X73148363Y-40043787D01*
X73148360Y-40043788D01*
X72987002Y-40126006D01*
X72840505Y-40232441D01*
X72840500Y-40232445D01*
X72712445Y-40360500D01*
X72712441Y-40360505D01*
X72606006Y-40507002D01*
X72523788Y-40668360D01*
X72523787Y-40668363D01*
X72467829Y-40840589D01*
X72439500Y-41019448D01*
X72439500Y-41200551D01*
X72467829Y-41379410D01*
X72523787Y-41551636D01*
X72523788Y-41551639D01*
X72606006Y-41712997D01*
X72712441Y-41859494D01*
X72712445Y-41859499D01*
X72840500Y-41987554D01*
X72840505Y-41987558D01*
X72968287Y-42080396D01*
X72987006Y-42093996D01*
X73088780Y-42145853D01*
X73118684Y-42161090D01*
X73169480Y-42209065D01*
X73186275Y-42276886D01*
X73163737Y-42343021D01*
X73109022Y-42386472D01*
X73100708Y-42389506D01*
X73071781Y-42398905D01*
X72882439Y-42495380D01*
X72828282Y-42534727D01*
X72828282Y-42534728D01*
X73460591Y-43167037D01*
X73397007Y-43184075D01*
X73282993Y-43249901D01*
X73189901Y-43342993D01*
X73124075Y-43457007D01*
X73107037Y-43520591D01*
X72474728Y-42888282D01*
X72471629Y-42888526D01*
X72422943Y-42926070D01*
X72353330Y-42932051D01*
X72291534Y-42899446D01*
X72290272Y-42898201D01*
X66658617Y-37266546D01*
X66625132Y-37205223D01*
X66630116Y-37135531D01*
X66641306Y-37112891D01*
X66677187Y-37055797D01*
X66724866Y-36919572D01*
X66741037Y-36776153D01*
X66741036Y-36776148D01*
X66741037Y-36776145D01*
X66725967Y-36642301D01*
X66724890Y-36632732D01*
X66677233Y-36496499D01*
X66600458Y-36374286D01*
X66600456Y-36374284D01*
X66600455Y-36374282D01*
X66593265Y-36367091D01*
X66593264Y-36367091D01*
X66586699Y-36360525D01*
X66586691Y-36360509D01*
X66546916Y-36320734D01*
X66511557Y-36285369D01*
X66511486Y-36285286D01*
X66500873Y-36274677D01*
X66500759Y-36274469D01*
X66464542Y-36238267D01*
X66464543Y-36238267D01*
X66413504Y-36187248D01*
X66413501Y-36187246D01*
X66413499Y-36187244D01*
X66291284Y-36110483D01*
X66223159Y-36086658D01*
X66155039Y-36062835D01*
X66155037Y-36062834D01*
X66155035Y-36062834D01*
X66155030Y-36062833D01*
X66011616Y-36046696D01*
X66011614Y-36046696D01*
X66011612Y-36046696D01*
X65947868Y-36053886D01*
X65868184Y-36062874D01*
X65866465Y-36063477D01*
X65865283Y-36063537D01*
X65861396Y-36064425D01*
X65861240Y-36063744D01*
X65796686Y-36067045D01*
X65736056Y-36032321D01*
X65703823Y-35970331D01*
X65701500Y-35946439D01*
X65701500Y-34766955D01*
X65703211Y-34761126D01*
X65702062Y-34755162D01*
X65712941Y-34727991D01*
X65721185Y-34699916D01*
X65725774Y-34695938D01*
X65728033Y-34690299D01*
X65751876Y-34673321D01*
X65773989Y-34654161D01*
X65780000Y-34653296D01*
X65784949Y-34649773D01*
X65814180Y-34648382D01*
X65843147Y-34644217D01*
X65850224Y-34646666D01*
X65854740Y-34646452D01*
X65887500Y-34659569D01*
X65893443Y-34663000D01*
X65947494Y-34694207D01*
X66049355Y-34721501D01*
X66049358Y-34721501D01*
X66162405Y-34721501D01*
X66162421Y-34721500D01*
X67756321Y-34721500D01*
X67756323Y-34721500D01*
X67858184Y-34694207D01*
X67949509Y-34641480D01*
X70342480Y-32248509D01*
X70355378Y-32226169D01*
X70395207Y-32157183D01*
X70422500Y-32055323D01*
X70422500Y-29372212D01*
X70442185Y-29305173D01*
X70458814Y-29284536D01*
X72686532Y-27056817D01*
X72747855Y-27023333D01*
X72774213Y-27020499D01*
X73432875Y-27020499D01*
X73499914Y-27040184D01*
G37*
%TD.AperFunction*%
%TA.AperFunction,Conductor*%
G36*
X74661917Y-41832959D02*
G01*
X74696277Y-41893796D01*
X74699500Y-41921886D01*
X74699500Y-42842692D01*
X74679815Y-42909731D01*
X74663181Y-42930373D01*
X74072962Y-43520591D01*
X74055925Y-43457007D01*
X73990099Y-43342993D01*
X73897007Y-43249901D01*
X73782993Y-43184075D01*
X73719409Y-43167037D01*
X74351716Y-42534728D01*
X74297550Y-42495375D01*
X74108217Y-42398904D01*
X74079292Y-42389506D01*
X74021616Y-42350068D01*
X73994418Y-42285710D01*
X74006333Y-42216863D01*
X74053577Y-42165388D01*
X74061315Y-42161090D01*
X74192994Y-42093996D01*
X74339501Y-41987553D01*
X74467553Y-41859501D01*
X74475180Y-41849003D01*
X74530508Y-41806336D01*
X74600121Y-41800355D01*
X74661917Y-41832959D01*
G37*
%TD.AperFunction*%
%TA.AperFunction,Conductor*%
G36*
X58541539Y-28830185D02*
G01*
X58587294Y-28882989D01*
X58598500Y-28934500D01*
X58598500Y-35412745D01*
X58578815Y-35479784D01*
X58526011Y-35525539D01*
X58456853Y-35535483D01*
X58393297Y-35506458D01*
X58386819Y-35500426D01*
X56915674Y-34029281D01*
X56882189Y-33967958D01*
X56885423Y-33903284D01*
X56932171Y-33759409D01*
X56949582Y-33649480D01*
X56960500Y-33580551D01*
X56960500Y-33399448D01*
X56939784Y-33268660D01*
X56932171Y-33220591D01*
X56876211Y-33048361D01*
X56876211Y-33048360D01*
X56847740Y-32992484D01*
X56793996Y-32887006D01*
X56731401Y-32800851D01*
X56687558Y-32740505D01*
X56687554Y-32740500D01*
X56559499Y-32612445D01*
X56559494Y-32612441D01*
X56412995Y-32506004D01*
X56281314Y-32438908D01*
X56230519Y-32390934D01*
X56213724Y-32323113D01*
X56236262Y-32256978D01*
X56290977Y-32213527D01*
X56299295Y-32210492D01*
X56328217Y-32201095D01*
X56517554Y-32104622D01*
X56571716Y-32065270D01*
X56571717Y-32065270D01*
X55939408Y-31432962D01*
X56002993Y-31415925D01*
X56117007Y-31350099D01*
X56210099Y-31257007D01*
X56275925Y-31142993D01*
X56292962Y-31079409D01*
X56925270Y-31711717D01*
X56925270Y-31711716D01*
X56964622Y-31657554D01*
X57061095Y-31468217D01*
X57126757Y-31266130D01*
X57126757Y-31266127D01*
X57160000Y-31056246D01*
X57160000Y-30843753D01*
X57126757Y-30633872D01*
X57126757Y-30633869D01*
X57061095Y-30431782D01*
X56964624Y-30242449D01*
X56925270Y-30188282D01*
X56925269Y-30188282D01*
X56292962Y-30820590D01*
X56275925Y-30757007D01*
X56210099Y-30642993D01*
X56117007Y-30549901D01*
X56002993Y-30484075D01*
X55939409Y-30467037D01*
X56571716Y-29834728D01*
X56517550Y-29795375D01*
X56328217Y-29698904D01*
X56299292Y-29689506D01*
X56241616Y-29650068D01*
X56214418Y-29585710D01*
X56226333Y-29516863D01*
X56273577Y-29465388D01*
X56281315Y-29461090D01*
X56412994Y-29393996D01*
X56559501Y-29287553D01*
X56687553Y-29159501D01*
X56793996Y-29012994D01*
X56862675Y-28878205D01*
X56910650Y-28827409D01*
X56973160Y-28810500D01*
X58474500Y-28810500D01*
X58541539Y-28830185D01*
G37*
%TD.AperFunction*%
%TA.AperFunction,Conductor*%
G36*
X61393039Y-30804685D02*
G01*
X61438794Y-30857489D01*
X61450000Y-30909000D01*
X61450000Y-31035000D01*
X61525501Y-31035000D01*
X61592540Y-31054685D01*
X61638295Y-31107489D01*
X61649501Y-31159000D01*
X61649501Y-31804856D01*
X61649502Y-31804882D01*
X61652413Y-31829987D01*
X61652414Y-31829988D01*
X61652414Y-31829990D01*
X61652415Y-31829991D01*
X61689434Y-31913832D01*
X61700000Y-31963917D01*
X61700000Y-32260000D01*
X61775500Y-32260000D01*
X61842539Y-32279685D01*
X61888294Y-32332489D01*
X61899500Y-32384000D01*
X61899500Y-33237372D01*
X61879815Y-33304411D01*
X61849134Y-33337142D01*
X61827850Y-33352850D01*
X61747207Y-33462117D01*
X61747206Y-33462119D01*
X61702353Y-33590298D01*
X61702353Y-33590300D01*
X61699500Y-33620730D01*
X61699500Y-34215500D01*
X61679815Y-34282539D01*
X61627011Y-34328294D01*
X61575500Y-34339500D01*
X60687819Y-34339500D01*
X60620780Y-34319815D01*
X60588050Y-34289135D01*
X60584999Y-34285001D01*
X60551381Y-34260190D01*
X60478157Y-34206148D01*
X60478155Y-34206147D01*
X60352826Y-34162291D01*
X60352814Y-34162289D01*
X60323070Y-34159500D01*
X60323066Y-34159500D01*
X59876934Y-34159500D01*
X59876930Y-34159500D01*
X59839669Y-34162994D01*
X59839449Y-34160654D01*
X59781247Y-34156532D01*
X59725284Y-34114699D01*
X59700822Y-34049252D01*
X59700500Y-34040320D01*
X59700500Y-31656262D01*
X60630000Y-31656262D01*
X60643999Y-31676813D01*
X60650000Y-31714923D01*
X60650000Y-31807844D01*
X60656401Y-31867372D01*
X60656403Y-31867379D01*
X60706645Y-32002086D01*
X60706649Y-32002093D01*
X60792809Y-32117187D01*
X60792812Y-32117190D01*
X60907906Y-32203350D01*
X60907913Y-32203354D01*
X61042620Y-32253596D01*
X61042627Y-32253598D01*
X61102155Y-32259999D01*
X61102172Y-32260000D01*
X61200000Y-32260000D01*
X61200000Y-31285000D01*
X60630000Y-31285000D01*
X60630000Y-31656262D01*
X59700500Y-31656262D01*
X59700500Y-31650651D01*
X59720185Y-31583612D01*
X59772989Y-31537857D01*
X59842147Y-31527913D01*
X59893393Y-31547550D01*
X59906319Y-31556187D01*
X59906328Y-31556192D01*
X60088308Y-31631569D01*
X60130000Y-31639862D01*
X60130000Y-30836988D01*
X60139940Y-30854205D01*
X60195795Y-30910060D01*
X60264204Y-30949556D01*
X60340504Y-30970000D01*
X60419496Y-30970000D01*
X60495796Y-30949556D01*
X60564205Y-30910060D01*
X60620060Y-30854205D01*
X60659556Y-30785796D01*
X60659769Y-30785000D01*
X61326000Y-30785000D01*
X61393039Y-30804685D01*
G37*
%TD.AperFunction*%
%TA.AperFunction,Conductor*%
G36*
X68546380Y-32699185D02*
G01*
X68592135Y-32751989D01*
X68602079Y-32821147D01*
X68573054Y-32884703D01*
X68567022Y-32891181D01*
X68375580Y-33082622D01*
X68314257Y-33116107D01*
X68244565Y-33111123D01*
X68196844Y-33079113D01*
X68169932Y-33050000D01*
X67650000Y-33050000D01*
X67650000Y-33756841D01*
X67641355Y-33786281D01*
X67634832Y-33816268D01*
X67631077Y-33821283D01*
X67630315Y-33823880D01*
X67613681Y-33844522D01*
X67574022Y-33884181D01*
X67512699Y-33917666D01*
X67486341Y-33920500D01*
X67274000Y-33920500D01*
X67206961Y-33900815D01*
X67161206Y-33848011D01*
X67150000Y-33796500D01*
X67150000Y-33644997D01*
X67168353Y-33582491D01*
X67167416Y-33581950D01*
X67169647Y-33578084D01*
X67169685Y-33577958D01*
X67169885Y-33577673D01*
X67171476Y-33574916D01*
X67171480Y-33574913D01*
X67224207Y-33483587D01*
X67227922Y-33469721D01*
X67238073Y-33431842D01*
X67246751Y-33399454D01*
X67251501Y-33381727D01*
X67251501Y-33276273D01*
X67251501Y-33268678D01*
X67251500Y-33268660D01*
X67251500Y-32924000D01*
X67271185Y-32856961D01*
X67297368Y-32827712D01*
X67445868Y-32707212D01*
X67460503Y-32701091D01*
X67472489Y-32690706D01*
X67499271Y-32684879D01*
X67510328Y-32680256D01*
X67515951Y-32681250D01*
X67524000Y-32679500D01*
X68479341Y-32679500D01*
X68546380Y-32699185D01*
G37*
%TD.AperFunction*%
%TA.AperFunction,Conductor*%
G36*
X74663181Y-31669627D02*
G01*
X74696666Y-31730950D01*
X74699500Y-31757308D01*
X74699500Y-32678113D01*
X74679815Y-32745152D01*
X74627011Y-32790907D01*
X74557853Y-32800851D01*
X74494297Y-32771826D01*
X74475182Y-32750998D01*
X74467558Y-32740505D01*
X74467554Y-32740500D01*
X74339499Y-32612445D01*
X74339494Y-32612441D01*
X74192995Y-32506004D01*
X74061314Y-32438908D01*
X74010519Y-32390934D01*
X73993724Y-32323113D01*
X74016262Y-32256978D01*
X74070977Y-32213527D01*
X74079295Y-32210492D01*
X74108217Y-32201095D01*
X74297554Y-32104622D01*
X74351716Y-32065270D01*
X74351717Y-32065270D01*
X73719408Y-31432962D01*
X73782993Y-31415925D01*
X73897007Y-31350099D01*
X73990099Y-31257007D01*
X74055925Y-31142993D01*
X74072962Y-31079408D01*
X74663181Y-31669627D01*
G37*
%TD.AperFunction*%
%TA.AperFunction,Conductor*%
G36*
X55344075Y-31142993D02*
G01*
X55409901Y-31257007D01*
X55502993Y-31350099D01*
X55617007Y-31415925D01*
X55680590Y-31432962D01*
X55048282Y-32065269D01*
X55048282Y-32065270D01*
X55102449Y-32104624D01*
X55291780Y-32201094D01*
X55320705Y-32210492D01*
X55378381Y-32249929D01*
X55405580Y-32314287D01*
X55393667Y-32383134D01*
X55346424Y-32434610D01*
X55338685Y-32438908D01*
X55207004Y-32506004D01*
X55060505Y-32612441D01*
X55060500Y-32612445D01*
X54932445Y-32740500D01*
X54932441Y-32740505D01*
X54924818Y-32750998D01*
X54869488Y-32793664D01*
X54799875Y-32799643D01*
X54738080Y-32767037D01*
X54703723Y-32706199D01*
X54700500Y-32678113D01*
X54700500Y-31757308D01*
X54720185Y-31690269D01*
X54736819Y-31669627D01*
X55327037Y-31079408D01*
X55344075Y-31142993D01*
G37*
%TD.AperFunction*%
%TA.AperFunction,Conductor*%
G36*
X68090749Y-31035880D02*
G01*
X68116336Y-31046844D01*
X68143039Y-31054685D01*
X68148002Y-31060412D01*
X68154971Y-31063399D01*
X68170569Y-31086456D01*
X68188794Y-31107489D01*
X68189872Y-31114991D01*
X68194121Y-31121271D01*
X68200000Y-31159000D01*
X68200000Y-31754500D01*
X68180315Y-31821539D01*
X68127511Y-31867294D01*
X68076000Y-31878500D01*
X67874500Y-31878500D01*
X67807461Y-31858815D01*
X67761706Y-31806011D01*
X67750500Y-31754500D01*
X67750500Y-31450000D01*
X67750499Y-31134859D01*
X67755118Y-31119129D01*
X67754732Y-31102740D01*
X67764757Y-31086300D01*
X67770183Y-31067822D01*
X67782574Y-31057085D01*
X67791110Y-31043088D01*
X67808433Y-31034677D01*
X67822987Y-31022067D01*
X67839214Y-31019733D01*
X67853964Y-31012573D01*
X67889248Y-31011741D01*
X68090749Y-31035880D01*
G37*
%TD.AperFunction*%
%TA.AperFunction,Conductor*%
G36*
X54905703Y-29128173D02*
G01*
X54924818Y-29149001D01*
X54928814Y-29154500D01*
X54932446Y-29159500D01*
X55060500Y-29287554D01*
X55060505Y-29287558D01*
X55177023Y-29372212D01*
X55207006Y-29393996D01*
X55285728Y-29434107D01*
X55338684Y-29461090D01*
X55389480Y-29509065D01*
X55406275Y-29576886D01*
X55383737Y-29643021D01*
X55329022Y-29686472D01*
X55320708Y-29689506D01*
X55291781Y-29698905D01*
X55102439Y-29795380D01*
X55048282Y-29834727D01*
X55048282Y-29834728D01*
X55680591Y-30467037D01*
X55617007Y-30484075D01*
X55502993Y-30549901D01*
X55409901Y-30642993D01*
X55344075Y-30757007D01*
X55327037Y-30820591D01*
X54736819Y-30230373D01*
X54703334Y-30169050D01*
X54700500Y-30142692D01*
X54700500Y-29221886D01*
X54720185Y-29154847D01*
X54772989Y-29109092D01*
X54842147Y-29099148D01*
X54905703Y-29128173D01*
G37*
%TD.AperFunction*%
%TA.AperFunction,Conductor*%
G36*
X74661917Y-29132959D02*
G01*
X74696277Y-29193796D01*
X74699500Y-29221886D01*
X74699500Y-30142692D01*
X74679815Y-30209731D01*
X74663181Y-30230373D01*
X74072962Y-30820591D01*
X74055925Y-30757007D01*
X73990099Y-30642993D01*
X73897007Y-30549901D01*
X73782993Y-30484075D01*
X73719409Y-30467037D01*
X74351716Y-29834728D01*
X74297550Y-29795375D01*
X74108217Y-29698904D01*
X74079292Y-29689506D01*
X74021616Y-29650068D01*
X73994418Y-29585710D01*
X74006333Y-29516863D01*
X74053577Y-29465388D01*
X74061315Y-29461090D01*
X74192994Y-29393996D01*
X74339501Y-29287553D01*
X74467553Y-29159501D01*
X74475180Y-29149003D01*
X74530508Y-29106336D01*
X74600121Y-29100355D01*
X74661917Y-29132959D01*
G37*
%TD.AperFunction*%
%TA.AperFunction,Conductor*%
G36*
X68083956Y-25020185D02*
G01*
X68129711Y-25072989D01*
X68139655Y-25142147D01*
X68131478Y-25171952D01*
X68058430Y-25348306D01*
X68058427Y-25348318D01*
X68020000Y-25541504D01*
X68020000Y-25690000D01*
X68720000Y-25690000D01*
X68720000Y-26190000D01*
X68020000Y-26190000D01*
X68020000Y-26338495D01*
X68058427Y-26531681D01*
X68058430Y-26531693D01*
X68133807Y-26713671D01*
X68133814Y-26713684D01*
X68243248Y-26877462D01*
X68243251Y-26877466D01*
X68382533Y-27016748D01*
X68382537Y-27016751D01*
X68546315Y-27126185D01*
X68546328Y-27126192D01*
X68728308Y-27201569D01*
X68770000Y-27209862D01*
X68770000Y-26406988D01*
X68779940Y-26424205D01*
X68835795Y-26480060D01*
X68904204Y-26519556D01*
X68980504Y-26540000D01*
X69059496Y-26540000D01*
X69135796Y-26519556D01*
X69204205Y-26480060D01*
X69260060Y-26424205D01*
X69270000Y-26406988D01*
X69270000Y-27209862D01*
X69311690Y-27201569D01*
X69311692Y-27201569D01*
X69493671Y-27126192D01*
X69493684Y-27126185D01*
X69657462Y-27016751D01*
X69657466Y-27016748D01*
X69796748Y-26877466D01*
X69796751Y-26877462D01*
X69906185Y-26713684D01*
X69906192Y-26713671D01*
X69981569Y-26531693D01*
X69981572Y-26531681D01*
X70019999Y-26338495D01*
X70020000Y-26338492D01*
X70020000Y-26190000D01*
X69320000Y-26190000D01*
X69320000Y-25690000D01*
X70020000Y-25690000D01*
X70020000Y-25541508D01*
X70019999Y-25541504D01*
X69981572Y-25348318D01*
X69981569Y-25348306D01*
X69908522Y-25171952D01*
X69901053Y-25102483D01*
X69932329Y-25040004D01*
X69992418Y-25004352D01*
X70023083Y-25000500D01*
X72315500Y-25000500D01*
X72382539Y-25020185D01*
X72428294Y-25072989D01*
X72439500Y-25124500D01*
X72439500Y-26119702D01*
X72419815Y-26186741D01*
X72403181Y-26207383D01*
X70109680Y-28500883D01*
X70048357Y-28534368D01*
X69978665Y-28529384D01*
X69934318Y-28500883D01*
X69379957Y-27946522D01*
X69379955Y-27946520D01*
X69334292Y-27920156D01*
X69288631Y-27893793D01*
X69237699Y-27880146D01*
X69186769Y-27866500D01*
X69186768Y-27866500D01*
X64153339Y-27866500D01*
X64153323Y-27866499D01*
X64145727Y-27866499D01*
X64040273Y-27866499D01*
X63972366Y-27884695D01*
X63938412Y-27893793D01*
X63847084Y-27946522D01*
X63772518Y-28021089D01*
X62489633Y-29303972D01*
X62428310Y-29337457D01*
X62358618Y-29332473D01*
X62302685Y-29290601D01*
X62294565Y-29278291D01*
X62289778Y-29270000D01*
X62270515Y-29236635D01*
X62163365Y-29129485D01*
X62097750Y-29091602D01*
X62032136Y-29053719D01*
X61948405Y-29031284D01*
X61885766Y-29014500D01*
X61734234Y-29014500D01*
X61587863Y-29053719D01*
X61456635Y-29129485D01*
X61450189Y-29134432D01*
X61448099Y-29131709D01*
X61400217Y-29157466D01*
X61330558Y-29152043D01*
X61274888Y-29109821D01*
X61269299Y-29100976D01*
X61156751Y-28932537D01*
X61156748Y-28932533D01*
X61017466Y-28793251D01*
X61017462Y-28793248D01*
X60853684Y-28683814D01*
X60853671Y-28683807D01*
X60671691Y-28608429D01*
X60671683Y-28608427D01*
X60630000Y-28600135D01*
X60630000Y-29403011D01*
X60620060Y-29385795D01*
X60564205Y-29329940D01*
X60495796Y-29290444D01*
X60419496Y-29270000D01*
X60340504Y-29270000D01*
X60264204Y-29290444D01*
X60195795Y-29329940D01*
X60139940Y-29385795D01*
X60130000Y-29403011D01*
X60130000Y-28600136D01*
X60129999Y-28600135D01*
X60088316Y-28608427D01*
X60088308Y-28608429D01*
X59906328Y-28683807D01*
X59906319Y-28683812D01*
X59893389Y-28692452D01*
X59826711Y-28713328D01*
X59759331Y-28694842D01*
X59712642Y-28642862D01*
X59700500Y-28589348D01*
X59700500Y-27462729D01*
X59700501Y-27462716D01*
X59700501Y-27347275D01*
X59700501Y-27347273D01*
X59673207Y-27245412D01*
X59673203Y-27245405D01*
X59672149Y-27242859D01*
X59671898Y-27240529D01*
X59671103Y-27237561D01*
X59671565Y-27237437D01*
X59664676Y-27173390D01*
X59695947Y-27110909D01*
X59756034Y-27075253D01*
X59825859Y-27077742D01*
X59855598Y-27092297D01*
X59906315Y-27126185D01*
X59906328Y-27126192D01*
X60088308Y-27201569D01*
X60130000Y-27209862D01*
X60130000Y-26406988D01*
X60139940Y-26424205D01*
X60195795Y-26480060D01*
X60264204Y-26519556D01*
X60340504Y-26540000D01*
X60419496Y-26540000D01*
X60495796Y-26519556D01*
X60564205Y-26480060D01*
X60620060Y-26424205D01*
X60630000Y-26406988D01*
X60630000Y-27209862D01*
X60671690Y-27201569D01*
X60671692Y-27201569D01*
X60853671Y-27126192D01*
X60853684Y-27126185D01*
X61017462Y-27016751D01*
X61017466Y-27016748D01*
X61156748Y-26877466D01*
X61156751Y-26877462D01*
X61266185Y-26713684D01*
X61266192Y-26713671D01*
X61341569Y-26531693D01*
X61341572Y-26531681D01*
X61379999Y-26338495D01*
X61380000Y-26338492D01*
X61380000Y-26190000D01*
X60680000Y-26190000D01*
X60680000Y-25690000D01*
X61380000Y-25690000D01*
X61380000Y-25541508D01*
X61379999Y-25541504D01*
X61341572Y-25348318D01*
X61341569Y-25348306D01*
X61268522Y-25171952D01*
X61261053Y-25102483D01*
X61292329Y-25040004D01*
X61352418Y-25004352D01*
X61383083Y-25000500D01*
X68016917Y-25000500D01*
X68083956Y-25020185D01*
G37*
%TD.AperFunction*%
%TA.AperFunction,Conductor*%
G36*
X59408390Y-25009741D02*
G01*
X59440190Y-25017858D01*
X59441754Y-25019538D01*
X59443956Y-25020185D01*
X59465429Y-25044966D01*
X59487801Y-25068995D01*
X59488208Y-25071255D01*
X59489711Y-25072989D01*
X59494378Y-25105449D01*
X59500207Y-25137754D01*
X59499449Y-25140720D01*
X59499655Y-25142147D01*
X59491478Y-25171952D01*
X59418430Y-25348306D01*
X59418427Y-25348318D01*
X59380000Y-25541504D01*
X59380000Y-25690000D01*
X60080000Y-25690000D01*
X60080000Y-26190000D01*
X59380000Y-26190000D01*
X59380000Y-26338495D01*
X59418427Y-26531681D01*
X59418430Y-26531693D01*
X59477098Y-26673331D01*
X59484567Y-26742800D01*
X59453292Y-26805279D01*
X59393202Y-26840931D01*
X59323377Y-26838437D01*
X59274856Y-26808464D01*
X58773211Y-26306819D01*
X58015913Y-25549520D01*
X57970250Y-25523156D01*
X57924589Y-25496793D01*
X57873657Y-25483146D01*
X57822727Y-25469500D01*
X57822726Y-25469500D01*
X57084499Y-25469500D01*
X57017460Y-25449815D01*
X56971705Y-25397011D01*
X56960499Y-25345500D01*
X56960499Y-25124500D01*
X56980184Y-25057461D01*
X57032988Y-25011706D01*
X57084499Y-25000500D01*
X59376917Y-25000500D01*
X59408390Y-25009741D01*
G37*
%TD.AperFunction*%
%TD*%
M02*
