M48
; DRILL file {KiCad 9.0.5} date 2025-12-10T19:07:14-0600
; FORMAT={-:-/ absolute / metric / decimal}
; #@! TF.CreationDate,2025-12-10T19:07:14-06:00
; #@! TF.GenerationSoftware,Kicad,Pcbnew,9.0.5
; #@! TF.FileFunction,Plated,1,2,PTH
FMAT,2
METRIC
; #@! TA.AperFunction,Plated,PTH,ViaDrill
T1C0.300
; #@! TA.AperFunction,Plated,PTH,ComponentDrill
T2C0.600
; #@! TA.AperFunction,Plated,PTH,ComponentDrill
T3C1.000
%
G90
G05
T1
X56.64Y-60.16
X57.2Y-61.1
X58.37Y-49.43
X59.1Y-53.8
X59.5Y-55.6
X60.047Y-56.037
X60.744Y-56.1
X61.41Y-46.38
X61.72Y-32.57
X61.736Y-53.781
X62.236Y-54.79
X62.56Y-43.61
X62.86Y-52.97
X63.4Y-32.82
X63.686Y-52.186
X63.804Y-56.103
X64.1Y-59.1
X64.376Y-50.647
X64.394Y-56.645
X64.408Y-48.473
X64.6Y-57.4
X64.7Y-58.6
X65.0Y-51.472
X65.788Y-56.3
X65.801Y-44.2
X66.04Y-29.49
X66.351Y-32.8
X66.514Y-51.996
X66.7Y-55.3
X67.307Y-54.203
X67.95Y-31.035
X68.3Y-32.779
X68.5Y-53.8
X68.76Y-46.28
X68.979Y-57.064
X69.2Y-56.4
X69.361Y-52.139
X69.4Y-55.7
X69.6Y-44.2
X69.6Y-57.7
X71.2Y-46.84
X71.48Y-28.88
T3
X55.81Y-25.87
X55.81Y-28.41
X55.81Y-30.95
X55.81Y-33.49
X55.81Y-36.03
X55.81Y-38.57
X55.81Y-41.11
X55.81Y-43.65
X55.81Y-46.19
X55.81Y-48.73
X55.81Y-51.27
X55.81Y-53.81
X55.81Y-56.35
X55.81Y-58.89
X55.81Y-61.43
X55.81Y-63.97
X55.81Y-66.51
X55.81Y-69.05
X55.81Y-71.59
X55.81Y-74.13
X62.16Y-73.89
X64.7Y-73.89
X67.24Y-73.89
X73.59Y-25.87
X73.59Y-28.41
X73.59Y-30.95
X73.59Y-33.49
X73.59Y-36.03
X73.59Y-38.57
X73.59Y-41.11
X73.59Y-43.65
X73.59Y-46.19
X73.59Y-48.73
X73.59Y-51.27
X73.59Y-53.81
X73.59Y-56.35
X73.59Y-58.89
X73.59Y-61.43
X73.59Y-63.97
X73.59Y-66.51
X73.59Y-69.05
X73.59Y-71.59
X73.59Y-74.13
T2
G00X60.38Y-26.24
M15
G01X60.38Y-25.64
M16
G05
G00X60.38Y-30.67
M15
G01X60.38Y-29.57
M16
G05
G00X69.02Y-26.24
M15
G01X69.02Y-25.64
M16
G05
G00X69.02Y-30.67
M15
G01X69.02Y-29.57
M16
G05
M30
