%TF.GenerationSoftware,KiCad,Pcbnew,9.0.5*%
%TF.CreationDate,2025-12-10T19:07:17-06:00*%
%TF.ProjectId,KBoardV1,4b426f61-7264-4563-912e-6b696361645f,rev?*%
%TF.SameCoordinates,Original*%
%TF.FileFunction,Legend,Bot*%
%TF.FilePolarity,Positive*%
%FSLAX46Y46*%
G04 Gerber Fmt 4.6, Leading zero omitted, Abs format (unit mm)*
G04 Created by KiCad (PCBNEW 9.0.5) date 2025-12-10 19:07:17*
%MOMM*%
%LPD*%
G01*
G04 APERTURE LIST*
%ADD10C,0.050000*%
%ADD11C,0.000600*%
%ADD12C,0.100000*%
G04 APERTURE END LIST*
D10*
X71142820Y-40493142D02*
X71142820Y-40731237D01*
X71309486Y-40231237D02*
X71142820Y-40493142D01*
X71142820Y-40493142D02*
X70976153Y-40231237D01*
X70738058Y-40731237D02*
X70785677Y-40707428D01*
X70785677Y-40707428D02*
X70809487Y-40683618D01*
X70809487Y-40683618D02*
X70833296Y-40635999D01*
X70833296Y-40635999D02*
X70833296Y-40493142D01*
X70833296Y-40493142D02*
X70809487Y-40445523D01*
X70809487Y-40445523D02*
X70785677Y-40421713D01*
X70785677Y-40421713D02*
X70738058Y-40397904D01*
X70738058Y-40397904D02*
X70666630Y-40397904D01*
X70666630Y-40397904D02*
X70619011Y-40421713D01*
X70619011Y-40421713D02*
X70595201Y-40445523D01*
X70595201Y-40445523D02*
X70571392Y-40493142D01*
X70571392Y-40493142D02*
X70571392Y-40635999D01*
X70571392Y-40635999D02*
X70595201Y-40683618D01*
X70595201Y-40683618D02*
X70619011Y-40707428D01*
X70619011Y-40707428D02*
X70666630Y-40731237D01*
X70666630Y-40731237D02*
X70738058Y-40731237D01*
X70142820Y-40397904D02*
X70142820Y-40731237D01*
X70357106Y-40397904D02*
X70357106Y-40659808D01*
X70357106Y-40659808D02*
X70333296Y-40707428D01*
X70333296Y-40707428D02*
X70285677Y-40731237D01*
X70285677Y-40731237D02*
X70214249Y-40731237D01*
X70214249Y-40731237D02*
X70166630Y-40707428D01*
X70166630Y-40707428D02*
X70142820Y-40683618D01*
X69904725Y-40731237D02*
X69904725Y-40397904D01*
X69904725Y-40493142D02*
X69880915Y-40445523D01*
X69880915Y-40445523D02*
X69857106Y-40421713D01*
X69857106Y-40421713D02*
X69809487Y-40397904D01*
X69809487Y-40397904D02*
X69761868Y-40397904D01*
X69285677Y-40397904D02*
X69095201Y-40397904D01*
X69214249Y-40731237D02*
X69214249Y-40302666D01*
X69214249Y-40302666D02*
X69190439Y-40255047D01*
X69190439Y-40255047D02*
X69142820Y-40231237D01*
X69142820Y-40231237D02*
X69095201Y-40231237D01*
X68928535Y-40731237D02*
X68928535Y-40397904D01*
X68928535Y-40493142D02*
X68904725Y-40445523D01*
X68904725Y-40445523D02*
X68880916Y-40421713D01*
X68880916Y-40421713D02*
X68833297Y-40397904D01*
X68833297Y-40397904D02*
X68785678Y-40397904D01*
X68404725Y-40731237D02*
X68404725Y-40469332D01*
X68404725Y-40469332D02*
X68428535Y-40421713D01*
X68428535Y-40421713D02*
X68476154Y-40397904D01*
X68476154Y-40397904D02*
X68571392Y-40397904D01*
X68571392Y-40397904D02*
X68619011Y-40421713D01*
X68404725Y-40707428D02*
X68452344Y-40731237D01*
X68452344Y-40731237D02*
X68571392Y-40731237D01*
X68571392Y-40731237D02*
X68619011Y-40707428D01*
X68619011Y-40707428D02*
X68642820Y-40659808D01*
X68642820Y-40659808D02*
X68642820Y-40612189D01*
X68642820Y-40612189D02*
X68619011Y-40564570D01*
X68619011Y-40564570D02*
X68571392Y-40540761D01*
X68571392Y-40540761D02*
X68452344Y-40540761D01*
X68452344Y-40540761D02*
X68404725Y-40516951D01*
X67952344Y-40397904D02*
X67952344Y-40802666D01*
X67952344Y-40802666D02*
X67976154Y-40850285D01*
X67976154Y-40850285D02*
X67999963Y-40874094D01*
X67999963Y-40874094D02*
X68047582Y-40897904D01*
X68047582Y-40897904D02*
X68119011Y-40897904D01*
X68119011Y-40897904D02*
X68166630Y-40874094D01*
X67952344Y-40707428D02*
X67999963Y-40731237D01*
X67999963Y-40731237D02*
X68095201Y-40731237D01*
X68095201Y-40731237D02*
X68142820Y-40707428D01*
X68142820Y-40707428D02*
X68166630Y-40683618D01*
X68166630Y-40683618D02*
X68190439Y-40635999D01*
X68190439Y-40635999D02*
X68190439Y-40493142D01*
X68190439Y-40493142D02*
X68166630Y-40445523D01*
X68166630Y-40445523D02*
X68142820Y-40421713D01*
X68142820Y-40421713D02*
X68095201Y-40397904D01*
X68095201Y-40397904D02*
X67999963Y-40397904D01*
X67999963Y-40397904D02*
X67952344Y-40421713D01*
X67714249Y-40731237D02*
X67714249Y-40397904D01*
X67714249Y-40231237D02*
X67738058Y-40255047D01*
X67738058Y-40255047D02*
X67714249Y-40278856D01*
X67714249Y-40278856D02*
X67690439Y-40255047D01*
X67690439Y-40255047D02*
X67714249Y-40231237D01*
X67714249Y-40231237D02*
X67714249Y-40278856D01*
X67404725Y-40731237D02*
X67452344Y-40707428D01*
X67452344Y-40707428D02*
X67476154Y-40659808D01*
X67476154Y-40659808D02*
X67476154Y-40231237D01*
X67023773Y-40707428D02*
X67071392Y-40731237D01*
X67071392Y-40731237D02*
X67166630Y-40731237D01*
X67166630Y-40731237D02*
X67214249Y-40707428D01*
X67214249Y-40707428D02*
X67238058Y-40659808D01*
X67238058Y-40659808D02*
X67238058Y-40469332D01*
X67238058Y-40469332D02*
X67214249Y-40421713D01*
X67214249Y-40421713D02*
X67166630Y-40397904D01*
X67166630Y-40397904D02*
X67071392Y-40397904D01*
X67071392Y-40397904D02*
X67023773Y-40421713D01*
X67023773Y-40421713D02*
X66999963Y-40469332D01*
X66999963Y-40469332D02*
X66999963Y-40516951D01*
X66999963Y-40516951D02*
X67238058Y-40564570D01*
X66404726Y-40731237D02*
X66404726Y-40231237D01*
X66190440Y-40731237D02*
X66190440Y-40469332D01*
X66190440Y-40469332D02*
X66214250Y-40421713D01*
X66214250Y-40421713D02*
X66261869Y-40397904D01*
X66261869Y-40397904D02*
X66333297Y-40397904D01*
X66333297Y-40397904D02*
X66380916Y-40421713D01*
X66380916Y-40421713D02*
X66404726Y-40445523D01*
X65738059Y-40731237D02*
X65738059Y-40469332D01*
X65738059Y-40469332D02*
X65761869Y-40421713D01*
X65761869Y-40421713D02*
X65809488Y-40397904D01*
X65809488Y-40397904D02*
X65904726Y-40397904D01*
X65904726Y-40397904D02*
X65952345Y-40421713D01*
X65738059Y-40707428D02*
X65785678Y-40731237D01*
X65785678Y-40731237D02*
X65904726Y-40731237D01*
X65904726Y-40731237D02*
X65952345Y-40707428D01*
X65952345Y-40707428D02*
X65976154Y-40659808D01*
X65976154Y-40659808D02*
X65976154Y-40612189D01*
X65976154Y-40612189D02*
X65952345Y-40564570D01*
X65952345Y-40564570D02*
X65904726Y-40540761D01*
X65904726Y-40540761D02*
X65785678Y-40540761D01*
X65785678Y-40540761D02*
X65738059Y-40516951D01*
X65499964Y-40397904D02*
X65499964Y-40731237D01*
X65499964Y-40445523D02*
X65476154Y-40421713D01*
X65476154Y-40421713D02*
X65428535Y-40397904D01*
X65428535Y-40397904D02*
X65357107Y-40397904D01*
X65357107Y-40397904D02*
X65309488Y-40421713D01*
X65309488Y-40421713D02*
X65285678Y-40469332D01*
X65285678Y-40469332D02*
X65285678Y-40731237D01*
X64833297Y-40731237D02*
X64833297Y-40231237D01*
X64833297Y-40707428D02*
X64880916Y-40731237D01*
X64880916Y-40731237D02*
X64976154Y-40731237D01*
X64976154Y-40731237D02*
X65023773Y-40707428D01*
X65023773Y-40707428D02*
X65047583Y-40683618D01*
X65047583Y-40683618D02*
X65071392Y-40635999D01*
X65071392Y-40635999D02*
X65071392Y-40493142D01*
X65071392Y-40493142D02*
X65047583Y-40445523D01*
X65047583Y-40445523D02*
X65023773Y-40421713D01*
X65023773Y-40421713D02*
X64976154Y-40397904D01*
X64976154Y-40397904D02*
X64880916Y-40397904D01*
X64880916Y-40397904D02*
X64833297Y-40421713D01*
X64619011Y-40707428D02*
X64571392Y-40731237D01*
X64571392Y-40731237D02*
X64476154Y-40731237D01*
X64476154Y-40731237D02*
X64428535Y-40707428D01*
X64428535Y-40707428D02*
X64404726Y-40659808D01*
X64404726Y-40659808D02*
X64404726Y-40635999D01*
X64404726Y-40635999D02*
X64428535Y-40588380D01*
X64428535Y-40588380D02*
X64476154Y-40564570D01*
X64476154Y-40564570D02*
X64547583Y-40564570D01*
X64547583Y-40564570D02*
X64595202Y-40540761D01*
X64595202Y-40540761D02*
X64619011Y-40493142D01*
X64619011Y-40493142D02*
X64619011Y-40469332D01*
X64619011Y-40469332D02*
X64595202Y-40421713D01*
X64595202Y-40421713D02*
X64547583Y-40397904D01*
X64547583Y-40397904D02*
X64476154Y-40397904D01*
X64476154Y-40397904D02*
X64428535Y-40421713D01*
X63595202Y-40731237D02*
X63595202Y-40469332D01*
X63595202Y-40469332D02*
X63619012Y-40421713D01*
X63619012Y-40421713D02*
X63666631Y-40397904D01*
X63666631Y-40397904D02*
X63761869Y-40397904D01*
X63761869Y-40397904D02*
X63809488Y-40421713D01*
X63595202Y-40707428D02*
X63642821Y-40731237D01*
X63642821Y-40731237D02*
X63761869Y-40731237D01*
X63761869Y-40731237D02*
X63809488Y-40707428D01*
X63809488Y-40707428D02*
X63833297Y-40659808D01*
X63833297Y-40659808D02*
X63833297Y-40612189D01*
X63833297Y-40612189D02*
X63809488Y-40564570D01*
X63809488Y-40564570D02*
X63761869Y-40540761D01*
X63761869Y-40540761D02*
X63642821Y-40540761D01*
X63642821Y-40540761D02*
X63595202Y-40516951D01*
X63380916Y-40707428D02*
X63333297Y-40731237D01*
X63333297Y-40731237D02*
X63238059Y-40731237D01*
X63238059Y-40731237D02*
X63190440Y-40707428D01*
X63190440Y-40707428D02*
X63166631Y-40659808D01*
X63166631Y-40659808D02*
X63166631Y-40635999D01*
X63166631Y-40635999D02*
X63190440Y-40588380D01*
X63190440Y-40588380D02*
X63238059Y-40564570D01*
X63238059Y-40564570D02*
X63309488Y-40564570D01*
X63309488Y-40564570D02*
X63357107Y-40540761D01*
X63357107Y-40540761D02*
X63380916Y-40493142D01*
X63380916Y-40493142D02*
X63380916Y-40469332D01*
X63380916Y-40469332D02*
X63357107Y-40421713D01*
X63357107Y-40421713D02*
X63309488Y-40397904D01*
X63309488Y-40397904D02*
X63238059Y-40397904D01*
X63238059Y-40397904D02*
X63190440Y-40421713D01*
X62976154Y-40707428D02*
X62928535Y-40731237D01*
X62928535Y-40731237D02*
X62833297Y-40731237D01*
X62833297Y-40731237D02*
X62785678Y-40707428D01*
X62785678Y-40707428D02*
X62761869Y-40659808D01*
X62761869Y-40659808D02*
X62761869Y-40635999D01*
X62761869Y-40635999D02*
X62785678Y-40588380D01*
X62785678Y-40588380D02*
X62833297Y-40564570D01*
X62833297Y-40564570D02*
X62904726Y-40564570D01*
X62904726Y-40564570D02*
X62952345Y-40540761D01*
X62952345Y-40540761D02*
X62976154Y-40493142D01*
X62976154Y-40493142D02*
X62976154Y-40469332D01*
X62976154Y-40469332D02*
X62952345Y-40421713D01*
X62952345Y-40421713D02*
X62904726Y-40397904D01*
X62904726Y-40397904D02*
X62833297Y-40397904D01*
X62833297Y-40397904D02*
X62785678Y-40421713D01*
X62357107Y-40707428D02*
X62404726Y-40731237D01*
X62404726Y-40731237D02*
X62499964Y-40731237D01*
X62499964Y-40731237D02*
X62547583Y-40707428D01*
X62547583Y-40707428D02*
X62571392Y-40659808D01*
X62571392Y-40659808D02*
X62571392Y-40469332D01*
X62571392Y-40469332D02*
X62547583Y-40421713D01*
X62547583Y-40421713D02*
X62499964Y-40397904D01*
X62499964Y-40397904D02*
X62404726Y-40397904D01*
X62404726Y-40397904D02*
X62357107Y-40421713D01*
X62357107Y-40421713D02*
X62333297Y-40469332D01*
X62333297Y-40469332D02*
X62333297Y-40516951D01*
X62333297Y-40516951D02*
X62571392Y-40564570D01*
X62119012Y-40731237D02*
X62119012Y-40397904D01*
X62119012Y-40445523D02*
X62095202Y-40421713D01*
X62095202Y-40421713D02*
X62047583Y-40397904D01*
X62047583Y-40397904D02*
X61976155Y-40397904D01*
X61976155Y-40397904D02*
X61928536Y-40421713D01*
X61928536Y-40421713D02*
X61904726Y-40469332D01*
X61904726Y-40469332D02*
X61904726Y-40731237D01*
X61904726Y-40469332D02*
X61880917Y-40421713D01*
X61880917Y-40421713D02*
X61833298Y-40397904D01*
X61833298Y-40397904D02*
X61761869Y-40397904D01*
X61761869Y-40397904D02*
X61714250Y-40421713D01*
X61714250Y-40421713D02*
X61690440Y-40469332D01*
X61690440Y-40469332D02*
X61690440Y-40731237D01*
X61452345Y-40731237D02*
X61452345Y-40231237D01*
X61452345Y-40421713D02*
X61404726Y-40397904D01*
X61404726Y-40397904D02*
X61309488Y-40397904D01*
X61309488Y-40397904D02*
X61261869Y-40421713D01*
X61261869Y-40421713D02*
X61238059Y-40445523D01*
X61238059Y-40445523D02*
X61214250Y-40493142D01*
X61214250Y-40493142D02*
X61214250Y-40635999D01*
X61214250Y-40635999D02*
X61238059Y-40683618D01*
X61238059Y-40683618D02*
X61261869Y-40707428D01*
X61261869Y-40707428D02*
X61309488Y-40731237D01*
X61309488Y-40731237D02*
X61404726Y-40731237D01*
X61404726Y-40731237D02*
X61452345Y-40707428D01*
X60928535Y-40731237D02*
X60976154Y-40707428D01*
X60976154Y-40707428D02*
X60999964Y-40659808D01*
X60999964Y-40659808D02*
X60999964Y-40231237D01*
X60547583Y-40707428D02*
X60595202Y-40731237D01*
X60595202Y-40731237D02*
X60690440Y-40731237D01*
X60690440Y-40731237D02*
X60738059Y-40707428D01*
X60738059Y-40707428D02*
X60761868Y-40659808D01*
X60761868Y-40659808D02*
X60761868Y-40469332D01*
X60761868Y-40469332D02*
X60738059Y-40421713D01*
X60738059Y-40421713D02*
X60690440Y-40397904D01*
X60690440Y-40397904D02*
X60595202Y-40397904D01*
X60595202Y-40397904D02*
X60547583Y-40421713D01*
X60547583Y-40421713D02*
X60523773Y-40469332D01*
X60523773Y-40469332D02*
X60523773Y-40516951D01*
X60523773Y-40516951D02*
X60761868Y-40564570D01*
X71285677Y-41202876D02*
X71190439Y-41536209D01*
X71190439Y-41536209D02*
X71095201Y-41298114D01*
X71095201Y-41298114D02*
X70999963Y-41536209D01*
X70999963Y-41536209D02*
X70904725Y-41202876D01*
X70714248Y-41536209D02*
X70714248Y-41036209D01*
X70499962Y-41536209D02*
X70499962Y-41274304D01*
X70499962Y-41274304D02*
X70523772Y-41226685D01*
X70523772Y-41226685D02*
X70571391Y-41202876D01*
X70571391Y-41202876D02*
X70642819Y-41202876D01*
X70642819Y-41202876D02*
X70690438Y-41226685D01*
X70690438Y-41226685D02*
X70714248Y-41250495D01*
X70047581Y-41536209D02*
X70047581Y-41274304D01*
X70047581Y-41274304D02*
X70071391Y-41226685D01*
X70071391Y-41226685D02*
X70119010Y-41202876D01*
X70119010Y-41202876D02*
X70214248Y-41202876D01*
X70214248Y-41202876D02*
X70261867Y-41226685D01*
X70047581Y-41512400D02*
X70095200Y-41536209D01*
X70095200Y-41536209D02*
X70214248Y-41536209D01*
X70214248Y-41536209D02*
X70261867Y-41512400D01*
X70261867Y-41512400D02*
X70285676Y-41464780D01*
X70285676Y-41464780D02*
X70285676Y-41417161D01*
X70285676Y-41417161D02*
X70261867Y-41369542D01*
X70261867Y-41369542D02*
X70214248Y-41345733D01*
X70214248Y-41345733D02*
X70095200Y-41345733D01*
X70095200Y-41345733D02*
X70047581Y-41321923D01*
X69880914Y-41202876D02*
X69690438Y-41202876D01*
X69809486Y-41036209D02*
X69809486Y-41464780D01*
X69809486Y-41464780D02*
X69785676Y-41512400D01*
X69785676Y-41512400D02*
X69738057Y-41536209D01*
X69738057Y-41536209D02*
X69690438Y-41536209D01*
X69190439Y-41202876D02*
X69071391Y-41536209D01*
X68952344Y-41202876D02*
X69071391Y-41536209D01*
X69071391Y-41536209D02*
X69119010Y-41655257D01*
X69119010Y-41655257D02*
X69142820Y-41679066D01*
X69142820Y-41679066D02*
X69190439Y-41702876D01*
X68690439Y-41536209D02*
X68738058Y-41512400D01*
X68738058Y-41512400D02*
X68761868Y-41488590D01*
X68761868Y-41488590D02*
X68785677Y-41440971D01*
X68785677Y-41440971D02*
X68785677Y-41298114D01*
X68785677Y-41298114D02*
X68761868Y-41250495D01*
X68761868Y-41250495D02*
X68738058Y-41226685D01*
X68738058Y-41226685D02*
X68690439Y-41202876D01*
X68690439Y-41202876D02*
X68619011Y-41202876D01*
X68619011Y-41202876D02*
X68571392Y-41226685D01*
X68571392Y-41226685D02*
X68547582Y-41250495D01*
X68547582Y-41250495D02*
X68523773Y-41298114D01*
X68523773Y-41298114D02*
X68523773Y-41440971D01*
X68523773Y-41440971D02*
X68547582Y-41488590D01*
X68547582Y-41488590D02*
X68571392Y-41512400D01*
X68571392Y-41512400D02*
X68619011Y-41536209D01*
X68619011Y-41536209D02*
X68690439Y-41536209D01*
X68095201Y-41202876D02*
X68095201Y-41536209D01*
X68309487Y-41202876D02*
X68309487Y-41464780D01*
X68309487Y-41464780D02*
X68285677Y-41512400D01*
X68285677Y-41512400D02*
X68238058Y-41536209D01*
X68238058Y-41536209D02*
X68166630Y-41536209D01*
X68166630Y-41536209D02*
X68119011Y-41512400D01*
X68119011Y-41512400D02*
X68095201Y-41488590D01*
X67857106Y-41536209D02*
X67857106Y-41202876D01*
X67857106Y-41298114D02*
X67833296Y-41250495D01*
X67833296Y-41250495D02*
X67809487Y-41226685D01*
X67809487Y-41226685D02*
X67761868Y-41202876D01*
X67761868Y-41202876D02*
X67714249Y-41202876D01*
X67166630Y-41536209D02*
X67166630Y-41202876D01*
X67166630Y-41250495D02*
X67142820Y-41226685D01*
X67142820Y-41226685D02*
X67095201Y-41202876D01*
X67095201Y-41202876D02*
X67023773Y-41202876D01*
X67023773Y-41202876D02*
X66976154Y-41226685D01*
X66976154Y-41226685D02*
X66952344Y-41274304D01*
X66952344Y-41274304D02*
X66952344Y-41536209D01*
X66952344Y-41274304D02*
X66928535Y-41226685D01*
X66928535Y-41226685D02*
X66880916Y-41202876D01*
X66880916Y-41202876D02*
X66809487Y-41202876D01*
X66809487Y-41202876D02*
X66761868Y-41226685D01*
X66761868Y-41226685D02*
X66738058Y-41274304D01*
X66738058Y-41274304D02*
X66738058Y-41536209D01*
X66499963Y-41536209D02*
X66499963Y-41202876D01*
X66499963Y-41036209D02*
X66523772Y-41060019D01*
X66523772Y-41060019D02*
X66499963Y-41083828D01*
X66499963Y-41083828D02*
X66476153Y-41060019D01*
X66476153Y-41060019D02*
X66499963Y-41036209D01*
X66499963Y-41036209D02*
X66499963Y-41083828D01*
X66261868Y-41202876D02*
X66261868Y-41536209D01*
X66261868Y-41250495D02*
X66238058Y-41226685D01*
X66238058Y-41226685D02*
X66190439Y-41202876D01*
X66190439Y-41202876D02*
X66119011Y-41202876D01*
X66119011Y-41202876D02*
X66071392Y-41226685D01*
X66071392Y-41226685D02*
X66047582Y-41274304D01*
X66047582Y-41274304D02*
X66047582Y-41536209D01*
X65595201Y-41536209D02*
X65595201Y-41036209D01*
X65595201Y-41512400D02*
X65642820Y-41536209D01*
X65642820Y-41536209D02*
X65738058Y-41536209D01*
X65738058Y-41536209D02*
X65785677Y-41512400D01*
X65785677Y-41512400D02*
X65809487Y-41488590D01*
X65809487Y-41488590D02*
X65833296Y-41440971D01*
X65833296Y-41440971D02*
X65833296Y-41298114D01*
X65833296Y-41298114D02*
X65809487Y-41250495D01*
X65809487Y-41250495D02*
X65785677Y-41226685D01*
X65785677Y-41226685D02*
X65738058Y-41202876D01*
X65738058Y-41202876D02*
X65642820Y-41202876D01*
X65642820Y-41202876D02*
X65595201Y-41226685D01*
X64761868Y-41512400D02*
X64809487Y-41536209D01*
X64809487Y-41536209D02*
X64904725Y-41536209D01*
X64904725Y-41536209D02*
X64952344Y-41512400D01*
X64952344Y-41512400D02*
X64976154Y-41488590D01*
X64976154Y-41488590D02*
X64999963Y-41440971D01*
X64999963Y-41440971D02*
X64999963Y-41298114D01*
X64999963Y-41298114D02*
X64976154Y-41250495D01*
X64976154Y-41250495D02*
X64952344Y-41226685D01*
X64952344Y-41226685D02*
X64904725Y-41202876D01*
X64904725Y-41202876D02*
X64809487Y-41202876D01*
X64809487Y-41202876D02*
X64761868Y-41226685D01*
X64333297Y-41536209D02*
X64333297Y-41274304D01*
X64333297Y-41274304D02*
X64357107Y-41226685D01*
X64357107Y-41226685D02*
X64404726Y-41202876D01*
X64404726Y-41202876D02*
X64499964Y-41202876D01*
X64499964Y-41202876D02*
X64547583Y-41226685D01*
X64333297Y-41512400D02*
X64380916Y-41536209D01*
X64380916Y-41536209D02*
X64499964Y-41536209D01*
X64499964Y-41536209D02*
X64547583Y-41512400D01*
X64547583Y-41512400D02*
X64571392Y-41464780D01*
X64571392Y-41464780D02*
X64571392Y-41417161D01*
X64571392Y-41417161D02*
X64547583Y-41369542D01*
X64547583Y-41369542D02*
X64499964Y-41345733D01*
X64499964Y-41345733D02*
X64380916Y-41345733D01*
X64380916Y-41345733D02*
X64333297Y-41321923D01*
X64095202Y-41202876D02*
X64095202Y-41536209D01*
X64095202Y-41250495D02*
X64071392Y-41226685D01*
X64071392Y-41226685D02*
X64023773Y-41202876D01*
X64023773Y-41202876D02*
X63952345Y-41202876D01*
X63952345Y-41202876D02*
X63904726Y-41226685D01*
X63904726Y-41226685D02*
X63880916Y-41274304D01*
X63880916Y-41274304D02*
X63880916Y-41536209D01*
X63642821Y-41202876D02*
X63642821Y-41536209D01*
X63642821Y-41250495D02*
X63619011Y-41226685D01*
X63619011Y-41226685D02*
X63571392Y-41202876D01*
X63571392Y-41202876D02*
X63499964Y-41202876D01*
X63499964Y-41202876D02*
X63452345Y-41226685D01*
X63452345Y-41226685D02*
X63428535Y-41274304D01*
X63428535Y-41274304D02*
X63428535Y-41536209D01*
X63119011Y-41536209D02*
X63166630Y-41512400D01*
X63166630Y-41512400D02*
X63190440Y-41488590D01*
X63190440Y-41488590D02*
X63214249Y-41440971D01*
X63214249Y-41440971D02*
X63214249Y-41298114D01*
X63214249Y-41298114D02*
X63190440Y-41250495D01*
X63190440Y-41250495D02*
X63166630Y-41226685D01*
X63166630Y-41226685D02*
X63119011Y-41202876D01*
X63119011Y-41202876D02*
X63047583Y-41202876D01*
X63047583Y-41202876D02*
X62999964Y-41226685D01*
X62999964Y-41226685D02*
X62976154Y-41250495D01*
X62976154Y-41250495D02*
X62952345Y-41298114D01*
X62952345Y-41298114D02*
X62952345Y-41440971D01*
X62952345Y-41440971D02*
X62976154Y-41488590D01*
X62976154Y-41488590D02*
X62999964Y-41512400D01*
X62999964Y-41512400D02*
X63047583Y-41536209D01*
X63047583Y-41536209D02*
X63119011Y-41536209D01*
X62809487Y-41202876D02*
X62619011Y-41202876D01*
X62738059Y-41036209D02*
X62738059Y-41464780D01*
X62738059Y-41464780D02*
X62714249Y-41512400D01*
X62714249Y-41512400D02*
X62666630Y-41536209D01*
X62666630Y-41536209D02*
X62619011Y-41536209D01*
X61857107Y-41512400D02*
X61904726Y-41536209D01*
X61904726Y-41536209D02*
X61999964Y-41536209D01*
X61999964Y-41536209D02*
X62047583Y-41512400D01*
X62047583Y-41512400D02*
X62071393Y-41488590D01*
X62071393Y-41488590D02*
X62095202Y-41440971D01*
X62095202Y-41440971D02*
X62095202Y-41298114D01*
X62095202Y-41298114D02*
X62071393Y-41250495D01*
X62071393Y-41250495D02*
X62047583Y-41226685D01*
X62047583Y-41226685D02*
X61999964Y-41202876D01*
X61999964Y-41202876D02*
X61904726Y-41202876D01*
X61904726Y-41202876D02*
X61857107Y-41226685D01*
X61571393Y-41536209D02*
X61619012Y-41512400D01*
X61619012Y-41512400D02*
X61642822Y-41488590D01*
X61642822Y-41488590D02*
X61666631Y-41440971D01*
X61666631Y-41440971D02*
X61666631Y-41298114D01*
X61666631Y-41298114D02*
X61642822Y-41250495D01*
X61642822Y-41250495D02*
X61619012Y-41226685D01*
X61619012Y-41226685D02*
X61571393Y-41202876D01*
X61571393Y-41202876D02*
X61499965Y-41202876D01*
X61499965Y-41202876D02*
X61452346Y-41226685D01*
X61452346Y-41226685D02*
X61428536Y-41250495D01*
X61428536Y-41250495D02*
X61404727Y-41298114D01*
X61404727Y-41298114D02*
X61404727Y-41440971D01*
X61404727Y-41440971D02*
X61428536Y-41488590D01*
X61428536Y-41488590D02*
X61452346Y-41512400D01*
X61452346Y-41512400D02*
X61499965Y-41536209D01*
X61499965Y-41536209D02*
X61571393Y-41536209D01*
X61190441Y-41536209D02*
X61190441Y-41202876D01*
X61190441Y-41250495D02*
X61166631Y-41226685D01*
X61166631Y-41226685D02*
X61119012Y-41202876D01*
X61119012Y-41202876D02*
X61047584Y-41202876D01*
X61047584Y-41202876D02*
X60999965Y-41226685D01*
X60999965Y-41226685D02*
X60976155Y-41274304D01*
X60976155Y-41274304D02*
X60976155Y-41536209D01*
X60976155Y-41274304D02*
X60952346Y-41226685D01*
X60952346Y-41226685D02*
X60904727Y-41202876D01*
X60904727Y-41202876D02*
X60833298Y-41202876D01*
X60833298Y-41202876D02*
X60785679Y-41226685D01*
X60785679Y-41226685D02*
X60761869Y-41274304D01*
X60761869Y-41274304D02*
X60761869Y-41536209D01*
X60523774Y-41202876D02*
X60523774Y-41702876D01*
X60523774Y-41226685D02*
X60476155Y-41202876D01*
X60476155Y-41202876D02*
X60380917Y-41202876D01*
X60380917Y-41202876D02*
X60333298Y-41226685D01*
X60333298Y-41226685D02*
X60309488Y-41250495D01*
X60309488Y-41250495D02*
X60285679Y-41298114D01*
X60285679Y-41298114D02*
X60285679Y-41440971D01*
X60285679Y-41440971D02*
X60309488Y-41488590D01*
X60309488Y-41488590D02*
X60333298Y-41512400D01*
X60333298Y-41512400D02*
X60380917Y-41536209D01*
X60380917Y-41536209D02*
X60476155Y-41536209D01*
X60476155Y-41536209D02*
X60523774Y-41512400D01*
X60071393Y-41536209D02*
X60071393Y-41202876D01*
X60071393Y-41298114D02*
X60047583Y-41250495D01*
X60047583Y-41250495D02*
X60023774Y-41226685D01*
X60023774Y-41226685D02*
X59976155Y-41202876D01*
X59976155Y-41202876D02*
X59928536Y-41202876D01*
X59571393Y-41512400D02*
X59619012Y-41536209D01*
X59619012Y-41536209D02*
X59714250Y-41536209D01*
X59714250Y-41536209D02*
X59761869Y-41512400D01*
X59761869Y-41512400D02*
X59785678Y-41464780D01*
X59785678Y-41464780D02*
X59785678Y-41274304D01*
X59785678Y-41274304D02*
X59761869Y-41226685D01*
X59761869Y-41226685D02*
X59714250Y-41202876D01*
X59714250Y-41202876D02*
X59619012Y-41202876D01*
X59619012Y-41202876D02*
X59571393Y-41226685D01*
X59571393Y-41226685D02*
X59547583Y-41274304D01*
X59547583Y-41274304D02*
X59547583Y-41321923D01*
X59547583Y-41321923D02*
X59785678Y-41369542D01*
X59333298Y-41536209D02*
X59333298Y-41036209D01*
X59119012Y-41536209D02*
X59119012Y-41274304D01*
X59119012Y-41274304D02*
X59142822Y-41226685D01*
X59142822Y-41226685D02*
X59190441Y-41202876D01*
X59190441Y-41202876D02*
X59261869Y-41202876D01*
X59261869Y-41202876D02*
X59309488Y-41226685D01*
X59309488Y-41226685D02*
X59333298Y-41250495D01*
X58690441Y-41512400D02*
X58738060Y-41536209D01*
X58738060Y-41536209D02*
X58833298Y-41536209D01*
X58833298Y-41536209D02*
X58880917Y-41512400D01*
X58880917Y-41512400D02*
X58904726Y-41464780D01*
X58904726Y-41464780D02*
X58904726Y-41274304D01*
X58904726Y-41274304D02*
X58880917Y-41226685D01*
X58880917Y-41226685D02*
X58833298Y-41202876D01*
X58833298Y-41202876D02*
X58738060Y-41202876D01*
X58738060Y-41202876D02*
X58690441Y-41226685D01*
X58690441Y-41226685D02*
X58666631Y-41274304D01*
X58666631Y-41274304D02*
X58666631Y-41321923D01*
X58666631Y-41321923D02*
X58904726Y-41369542D01*
X58452346Y-41202876D02*
X58452346Y-41536209D01*
X58452346Y-41250495D02*
X58428536Y-41226685D01*
X58428536Y-41226685D02*
X58380917Y-41202876D01*
X58380917Y-41202876D02*
X58309489Y-41202876D01*
X58309489Y-41202876D02*
X58261870Y-41226685D01*
X58261870Y-41226685D02*
X58238060Y-41274304D01*
X58238060Y-41274304D02*
X58238060Y-41536209D01*
X57785679Y-41536209D02*
X57785679Y-41036209D01*
X57785679Y-41512400D02*
X57833298Y-41536209D01*
X57833298Y-41536209D02*
X57928536Y-41536209D01*
X57928536Y-41536209D02*
X57976155Y-41512400D01*
X57976155Y-41512400D02*
X57999965Y-41488590D01*
X57999965Y-41488590D02*
X58023774Y-41440971D01*
X58023774Y-41440971D02*
X58023774Y-41298114D01*
X58023774Y-41298114D02*
X57999965Y-41250495D01*
X57999965Y-41250495D02*
X57976155Y-41226685D01*
X57976155Y-41226685D02*
X57928536Y-41202876D01*
X57928536Y-41202876D02*
X57833298Y-41202876D01*
X57833298Y-41202876D02*
X57785679Y-41226685D01*
X57547584Y-41488590D02*
X57523774Y-41512400D01*
X57523774Y-41512400D02*
X57547584Y-41536209D01*
X57547584Y-41536209D02*
X57571393Y-41512400D01*
X57571393Y-41512400D02*
X57547584Y-41488590D01*
X57547584Y-41488590D02*
X57547584Y-41536209D01*
X70919963Y-62161293D02*
X71158058Y-62161293D01*
X71158058Y-62161293D02*
X71158058Y-61661293D01*
X70681867Y-62161293D02*
X70729486Y-62137484D01*
X70729486Y-62137484D02*
X70753296Y-62113674D01*
X70753296Y-62113674D02*
X70777105Y-62066055D01*
X70777105Y-62066055D02*
X70777105Y-61923198D01*
X70777105Y-61923198D02*
X70753296Y-61875579D01*
X70753296Y-61875579D02*
X70729486Y-61851769D01*
X70729486Y-61851769D02*
X70681867Y-61827960D01*
X70681867Y-61827960D02*
X70610439Y-61827960D01*
X70610439Y-61827960D02*
X70562820Y-61851769D01*
X70562820Y-61851769D02*
X70539010Y-61875579D01*
X70539010Y-61875579D02*
X70515201Y-61923198D01*
X70515201Y-61923198D02*
X70515201Y-62066055D01*
X70515201Y-62066055D02*
X70539010Y-62113674D01*
X70539010Y-62113674D02*
X70562820Y-62137484D01*
X70562820Y-62137484D02*
X70610439Y-62161293D01*
X70610439Y-62161293D02*
X70681867Y-62161293D01*
X70229486Y-62161293D02*
X70277105Y-62137484D01*
X70277105Y-62137484D02*
X70300915Y-62113674D01*
X70300915Y-62113674D02*
X70324724Y-62066055D01*
X70324724Y-62066055D02*
X70324724Y-61923198D01*
X70324724Y-61923198D02*
X70300915Y-61875579D01*
X70300915Y-61875579D02*
X70277105Y-61851769D01*
X70277105Y-61851769D02*
X70229486Y-61827960D01*
X70229486Y-61827960D02*
X70158058Y-61827960D01*
X70158058Y-61827960D02*
X70110439Y-61851769D01*
X70110439Y-61851769D02*
X70086629Y-61875579D01*
X70086629Y-61875579D02*
X70062820Y-61923198D01*
X70062820Y-61923198D02*
X70062820Y-62066055D01*
X70062820Y-62066055D02*
X70086629Y-62113674D01*
X70086629Y-62113674D02*
X70110439Y-62137484D01*
X70110439Y-62137484D02*
X70158058Y-62161293D01*
X70158058Y-62161293D02*
X70229486Y-62161293D01*
X69848534Y-62161293D02*
X69848534Y-61661293D01*
X69800915Y-61970817D02*
X69658058Y-62161293D01*
X69658058Y-61827960D02*
X69848534Y-62018436D01*
X68848534Y-62161293D02*
X68848534Y-61899388D01*
X68848534Y-61899388D02*
X68872344Y-61851769D01*
X68872344Y-61851769D02*
X68919963Y-61827960D01*
X68919963Y-61827960D02*
X69015201Y-61827960D01*
X69015201Y-61827960D02*
X69062820Y-61851769D01*
X68848534Y-62137484D02*
X68896153Y-62161293D01*
X68896153Y-62161293D02*
X69015201Y-62161293D01*
X69015201Y-62161293D02*
X69062820Y-62137484D01*
X69062820Y-62137484D02*
X69086629Y-62089864D01*
X69086629Y-62089864D02*
X69086629Y-62042245D01*
X69086629Y-62042245D02*
X69062820Y-61994626D01*
X69062820Y-61994626D02*
X69015201Y-61970817D01*
X69015201Y-61970817D02*
X68896153Y-61970817D01*
X68896153Y-61970817D02*
X68848534Y-61947007D01*
X68681867Y-61827960D02*
X68491391Y-61827960D01*
X68610439Y-61661293D02*
X68610439Y-62089864D01*
X68610439Y-62089864D02*
X68586629Y-62137484D01*
X68586629Y-62137484D02*
X68539010Y-62161293D01*
X68539010Y-62161293D02*
X68491391Y-62161293D01*
X67991392Y-61827960D02*
X67872344Y-62161293D01*
X67753297Y-61827960D02*
X67872344Y-62161293D01*
X67872344Y-62161293D02*
X67919963Y-62280341D01*
X67919963Y-62280341D02*
X67943773Y-62304150D01*
X67943773Y-62304150D02*
X67991392Y-62327960D01*
X67491392Y-62161293D02*
X67539011Y-62137484D01*
X67539011Y-62137484D02*
X67562821Y-62113674D01*
X67562821Y-62113674D02*
X67586630Y-62066055D01*
X67586630Y-62066055D02*
X67586630Y-61923198D01*
X67586630Y-61923198D02*
X67562821Y-61875579D01*
X67562821Y-61875579D02*
X67539011Y-61851769D01*
X67539011Y-61851769D02*
X67491392Y-61827960D01*
X67491392Y-61827960D02*
X67419964Y-61827960D01*
X67419964Y-61827960D02*
X67372345Y-61851769D01*
X67372345Y-61851769D02*
X67348535Y-61875579D01*
X67348535Y-61875579D02*
X67324726Y-61923198D01*
X67324726Y-61923198D02*
X67324726Y-62066055D01*
X67324726Y-62066055D02*
X67348535Y-62113674D01*
X67348535Y-62113674D02*
X67372345Y-62137484D01*
X67372345Y-62137484D02*
X67419964Y-62161293D01*
X67419964Y-62161293D02*
X67491392Y-62161293D01*
X66896154Y-61827960D02*
X66896154Y-62161293D01*
X67110440Y-61827960D02*
X67110440Y-62089864D01*
X67110440Y-62089864D02*
X67086630Y-62137484D01*
X67086630Y-62137484D02*
X67039011Y-62161293D01*
X67039011Y-62161293D02*
X66967583Y-62161293D01*
X66967583Y-62161293D02*
X66919964Y-62137484D01*
X66919964Y-62137484D02*
X66896154Y-62113674D01*
X66634249Y-62137484D02*
X66634249Y-62161293D01*
X66634249Y-62161293D02*
X66658059Y-62208912D01*
X66658059Y-62208912D02*
X66681868Y-62232722D01*
X65824726Y-62161293D02*
X65824726Y-61899388D01*
X65824726Y-61899388D02*
X65848536Y-61851769D01*
X65848536Y-61851769D02*
X65896155Y-61827960D01*
X65896155Y-61827960D02*
X65991393Y-61827960D01*
X65991393Y-61827960D02*
X66039012Y-61851769D01*
X65824726Y-62137484D02*
X65872345Y-62161293D01*
X65872345Y-62161293D02*
X65991393Y-62161293D01*
X65991393Y-62161293D02*
X66039012Y-62137484D01*
X66039012Y-62137484D02*
X66062821Y-62089864D01*
X66062821Y-62089864D02*
X66062821Y-62042245D01*
X66062821Y-62042245D02*
X66039012Y-61994626D01*
X66039012Y-61994626D02*
X65991393Y-61970817D01*
X65991393Y-61970817D02*
X65872345Y-61970817D01*
X65872345Y-61970817D02*
X65824726Y-61947007D01*
X65205679Y-61827960D02*
X65205679Y-62327960D01*
X65205679Y-61851769D02*
X65158060Y-61827960D01*
X65158060Y-61827960D02*
X65062822Y-61827960D01*
X65062822Y-61827960D02*
X65015203Y-61851769D01*
X65015203Y-61851769D02*
X64991393Y-61875579D01*
X64991393Y-61875579D02*
X64967584Y-61923198D01*
X64967584Y-61923198D02*
X64967584Y-62066055D01*
X64967584Y-62066055D02*
X64991393Y-62113674D01*
X64991393Y-62113674D02*
X65015203Y-62137484D01*
X65015203Y-62137484D02*
X65062822Y-62161293D01*
X65062822Y-62161293D02*
X65158060Y-62161293D01*
X65158060Y-62161293D02*
X65205679Y-62137484D01*
X64539012Y-62161293D02*
X64539012Y-61899388D01*
X64539012Y-61899388D02*
X64562822Y-61851769D01*
X64562822Y-61851769D02*
X64610441Y-61827960D01*
X64610441Y-61827960D02*
X64705679Y-61827960D01*
X64705679Y-61827960D02*
X64753298Y-61851769D01*
X64539012Y-62137484D02*
X64586631Y-62161293D01*
X64586631Y-62161293D02*
X64705679Y-62161293D01*
X64705679Y-62161293D02*
X64753298Y-62137484D01*
X64753298Y-62137484D02*
X64777107Y-62089864D01*
X64777107Y-62089864D02*
X64777107Y-62042245D01*
X64777107Y-62042245D02*
X64753298Y-61994626D01*
X64753298Y-61994626D02*
X64705679Y-61970817D01*
X64705679Y-61970817D02*
X64586631Y-61970817D01*
X64586631Y-61970817D02*
X64539012Y-61947007D01*
X64372345Y-61827960D02*
X64181869Y-61827960D01*
X64300917Y-61661293D02*
X64300917Y-62089864D01*
X64300917Y-62089864D02*
X64277107Y-62137484D01*
X64277107Y-62137484D02*
X64229488Y-62161293D01*
X64229488Y-62161293D02*
X64181869Y-62161293D01*
X64015203Y-62161293D02*
X64015203Y-61661293D01*
X63800917Y-62161293D02*
X63800917Y-61899388D01*
X63800917Y-61899388D02*
X63824727Y-61851769D01*
X63824727Y-61851769D02*
X63872346Y-61827960D01*
X63872346Y-61827960D02*
X63943774Y-61827960D01*
X63943774Y-61827960D02*
X63991393Y-61851769D01*
X63991393Y-61851769D02*
X64015203Y-61875579D01*
X63372346Y-62137484D02*
X63419965Y-62161293D01*
X63419965Y-62161293D02*
X63515203Y-62161293D01*
X63515203Y-62161293D02*
X63562822Y-62137484D01*
X63562822Y-62137484D02*
X63586631Y-62089864D01*
X63586631Y-62089864D02*
X63586631Y-61899388D01*
X63586631Y-61899388D02*
X63562822Y-61851769D01*
X63562822Y-61851769D02*
X63515203Y-61827960D01*
X63515203Y-61827960D02*
X63419965Y-61827960D01*
X63419965Y-61827960D02*
X63372346Y-61851769D01*
X63372346Y-61851769D02*
X63348536Y-61899388D01*
X63348536Y-61899388D02*
X63348536Y-61947007D01*
X63348536Y-61947007D02*
X63586631Y-61994626D01*
X63205679Y-61827960D02*
X63015203Y-61827960D01*
X63134251Y-61661293D02*
X63134251Y-62089864D01*
X63134251Y-62089864D02*
X63110441Y-62137484D01*
X63110441Y-62137484D02*
X63062822Y-62161293D01*
X63062822Y-62161293D02*
X63015203Y-62161293D01*
X62848537Y-62161293D02*
X62848537Y-61827960D01*
X62848537Y-61661293D02*
X62872346Y-61685103D01*
X62872346Y-61685103D02*
X62848537Y-61708912D01*
X62848537Y-61708912D02*
X62824727Y-61685103D01*
X62824727Y-61685103D02*
X62848537Y-61661293D01*
X62848537Y-61661293D02*
X62848537Y-61708912D01*
X62396156Y-62137484D02*
X62443775Y-62161293D01*
X62443775Y-62161293D02*
X62539013Y-62161293D01*
X62539013Y-62161293D02*
X62586632Y-62137484D01*
X62586632Y-62137484D02*
X62610442Y-62113674D01*
X62610442Y-62113674D02*
X62634251Y-62066055D01*
X62634251Y-62066055D02*
X62634251Y-61923198D01*
X62634251Y-61923198D02*
X62610442Y-61875579D01*
X62610442Y-61875579D02*
X62586632Y-61851769D01*
X62586632Y-61851769D02*
X62539013Y-61827960D01*
X62539013Y-61827960D02*
X62443775Y-61827960D01*
X62443775Y-61827960D02*
X62396156Y-61851769D01*
X61586633Y-62137484D02*
X61634252Y-62161293D01*
X61634252Y-62161293D02*
X61729490Y-62161293D01*
X61729490Y-62161293D02*
X61777109Y-62137484D01*
X61777109Y-62137484D02*
X61800919Y-62113674D01*
X61800919Y-62113674D02*
X61824728Y-62066055D01*
X61824728Y-62066055D02*
X61824728Y-61923198D01*
X61824728Y-61923198D02*
X61800919Y-61875579D01*
X61800919Y-61875579D02*
X61777109Y-61851769D01*
X61777109Y-61851769D02*
X61729490Y-61827960D01*
X61729490Y-61827960D02*
X61634252Y-61827960D01*
X61634252Y-61827960D02*
X61586633Y-61851769D01*
X61372348Y-62161293D02*
X61372348Y-61827960D01*
X61372348Y-61923198D02*
X61348538Y-61875579D01*
X61348538Y-61875579D02*
X61324729Y-61851769D01*
X61324729Y-61851769D02*
X61277110Y-61827960D01*
X61277110Y-61827960D02*
X61229491Y-61827960D01*
X60872348Y-62137484D02*
X60919967Y-62161293D01*
X60919967Y-62161293D02*
X61015205Y-62161293D01*
X61015205Y-62161293D02*
X61062824Y-62137484D01*
X61062824Y-62137484D02*
X61086633Y-62089864D01*
X61086633Y-62089864D02*
X61086633Y-61899388D01*
X61086633Y-61899388D02*
X61062824Y-61851769D01*
X61062824Y-61851769D02*
X61015205Y-61827960D01*
X61015205Y-61827960D02*
X60919967Y-61827960D01*
X60919967Y-61827960D02*
X60872348Y-61851769D01*
X60872348Y-61851769D02*
X60848538Y-61899388D01*
X60848538Y-61899388D02*
X60848538Y-61947007D01*
X60848538Y-61947007D02*
X61086633Y-61994626D01*
X60419967Y-62161293D02*
X60419967Y-61899388D01*
X60419967Y-61899388D02*
X60443777Y-61851769D01*
X60443777Y-61851769D02*
X60491396Y-61827960D01*
X60491396Y-61827960D02*
X60586634Y-61827960D01*
X60586634Y-61827960D02*
X60634253Y-61851769D01*
X60419967Y-62137484D02*
X60467586Y-62161293D01*
X60467586Y-62161293D02*
X60586634Y-62161293D01*
X60586634Y-62161293D02*
X60634253Y-62137484D01*
X60634253Y-62137484D02*
X60658062Y-62089864D01*
X60658062Y-62089864D02*
X60658062Y-62042245D01*
X60658062Y-62042245D02*
X60634253Y-61994626D01*
X60634253Y-61994626D02*
X60586634Y-61970817D01*
X60586634Y-61970817D02*
X60467586Y-61970817D01*
X60467586Y-61970817D02*
X60419967Y-61947007D01*
X60253300Y-61827960D02*
X60062824Y-61827960D01*
X60181872Y-61661293D02*
X60181872Y-62089864D01*
X60181872Y-62089864D02*
X60158062Y-62137484D01*
X60158062Y-62137484D02*
X60110443Y-62161293D01*
X60110443Y-62161293D02*
X60062824Y-62161293D01*
X59681872Y-61827960D02*
X59681872Y-62161293D01*
X59896158Y-61827960D02*
X59896158Y-62089864D01*
X59896158Y-62089864D02*
X59872348Y-62137484D01*
X59872348Y-62137484D02*
X59824729Y-62161293D01*
X59824729Y-62161293D02*
X59753301Y-62161293D01*
X59753301Y-62161293D02*
X59705682Y-62137484D01*
X59705682Y-62137484D02*
X59681872Y-62113674D01*
X59443777Y-62161293D02*
X59443777Y-61827960D01*
X59443777Y-61923198D02*
X59419967Y-61875579D01*
X59419967Y-61875579D02*
X59396158Y-61851769D01*
X59396158Y-61851769D02*
X59348539Y-61827960D01*
X59348539Y-61827960D02*
X59300920Y-61827960D01*
X58943777Y-62137484D02*
X58991396Y-62161293D01*
X58991396Y-62161293D02*
X59086634Y-62161293D01*
X59086634Y-62161293D02*
X59134253Y-62137484D01*
X59134253Y-62137484D02*
X59158062Y-62089864D01*
X59158062Y-62089864D02*
X59158062Y-61899388D01*
X59158062Y-61899388D02*
X59134253Y-61851769D01*
X59134253Y-61851769D02*
X59086634Y-61827960D01*
X59086634Y-61827960D02*
X58991396Y-61827960D01*
X58991396Y-61827960D02*
X58943777Y-61851769D01*
X58943777Y-61851769D02*
X58919967Y-61899388D01*
X58919967Y-61899388D02*
X58919967Y-61947007D01*
X58919967Y-61947007D02*
X59158062Y-61994626D01*
X71086629Y-62966265D02*
X71134248Y-62942456D01*
X71134248Y-62942456D02*
X71158058Y-62918646D01*
X71158058Y-62918646D02*
X71181867Y-62871027D01*
X71181867Y-62871027D02*
X71181867Y-62728170D01*
X71181867Y-62728170D02*
X71158058Y-62680551D01*
X71158058Y-62680551D02*
X71134248Y-62656741D01*
X71134248Y-62656741D02*
X71086629Y-62632932D01*
X71086629Y-62632932D02*
X71015201Y-62632932D01*
X71015201Y-62632932D02*
X70967582Y-62656741D01*
X70967582Y-62656741D02*
X70943772Y-62680551D01*
X70943772Y-62680551D02*
X70919963Y-62728170D01*
X70919963Y-62728170D02*
X70919963Y-62871027D01*
X70919963Y-62871027D02*
X70943772Y-62918646D01*
X70943772Y-62918646D02*
X70967582Y-62942456D01*
X70967582Y-62942456D02*
X71015201Y-62966265D01*
X71015201Y-62966265D02*
X71086629Y-62966265D01*
X70777105Y-62632932D02*
X70586629Y-62632932D01*
X70705677Y-62966265D02*
X70705677Y-62537694D01*
X70705677Y-62537694D02*
X70681867Y-62490075D01*
X70681867Y-62490075D02*
X70634248Y-62466265D01*
X70634248Y-62466265D02*
X70586629Y-62466265D01*
X70039011Y-62966265D02*
X70039011Y-62632932D01*
X70039011Y-62680551D02*
X70015201Y-62656741D01*
X70015201Y-62656741D02*
X69967582Y-62632932D01*
X69967582Y-62632932D02*
X69896154Y-62632932D01*
X69896154Y-62632932D02*
X69848535Y-62656741D01*
X69848535Y-62656741D02*
X69824725Y-62704360D01*
X69824725Y-62704360D02*
X69824725Y-62966265D01*
X69824725Y-62704360D02*
X69800916Y-62656741D01*
X69800916Y-62656741D02*
X69753297Y-62632932D01*
X69753297Y-62632932D02*
X69681868Y-62632932D01*
X69681868Y-62632932D02*
X69634249Y-62656741D01*
X69634249Y-62656741D02*
X69610439Y-62704360D01*
X69610439Y-62704360D02*
X69610439Y-62966265D01*
X69181868Y-62942456D02*
X69229487Y-62966265D01*
X69229487Y-62966265D02*
X69324725Y-62966265D01*
X69324725Y-62966265D02*
X69372344Y-62942456D01*
X69372344Y-62942456D02*
X69396153Y-62894836D01*
X69396153Y-62894836D02*
X69396153Y-62704360D01*
X69396153Y-62704360D02*
X69372344Y-62656741D01*
X69372344Y-62656741D02*
X69324725Y-62632932D01*
X69324725Y-62632932D02*
X69229487Y-62632932D01*
X69229487Y-62632932D02*
X69181868Y-62656741D01*
X69181868Y-62656741D02*
X69158058Y-62704360D01*
X69158058Y-62704360D02*
X69158058Y-62751979D01*
X69158058Y-62751979D02*
X69396153Y-62799598D01*
X68729487Y-62966265D02*
X68729487Y-62704360D01*
X68729487Y-62704360D02*
X68753297Y-62656741D01*
X68753297Y-62656741D02*
X68800916Y-62632932D01*
X68800916Y-62632932D02*
X68896154Y-62632932D01*
X68896154Y-62632932D02*
X68943773Y-62656741D01*
X68729487Y-62942456D02*
X68777106Y-62966265D01*
X68777106Y-62966265D02*
X68896154Y-62966265D01*
X68896154Y-62966265D02*
X68943773Y-62942456D01*
X68943773Y-62942456D02*
X68967582Y-62894836D01*
X68967582Y-62894836D02*
X68967582Y-62847217D01*
X68967582Y-62847217D02*
X68943773Y-62799598D01*
X68943773Y-62799598D02*
X68896154Y-62775789D01*
X68896154Y-62775789D02*
X68777106Y-62775789D01*
X68777106Y-62775789D02*
X68729487Y-62751979D01*
X68562820Y-62632932D02*
X68372344Y-62632932D01*
X68491392Y-62466265D02*
X68491392Y-62894836D01*
X68491392Y-62894836D02*
X68467582Y-62942456D01*
X68467582Y-62942456D02*
X68419963Y-62966265D01*
X68419963Y-62966265D02*
X68372344Y-62966265D01*
X67610440Y-62966265D02*
X67610440Y-62704360D01*
X67610440Y-62704360D02*
X67634250Y-62656741D01*
X67634250Y-62656741D02*
X67681869Y-62632932D01*
X67681869Y-62632932D02*
X67777107Y-62632932D01*
X67777107Y-62632932D02*
X67824726Y-62656741D01*
X67610440Y-62942456D02*
X67658059Y-62966265D01*
X67658059Y-62966265D02*
X67777107Y-62966265D01*
X67777107Y-62966265D02*
X67824726Y-62942456D01*
X67824726Y-62942456D02*
X67848535Y-62894836D01*
X67848535Y-62894836D02*
X67848535Y-62847217D01*
X67848535Y-62847217D02*
X67824726Y-62799598D01*
X67824726Y-62799598D02*
X67777107Y-62775789D01*
X67777107Y-62775789D02*
X67658059Y-62775789D01*
X67658059Y-62775789D02*
X67610440Y-62751979D01*
X67372345Y-62632932D02*
X67372345Y-62966265D01*
X67372345Y-62680551D02*
X67348535Y-62656741D01*
X67348535Y-62656741D02*
X67300916Y-62632932D01*
X67300916Y-62632932D02*
X67229488Y-62632932D01*
X67229488Y-62632932D02*
X67181869Y-62656741D01*
X67181869Y-62656741D02*
X67158059Y-62704360D01*
X67158059Y-62704360D02*
X67158059Y-62966265D01*
X66705678Y-62966265D02*
X66705678Y-62466265D01*
X66705678Y-62942456D02*
X66753297Y-62966265D01*
X66753297Y-62966265D02*
X66848535Y-62966265D01*
X66848535Y-62966265D02*
X66896154Y-62942456D01*
X66896154Y-62942456D02*
X66919964Y-62918646D01*
X66919964Y-62918646D02*
X66943773Y-62871027D01*
X66943773Y-62871027D02*
X66943773Y-62728170D01*
X66943773Y-62728170D02*
X66919964Y-62680551D01*
X66919964Y-62680551D02*
X66896154Y-62656741D01*
X66896154Y-62656741D02*
X66848535Y-62632932D01*
X66848535Y-62632932D02*
X66753297Y-62632932D01*
X66753297Y-62632932D02*
X66705678Y-62656741D01*
X66086631Y-62966265D02*
X66086631Y-62466265D01*
X66086631Y-62656741D02*
X66039012Y-62632932D01*
X66039012Y-62632932D02*
X65943774Y-62632932D01*
X65943774Y-62632932D02*
X65896155Y-62656741D01*
X65896155Y-62656741D02*
X65872345Y-62680551D01*
X65872345Y-62680551D02*
X65848536Y-62728170D01*
X65848536Y-62728170D02*
X65848536Y-62871027D01*
X65848536Y-62871027D02*
X65872345Y-62918646D01*
X65872345Y-62918646D02*
X65896155Y-62942456D01*
X65896155Y-62942456D02*
X65943774Y-62966265D01*
X65943774Y-62966265D02*
X66039012Y-62966265D01*
X66039012Y-62966265D02*
X66086631Y-62942456D01*
X65562821Y-62966265D02*
X65610440Y-62942456D01*
X65610440Y-62942456D02*
X65634250Y-62918646D01*
X65634250Y-62918646D02*
X65658059Y-62871027D01*
X65658059Y-62871027D02*
X65658059Y-62728170D01*
X65658059Y-62728170D02*
X65634250Y-62680551D01*
X65634250Y-62680551D02*
X65610440Y-62656741D01*
X65610440Y-62656741D02*
X65562821Y-62632932D01*
X65562821Y-62632932D02*
X65491393Y-62632932D01*
X65491393Y-62632932D02*
X65443774Y-62656741D01*
X65443774Y-62656741D02*
X65419964Y-62680551D01*
X65419964Y-62680551D02*
X65396155Y-62728170D01*
X65396155Y-62728170D02*
X65396155Y-62871027D01*
X65396155Y-62871027D02*
X65419964Y-62918646D01*
X65419964Y-62918646D02*
X65443774Y-62942456D01*
X65443774Y-62942456D02*
X65491393Y-62966265D01*
X65491393Y-62966265D02*
X65562821Y-62966265D01*
X65181869Y-62632932D02*
X65181869Y-62966265D01*
X65181869Y-62680551D02*
X65158059Y-62656741D01*
X65158059Y-62656741D02*
X65110440Y-62632932D01*
X65110440Y-62632932D02*
X65039012Y-62632932D01*
X65039012Y-62632932D02*
X64991393Y-62656741D01*
X64991393Y-62656741D02*
X64967583Y-62704360D01*
X64967583Y-62704360D02*
X64967583Y-62966265D01*
X64539012Y-62942456D02*
X64586631Y-62966265D01*
X64586631Y-62966265D02*
X64681869Y-62966265D01*
X64681869Y-62966265D02*
X64729488Y-62942456D01*
X64729488Y-62942456D02*
X64753297Y-62894836D01*
X64753297Y-62894836D02*
X64753297Y-62704360D01*
X64753297Y-62704360D02*
X64729488Y-62656741D01*
X64729488Y-62656741D02*
X64681869Y-62632932D01*
X64681869Y-62632932D02*
X64586631Y-62632932D01*
X64586631Y-62632932D02*
X64539012Y-62656741D01*
X64539012Y-62656741D02*
X64515202Y-62704360D01*
X64515202Y-62704360D02*
X64515202Y-62751979D01*
X64515202Y-62751979D02*
X64753297Y-62799598D01*
X64300917Y-62918646D02*
X64277107Y-62942456D01*
X64277107Y-62942456D02*
X64300917Y-62966265D01*
X64300917Y-62966265D02*
X64324726Y-62942456D01*
X64324726Y-62942456D02*
X64300917Y-62918646D01*
X64300917Y-62918646D02*
X64300917Y-62966265D01*
X63681870Y-62966265D02*
X63681870Y-62466265D01*
X63681870Y-62704360D02*
X63396156Y-62704360D01*
X63396156Y-62966265D02*
X63396156Y-62466265D01*
X63086631Y-62966265D02*
X63134250Y-62942456D01*
X63134250Y-62942456D02*
X63158060Y-62918646D01*
X63158060Y-62918646D02*
X63181869Y-62871027D01*
X63181869Y-62871027D02*
X63181869Y-62728170D01*
X63181869Y-62728170D02*
X63158060Y-62680551D01*
X63158060Y-62680551D02*
X63134250Y-62656741D01*
X63134250Y-62656741D02*
X63086631Y-62632932D01*
X63086631Y-62632932D02*
X63015203Y-62632932D01*
X63015203Y-62632932D02*
X62967584Y-62656741D01*
X62967584Y-62656741D02*
X62943774Y-62680551D01*
X62943774Y-62680551D02*
X62919965Y-62728170D01*
X62919965Y-62728170D02*
X62919965Y-62871027D01*
X62919965Y-62871027D02*
X62943774Y-62918646D01*
X62943774Y-62918646D02*
X62967584Y-62942456D01*
X62967584Y-62942456D02*
X63015203Y-62966265D01*
X63015203Y-62966265D02*
X63086631Y-62966265D01*
X62753298Y-62632932D02*
X62658060Y-62966265D01*
X62658060Y-62966265D02*
X62562822Y-62728170D01*
X62562822Y-62728170D02*
X62467584Y-62966265D01*
X62467584Y-62966265D02*
X62372346Y-62632932D01*
X61586631Y-62966265D02*
X61586631Y-62466265D01*
X61586631Y-62942456D02*
X61634250Y-62966265D01*
X61634250Y-62966265D02*
X61729488Y-62966265D01*
X61729488Y-62966265D02*
X61777107Y-62942456D01*
X61777107Y-62942456D02*
X61800917Y-62918646D01*
X61800917Y-62918646D02*
X61824726Y-62871027D01*
X61824726Y-62871027D02*
X61824726Y-62728170D01*
X61824726Y-62728170D02*
X61800917Y-62680551D01*
X61800917Y-62680551D02*
X61777107Y-62656741D01*
X61777107Y-62656741D02*
X61729488Y-62632932D01*
X61729488Y-62632932D02*
X61634250Y-62632932D01*
X61634250Y-62632932D02*
X61586631Y-62656741D01*
X61134250Y-62966265D02*
X61134250Y-62704360D01*
X61134250Y-62704360D02*
X61158060Y-62656741D01*
X61158060Y-62656741D02*
X61205679Y-62632932D01*
X61205679Y-62632932D02*
X61300917Y-62632932D01*
X61300917Y-62632932D02*
X61348536Y-62656741D01*
X61134250Y-62942456D02*
X61181869Y-62966265D01*
X61181869Y-62966265D02*
X61300917Y-62966265D01*
X61300917Y-62966265D02*
X61348536Y-62942456D01*
X61348536Y-62942456D02*
X61372345Y-62894836D01*
X61372345Y-62894836D02*
X61372345Y-62847217D01*
X61372345Y-62847217D02*
X61348536Y-62799598D01*
X61348536Y-62799598D02*
X61300917Y-62775789D01*
X61300917Y-62775789D02*
X61181869Y-62775789D01*
X61181869Y-62775789D02*
X61134250Y-62751979D01*
X60896155Y-62966265D02*
X60896155Y-62632932D01*
X60896155Y-62728170D02*
X60872345Y-62680551D01*
X60872345Y-62680551D02*
X60848536Y-62656741D01*
X60848536Y-62656741D02*
X60800917Y-62632932D01*
X60800917Y-62632932D02*
X60753298Y-62632932D01*
X60396155Y-62942456D02*
X60443774Y-62966265D01*
X60443774Y-62966265D02*
X60539012Y-62966265D01*
X60539012Y-62966265D02*
X60586631Y-62942456D01*
X60586631Y-62942456D02*
X60610440Y-62894836D01*
X60610440Y-62894836D02*
X60610440Y-62704360D01*
X60610440Y-62704360D02*
X60586631Y-62656741D01*
X60586631Y-62656741D02*
X60539012Y-62632932D01*
X60539012Y-62632932D02*
X60443774Y-62632932D01*
X60443774Y-62632932D02*
X60396155Y-62656741D01*
X60396155Y-62656741D02*
X60372345Y-62704360D01*
X60372345Y-62704360D02*
X60372345Y-62751979D01*
X60372345Y-62751979D02*
X60610440Y-62799598D01*
X59824727Y-62632932D02*
X59705679Y-62966265D01*
X59586632Y-62632932D02*
X59705679Y-62966265D01*
X59705679Y-62966265D02*
X59753298Y-63085313D01*
X59753298Y-63085313D02*
X59777108Y-63109122D01*
X59777108Y-63109122D02*
X59824727Y-63132932D01*
X59324727Y-62966265D02*
X59372346Y-62942456D01*
X59372346Y-62942456D02*
X59396156Y-62918646D01*
X59396156Y-62918646D02*
X59419965Y-62871027D01*
X59419965Y-62871027D02*
X59419965Y-62728170D01*
X59419965Y-62728170D02*
X59396156Y-62680551D01*
X59396156Y-62680551D02*
X59372346Y-62656741D01*
X59372346Y-62656741D02*
X59324727Y-62632932D01*
X59324727Y-62632932D02*
X59253299Y-62632932D01*
X59253299Y-62632932D02*
X59205680Y-62656741D01*
X59205680Y-62656741D02*
X59181870Y-62680551D01*
X59181870Y-62680551D02*
X59158061Y-62728170D01*
X59158061Y-62728170D02*
X59158061Y-62871027D01*
X59158061Y-62871027D02*
X59181870Y-62918646D01*
X59181870Y-62918646D02*
X59205680Y-62942456D01*
X59205680Y-62942456D02*
X59253299Y-62966265D01*
X59253299Y-62966265D02*
X59324727Y-62966265D01*
X58729489Y-62632932D02*
X58729489Y-62966265D01*
X58943775Y-62632932D02*
X58943775Y-62894836D01*
X58943775Y-62894836D02*
X58919965Y-62942456D01*
X58919965Y-62942456D02*
X58872346Y-62966265D01*
X58872346Y-62966265D02*
X58800918Y-62966265D01*
X58800918Y-62966265D02*
X58753299Y-62942456D01*
X58753299Y-62942456D02*
X58729489Y-62918646D01*
X70943772Y-63747428D02*
X70991391Y-63771237D01*
X70991391Y-63771237D02*
X71086629Y-63771237D01*
X71086629Y-63771237D02*
X71134248Y-63747428D01*
X71134248Y-63747428D02*
X71158058Y-63723618D01*
X71158058Y-63723618D02*
X71181867Y-63675999D01*
X71181867Y-63675999D02*
X71181867Y-63533142D01*
X71181867Y-63533142D02*
X71158058Y-63485523D01*
X71158058Y-63485523D02*
X71134248Y-63461713D01*
X71134248Y-63461713D02*
X71086629Y-63437904D01*
X71086629Y-63437904D02*
X70991391Y-63437904D01*
X70991391Y-63437904D02*
X70943772Y-63461713D01*
X70729487Y-63771237D02*
X70729487Y-63271237D01*
X70515201Y-63771237D02*
X70515201Y-63509332D01*
X70515201Y-63509332D02*
X70539011Y-63461713D01*
X70539011Y-63461713D02*
X70586630Y-63437904D01*
X70586630Y-63437904D02*
X70658058Y-63437904D01*
X70658058Y-63437904D02*
X70705677Y-63461713D01*
X70705677Y-63461713D02*
X70729487Y-63485523D01*
X70062820Y-63771237D02*
X70062820Y-63509332D01*
X70062820Y-63509332D02*
X70086630Y-63461713D01*
X70086630Y-63461713D02*
X70134249Y-63437904D01*
X70134249Y-63437904D02*
X70229487Y-63437904D01*
X70229487Y-63437904D02*
X70277106Y-63461713D01*
X70062820Y-63747428D02*
X70110439Y-63771237D01*
X70110439Y-63771237D02*
X70229487Y-63771237D01*
X70229487Y-63771237D02*
X70277106Y-63747428D01*
X70277106Y-63747428D02*
X70300915Y-63699808D01*
X70300915Y-63699808D02*
X70300915Y-63652189D01*
X70300915Y-63652189D02*
X70277106Y-63604570D01*
X70277106Y-63604570D02*
X70229487Y-63580761D01*
X70229487Y-63580761D02*
X70110439Y-63580761D01*
X70110439Y-63580761D02*
X70062820Y-63556951D01*
X69753296Y-63771237D02*
X69800915Y-63747428D01*
X69800915Y-63747428D02*
X69824725Y-63699808D01*
X69824725Y-63699808D02*
X69824725Y-63271237D01*
X69491391Y-63771237D02*
X69539010Y-63747428D01*
X69539010Y-63747428D02*
X69562820Y-63699808D01*
X69562820Y-63699808D02*
X69562820Y-63271237D01*
X69110439Y-63747428D02*
X69158058Y-63771237D01*
X69158058Y-63771237D02*
X69253296Y-63771237D01*
X69253296Y-63771237D02*
X69300915Y-63747428D01*
X69300915Y-63747428D02*
X69324724Y-63699808D01*
X69324724Y-63699808D02*
X69324724Y-63509332D01*
X69324724Y-63509332D02*
X69300915Y-63461713D01*
X69300915Y-63461713D02*
X69253296Y-63437904D01*
X69253296Y-63437904D02*
X69158058Y-63437904D01*
X69158058Y-63437904D02*
X69110439Y-63461713D01*
X69110439Y-63461713D02*
X69086629Y-63509332D01*
X69086629Y-63509332D02*
X69086629Y-63556951D01*
X69086629Y-63556951D02*
X69324724Y-63604570D01*
X68872344Y-63437904D02*
X68872344Y-63771237D01*
X68872344Y-63485523D02*
X68848534Y-63461713D01*
X68848534Y-63461713D02*
X68800915Y-63437904D01*
X68800915Y-63437904D02*
X68729487Y-63437904D01*
X68729487Y-63437904D02*
X68681868Y-63461713D01*
X68681868Y-63461713D02*
X68658058Y-63509332D01*
X68658058Y-63509332D02*
X68658058Y-63771237D01*
X68205677Y-63437904D02*
X68205677Y-63842666D01*
X68205677Y-63842666D02*
X68229487Y-63890285D01*
X68229487Y-63890285D02*
X68253296Y-63914094D01*
X68253296Y-63914094D02*
X68300915Y-63937904D01*
X68300915Y-63937904D02*
X68372344Y-63937904D01*
X68372344Y-63937904D02*
X68419963Y-63914094D01*
X68205677Y-63747428D02*
X68253296Y-63771237D01*
X68253296Y-63771237D02*
X68348534Y-63771237D01*
X68348534Y-63771237D02*
X68396153Y-63747428D01*
X68396153Y-63747428D02*
X68419963Y-63723618D01*
X68419963Y-63723618D02*
X68443772Y-63675999D01*
X68443772Y-63675999D02*
X68443772Y-63533142D01*
X68443772Y-63533142D02*
X68419963Y-63485523D01*
X68419963Y-63485523D02*
X68396153Y-63461713D01*
X68396153Y-63461713D02*
X68348534Y-63437904D01*
X68348534Y-63437904D02*
X68253296Y-63437904D01*
X68253296Y-63437904D02*
X68205677Y-63461713D01*
X67777106Y-63747428D02*
X67824725Y-63771237D01*
X67824725Y-63771237D02*
X67919963Y-63771237D01*
X67919963Y-63771237D02*
X67967582Y-63747428D01*
X67967582Y-63747428D02*
X67991391Y-63699808D01*
X67991391Y-63699808D02*
X67991391Y-63509332D01*
X67991391Y-63509332D02*
X67967582Y-63461713D01*
X67967582Y-63461713D02*
X67919963Y-63437904D01*
X67919963Y-63437904D02*
X67824725Y-63437904D01*
X67824725Y-63437904D02*
X67777106Y-63461713D01*
X67777106Y-63461713D02*
X67753296Y-63509332D01*
X67753296Y-63509332D02*
X67753296Y-63556951D01*
X67753296Y-63556951D02*
X67991391Y-63604570D01*
X66943773Y-63771237D02*
X66943773Y-63509332D01*
X66943773Y-63509332D02*
X66967583Y-63461713D01*
X66967583Y-63461713D02*
X67015202Y-63437904D01*
X67015202Y-63437904D02*
X67110440Y-63437904D01*
X67110440Y-63437904D02*
X67158059Y-63461713D01*
X66943773Y-63747428D02*
X66991392Y-63771237D01*
X66991392Y-63771237D02*
X67110440Y-63771237D01*
X67110440Y-63771237D02*
X67158059Y-63747428D01*
X67158059Y-63747428D02*
X67181868Y-63699808D01*
X67181868Y-63699808D02*
X67181868Y-63652189D01*
X67181868Y-63652189D02*
X67158059Y-63604570D01*
X67158059Y-63604570D02*
X67110440Y-63580761D01*
X67110440Y-63580761D02*
X66991392Y-63580761D01*
X66991392Y-63580761D02*
X66943773Y-63556951D01*
X66324726Y-63437904D02*
X66324726Y-63937904D01*
X66324726Y-63461713D02*
X66277107Y-63437904D01*
X66277107Y-63437904D02*
X66181869Y-63437904D01*
X66181869Y-63437904D02*
X66134250Y-63461713D01*
X66134250Y-63461713D02*
X66110440Y-63485523D01*
X66110440Y-63485523D02*
X66086631Y-63533142D01*
X66086631Y-63533142D02*
X66086631Y-63675999D01*
X66086631Y-63675999D02*
X66110440Y-63723618D01*
X66110440Y-63723618D02*
X66134250Y-63747428D01*
X66134250Y-63747428D02*
X66181869Y-63771237D01*
X66181869Y-63771237D02*
X66277107Y-63771237D01*
X66277107Y-63771237D02*
X66324726Y-63747428D01*
X65681869Y-63747428D02*
X65729488Y-63771237D01*
X65729488Y-63771237D02*
X65824726Y-63771237D01*
X65824726Y-63771237D02*
X65872345Y-63747428D01*
X65872345Y-63747428D02*
X65896154Y-63699808D01*
X65896154Y-63699808D02*
X65896154Y-63509332D01*
X65896154Y-63509332D02*
X65872345Y-63461713D01*
X65872345Y-63461713D02*
X65824726Y-63437904D01*
X65824726Y-63437904D02*
X65729488Y-63437904D01*
X65729488Y-63437904D02*
X65681869Y-63461713D01*
X65681869Y-63461713D02*
X65658059Y-63509332D01*
X65658059Y-63509332D02*
X65658059Y-63556951D01*
X65658059Y-63556951D02*
X65896154Y-63604570D01*
X65443774Y-63771237D02*
X65443774Y-63437904D01*
X65443774Y-63533142D02*
X65419964Y-63485523D01*
X65419964Y-63485523D02*
X65396155Y-63461713D01*
X65396155Y-63461713D02*
X65348536Y-63437904D01*
X65348536Y-63437904D02*
X65300917Y-63437904D01*
X65205678Y-63437904D02*
X65015202Y-63437904D01*
X65134250Y-63771237D02*
X65134250Y-63342666D01*
X65134250Y-63342666D02*
X65110440Y-63295047D01*
X65110440Y-63295047D02*
X65062821Y-63271237D01*
X65062821Y-63271237D02*
X65015202Y-63271237D01*
X64658060Y-63747428D02*
X64705679Y-63771237D01*
X64705679Y-63771237D02*
X64800917Y-63771237D01*
X64800917Y-63771237D02*
X64848536Y-63747428D01*
X64848536Y-63747428D02*
X64872345Y-63699808D01*
X64872345Y-63699808D02*
X64872345Y-63509332D01*
X64872345Y-63509332D02*
X64848536Y-63461713D01*
X64848536Y-63461713D02*
X64800917Y-63437904D01*
X64800917Y-63437904D02*
X64705679Y-63437904D01*
X64705679Y-63437904D02*
X64658060Y-63461713D01*
X64658060Y-63461713D02*
X64634250Y-63509332D01*
X64634250Y-63509332D02*
X64634250Y-63556951D01*
X64634250Y-63556951D02*
X64872345Y-63604570D01*
X64205679Y-63747428D02*
X64253298Y-63771237D01*
X64253298Y-63771237D02*
X64348536Y-63771237D01*
X64348536Y-63771237D02*
X64396155Y-63747428D01*
X64396155Y-63747428D02*
X64419965Y-63723618D01*
X64419965Y-63723618D02*
X64443774Y-63675999D01*
X64443774Y-63675999D02*
X64443774Y-63533142D01*
X64443774Y-63533142D02*
X64419965Y-63485523D01*
X64419965Y-63485523D02*
X64396155Y-63461713D01*
X64396155Y-63461713D02*
X64348536Y-63437904D01*
X64348536Y-63437904D02*
X64253298Y-63437904D01*
X64253298Y-63437904D02*
X64205679Y-63461713D01*
X64062822Y-63437904D02*
X63872346Y-63437904D01*
X63991394Y-63271237D02*
X63991394Y-63699808D01*
X63991394Y-63699808D02*
X63967584Y-63747428D01*
X63967584Y-63747428D02*
X63919965Y-63771237D01*
X63919965Y-63771237D02*
X63872346Y-63771237D01*
X63110442Y-63771237D02*
X63110442Y-63509332D01*
X63110442Y-63509332D02*
X63134252Y-63461713D01*
X63134252Y-63461713D02*
X63181871Y-63437904D01*
X63181871Y-63437904D02*
X63277109Y-63437904D01*
X63277109Y-63437904D02*
X63324728Y-63461713D01*
X63110442Y-63747428D02*
X63158061Y-63771237D01*
X63158061Y-63771237D02*
X63277109Y-63771237D01*
X63277109Y-63771237D02*
X63324728Y-63747428D01*
X63324728Y-63747428D02*
X63348537Y-63699808D01*
X63348537Y-63699808D02*
X63348537Y-63652189D01*
X63348537Y-63652189D02*
X63324728Y-63604570D01*
X63324728Y-63604570D02*
X63277109Y-63580761D01*
X63277109Y-63580761D02*
X63158061Y-63580761D01*
X63158061Y-63580761D02*
X63110442Y-63556951D01*
X62872347Y-63437904D02*
X62872347Y-63771237D01*
X62872347Y-63485523D02*
X62848537Y-63461713D01*
X62848537Y-63461713D02*
X62800918Y-63437904D01*
X62800918Y-63437904D02*
X62729490Y-63437904D01*
X62729490Y-63437904D02*
X62681871Y-63461713D01*
X62681871Y-63461713D02*
X62658061Y-63509332D01*
X62658061Y-63509332D02*
X62658061Y-63771237D01*
X62205680Y-63771237D02*
X62205680Y-63271237D01*
X62205680Y-63747428D02*
X62253299Y-63771237D01*
X62253299Y-63771237D02*
X62348537Y-63771237D01*
X62348537Y-63771237D02*
X62396156Y-63747428D01*
X62396156Y-63747428D02*
X62419966Y-63723618D01*
X62419966Y-63723618D02*
X62443775Y-63675999D01*
X62443775Y-63675999D02*
X62443775Y-63533142D01*
X62443775Y-63533142D02*
X62419966Y-63485523D01*
X62419966Y-63485523D02*
X62396156Y-63461713D01*
X62396156Y-63461713D02*
X62348537Y-63437904D01*
X62348537Y-63437904D02*
X62253299Y-63437904D01*
X62253299Y-63437904D02*
X62205680Y-63461713D01*
X61586633Y-63771237D02*
X61586633Y-63437904D01*
X61586633Y-63271237D02*
X61610442Y-63295047D01*
X61610442Y-63295047D02*
X61586633Y-63318856D01*
X61586633Y-63318856D02*
X61562823Y-63295047D01*
X61562823Y-63295047D02*
X61586633Y-63271237D01*
X61586633Y-63271237D02*
X61586633Y-63318856D01*
X61348538Y-63771237D02*
X61348538Y-63437904D01*
X61348538Y-63485523D02*
X61324728Y-63461713D01*
X61324728Y-63461713D02*
X61277109Y-63437904D01*
X61277109Y-63437904D02*
X61205681Y-63437904D01*
X61205681Y-63437904D02*
X61158062Y-63461713D01*
X61158062Y-63461713D02*
X61134252Y-63509332D01*
X61134252Y-63509332D02*
X61134252Y-63771237D01*
X61134252Y-63509332D02*
X61110443Y-63461713D01*
X61110443Y-63461713D02*
X61062824Y-63437904D01*
X61062824Y-63437904D02*
X60991395Y-63437904D01*
X60991395Y-63437904D02*
X60943776Y-63461713D01*
X60943776Y-63461713D02*
X60919966Y-63509332D01*
X60919966Y-63509332D02*
X60919966Y-63771237D01*
X60681871Y-63771237D02*
X60681871Y-63437904D01*
X60681871Y-63485523D02*
X60658061Y-63461713D01*
X60658061Y-63461713D02*
X60610442Y-63437904D01*
X60610442Y-63437904D02*
X60539014Y-63437904D01*
X60539014Y-63437904D02*
X60491395Y-63461713D01*
X60491395Y-63461713D02*
X60467585Y-63509332D01*
X60467585Y-63509332D02*
X60467585Y-63771237D01*
X60467585Y-63509332D02*
X60443776Y-63461713D01*
X60443776Y-63461713D02*
X60396157Y-63437904D01*
X60396157Y-63437904D02*
X60324728Y-63437904D01*
X60324728Y-63437904D02*
X60277109Y-63461713D01*
X60277109Y-63461713D02*
X60253299Y-63509332D01*
X60253299Y-63509332D02*
X60253299Y-63771237D01*
X59943775Y-63771237D02*
X59991394Y-63747428D01*
X59991394Y-63747428D02*
X60015204Y-63723618D01*
X60015204Y-63723618D02*
X60039013Y-63675999D01*
X60039013Y-63675999D02*
X60039013Y-63533142D01*
X60039013Y-63533142D02*
X60015204Y-63485523D01*
X60015204Y-63485523D02*
X59991394Y-63461713D01*
X59991394Y-63461713D02*
X59943775Y-63437904D01*
X59943775Y-63437904D02*
X59872347Y-63437904D01*
X59872347Y-63437904D02*
X59824728Y-63461713D01*
X59824728Y-63461713D02*
X59800918Y-63485523D01*
X59800918Y-63485523D02*
X59777109Y-63533142D01*
X59777109Y-63533142D02*
X59777109Y-63675999D01*
X59777109Y-63675999D02*
X59800918Y-63723618D01*
X59800918Y-63723618D02*
X59824728Y-63747428D01*
X59824728Y-63747428D02*
X59872347Y-63771237D01*
X59872347Y-63771237D02*
X59943775Y-63771237D01*
X59562823Y-63771237D02*
X59562823Y-63437904D01*
X59562823Y-63533142D02*
X59539013Y-63485523D01*
X59539013Y-63485523D02*
X59515204Y-63461713D01*
X59515204Y-63461713D02*
X59467585Y-63437904D01*
X59467585Y-63437904D02*
X59419966Y-63437904D01*
X59324727Y-63437904D02*
X59134251Y-63437904D01*
X59253299Y-63271237D02*
X59253299Y-63699808D01*
X59253299Y-63699808D02*
X59229489Y-63747428D01*
X59229489Y-63747428D02*
X59181870Y-63771237D01*
X59181870Y-63771237D02*
X59134251Y-63771237D01*
X58753299Y-63771237D02*
X58753299Y-63509332D01*
X58753299Y-63509332D02*
X58777109Y-63461713D01*
X58777109Y-63461713D02*
X58824728Y-63437904D01*
X58824728Y-63437904D02*
X58919966Y-63437904D01*
X58919966Y-63437904D02*
X58967585Y-63461713D01*
X58753299Y-63747428D02*
X58800918Y-63771237D01*
X58800918Y-63771237D02*
X58919966Y-63771237D01*
X58919966Y-63771237D02*
X58967585Y-63747428D01*
X58967585Y-63747428D02*
X58991394Y-63699808D01*
X58991394Y-63699808D02*
X58991394Y-63652189D01*
X58991394Y-63652189D02*
X58967585Y-63604570D01*
X58967585Y-63604570D02*
X58919966Y-63580761D01*
X58919966Y-63580761D02*
X58800918Y-63580761D01*
X58800918Y-63580761D02*
X58753299Y-63556951D01*
X58443775Y-63771237D02*
X58491394Y-63747428D01*
X58491394Y-63747428D02*
X58515204Y-63699808D01*
X58515204Y-63699808D02*
X58515204Y-63271237D01*
X71158058Y-64576209D02*
X71158058Y-64242876D01*
X71158058Y-64290495D02*
X71134248Y-64266685D01*
X71134248Y-64266685D02*
X71086629Y-64242876D01*
X71086629Y-64242876D02*
X71015201Y-64242876D01*
X71015201Y-64242876D02*
X70967582Y-64266685D01*
X70967582Y-64266685D02*
X70943772Y-64314304D01*
X70943772Y-64314304D02*
X70943772Y-64576209D01*
X70943772Y-64314304D02*
X70919963Y-64266685D01*
X70919963Y-64266685D02*
X70872344Y-64242876D01*
X70872344Y-64242876D02*
X70800915Y-64242876D01*
X70800915Y-64242876D02*
X70753296Y-64266685D01*
X70753296Y-64266685D02*
X70729486Y-64314304D01*
X70729486Y-64314304D02*
X70729486Y-64576209D01*
X70277105Y-64576209D02*
X70277105Y-64314304D01*
X70277105Y-64314304D02*
X70300915Y-64266685D01*
X70300915Y-64266685D02*
X70348534Y-64242876D01*
X70348534Y-64242876D02*
X70443772Y-64242876D01*
X70443772Y-64242876D02*
X70491391Y-64266685D01*
X70277105Y-64552400D02*
X70324724Y-64576209D01*
X70324724Y-64576209D02*
X70443772Y-64576209D01*
X70443772Y-64576209D02*
X70491391Y-64552400D01*
X70491391Y-64552400D02*
X70515200Y-64504780D01*
X70515200Y-64504780D02*
X70515200Y-64457161D01*
X70515200Y-64457161D02*
X70491391Y-64409542D01*
X70491391Y-64409542D02*
X70443772Y-64385733D01*
X70443772Y-64385733D02*
X70324724Y-64385733D01*
X70324724Y-64385733D02*
X70277105Y-64361923D01*
X69824724Y-64552400D02*
X69872343Y-64576209D01*
X69872343Y-64576209D02*
X69967581Y-64576209D01*
X69967581Y-64576209D02*
X70015200Y-64552400D01*
X70015200Y-64552400D02*
X70039010Y-64528590D01*
X70039010Y-64528590D02*
X70062819Y-64480971D01*
X70062819Y-64480971D02*
X70062819Y-64338114D01*
X70062819Y-64338114D02*
X70039010Y-64290495D01*
X70039010Y-64290495D02*
X70015200Y-64266685D01*
X70015200Y-64266685D02*
X69967581Y-64242876D01*
X69967581Y-64242876D02*
X69872343Y-64242876D01*
X69872343Y-64242876D02*
X69824724Y-64266685D01*
X69610439Y-64576209D02*
X69610439Y-64076209D01*
X69396153Y-64576209D02*
X69396153Y-64314304D01*
X69396153Y-64314304D02*
X69419963Y-64266685D01*
X69419963Y-64266685D02*
X69467582Y-64242876D01*
X69467582Y-64242876D02*
X69539010Y-64242876D01*
X69539010Y-64242876D02*
X69586629Y-64266685D01*
X69586629Y-64266685D02*
X69610439Y-64290495D01*
X69158058Y-64576209D02*
X69158058Y-64242876D01*
X69158058Y-64076209D02*
X69181867Y-64100019D01*
X69181867Y-64100019D02*
X69158058Y-64123828D01*
X69158058Y-64123828D02*
X69134248Y-64100019D01*
X69134248Y-64100019D02*
X69158058Y-64076209D01*
X69158058Y-64076209D02*
X69158058Y-64123828D01*
X68919963Y-64242876D02*
X68919963Y-64576209D01*
X68919963Y-64290495D02*
X68896153Y-64266685D01*
X68896153Y-64266685D02*
X68848534Y-64242876D01*
X68848534Y-64242876D02*
X68777106Y-64242876D01*
X68777106Y-64242876D02*
X68729487Y-64266685D01*
X68729487Y-64266685D02*
X68705677Y-64314304D01*
X68705677Y-64314304D02*
X68705677Y-64576209D01*
X68277106Y-64552400D02*
X68324725Y-64576209D01*
X68324725Y-64576209D02*
X68419963Y-64576209D01*
X68419963Y-64576209D02*
X68467582Y-64552400D01*
X68467582Y-64552400D02*
X68491391Y-64504780D01*
X68491391Y-64504780D02*
X68491391Y-64314304D01*
X68491391Y-64314304D02*
X68467582Y-64266685D01*
X68467582Y-64266685D02*
X68419963Y-64242876D01*
X68419963Y-64242876D02*
X68324725Y-64242876D01*
X68324725Y-64242876D02*
X68277106Y-64266685D01*
X68277106Y-64266685D02*
X68253296Y-64314304D01*
X68253296Y-64314304D02*
X68253296Y-64361923D01*
X68253296Y-64361923D02*
X68491391Y-64409542D01*
X67967582Y-64528590D02*
X67943773Y-64552400D01*
X67943773Y-64552400D02*
X67967582Y-64576209D01*
X67967582Y-64576209D02*
X67991392Y-64552400D01*
X67991392Y-64552400D02*
X67967582Y-64528590D01*
X67967582Y-64528590D02*
X67967582Y-64576209D01*
X68062820Y-64100019D02*
X68015201Y-64076209D01*
X68015201Y-64076209D02*
X67896154Y-64076209D01*
X67896154Y-64076209D02*
X67848535Y-64100019D01*
X67848535Y-64100019D02*
X67824725Y-64147638D01*
X67824725Y-64147638D02*
X67824725Y-64195257D01*
X67824725Y-64195257D02*
X67848535Y-64242876D01*
X67848535Y-64242876D02*
X67872344Y-64266685D01*
X67872344Y-64266685D02*
X67919963Y-64290495D01*
X67919963Y-64290495D02*
X67943773Y-64314304D01*
X67943773Y-64314304D02*
X67967582Y-64361923D01*
X67967582Y-64361923D02*
X67967582Y-64385733D01*
D11*
%TO.C,REF\u002A\u002A*%
X66420000Y-47340000D02*
X66420000Y-51073800D01*
X66420000Y-51073800D02*
X66420000Y-54807600D01*
X66420000Y-54807600D02*
X65886600Y-54807600D01*
X65886600Y-47340000D02*
X66420000Y-47340000D01*
X65886600Y-54807600D02*
X65353200Y-54807600D01*
X65353200Y-47340000D02*
X65886600Y-47340000D01*
X65353200Y-48879865D02*
X65353200Y-47340000D01*
X65353200Y-50419731D02*
X65353200Y-48879865D01*
X65353200Y-51740190D02*
X65007423Y-52058917D01*
X65353200Y-53273895D02*
X65353200Y-51740190D01*
X65353200Y-54807600D02*
X65353200Y-53273895D01*
X65020894Y-50093598D02*
X65353200Y-50419731D01*
X65007423Y-52058917D02*
X64852870Y-52191283D01*
X64694478Y-50960567D02*
X64567005Y-50761219D01*
X64567475Y-51386381D02*
X64700996Y-51176988D01*
X64567005Y-50761219D02*
X64390409Y-50502300D01*
X64391350Y-51645300D02*
X64567475Y-51386381D01*
X64390409Y-50502300D02*
X63824055Y-50522184D01*
X63973078Y-49901140D02*
X64367519Y-49810193D01*
X63824055Y-50522184D02*
X63257700Y-50542068D01*
X63821027Y-51620392D02*
X64391350Y-51645300D01*
X63709013Y-52409745D02*
X63406659Y-52763284D01*
X63406659Y-52763284D02*
X63209386Y-53004444D01*
X63313207Y-49265820D02*
X63559881Y-49562199D01*
X63257700Y-50542068D02*
X62806805Y-49683984D01*
X63250705Y-51595483D02*
X63821027Y-51620392D01*
X63209386Y-53004444D02*
X62987933Y-53267544D01*
X62987933Y-53267544D02*
X62776095Y-53513157D01*
X62841619Y-52382392D02*
X63250705Y-51595483D01*
X62806805Y-49683984D02*
X62439222Y-49007027D01*
X62776095Y-53513157D02*
X62611923Y-53696071D01*
X62719484Y-48577011D02*
X63313207Y-49265820D01*
X62465697Y-53081195D02*
X62841619Y-52382392D01*
X62439222Y-49007027D02*
X62149998Y-48531159D01*
X62159098Y-53592291D02*
X62465697Y-53081195D01*
X62114796Y-47974979D02*
X62719484Y-48577011D01*
X62110354Y-54159652D02*
X61870133Y-54359656D01*
X62109707Y-53662270D02*
X62159098Y-53592291D01*
X61873640Y-48148670D02*
X61596672Y-47826621D01*
X61873336Y-53997166D02*
X62109707Y-53662270D01*
X61870133Y-54359656D02*
X61447269Y-54681611D01*
X61599015Y-47535006D02*
X62114796Y-47974979D01*
X61596672Y-47826621D02*
X61554986Y-47778150D01*
X61554986Y-47778150D02*
X61430837Y-47639210D01*
X61438560Y-54501043D02*
X61705709Y-54203140D01*
X61430837Y-47639210D02*
X61339021Y-47522561D01*
X61403727Y-54545098D02*
X61438560Y-54501043D01*
X61343259Y-54621574D02*
X61403727Y-54545098D01*
X64783333Y-49891112D02*
G75*
G02*
X65020890Y-50093602I-1321533J-1790988D01*
G01*
X64594588Y-49809370D02*
G75*
G02*
X64783331Y-49891115I-82488J-449230D01*
G01*
X64694478Y-50960567D02*
G75*
G02*
X64729411Y-51073746I-166378J-113333D01*
G01*
X64852870Y-52191283D02*
G75*
G02*
X64718270Y-52283763I-729170J917083D01*
G01*
X64729411Y-51073746D02*
G75*
G02*
X64700997Y-51176988I-201211J-154D01*
G01*
X64718268Y-52283760D02*
G75*
G02*
X64607443Y-52336620I-357568J607060D01*
G01*
X64367519Y-49810193D02*
G75*
G02*
X64594588Y-49809369I115731J-605187D01*
G01*
X64607442Y-52336616D02*
G75*
G02*
X64531180Y-52339361I-42242J112816D01*
G01*
X64128929Y-52241437D02*
G75*
G02*
X64531172Y-52339387I-853929J-4381663D01*
G01*
X63916369Y-52259337D02*
G75*
G02*
X64128929Y-52241435I137831J-365663D01*
G01*
X63709013Y-52409745D02*
G75*
G02*
X63916361Y-52259315I378687J-303855D01*
G01*
X63973078Y-49901140D02*
G75*
G02*
X63891916Y-49884998I-24278J90040D01*
G01*
X63891915Y-49884999D02*
G75*
G02*
X63748042Y-49761019I1051685J1365899D01*
G01*
X63748042Y-49761019D02*
G75*
G02*
X63559881Y-49562199I2041050J2120074D01*
G01*
X61596672Y-47826621D02*
G75*
G02*
X62150002Y-48531156I-3877372J-3614779D01*
G01*
X62611923Y-53696071D02*
G75*
G02*
X62110357Y-54159656I-3162123J2918071D01*
G01*
X62109707Y-53662270D02*
G75*
G02*
X61705706Y-54203138I-4143907J2673970D01*
G01*
X61293539Y-47416200D02*
G75*
G02*
X61598993Y-47535030I-39J-452100D01*
G01*
X61284247Y-54711074D02*
G75*
G02*
X61403727Y-54545098I1021053J-609026D01*
G01*
X61447269Y-54681611D02*
G75*
G02*
X61295790Y-54731399I-151469J205511D01*
G01*
X61282278Y-47435948D02*
G75*
G02*
X61293539Y-47416257I11222J6648D01*
G01*
X61295790Y-54731400D02*
G75*
G02*
X61284233Y-54711066I-90J13400D01*
G01*
X61339021Y-47522561D02*
G75*
G02*
X61282276Y-47435949I919879J664561D01*
G01*
D12*
X66420000Y-54807600D02*
X65353200Y-54807600D01*
X65353200Y-51740190D01*
X65007423Y-52058917D01*
X64852870Y-52180834D01*
X64784046Y-52239867D01*
X64718257Y-52283760D01*
X64664009Y-52312603D01*
X64607442Y-52336613D01*
X64569535Y-52350821D01*
X64531171Y-52339384D01*
X64331187Y-52285744D01*
X64128924Y-52241437D01*
X64021404Y-52235602D01*
X63916369Y-52259337D01*
X63814790Y-52312068D01*
X63709013Y-52409745D01*
X63406659Y-52763284D01*
X62776095Y-53513157D01*
X62456869Y-53855610D01*
X61990243Y-54259654D01*
X61870133Y-54359656D01*
X61447269Y-54681612D01*
X61330000Y-54731400D01*
X61295790Y-54731383D01*
X61284077Y-54724636D01*
X61284205Y-54711145D01*
X61343259Y-54621574D01*
X61438560Y-54501043D01*
X61572134Y-54352092D01*
X61743580Y-54181013D01*
X62109707Y-53662270D01*
X62312397Y-53336743D01*
X62465697Y-53081195D01*
X62653658Y-52743950D01*
X63250705Y-51595483D01*
X64391350Y-51645300D01*
X64634235Y-51281684D01*
X64701013Y-51176988D01*
X64722195Y-51127315D01*
X64729411Y-51073900D01*
X64722116Y-51020199D01*
X64390410Y-50502300D01*
X63257700Y-50542068D01*
X62806805Y-49683984D01*
X62590000Y-49290000D01*
X62428268Y-49007027D01*
X62270000Y-48730000D01*
X62050000Y-48390000D01*
X61735156Y-47987645D01*
X61554986Y-47778150D01*
X61430837Y-47639210D01*
X61384929Y-47581870D01*
X61360000Y-47550000D01*
X61339021Y-47522561D01*
X61309650Y-47479882D01*
X61282170Y-47435875D01*
X61282170Y-47422725D01*
X61293539Y-47416200D01*
X61350000Y-47420000D01*
X61400000Y-47430000D01*
X61442451Y-47441407D01*
X61540000Y-47490000D01*
X61599015Y-47535006D01*
X61720000Y-47640000D01*
X61856905Y-47754992D01*
X62020000Y-47890000D01*
X62114796Y-47974979D01*
X62210000Y-48070000D01*
X62270000Y-48130000D01*
X62417140Y-48275995D01*
X62719484Y-48577011D01*
X63016345Y-48921415D01*
X63120000Y-49040000D01*
X63313207Y-49265820D01*
X63559881Y-49562199D01*
X63651676Y-49663827D01*
X63748042Y-49761019D01*
X63818270Y-49824991D01*
X63891915Y-49884999D01*
X63930646Y-49902573D01*
X63966372Y-49902686D01*
X64367519Y-49810193D01*
X64481012Y-49799233D01*
X64594578Y-49809370D01*
X64693621Y-49839479D01*
X64783333Y-49891112D01*
X64913497Y-49988196D01*
X65353200Y-50419731D01*
X65353200Y-47340000D01*
X66420000Y-47340000D01*
X66420000Y-54807600D01*
G36*
X66420000Y-54807600D02*
G01*
X65353200Y-54807600D01*
X65353200Y-51740190D01*
X65007423Y-52058917D01*
X64852870Y-52180834D01*
X64784046Y-52239867D01*
X64718257Y-52283760D01*
X64664009Y-52312603D01*
X64607442Y-52336613D01*
X64569535Y-52350821D01*
X64531171Y-52339384D01*
X64331187Y-52285744D01*
X64128924Y-52241437D01*
X64021404Y-52235602D01*
X63916369Y-52259337D01*
X63814790Y-52312068D01*
X63709013Y-52409745D01*
X63406659Y-52763284D01*
X62776095Y-53513157D01*
X62456869Y-53855610D01*
X61990243Y-54259654D01*
X61870133Y-54359656D01*
X61447269Y-54681612D01*
X61330000Y-54731400D01*
X61295790Y-54731383D01*
X61284077Y-54724636D01*
X61284205Y-54711145D01*
X61343259Y-54621574D01*
X61438560Y-54501043D01*
X61572134Y-54352092D01*
X61743580Y-54181013D01*
X62109707Y-53662270D01*
X62312397Y-53336743D01*
X62465697Y-53081195D01*
X62653658Y-52743950D01*
X63250705Y-51595483D01*
X64391350Y-51645300D01*
X64634235Y-51281684D01*
X64701013Y-51176988D01*
X64722195Y-51127315D01*
X64729411Y-51073900D01*
X64722116Y-51020199D01*
X64390410Y-50502300D01*
X63257700Y-50542068D01*
X62806805Y-49683984D01*
X62590000Y-49290000D01*
X62428268Y-49007027D01*
X62270000Y-48730000D01*
X62050000Y-48390000D01*
X61735156Y-47987645D01*
X61554986Y-47778150D01*
X61430837Y-47639210D01*
X61384929Y-47581870D01*
X61360000Y-47550000D01*
X61339021Y-47522561D01*
X61309650Y-47479882D01*
X61282170Y-47435875D01*
X61282170Y-47422725D01*
X61293539Y-47416200D01*
X61350000Y-47420000D01*
X61400000Y-47430000D01*
X61442451Y-47441407D01*
X61540000Y-47490000D01*
X61599015Y-47535006D01*
X61720000Y-47640000D01*
X61856905Y-47754992D01*
X62020000Y-47890000D01*
X62114796Y-47974979D01*
X62210000Y-48070000D01*
X62270000Y-48130000D01*
X62417140Y-48275995D01*
X62719484Y-48577011D01*
X63016345Y-48921415D01*
X63120000Y-49040000D01*
X63313207Y-49265820D01*
X63559881Y-49562199D01*
X63651676Y-49663827D01*
X63748042Y-49761019D01*
X63818270Y-49824991D01*
X63891915Y-49884999D01*
X63930646Y-49902573D01*
X63966372Y-49902686D01*
X64367519Y-49810193D01*
X64481012Y-49799233D01*
X64594578Y-49809370D01*
X64693621Y-49839479D01*
X64783333Y-49891112D01*
X64913497Y-49988196D01*
X65353200Y-50419731D01*
X65353200Y-47340000D01*
X66420000Y-47340000D01*
X66420000Y-54807600D01*
G37*
%TD*%
M02*
