%TF.GenerationSoftware,KiCad,Pcbnew,9.0.5*%
%TF.CreationDate,2025-12-09T16:25:26-06:00*%
%TF.ProjectId,KBoardV1,4b426f61-7264-4563-912e-6b696361645f,rev?*%
%TF.SameCoordinates,Original*%
%TF.FileFunction,Legend,Bot*%
%TF.FilePolarity,Positive*%
%FSLAX46Y46*%
G04 Gerber Fmt 4.6, Leading zero omitted, Abs format (unit mm)*
G04 Created by KiCad (PCBNEW 9.0.5) date 2025-12-09 16:25:26*
%MOMM*%
%LPD*%
G01*
G04 APERTURE LIST*
%ADD10C,0.062500*%
%ADD11C,0.093750*%
%ADD12C,0.081250*%
%ADD13C,0.000600*%
%ADD14C,0.100000*%
G04 APERTURE END LIST*
D10*
X59270165Y-37494384D02*
X59270165Y-37994384D01*
X60079688Y-37518194D02*
X60032069Y-37494384D01*
X60032069Y-37494384D02*
X59936831Y-37494384D01*
X59936831Y-37494384D02*
X59889212Y-37518194D01*
X59889212Y-37518194D02*
X59865403Y-37565813D01*
X59865403Y-37565813D02*
X59865403Y-37756289D01*
X59865403Y-37756289D02*
X59889212Y-37803908D01*
X59889212Y-37803908D02*
X59936831Y-37827717D01*
X59936831Y-37827717D02*
X60032069Y-37827717D01*
X60032069Y-37827717D02*
X60079688Y-37803908D01*
X60079688Y-37803908D02*
X60103498Y-37756289D01*
X60103498Y-37756289D02*
X60103498Y-37708670D01*
X60103498Y-37708670D02*
X59865403Y-37661051D01*
X60317783Y-37827717D02*
X60317783Y-37494384D01*
X60317783Y-37780098D02*
X60341593Y-37803908D01*
X60341593Y-37803908D02*
X60389212Y-37827717D01*
X60389212Y-37827717D02*
X60460640Y-37827717D01*
X60460640Y-37827717D02*
X60508259Y-37803908D01*
X60508259Y-37803908D02*
X60532069Y-37756289D01*
X60532069Y-37756289D02*
X60532069Y-37494384D01*
X60984450Y-37494384D02*
X60984450Y-37994384D01*
X60984450Y-37518194D02*
X60936831Y-37494384D01*
X60936831Y-37494384D02*
X60841593Y-37494384D01*
X60841593Y-37494384D02*
X60793974Y-37518194D01*
X60793974Y-37518194D02*
X60770164Y-37542003D01*
X60770164Y-37542003D02*
X60746355Y-37589622D01*
X60746355Y-37589622D02*
X60746355Y-37732479D01*
X60746355Y-37732479D02*
X60770164Y-37780098D01*
X60770164Y-37780098D02*
X60793974Y-37803908D01*
X60793974Y-37803908D02*
X60841593Y-37827717D01*
X60841593Y-37827717D02*
X60936831Y-37827717D01*
X60936831Y-37827717D02*
X60984450Y-37803908D01*
X61436831Y-37827717D02*
X61436831Y-37494384D01*
X61222545Y-37827717D02*
X61222545Y-37565813D01*
X61222545Y-37565813D02*
X61246355Y-37518194D01*
X61246355Y-37518194D02*
X61293974Y-37494384D01*
X61293974Y-37494384D02*
X61365402Y-37494384D01*
X61365402Y-37494384D02*
X61413021Y-37518194D01*
X61413021Y-37518194D02*
X61436831Y-37542003D01*
X61674926Y-37494384D02*
X61674926Y-37827717D01*
X61674926Y-37732479D02*
X61698736Y-37780098D01*
X61698736Y-37780098D02*
X61722545Y-37803908D01*
X61722545Y-37803908D02*
X61770164Y-37827717D01*
X61770164Y-37827717D02*
X61817783Y-37827717D01*
X62174926Y-37518194D02*
X62127307Y-37494384D01*
X62127307Y-37494384D02*
X62032069Y-37494384D01*
X62032069Y-37494384D02*
X61984450Y-37518194D01*
X61984450Y-37518194D02*
X61960641Y-37565813D01*
X61960641Y-37565813D02*
X61960641Y-37756289D01*
X61960641Y-37756289D02*
X61984450Y-37803908D01*
X61984450Y-37803908D02*
X62032069Y-37827717D01*
X62032069Y-37827717D02*
X62127307Y-37827717D01*
X62127307Y-37827717D02*
X62174926Y-37803908D01*
X62174926Y-37803908D02*
X62198736Y-37756289D01*
X62198736Y-37756289D02*
X62198736Y-37708670D01*
X62198736Y-37708670D02*
X61960641Y-37661051D01*
X62722545Y-37827717D02*
X62913021Y-37827717D01*
X62793973Y-37994384D02*
X62793973Y-37565813D01*
X62793973Y-37565813D02*
X62817783Y-37518194D01*
X62817783Y-37518194D02*
X62865402Y-37494384D01*
X62865402Y-37494384D02*
X62913021Y-37494384D01*
X63079687Y-37494384D02*
X63079687Y-37994384D01*
X63293973Y-37494384D02*
X63293973Y-37756289D01*
X63293973Y-37756289D02*
X63270163Y-37803908D01*
X63270163Y-37803908D02*
X63222544Y-37827717D01*
X63222544Y-37827717D02*
X63151116Y-37827717D01*
X63151116Y-37827717D02*
X63103497Y-37803908D01*
X63103497Y-37803908D02*
X63079687Y-37780098D01*
X63603497Y-37494384D02*
X63555878Y-37518194D01*
X63555878Y-37518194D02*
X63532068Y-37542003D01*
X63532068Y-37542003D02*
X63508259Y-37589622D01*
X63508259Y-37589622D02*
X63508259Y-37732479D01*
X63508259Y-37732479D02*
X63532068Y-37780098D01*
X63532068Y-37780098D02*
X63555878Y-37803908D01*
X63555878Y-37803908D02*
X63603497Y-37827717D01*
X63603497Y-37827717D02*
X63674925Y-37827717D01*
X63674925Y-37827717D02*
X63722544Y-37803908D01*
X63722544Y-37803908D02*
X63746354Y-37780098D01*
X63746354Y-37780098D02*
X63770163Y-37732479D01*
X63770163Y-37732479D02*
X63770163Y-37589622D01*
X63770163Y-37589622D02*
X63746354Y-37542003D01*
X63746354Y-37542003D02*
X63722544Y-37518194D01*
X63722544Y-37518194D02*
X63674925Y-37494384D01*
X63674925Y-37494384D02*
X63603497Y-37494384D01*
X64198735Y-37827717D02*
X64198735Y-37494384D01*
X63984449Y-37827717D02*
X63984449Y-37565813D01*
X63984449Y-37565813D02*
X64008259Y-37518194D01*
X64008259Y-37518194D02*
X64055878Y-37494384D01*
X64055878Y-37494384D02*
X64127306Y-37494384D01*
X64127306Y-37494384D02*
X64174925Y-37518194D01*
X64174925Y-37518194D02*
X64198735Y-37542003D01*
X64413021Y-37518194D02*
X64460640Y-37494384D01*
X64460640Y-37494384D02*
X64555878Y-37494384D01*
X64555878Y-37494384D02*
X64603497Y-37518194D01*
X64603497Y-37518194D02*
X64627306Y-37565813D01*
X64627306Y-37565813D02*
X64627306Y-37589622D01*
X64627306Y-37589622D02*
X64603497Y-37637241D01*
X64603497Y-37637241D02*
X64555878Y-37661051D01*
X64555878Y-37661051D02*
X64484449Y-37661051D01*
X64484449Y-37661051D02*
X64436830Y-37684860D01*
X64436830Y-37684860D02*
X64413021Y-37732479D01*
X64413021Y-37732479D02*
X64413021Y-37756289D01*
X64413021Y-37756289D02*
X64436830Y-37803908D01*
X64436830Y-37803908D02*
X64484449Y-37827717D01*
X64484449Y-37827717D02*
X64555878Y-37827717D01*
X64555878Y-37827717D02*
X64603497Y-37803908D01*
X65055878Y-37494384D02*
X65055878Y-37756289D01*
X65055878Y-37756289D02*
X65032068Y-37803908D01*
X65032068Y-37803908D02*
X64984449Y-37827717D01*
X64984449Y-37827717D02*
X64889211Y-37827717D01*
X64889211Y-37827717D02*
X64841592Y-37803908D01*
X65055878Y-37518194D02*
X65008259Y-37494384D01*
X65008259Y-37494384D02*
X64889211Y-37494384D01*
X64889211Y-37494384D02*
X64841592Y-37518194D01*
X64841592Y-37518194D02*
X64817783Y-37565813D01*
X64817783Y-37565813D02*
X64817783Y-37613432D01*
X64817783Y-37613432D02*
X64841592Y-37661051D01*
X64841592Y-37661051D02*
X64889211Y-37684860D01*
X64889211Y-37684860D02*
X65008259Y-37684860D01*
X65008259Y-37684860D02*
X65055878Y-37708670D01*
X65293973Y-37827717D02*
X65293973Y-37494384D01*
X65293973Y-37780098D02*
X65317783Y-37803908D01*
X65317783Y-37803908D02*
X65365402Y-37827717D01*
X65365402Y-37827717D02*
X65436830Y-37827717D01*
X65436830Y-37827717D02*
X65484449Y-37803908D01*
X65484449Y-37803908D02*
X65508259Y-37756289D01*
X65508259Y-37756289D02*
X65508259Y-37494384D01*
X65960640Y-37494384D02*
X65960640Y-37994384D01*
X65960640Y-37518194D02*
X65913021Y-37494384D01*
X65913021Y-37494384D02*
X65817783Y-37494384D01*
X65817783Y-37494384D02*
X65770164Y-37518194D01*
X65770164Y-37518194D02*
X65746354Y-37542003D01*
X65746354Y-37542003D02*
X65722545Y-37589622D01*
X65722545Y-37589622D02*
X65722545Y-37732479D01*
X65722545Y-37732479D02*
X65746354Y-37780098D01*
X65746354Y-37780098D02*
X65770164Y-37803908D01*
X65770164Y-37803908D02*
X65817783Y-37827717D01*
X65817783Y-37827717D02*
X65913021Y-37827717D01*
X65913021Y-37827717D02*
X65960640Y-37803908D01*
X66174926Y-37518194D02*
X66222545Y-37494384D01*
X66222545Y-37494384D02*
X66317783Y-37494384D01*
X66317783Y-37494384D02*
X66365402Y-37518194D01*
X66365402Y-37518194D02*
X66389211Y-37565813D01*
X66389211Y-37565813D02*
X66389211Y-37589622D01*
X66389211Y-37589622D02*
X66365402Y-37637241D01*
X66365402Y-37637241D02*
X66317783Y-37661051D01*
X66317783Y-37661051D02*
X66246354Y-37661051D01*
X66246354Y-37661051D02*
X66198735Y-37684860D01*
X66198735Y-37684860D02*
X66174926Y-37732479D01*
X66174926Y-37732479D02*
X66174926Y-37756289D01*
X66174926Y-37756289D02*
X66198735Y-37803908D01*
X66198735Y-37803908D02*
X66246354Y-37827717D01*
X66246354Y-37827717D02*
X66317783Y-37827717D01*
X66317783Y-37827717D02*
X66365402Y-37803908D01*
X67055878Y-37494384D02*
X67008259Y-37518194D01*
X67008259Y-37518194D02*
X66984449Y-37542003D01*
X66984449Y-37542003D02*
X66960640Y-37589622D01*
X66960640Y-37589622D02*
X66960640Y-37732479D01*
X66960640Y-37732479D02*
X66984449Y-37780098D01*
X66984449Y-37780098D02*
X67008259Y-37803908D01*
X67008259Y-37803908D02*
X67055878Y-37827717D01*
X67055878Y-37827717D02*
X67127306Y-37827717D01*
X67127306Y-37827717D02*
X67174925Y-37803908D01*
X67174925Y-37803908D02*
X67198735Y-37780098D01*
X67198735Y-37780098D02*
X67222544Y-37732479D01*
X67222544Y-37732479D02*
X67222544Y-37589622D01*
X67222544Y-37589622D02*
X67198735Y-37542003D01*
X67198735Y-37542003D02*
X67174925Y-37518194D01*
X67174925Y-37518194D02*
X67127306Y-37494384D01*
X67127306Y-37494384D02*
X67055878Y-37494384D01*
X67365402Y-37827717D02*
X67555878Y-37827717D01*
X67436830Y-37494384D02*
X67436830Y-37922955D01*
X67436830Y-37922955D02*
X67460640Y-37970574D01*
X67460640Y-37970574D02*
X67508259Y-37994384D01*
X67508259Y-37994384D02*
X67555878Y-37994384D01*
X68317782Y-37518194D02*
X68270163Y-37494384D01*
X68270163Y-37494384D02*
X68174925Y-37494384D01*
X68174925Y-37494384D02*
X68127306Y-37518194D01*
X68127306Y-37518194D02*
X68103496Y-37542003D01*
X68103496Y-37542003D02*
X68079687Y-37589622D01*
X68079687Y-37589622D02*
X68079687Y-37732479D01*
X68079687Y-37732479D02*
X68103496Y-37780098D01*
X68103496Y-37780098D02*
X68127306Y-37803908D01*
X68127306Y-37803908D02*
X68174925Y-37827717D01*
X68174925Y-37827717D02*
X68270163Y-37827717D01*
X68270163Y-37827717D02*
X68317782Y-37803908D01*
X68484448Y-37827717D02*
X68603496Y-37494384D01*
X68722543Y-37827717D02*
X68603496Y-37494384D01*
X68603496Y-37494384D02*
X68555877Y-37375336D01*
X68555877Y-37375336D02*
X68532067Y-37351527D01*
X68532067Y-37351527D02*
X68484448Y-37327717D01*
X69127305Y-37518194D02*
X69079686Y-37494384D01*
X69079686Y-37494384D02*
X68984448Y-37494384D01*
X68984448Y-37494384D02*
X68936829Y-37518194D01*
X68936829Y-37518194D02*
X68913019Y-37542003D01*
X68913019Y-37542003D02*
X68889210Y-37589622D01*
X68889210Y-37589622D02*
X68889210Y-37732479D01*
X68889210Y-37732479D02*
X68913019Y-37780098D01*
X68913019Y-37780098D02*
X68936829Y-37803908D01*
X68936829Y-37803908D02*
X68984448Y-37827717D01*
X68984448Y-37827717D02*
X69079686Y-37827717D01*
X69079686Y-37827717D02*
X69127305Y-37803908D01*
X69413019Y-37494384D02*
X69365400Y-37518194D01*
X69365400Y-37518194D02*
X69341590Y-37565813D01*
X69341590Y-37565813D02*
X69341590Y-37994384D01*
X69793971Y-37518194D02*
X69746352Y-37494384D01*
X69746352Y-37494384D02*
X69651114Y-37494384D01*
X69651114Y-37494384D02*
X69603495Y-37518194D01*
X69603495Y-37518194D02*
X69579686Y-37565813D01*
X69579686Y-37565813D02*
X69579686Y-37756289D01*
X69579686Y-37756289D02*
X69603495Y-37803908D01*
X69603495Y-37803908D02*
X69651114Y-37827717D01*
X69651114Y-37827717D02*
X69746352Y-37827717D01*
X69746352Y-37827717D02*
X69793971Y-37803908D01*
X69793971Y-37803908D02*
X69817781Y-37756289D01*
X69817781Y-37756289D02*
X69817781Y-37708670D01*
X69817781Y-37708670D02*
X69579686Y-37661051D01*
X70008257Y-37518194D02*
X70055876Y-37494384D01*
X70055876Y-37494384D02*
X70151114Y-37494384D01*
X70151114Y-37494384D02*
X70198733Y-37518194D01*
X70198733Y-37518194D02*
X70222542Y-37565813D01*
X70222542Y-37565813D02*
X70222542Y-37589622D01*
X70222542Y-37589622D02*
X70198733Y-37637241D01*
X70198733Y-37637241D02*
X70151114Y-37661051D01*
X70151114Y-37661051D02*
X70079685Y-37661051D01*
X70079685Y-37661051D02*
X70032066Y-37684860D01*
X70032066Y-37684860D02*
X70008257Y-37732479D01*
X70008257Y-37732479D02*
X70008257Y-37756289D01*
X70008257Y-37756289D02*
X70032066Y-37803908D01*
X70032066Y-37803908D02*
X70079685Y-37827717D01*
X70079685Y-37827717D02*
X70151114Y-37827717D01*
X70151114Y-37827717D02*
X70198733Y-37803908D01*
X59222546Y-37022745D02*
X59317784Y-36689412D01*
X59317784Y-36689412D02*
X59413022Y-36927507D01*
X59413022Y-36927507D02*
X59508260Y-36689412D01*
X59508260Y-36689412D02*
X59603498Y-37022745D01*
X59793975Y-36689412D02*
X59793975Y-37022745D01*
X59793975Y-37189412D02*
X59770166Y-37165602D01*
X59770166Y-37165602D02*
X59793975Y-37141793D01*
X59793975Y-37141793D02*
X59817785Y-37165602D01*
X59817785Y-37165602D02*
X59793975Y-37189412D01*
X59793975Y-37189412D02*
X59793975Y-37141793D01*
X59960642Y-37022745D02*
X60151118Y-37022745D01*
X60032070Y-37189412D02*
X60032070Y-36760841D01*
X60032070Y-36760841D02*
X60055880Y-36713222D01*
X60055880Y-36713222D02*
X60103499Y-36689412D01*
X60103499Y-36689412D02*
X60151118Y-36689412D01*
X60317784Y-36689412D02*
X60317784Y-37189412D01*
X60532070Y-36689412D02*
X60532070Y-36951317D01*
X60532070Y-36951317D02*
X60508260Y-36998936D01*
X60508260Y-36998936D02*
X60460641Y-37022745D01*
X60460641Y-37022745D02*
X60389213Y-37022745D01*
X60389213Y-37022745D02*
X60341594Y-36998936D01*
X60341594Y-36998936D02*
X60317784Y-36975126D01*
X60841594Y-36689412D02*
X60793975Y-36713222D01*
X60793975Y-36713222D02*
X60770165Y-36737031D01*
X60770165Y-36737031D02*
X60746356Y-36784650D01*
X60746356Y-36784650D02*
X60746356Y-36927507D01*
X60746356Y-36927507D02*
X60770165Y-36975126D01*
X60770165Y-36975126D02*
X60793975Y-36998936D01*
X60793975Y-36998936D02*
X60841594Y-37022745D01*
X60841594Y-37022745D02*
X60913022Y-37022745D01*
X60913022Y-37022745D02*
X60960641Y-36998936D01*
X60960641Y-36998936D02*
X60984451Y-36975126D01*
X60984451Y-36975126D02*
X61008260Y-36927507D01*
X61008260Y-36927507D02*
X61008260Y-36784650D01*
X61008260Y-36784650D02*
X60984451Y-36737031D01*
X60984451Y-36737031D02*
X60960641Y-36713222D01*
X60960641Y-36713222D02*
X60913022Y-36689412D01*
X60913022Y-36689412D02*
X60841594Y-36689412D01*
X61436832Y-37022745D02*
X61436832Y-36689412D01*
X61222546Y-37022745D02*
X61222546Y-36760841D01*
X61222546Y-36760841D02*
X61246356Y-36713222D01*
X61246356Y-36713222D02*
X61293975Y-36689412D01*
X61293975Y-36689412D02*
X61365403Y-36689412D01*
X61365403Y-36689412D02*
X61413022Y-36713222D01*
X61413022Y-36713222D02*
X61436832Y-36737031D01*
X61603499Y-37022745D02*
X61793975Y-37022745D01*
X61674927Y-37189412D02*
X61674927Y-36760841D01*
X61674927Y-36760841D02*
X61698737Y-36713222D01*
X61698737Y-36713222D02*
X61746356Y-36689412D01*
X61746356Y-36689412D02*
X61793975Y-36689412D01*
X62532069Y-36713222D02*
X62484450Y-36689412D01*
X62484450Y-36689412D02*
X62389212Y-36689412D01*
X62389212Y-36689412D02*
X62341593Y-36713222D01*
X62341593Y-36713222D02*
X62317784Y-36760841D01*
X62317784Y-36760841D02*
X62317784Y-36951317D01*
X62317784Y-36951317D02*
X62341593Y-36998936D01*
X62341593Y-36998936D02*
X62389212Y-37022745D01*
X62389212Y-37022745D02*
X62484450Y-37022745D01*
X62484450Y-37022745D02*
X62532069Y-36998936D01*
X62532069Y-36998936D02*
X62555879Y-36951317D01*
X62555879Y-36951317D02*
X62555879Y-36903698D01*
X62555879Y-36903698D02*
X62317784Y-36856079D01*
X62698736Y-37022745D02*
X62889212Y-37022745D01*
X62770164Y-36689412D02*
X62770164Y-37117983D01*
X62770164Y-37117983D02*
X62793974Y-37165602D01*
X62793974Y-37165602D02*
X62841593Y-37189412D01*
X62841593Y-37189412D02*
X62889212Y-37189412D01*
X62984450Y-37022745D02*
X63174926Y-37022745D01*
X63055878Y-36689412D02*
X63055878Y-37117983D01*
X63055878Y-37117983D02*
X63079688Y-37165602D01*
X63079688Y-37165602D02*
X63127307Y-37189412D01*
X63127307Y-37189412D02*
X63174926Y-37189412D01*
X63413021Y-36689412D02*
X63365402Y-36713222D01*
X63365402Y-36713222D02*
X63341592Y-36737031D01*
X63341592Y-36737031D02*
X63317783Y-36784650D01*
X63317783Y-36784650D02*
X63317783Y-36927507D01*
X63317783Y-36927507D02*
X63341592Y-36975126D01*
X63341592Y-36975126D02*
X63365402Y-36998936D01*
X63365402Y-36998936D02*
X63413021Y-37022745D01*
X63413021Y-37022745D02*
X63484449Y-37022745D01*
X63484449Y-37022745D02*
X63532068Y-36998936D01*
X63532068Y-36998936D02*
X63555878Y-36975126D01*
X63555878Y-36975126D02*
X63579687Y-36927507D01*
X63579687Y-36927507D02*
X63579687Y-36784650D01*
X63579687Y-36784650D02*
X63555878Y-36737031D01*
X63555878Y-36737031D02*
X63532068Y-36713222D01*
X63532068Y-36713222D02*
X63484449Y-36689412D01*
X63484449Y-36689412D02*
X63413021Y-36689412D01*
X63793973Y-36689412D02*
X63793973Y-37022745D01*
X63793973Y-36927507D02*
X63817783Y-36975126D01*
X63817783Y-36975126D02*
X63841592Y-36998936D01*
X63841592Y-36998936D02*
X63889211Y-37022745D01*
X63889211Y-37022745D02*
X63936830Y-37022745D01*
X64032069Y-37022745D02*
X64222545Y-37022745D01*
X64103497Y-37189412D02*
X64103497Y-36760841D01*
X64103497Y-36760841D02*
X64127307Y-36713222D01*
X64127307Y-36713222D02*
X64174926Y-36689412D01*
X64174926Y-36689412D02*
X64222545Y-36689412D01*
X64389211Y-36737031D02*
X64413021Y-36713222D01*
X64413021Y-36713222D02*
X64389211Y-36689412D01*
X64389211Y-36689412D02*
X64365402Y-36713222D01*
X64365402Y-36713222D02*
X64389211Y-36737031D01*
X64389211Y-36737031D02*
X64389211Y-36689412D01*
X65103496Y-36927507D02*
X65103496Y-36689412D01*
X64936830Y-37189412D02*
X65103496Y-36927507D01*
X65103496Y-36927507D02*
X65270163Y-37189412D01*
X65508258Y-36689412D02*
X65460639Y-36713222D01*
X65460639Y-36713222D02*
X65436829Y-36737031D01*
X65436829Y-36737031D02*
X65413020Y-36784650D01*
X65413020Y-36784650D02*
X65413020Y-36927507D01*
X65413020Y-36927507D02*
X65436829Y-36975126D01*
X65436829Y-36975126D02*
X65460639Y-36998936D01*
X65460639Y-36998936D02*
X65508258Y-37022745D01*
X65508258Y-37022745D02*
X65579686Y-37022745D01*
X65579686Y-37022745D02*
X65627305Y-36998936D01*
X65627305Y-36998936D02*
X65651115Y-36975126D01*
X65651115Y-36975126D02*
X65674924Y-36927507D01*
X65674924Y-36927507D02*
X65674924Y-36784650D01*
X65674924Y-36784650D02*
X65651115Y-36737031D01*
X65651115Y-36737031D02*
X65627305Y-36713222D01*
X65627305Y-36713222D02*
X65579686Y-36689412D01*
X65579686Y-36689412D02*
X65508258Y-36689412D01*
X66103496Y-37022745D02*
X66103496Y-36689412D01*
X65889210Y-37022745D02*
X65889210Y-36760841D01*
X65889210Y-36760841D02*
X65913020Y-36713222D01*
X65913020Y-36713222D02*
X65960639Y-36689412D01*
X65960639Y-36689412D02*
X66032067Y-36689412D01*
X66032067Y-36689412D02*
X66079686Y-36713222D01*
X66079686Y-36713222D02*
X66103496Y-36737031D01*
X66722543Y-37022745D02*
X66722543Y-36689412D01*
X66722543Y-36975126D02*
X66746353Y-36998936D01*
X66746353Y-36998936D02*
X66793972Y-37022745D01*
X66793972Y-37022745D02*
X66865400Y-37022745D01*
X66865400Y-37022745D02*
X66913019Y-36998936D01*
X66913019Y-36998936D02*
X66936829Y-36951317D01*
X66936829Y-36951317D02*
X66936829Y-36689412D01*
X67365400Y-36713222D02*
X67317781Y-36689412D01*
X67317781Y-36689412D02*
X67222543Y-36689412D01*
X67222543Y-36689412D02*
X67174924Y-36713222D01*
X67174924Y-36713222D02*
X67151115Y-36760841D01*
X67151115Y-36760841D02*
X67151115Y-36951317D01*
X67151115Y-36951317D02*
X67174924Y-36998936D01*
X67174924Y-36998936D02*
X67222543Y-37022745D01*
X67222543Y-37022745D02*
X67317781Y-37022745D01*
X67317781Y-37022745D02*
X67365400Y-36998936D01*
X67365400Y-36998936D02*
X67389210Y-36951317D01*
X67389210Y-36951317D02*
X67389210Y-36903698D01*
X67389210Y-36903698D02*
X67151115Y-36856079D01*
X67793971Y-36713222D02*
X67746352Y-36689412D01*
X67746352Y-36689412D02*
X67651114Y-36689412D01*
X67651114Y-36689412D02*
X67603495Y-36713222D01*
X67603495Y-36713222D02*
X67579686Y-36760841D01*
X67579686Y-36760841D02*
X67579686Y-36951317D01*
X67579686Y-36951317D02*
X67603495Y-36998936D01*
X67603495Y-36998936D02*
X67651114Y-37022745D01*
X67651114Y-37022745D02*
X67746352Y-37022745D01*
X67746352Y-37022745D02*
X67793971Y-36998936D01*
X67793971Y-36998936D02*
X67817781Y-36951317D01*
X67817781Y-36951317D02*
X67817781Y-36903698D01*
X67817781Y-36903698D02*
X67579686Y-36856079D01*
X68246352Y-36689412D02*
X68246352Y-37189412D01*
X68246352Y-36713222D02*
X68198733Y-36689412D01*
X68198733Y-36689412D02*
X68103495Y-36689412D01*
X68103495Y-36689412D02*
X68055876Y-36713222D01*
X68055876Y-36713222D02*
X68032066Y-36737031D01*
X68032066Y-36737031D02*
X68008257Y-36784650D01*
X68008257Y-36784650D02*
X68008257Y-36927507D01*
X68008257Y-36927507D02*
X68032066Y-36975126D01*
X68032066Y-36975126D02*
X68055876Y-36998936D01*
X68055876Y-36998936D02*
X68103495Y-37022745D01*
X68103495Y-37022745D02*
X68198733Y-37022745D01*
X68198733Y-37022745D02*
X68246352Y-36998936D01*
X69079685Y-36713222D02*
X69032066Y-36689412D01*
X69032066Y-36689412D02*
X68936828Y-36689412D01*
X68936828Y-36689412D02*
X68889209Y-36713222D01*
X68889209Y-36713222D02*
X68865399Y-36737031D01*
X68865399Y-36737031D02*
X68841590Y-36784650D01*
X68841590Y-36784650D02*
X68841590Y-36927507D01*
X68841590Y-36927507D02*
X68865399Y-36975126D01*
X68865399Y-36975126D02*
X68889209Y-36998936D01*
X68889209Y-36998936D02*
X68936828Y-37022745D01*
X68936828Y-37022745D02*
X69032066Y-37022745D01*
X69032066Y-37022745D02*
X69079685Y-36998936D01*
X69365399Y-36689412D02*
X69317780Y-36713222D01*
X69317780Y-36713222D02*
X69293970Y-36737031D01*
X69293970Y-36737031D02*
X69270161Y-36784650D01*
X69270161Y-36784650D02*
X69270161Y-36927507D01*
X69270161Y-36927507D02*
X69293970Y-36975126D01*
X69293970Y-36975126D02*
X69317780Y-36998936D01*
X69317780Y-36998936D02*
X69365399Y-37022745D01*
X69365399Y-37022745D02*
X69436827Y-37022745D01*
X69436827Y-37022745D02*
X69484446Y-36998936D01*
X69484446Y-36998936D02*
X69508256Y-36975126D01*
X69508256Y-36975126D02*
X69532065Y-36927507D01*
X69532065Y-36927507D02*
X69532065Y-36784650D01*
X69532065Y-36784650D02*
X69508256Y-36737031D01*
X69508256Y-36737031D02*
X69484446Y-36713222D01*
X69484446Y-36713222D02*
X69436827Y-36689412D01*
X69436827Y-36689412D02*
X69365399Y-36689412D01*
X69674923Y-37022745D02*
X69865399Y-37022745D01*
X69746351Y-36689412D02*
X69746351Y-37117983D01*
X69746351Y-37117983D02*
X69770161Y-37165602D01*
X69770161Y-37165602D02*
X69817780Y-37189412D01*
X69817780Y-37189412D02*
X69865399Y-37189412D01*
X69960637Y-37022745D02*
X70151113Y-37022745D01*
X70032065Y-36689412D02*
X70032065Y-37117983D01*
X70032065Y-37117983D02*
X70055875Y-37165602D01*
X70055875Y-37165602D02*
X70103494Y-37189412D01*
X70103494Y-37189412D02*
X70151113Y-37189412D01*
X70508255Y-36713222D02*
X70460636Y-36689412D01*
X70460636Y-36689412D02*
X70365398Y-36689412D01*
X70365398Y-36689412D02*
X70317779Y-36713222D01*
X70317779Y-36713222D02*
X70293970Y-36760841D01*
X70293970Y-36760841D02*
X70293970Y-36951317D01*
X70293970Y-36951317D02*
X70317779Y-36998936D01*
X70317779Y-36998936D02*
X70365398Y-37022745D01*
X70365398Y-37022745D02*
X70460636Y-37022745D01*
X70460636Y-37022745D02*
X70508255Y-36998936D01*
X70508255Y-36998936D02*
X70532065Y-36951317D01*
X70532065Y-36951317D02*
X70532065Y-36903698D01*
X70532065Y-36903698D02*
X70293970Y-36856079D01*
X70936826Y-36713222D02*
X70889207Y-36689412D01*
X70889207Y-36689412D02*
X70793969Y-36689412D01*
X70793969Y-36689412D02*
X70746350Y-36713222D01*
X70746350Y-36713222D02*
X70722541Y-36760841D01*
X70722541Y-36760841D02*
X70722541Y-36951317D01*
X70722541Y-36951317D02*
X70746350Y-36998936D01*
X70746350Y-36998936D02*
X70793969Y-37022745D01*
X70793969Y-37022745D02*
X70889207Y-37022745D01*
X70889207Y-37022745D02*
X70936826Y-36998936D01*
X70936826Y-36998936D02*
X70960636Y-36951317D01*
X70960636Y-36951317D02*
X70960636Y-36903698D01*
X70960636Y-36903698D02*
X70722541Y-36856079D01*
X59198737Y-36217773D02*
X59389213Y-36217773D01*
X59270165Y-35884440D02*
X59270165Y-36313011D01*
X59270165Y-36313011D02*
X59293975Y-36360630D01*
X59293975Y-36360630D02*
X59341594Y-36384440D01*
X59341594Y-36384440D02*
X59389213Y-36384440D01*
X59627308Y-35884440D02*
X59579689Y-35908250D01*
X59579689Y-35908250D02*
X59555879Y-35932059D01*
X59555879Y-35932059D02*
X59532070Y-35979678D01*
X59532070Y-35979678D02*
X59532070Y-36122535D01*
X59532070Y-36122535D02*
X59555879Y-36170154D01*
X59555879Y-36170154D02*
X59579689Y-36193964D01*
X59579689Y-36193964D02*
X59627308Y-36217773D01*
X59627308Y-36217773D02*
X59698736Y-36217773D01*
X59698736Y-36217773D02*
X59746355Y-36193964D01*
X59746355Y-36193964D02*
X59770165Y-36170154D01*
X59770165Y-36170154D02*
X59793974Y-36122535D01*
X59793974Y-36122535D02*
X59793974Y-35979678D01*
X59793974Y-35979678D02*
X59770165Y-35932059D01*
X59770165Y-35932059D02*
X59746355Y-35908250D01*
X59746355Y-35908250D02*
X59698736Y-35884440D01*
X59698736Y-35884440D02*
X59627308Y-35884440D01*
X60008260Y-35884440D02*
X60008260Y-36217773D01*
X60008260Y-36122535D02*
X60032070Y-36170154D01*
X60032070Y-36170154D02*
X60055879Y-36193964D01*
X60055879Y-36193964D02*
X60103498Y-36217773D01*
X60103498Y-36217773D02*
X60151117Y-36217773D01*
X60698736Y-35884440D02*
X60698736Y-36384440D01*
X60698736Y-36193964D02*
X60746355Y-36217773D01*
X60746355Y-36217773D02*
X60841593Y-36217773D01*
X60841593Y-36217773D02*
X60889212Y-36193964D01*
X60889212Y-36193964D02*
X60913022Y-36170154D01*
X60913022Y-36170154D02*
X60936831Y-36122535D01*
X60936831Y-36122535D02*
X60936831Y-35979678D01*
X60936831Y-35979678D02*
X60913022Y-35932059D01*
X60913022Y-35932059D02*
X60889212Y-35908250D01*
X60889212Y-35908250D02*
X60841593Y-35884440D01*
X60841593Y-35884440D02*
X60746355Y-35884440D01*
X60746355Y-35884440D02*
X60698736Y-35908250D01*
X61365403Y-35884440D02*
X61365403Y-36146345D01*
X61365403Y-36146345D02*
X61341593Y-36193964D01*
X61341593Y-36193964D02*
X61293974Y-36217773D01*
X61293974Y-36217773D02*
X61198736Y-36217773D01*
X61198736Y-36217773D02*
X61151117Y-36193964D01*
X61365403Y-35908250D02*
X61317784Y-35884440D01*
X61317784Y-35884440D02*
X61198736Y-35884440D01*
X61198736Y-35884440D02*
X61151117Y-35908250D01*
X61151117Y-35908250D02*
X61127308Y-35955869D01*
X61127308Y-35955869D02*
X61127308Y-36003488D01*
X61127308Y-36003488D02*
X61151117Y-36051107D01*
X61151117Y-36051107D02*
X61198736Y-36074916D01*
X61198736Y-36074916D02*
X61317784Y-36074916D01*
X61317784Y-36074916D02*
X61365403Y-36098726D01*
X61579689Y-35908250D02*
X61627308Y-35884440D01*
X61627308Y-35884440D02*
X61722546Y-35884440D01*
X61722546Y-35884440D02*
X61770165Y-35908250D01*
X61770165Y-35908250D02*
X61793974Y-35955869D01*
X61793974Y-35955869D02*
X61793974Y-35979678D01*
X61793974Y-35979678D02*
X61770165Y-36027297D01*
X61770165Y-36027297D02*
X61722546Y-36051107D01*
X61722546Y-36051107D02*
X61651117Y-36051107D01*
X61651117Y-36051107D02*
X61603498Y-36074916D01*
X61603498Y-36074916D02*
X61579689Y-36122535D01*
X61579689Y-36122535D02*
X61579689Y-36146345D01*
X61579689Y-36146345D02*
X61603498Y-36193964D01*
X61603498Y-36193964D02*
X61651117Y-36217773D01*
X61651117Y-36217773D02*
X61722546Y-36217773D01*
X61722546Y-36217773D02*
X61770165Y-36193964D01*
X62008260Y-35884440D02*
X62008260Y-36217773D01*
X62008260Y-36384440D02*
X61984451Y-36360630D01*
X61984451Y-36360630D02*
X62008260Y-36336821D01*
X62008260Y-36336821D02*
X62032070Y-36360630D01*
X62032070Y-36360630D02*
X62008260Y-36384440D01*
X62008260Y-36384440D02*
X62008260Y-36336821D01*
X62460641Y-35908250D02*
X62413022Y-35884440D01*
X62413022Y-35884440D02*
X62317784Y-35884440D01*
X62317784Y-35884440D02*
X62270165Y-35908250D01*
X62270165Y-35908250D02*
X62246355Y-35932059D01*
X62246355Y-35932059D02*
X62222546Y-35979678D01*
X62222546Y-35979678D02*
X62222546Y-36122535D01*
X62222546Y-36122535D02*
X62246355Y-36170154D01*
X62246355Y-36170154D02*
X62270165Y-36193964D01*
X62270165Y-36193964D02*
X62317784Y-36217773D01*
X62317784Y-36217773D02*
X62413022Y-36217773D01*
X62413022Y-36217773D02*
X62460641Y-36193964D01*
X62984450Y-36217773D02*
X63174926Y-36217773D01*
X63055878Y-35884440D02*
X63055878Y-36313011D01*
X63055878Y-36313011D02*
X63079688Y-36360630D01*
X63079688Y-36360630D02*
X63127307Y-36384440D01*
X63127307Y-36384440D02*
X63174926Y-36384440D01*
X63555878Y-36217773D02*
X63555878Y-35884440D01*
X63341592Y-36217773D02*
X63341592Y-35955869D01*
X63341592Y-35955869D02*
X63365402Y-35908250D01*
X63365402Y-35908250D02*
X63413021Y-35884440D01*
X63413021Y-35884440D02*
X63484449Y-35884440D01*
X63484449Y-35884440D02*
X63532068Y-35908250D01*
X63532068Y-35908250D02*
X63555878Y-35932059D01*
X63793973Y-36217773D02*
X63793973Y-35884440D01*
X63793973Y-36170154D02*
X63817783Y-36193964D01*
X63817783Y-36193964D02*
X63865402Y-36217773D01*
X63865402Y-36217773D02*
X63936830Y-36217773D01*
X63936830Y-36217773D02*
X63984449Y-36193964D01*
X63984449Y-36193964D02*
X64008259Y-36146345D01*
X64008259Y-36146345D02*
X64008259Y-35884440D01*
X64460640Y-35908250D02*
X64413021Y-35884440D01*
X64413021Y-35884440D02*
X64317783Y-35884440D01*
X64317783Y-35884440D02*
X64270164Y-35908250D01*
X64270164Y-35908250D02*
X64246354Y-35932059D01*
X64246354Y-35932059D02*
X64222545Y-35979678D01*
X64222545Y-35979678D02*
X64222545Y-36122535D01*
X64222545Y-36122535D02*
X64246354Y-36170154D01*
X64246354Y-36170154D02*
X64270164Y-36193964D01*
X64270164Y-36193964D02*
X64317783Y-36217773D01*
X64317783Y-36217773D02*
X64413021Y-36217773D01*
X64413021Y-36217773D02*
X64460640Y-36193964D01*
X64603497Y-36217773D02*
X64793973Y-36217773D01*
X64674925Y-36384440D02*
X64674925Y-35955869D01*
X64674925Y-35955869D02*
X64698735Y-35908250D01*
X64698735Y-35908250D02*
X64746354Y-35884440D01*
X64746354Y-35884440D02*
X64793973Y-35884440D01*
X64960639Y-35884440D02*
X64960639Y-36217773D01*
X64960639Y-36384440D02*
X64936830Y-36360630D01*
X64936830Y-36360630D02*
X64960639Y-36336821D01*
X64960639Y-36336821D02*
X64984449Y-36360630D01*
X64984449Y-36360630D02*
X64960639Y-36384440D01*
X64960639Y-36384440D02*
X64960639Y-36336821D01*
X65270163Y-35884440D02*
X65222544Y-35908250D01*
X65222544Y-35908250D02*
X65198734Y-35932059D01*
X65198734Y-35932059D02*
X65174925Y-35979678D01*
X65174925Y-35979678D02*
X65174925Y-36122535D01*
X65174925Y-36122535D02*
X65198734Y-36170154D01*
X65198734Y-36170154D02*
X65222544Y-36193964D01*
X65222544Y-36193964D02*
X65270163Y-36217773D01*
X65270163Y-36217773D02*
X65341591Y-36217773D01*
X65341591Y-36217773D02*
X65389210Y-36193964D01*
X65389210Y-36193964D02*
X65413020Y-36170154D01*
X65413020Y-36170154D02*
X65436829Y-36122535D01*
X65436829Y-36122535D02*
X65436829Y-35979678D01*
X65436829Y-35979678D02*
X65413020Y-35932059D01*
X65413020Y-35932059D02*
X65389210Y-35908250D01*
X65389210Y-35908250D02*
X65341591Y-35884440D01*
X65341591Y-35884440D02*
X65270163Y-35884440D01*
X65651115Y-36217773D02*
X65651115Y-35884440D01*
X65651115Y-36170154D02*
X65674925Y-36193964D01*
X65674925Y-36193964D02*
X65722544Y-36217773D01*
X65722544Y-36217773D02*
X65793972Y-36217773D01*
X65793972Y-36217773D02*
X65841591Y-36193964D01*
X65841591Y-36193964D02*
X65865401Y-36146345D01*
X65865401Y-36146345D02*
X65865401Y-35884440D01*
X66103496Y-35932059D02*
X66127306Y-35908250D01*
X66127306Y-35908250D02*
X66103496Y-35884440D01*
X66103496Y-35884440D02*
X66079687Y-35908250D01*
X66079687Y-35908250D02*
X66103496Y-35932059D01*
X66103496Y-35932059D02*
X66103496Y-35884440D01*
D11*
X71593339Y-39990248D02*
X70843339Y-39990248D01*
X70843339Y-39990248D02*
X71379053Y-40240248D01*
X71379053Y-40240248D02*
X70843339Y-40490248D01*
X70843339Y-40490248D02*
X71593339Y-40490248D01*
X71093339Y-40775962D02*
X71593339Y-40954534D01*
X71093339Y-41133105D02*
X71593339Y-40954534D01*
X71593339Y-40954534D02*
X71771910Y-40883105D01*
X71771910Y-40883105D02*
X71807625Y-40847391D01*
X71807625Y-40847391D02*
X71843339Y-40775962D01*
X71093339Y-42311678D02*
X71593339Y-42311678D01*
X71093339Y-41990249D02*
X71486196Y-41990249D01*
X71486196Y-41990249D02*
X71557625Y-42025963D01*
X71557625Y-42025963D02*
X71593339Y-42097392D01*
X71593339Y-42097392D02*
X71593339Y-42204535D01*
X71593339Y-42204535D02*
X71557625Y-42275963D01*
X71557625Y-42275963D02*
X71521910Y-42311678D01*
X71093339Y-42668820D02*
X71843339Y-42668820D01*
X71129053Y-42668820D02*
X71093339Y-42740249D01*
X71093339Y-42740249D02*
X71093339Y-42883106D01*
X71093339Y-42883106D02*
X71129053Y-42954534D01*
X71129053Y-42954534D02*
X71164767Y-42990249D01*
X71164767Y-42990249D02*
X71236196Y-43025963D01*
X71236196Y-43025963D02*
X71450482Y-43025963D01*
X71450482Y-43025963D02*
X71521910Y-42990249D01*
X71521910Y-42990249D02*
X71557625Y-42954534D01*
X71557625Y-42954534D02*
X71593339Y-42883106D01*
X71593339Y-42883106D02*
X71593339Y-42740249D01*
X71593339Y-42740249D02*
X71557625Y-42668820D01*
X71093339Y-43240248D02*
X71093339Y-43525962D01*
X70843339Y-43347391D02*
X71486196Y-43347391D01*
X71486196Y-43347391D02*
X71557625Y-43383105D01*
X71557625Y-43383105D02*
X71593339Y-43454534D01*
X71593339Y-43454534D02*
X71593339Y-43525962D01*
X71593339Y-43775962D02*
X71093339Y-43775962D01*
X70843339Y-43775962D02*
X70879053Y-43740248D01*
X70879053Y-43740248D02*
X70914767Y-43775962D01*
X70914767Y-43775962D02*
X70879053Y-43811676D01*
X70879053Y-43811676D02*
X70843339Y-43775962D01*
X70843339Y-43775962D02*
X70914767Y-43775962D01*
X71593339Y-44133105D02*
X71093339Y-44133105D01*
X71164767Y-44133105D02*
X71129053Y-44168819D01*
X71129053Y-44168819D02*
X71093339Y-44240248D01*
X71093339Y-44240248D02*
X71093339Y-44347391D01*
X71093339Y-44347391D02*
X71129053Y-44418819D01*
X71129053Y-44418819D02*
X71200482Y-44454534D01*
X71200482Y-44454534D02*
X71593339Y-44454534D01*
X71200482Y-44454534D02*
X71129053Y-44490248D01*
X71129053Y-44490248D02*
X71093339Y-44561676D01*
X71093339Y-44561676D02*
X71093339Y-44668819D01*
X71093339Y-44668819D02*
X71129053Y-44740248D01*
X71129053Y-44740248D02*
X71200482Y-44775962D01*
X71200482Y-44775962D02*
X71593339Y-44775962D01*
X71557625Y-45418819D02*
X71593339Y-45347391D01*
X71593339Y-45347391D02*
X71593339Y-45204534D01*
X71593339Y-45204534D02*
X71557625Y-45133105D01*
X71557625Y-45133105D02*
X71486196Y-45097391D01*
X71486196Y-45097391D02*
X71200482Y-45097391D01*
X71200482Y-45097391D02*
X71129053Y-45133105D01*
X71129053Y-45133105D02*
X71093339Y-45204534D01*
X71093339Y-45204534D02*
X71093339Y-45347391D01*
X71093339Y-45347391D02*
X71129053Y-45418819D01*
X71129053Y-45418819D02*
X71200482Y-45454534D01*
X71200482Y-45454534D02*
X71271910Y-45454534D01*
X71271910Y-45454534D02*
X71343339Y-45097391D01*
X71593339Y-46347391D02*
X71093339Y-46347391D01*
X71164767Y-46347391D02*
X71129053Y-46383105D01*
X71129053Y-46383105D02*
X71093339Y-46454534D01*
X71093339Y-46454534D02*
X71093339Y-46561677D01*
X71093339Y-46561677D02*
X71129053Y-46633105D01*
X71129053Y-46633105D02*
X71200482Y-46668820D01*
X71200482Y-46668820D02*
X71593339Y-46668820D01*
X71200482Y-46668820D02*
X71129053Y-46704534D01*
X71129053Y-46704534D02*
X71093339Y-46775962D01*
X71093339Y-46775962D02*
X71093339Y-46883105D01*
X71093339Y-46883105D02*
X71129053Y-46954534D01*
X71129053Y-46954534D02*
X71200482Y-46990248D01*
X71200482Y-46990248D02*
X71593339Y-46990248D01*
X71593339Y-47454534D02*
X71557625Y-47383105D01*
X71557625Y-47383105D02*
X71521910Y-47347391D01*
X71521910Y-47347391D02*
X71450482Y-47311677D01*
X71450482Y-47311677D02*
X71236196Y-47311677D01*
X71236196Y-47311677D02*
X71164767Y-47347391D01*
X71164767Y-47347391D02*
X71129053Y-47383105D01*
X71129053Y-47383105D02*
X71093339Y-47454534D01*
X71093339Y-47454534D02*
X71093339Y-47561677D01*
X71093339Y-47561677D02*
X71129053Y-47633105D01*
X71129053Y-47633105D02*
X71164767Y-47668820D01*
X71164767Y-47668820D02*
X71236196Y-47704534D01*
X71236196Y-47704534D02*
X71450482Y-47704534D01*
X71450482Y-47704534D02*
X71521910Y-47668820D01*
X71521910Y-47668820D02*
X71557625Y-47633105D01*
X71557625Y-47633105D02*
X71593339Y-47561677D01*
X71593339Y-47561677D02*
X71593339Y-47454534D01*
X71557625Y-48347391D02*
X71593339Y-48275962D01*
X71593339Y-48275962D02*
X71593339Y-48133105D01*
X71593339Y-48133105D02*
X71557625Y-48061676D01*
X71557625Y-48061676D02*
X71521910Y-48025962D01*
X71521910Y-48025962D02*
X71450482Y-47990248D01*
X71450482Y-47990248D02*
X71236196Y-47990248D01*
X71236196Y-47990248D02*
X71164767Y-48025962D01*
X71164767Y-48025962D02*
X71129053Y-48061676D01*
X71129053Y-48061676D02*
X71093339Y-48133105D01*
X71093339Y-48133105D02*
X71093339Y-48275962D01*
X71093339Y-48275962D02*
X71129053Y-48347391D01*
X71593339Y-48668819D02*
X70843339Y-48668819D01*
X71307625Y-48740248D02*
X71593339Y-48954533D01*
X71093339Y-48954533D02*
X71379053Y-48668819D01*
X71557625Y-49240248D02*
X71593339Y-49311676D01*
X71593339Y-49311676D02*
X71593339Y-49454533D01*
X71593339Y-49454533D02*
X71557625Y-49525962D01*
X71557625Y-49525962D02*
X71486196Y-49561676D01*
X71486196Y-49561676D02*
X71450482Y-49561676D01*
X71450482Y-49561676D02*
X71379053Y-49525962D01*
X71379053Y-49525962D02*
X71343339Y-49454533D01*
X71343339Y-49454533D02*
X71343339Y-49347391D01*
X71343339Y-49347391D02*
X71307625Y-49275962D01*
X71307625Y-49275962D02*
X71236196Y-49240248D01*
X71236196Y-49240248D02*
X71200482Y-49240248D01*
X71200482Y-49240248D02*
X71129053Y-49275962D01*
X71129053Y-49275962D02*
X71093339Y-49347391D01*
X71093339Y-49347391D02*
X71093339Y-49454533D01*
X71093339Y-49454533D02*
X71129053Y-49525962D01*
X71093339Y-50383105D02*
X71593339Y-50561677D01*
X71093339Y-50740248D02*
X71593339Y-50561677D01*
X71593339Y-50561677D02*
X71771910Y-50490248D01*
X71771910Y-50490248D02*
X71807625Y-50454534D01*
X71807625Y-50454534D02*
X71843339Y-50383105D01*
X71593339Y-51133106D02*
X71557625Y-51061677D01*
X71557625Y-51061677D02*
X71521910Y-51025963D01*
X71521910Y-51025963D02*
X71450482Y-50990249D01*
X71450482Y-50990249D02*
X71236196Y-50990249D01*
X71236196Y-50990249D02*
X71164767Y-51025963D01*
X71164767Y-51025963D02*
X71129053Y-51061677D01*
X71129053Y-51061677D02*
X71093339Y-51133106D01*
X71093339Y-51133106D02*
X71093339Y-51240249D01*
X71093339Y-51240249D02*
X71129053Y-51311677D01*
X71129053Y-51311677D02*
X71164767Y-51347392D01*
X71164767Y-51347392D02*
X71236196Y-51383106D01*
X71236196Y-51383106D02*
X71450482Y-51383106D01*
X71450482Y-51383106D02*
X71521910Y-51347392D01*
X71521910Y-51347392D02*
X71557625Y-51311677D01*
X71557625Y-51311677D02*
X71593339Y-51240249D01*
X71593339Y-51240249D02*
X71593339Y-51133106D01*
X71093339Y-52025963D02*
X71593339Y-52025963D01*
X71093339Y-51704534D02*
X71486196Y-51704534D01*
X71486196Y-51704534D02*
X71557625Y-51740248D01*
X71557625Y-51740248D02*
X71593339Y-51811677D01*
X71593339Y-51811677D02*
X71593339Y-51918820D01*
X71593339Y-51918820D02*
X71557625Y-51990248D01*
X71557625Y-51990248D02*
X71521910Y-52025963D01*
X71593339Y-52383105D02*
X71093339Y-52383105D01*
X71236196Y-52383105D02*
X71164767Y-52418819D01*
X71164767Y-52418819D02*
X71129053Y-52454534D01*
X71129053Y-52454534D02*
X71093339Y-52525962D01*
X71093339Y-52525962D02*
X71093339Y-52597391D01*
X71593339Y-53525963D02*
X71557625Y-53454534D01*
X71557625Y-53454534D02*
X71486196Y-53418820D01*
X71486196Y-53418820D02*
X70843339Y-53418820D01*
X71593339Y-53811677D02*
X71093339Y-53811677D01*
X70843339Y-53811677D02*
X70879053Y-53775963D01*
X70879053Y-53775963D02*
X70914767Y-53811677D01*
X70914767Y-53811677D02*
X70879053Y-53847391D01*
X70879053Y-53847391D02*
X70843339Y-53811677D01*
X70843339Y-53811677D02*
X70914767Y-53811677D01*
X71093339Y-54061677D02*
X71093339Y-54347391D01*
X71593339Y-54168820D02*
X70950482Y-54168820D01*
X70950482Y-54168820D02*
X70879053Y-54204534D01*
X70879053Y-54204534D02*
X70843339Y-54275963D01*
X70843339Y-54275963D02*
X70843339Y-54347391D01*
X71557625Y-54883105D02*
X71593339Y-54811677D01*
X71593339Y-54811677D02*
X71593339Y-54668820D01*
X71593339Y-54668820D02*
X71557625Y-54597391D01*
X71557625Y-54597391D02*
X71486196Y-54561677D01*
X71486196Y-54561677D02*
X71200482Y-54561677D01*
X71200482Y-54561677D02*
X71129053Y-54597391D01*
X71129053Y-54597391D02*
X71093339Y-54668820D01*
X71093339Y-54668820D02*
X71093339Y-54811677D01*
X71093339Y-54811677D02*
X71129053Y-54883105D01*
X71129053Y-54883105D02*
X71200482Y-54918820D01*
X71200482Y-54918820D02*
X71271910Y-54918820D01*
X71271910Y-54918820D02*
X71343339Y-54561677D01*
X71557625Y-55204534D02*
X71593339Y-55275962D01*
X71593339Y-55275962D02*
X71593339Y-55418819D01*
X71593339Y-55418819D02*
X71557625Y-55490248D01*
X71557625Y-55490248D02*
X71486196Y-55525962D01*
X71486196Y-55525962D02*
X71450482Y-55525962D01*
X71450482Y-55525962D02*
X71379053Y-55490248D01*
X71379053Y-55490248D02*
X71343339Y-55418819D01*
X71343339Y-55418819D02*
X71343339Y-55311677D01*
X71343339Y-55311677D02*
X71307625Y-55240248D01*
X71307625Y-55240248D02*
X71236196Y-55204534D01*
X71236196Y-55204534D02*
X71200482Y-55204534D01*
X71200482Y-55204534D02*
X71129053Y-55240248D01*
X71129053Y-55240248D02*
X71093339Y-55311677D01*
X71093339Y-55311677D02*
X71093339Y-55418819D01*
X71093339Y-55418819D02*
X71129053Y-55490248D01*
X71093339Y-55847391D02*
X71843339Y-55847391D01*
X71129053Y-55847391D02*
X71093339Y-55918820D01*
X71093339Y-55918820D02*
X71093339Y-56061677D01*
X71093339Y-56061677D02*
X71129053Y-56133105D01*
X71129053Y-56133105D02*
X71164767Y-56168820D01*
X71164767Y-56168820D02*
X71236196Y-56204534D01*
X71236196Y-56204534D02*
X71450482Y-56204534D01*
X71450482Y-56204534D02*
X71521910Y-56168820D01*
X71521910Y-56168820D02*
X71557625Y-56133105D01*
X71557625Y-56133105D02*
X71593339Y-56061677D01*
X71593339Y-56061677D02*
X71593339Y-55918820D01*
X71593339Y-55918820D02*
X71557625Y-55847391D01*
X71593339Y-56847391D02*
X71200482Y-56847391D01*
X71200482Y-56847391D02*
X71129053Y-56811676D01*
X71129053Y-56811676D02*
X71093339Y-56740248D01*
X71093339Y-56740248D02*
X71093339Y-56597391D01*
X71093339Y-56597391D02*
X71129053Y-56525962D01*
X71557625Y-56847391D02*
X71593339Y-56775962D01*
X71593339Y-56775962D02*
X71593339Y-56597391D01*
X71593339Y-56597391D02*
X71557625Y-56525962D01*
X71557625Y-56525962D02*
X71486196Y-56490248D01*
X71486196Y-56490248D02*
X71414767Y-56490248D01*
X71414767Y-56490248D02*
X71343339Y-56525962D01*
X71343339Y-56525962D02*
X71307625Y-56597391D01*
X71307625Y-56597391D02*
X71307625Y-56775962D01*
X71307625Y-56775962D02*
X71271910Y-56847391D01*
X71093339Y-57204533D02*
X71593339Y-57204533D01*
X71164767Y-57204533D02*
X71129053Y-57240247D01*
X71129053Y-57240247D02*
X71093339Y-57311676D01*
X71093339Y-57311676D02*
X71093339Y-57418819D01*
X71093339Y-57418819D02*
X71129053Y-57490247D01*
X71129053Y-57490247D02*
X71200482Y-57525962D01*
X71200482Y-57525962D02*
X71593339Y-57525962D01*
X71521910Y-57883104D02*
X71557625Y-57918818D01*
X71557625Y-57918818D02*
X71593339Y-57883104D01*
X71593339Y-57883104D02*
X71557625Y-57847390D01*
X71557625Y-57847390D02*
X71521910Y-57883104D01*
X71521910Y-57883104D02*
X71593339Y-57883104D01*
D12*
X58003296Y-65257975D02*
X57693772Y-65257975D01*
X58343772Y-65474642D02*
X58003296Y-65257975D01*
X58003296Y-65257975D02*
X58343772Y-65041308D01*
X57693772Y-64731784D02*
X57724725Y-64793689D01*
X57724725Y-64793689D02*
X57755677Y-64824642D01*
X57755677Y-64824642D02*
X57817582Y-64855594D01*
X57817582Y-64855594D02*
X58003296Y-64855594D01*
X58003296Y-64855594D02*
X58065201Y-64824642D01*
X58065201Y-64824642D02*
X58096153Y-64793689D01*
X58096153Y-64793689D02*
X58127105Y-64731784D01*
X58127105Y-64731784D02*
X58127105Y-64638927D01*
X58127105Y-64638927D02*
X58096153Y-64577023D01*
X58096153Y-64577023D02*
X58065201Y-64546070D01*
X58065201Y-64546070D02*
X58003296Y-64515118D01*
X58003296Y-64515118D02*
X57817582Y-64515118D01*
X57817582Y-64515118D02*
X57755677Y-64546070D01*
X57755677Y-64546070D02*
X57724725Y-64577023D01*
X57724725Y-64577023D02*
X57693772Y-64638927D01*
X57693772Y-64638927D02*
X57693772Y-64731784D01*
X58127105Y-63957975D02*
X57693772Y-63957975D01*
X58127105Y-64236547D02*
X57786629Y-64236547D01*
X57786629Y-64236547D02*
X57724725Y-64205594D01*
X57724725Y-64205594D02*
X57693772Y-64143689D01*
X57693772Y-64143689D02*
X57693772Y-64050832D01*
X57693772Y-64050832D02*
X57724725Y-63988928D01*
X57724725Y-63988928D02*
X57755677Y-63957975D01*
X57693772Y-63648452D02*
X58127105Y-63648452D01*
X58003296Y-63648452D02*
X58065201Y-63617499D01*
X58065201Y-63617499D02*
X58096153Y-63586547D01*
X58096153Y-63586547D02*
X58127105Y-63524642D01*
X58127105Y-63524642D02*
X58127105Y-63462737D01*
X58127105Y-62843690D02*
X58127105Y-62596071D01*
X57693772Y-62750833D02*
X58250915Y-62750833D01*
X58250915Y-62750833D02*
X58312820Y-62719880D01*
X58312820Y-62719880D02*
X58343772Y-62657975D01*
X58343772Y-62657975D02*
X58343772Y-62596071D01*
X57693772Y-62379404D02*
X58127105Y-62379404D01*
X58003296Y-62379404D02*
X58065201Y-62348451D01*
X58065201Y-62348451D02*
X58096153Y-62317499D01*
X58096153Y-62317499D02*
X58127105Y-62255594D01*
X58127105Y-62255594D02*
X58127105Y-62193689D01*
X57693772Y-61698451D02*
X58034248Y-61698451D01*
X58034248Y-61698451D02*
X58096153Y-61729404D01*
X58096153Y-61729404D02*
X58127105Y-61791308D01*
X58127105Y-61791308D02*
X58127105Y-61915118D01*
X58127105Y-61915118D02*
X58096153Y-61977023D01*
X57724725Y-61698451D02*
X57693772Y-61760356D01*
X57693772Y-61760356D02*
X57693772Y-61915118D01*
X57693772Y-61915118D02*
X57724725Y-61977023D01*
X57724725Y-61977023D02*
X57786629Y-62007975D01*
X57786629Y-62007975D02*
X57848534Y-62007975D01*
X57848534Y-62007975D02*
X57910439Y-61977023D01*
X57910439Y-61977023D02*
X57941391Y-61915118D01*
X57941391Y-61915118D02*
X57941391Y-61760356D01*
X57941391Y-61760356D02*
X57972344Y-61698451D01*
X58127105Y-61110356D02*
X57600915Y-61110356D01*
X57600915Y-61110356D02*
X57539010Y-61141309D01*
X57539010Y-61141309D02*
X57508058Y-61172261D01*
X57508058Y-61172261D02*
X57477105Y-61234166D01*
X57477105Y-61234166D02*
X57477105Y-61327023D01*
X57477105Y-61327023D02*
X57508058Y-61388928D01*
X57724725Y-61110356D02*
X57693772Y-61172261D01*
X57693772Y-61172261D02*
X57693772Y-61296070D01*
X57693772Y-61296070D02*
X57724725Y-61357975D01*
X57724725Y-61357975D02*
X57755677Y-61388928D01*
X57755677Y-61388928D02*
X57817582Y-61419880D01*
X57817582Y-61419880D02*
X58003296Y-61419880D01*
X58003296Y-61419880D02*
X58065201Y-61388928D01*
X58065201Y-61388928D02*
X58096153Y-61357975D01*
X58096153Y-61357975D02*
X58127105Y-61296070D01*
X58127105Y-61296070D02*
X58127105Y-61172261D01*
X58127105Y-61172261D02*
X58096153Y-61110356D01*
X57693772Y-60800833D02*
X58127105Y-60800833D01*
X58343772Y-60800833D02*
X58312820Y-60831785D01*
X58312820Y-60831785D02*
X58281867Y-60800833D01*
X58281867Y-60800833D02*
X58312820Y-60769880D01*
X58312820Y-60769880D02*
X58343772Y-60800833D01*
X58343772Y-60800833D02*
X58281867Y-60800833D01*
X57693772Y-60398451D02*
X57724725Y-60460356D01*
X57724725Y-60460356D02*
X57786629Y-60491309D01*
X57786629Y-60491309D02*
X58343772Y-60491309D01*
X57724725Y-59903214D02*
X57693772Y-59965118D01*
X57693772Y-59965118D02*
X57693772Y-60088928D01*
X57693772Y-60088928D02*
X57724725Y-60150833D01*
X57724725Y-60150833D02*
X57786629Y-60181785D01*
X57786629Y-60181785D02*
X58034248Y-60181785D01*
X58034248Y-60181785D02*
X58096153Y-60150833D01*
X58096153Y-60150833D02*
X58127105Y-60088928D01*
X58127105Y-60088928D02*
X58127105Y-59965118D01*
X58127105Y-59965118D02*
X58096153Y-59903214D01*
X58096153Y-59903214D02*
X58034248Y-59872261D01*
X58034248Y-59872261D02*
X57972344Y-59872261D01*
X57972344Y-59872261D02*
X57910439Y-60181785D01*
X57693772Y-59098452D02*
X58343772Y-59098452D01*
X57693772Y-58819880D02*
X58034248Y-58819880D01*
X58034248Y-58819880D02*
X58096153Y-58850833D01*
X58096153Y-58850833D02*
X58127105Y-58912737D01*
X58127105Y-58912737D02*
X58127105Y-59005594D01*
X58127105Y-59005594D02*
X58096153Y-59067499D01*
X58096153Y-59067499D02*
X58065201Y-59098452D01*
X57693772Y-58231785D02*
X58034248Y-58231785D01*
X58034248Y-58231785D02*
X58096153Y-58262738D01*
X58096153Y-58262738D02*
X58127105Y-58324642D01*
X58127105Y-58324642D02*
X58127105Y-58448452D01*
X58127105Y-58448452D02*
X58096153Y-58510357D01*
X57724725Y-58231785D02*
X57693772Y-58293690D01*
X57693772Y-58293690D02*
X57693772Y-58448452D01*
X57693772Y-58448452D02*
X57724725Y-58510357D01*
X57724725Y-58510357D02*
X57786629Y-58541309D01*
X57786629Y-58541309D02*
X57848534Y-58541309D01*
X57848534Y-58541309D02*
X57910439Y-58510357D01*
X57910439Y-58510357D02*
X57941391Y-58448452D01*
X57941391Y-58448452D02*
X57941391Y-58293690D01*
X57941391Y-58293690D02*
X57972344Y-58231785D01*
X58127105Y-57922262D02*
X57693772Y-57922262D01*
X58065201Y-57922262D02*
X58096153Y-57891309D01*
X58096153Y-57891309D02*
X58127105Y-57829404D01*
X58127105Y-57829404D02*
X58127105Y-57736547D01*
X58127105Y-57736547D02*
X58096153Y-57674643D01*
X58096153Y-57674643D02*
X58034248Y-57643690D01*
X58034248Y-57643690D02*
X57693772Y-57643690D01*
X57693772Y-57055595D02*
X58343772Y-57055595D01*
X57724725Y-57055595D02*
X57693772Y-57117500D01*
X57693772Y-57117500D02*
X57693772Y-57241309D01*
X57693772Y-57241309D02*
X57724725Y-57303214D01*
X57724725Y-57303214D02*
X57755677Y-57334167D01*
X57755677Y-57334167D02*
X57817582Y-57365119D01*
X57817582Y-57365119D02*
X58003296Y-57365119D01*
X58003296Y-57365119D02*
X58065201Y-57334167D01*
X58065201Y-57334167D02*
X58096153Y-57303214D01*
X58096153Y-57303214D02*
X58127105Y-57241309D01*
X58127105Y-57241309D02*
X58127105Y-57117500D01*
X58127105Y-57117500D02*
X58096153Y-57055595D01*
X57724725Y-56777024D02*
X57693772Y-56715119D01*
X57693772Y-56715119D02*
X57693772Y-56591310D01*
X57693772Y-56591310D02*
X57724725Y-56529405D01*
X57724725Y-56529405D02*
X57786629Y-56498453D01*
X57786629Y-56498453D02*
X57817582Y-56498453D01*
X57817582Y-56498453D02*
X57879486Y-56529405D01*
X57879486Y-56529405D02*
X57910439Y-56591310D01*
X57910439Y-56591310D02*
X57910439Y-56684167D01*
X57910439Y-56684167D02*
X57941391Y-56746072D01*
X57941391Y-56746072D02*
X58003296Y-56777024D01*
X58003296Y-56777024D02*
X58034248Y-56777024D01*
X58034248Y-56777024D02*
X58096153Y-56746072D01*
X58096153Y-56746072D02*
X58127105Y-56684167D01*
X58127105Y-56684167D02*
X58127105Y-56591310D01*
X58127105Y-56591310D02*
X58096153Y-56529405D01*
X57693772Y-55446072D02*
X58034248Y-55446072D01*
X58034248Y-55446072D02*
X58096153Y-55477025D01*
X58096153Y-55477025D02*
X58127105Y-55538929D01*
X58127105Y-55538929D02*
X58127105Y-55662739D01*
X58127105Y-55662739D02*
X58096153Y-55724644D01*
X57724725Y-55446072D02*
X57693772Y-55507977D01*
X57693772Y-55507977D02*
X57693772Y-55662739D01*
X57693772Y-55662739D02*
X57724725Y-55724644D01*
X57724725Y-55724644D02*
X57786629Y-55755596D01*
X57786629Y-55755596D02*
X57848534Y-55755596D01*
X57848534Y-55755596D02*
X57910439Y-55724644D01*
X57910439Y-55724644D02*
X57941391Y-55662739D01*
X57941391Y-55662739D02*
X57941391Y-55507977D01*
X57941391Y-55507977D02*
X57972344Y-55446072D01*
X57724725Y-55167501D02*
X57693772Y-55105596D01*
X57693772Y-55105596D02*
X57693772Y-54981787D01*
X57693772Y-54981787D02*
X57724725Y-54919882D01*
X57724725Y-54919882D02*
X57786629Y-54888930D01*
X57786629Y-54888930D02*
X57817582Y-54888930D01*
X57817582Y-54888930D02*
X57879486Y-54919882D01*
X57879486Y-54919882D02*
X57910439Y-54981787D01*
X57910439Y-54981787D02*
X57910439Y-55074644D01*
X57910439Y-55074644D02*
X57941391Y-55136549D01*
X57941391Y-55136549D02*
X58003296Y-55167501D01*
X58003296Y-55167501D02*
X58034248Y-55167501D01*
X58034248Y-55167501D02*
X58096153Y-55136549D01*
X58096153Y-55136549D02*
X58127105Y-55074644D01*
X58127105Y-55074644D02*
X58127105Y-54981787D01*
X58127105Y-54981787D02*
X58096153Y-54919882D01*
X57724725Y-54641311D02*
X57693772Y-54579406D01*
X57693772Y-54579406D02*
X57693772Y-54455597D01*
X57693772Y-54455597D02*
X57724725Y-54393692D01*
X57724725Y-54393692D02*
X57786629Y-54362740D01*
X57786629Y-54362740D02*
X57817582Y-54362740D01*
X57817582Y-54362740D02*
X57879486Y-54393692D01*
X57879486Y-54393692D02*
X57910439Y-54455597D01*
X57910439Y-54455597D02*
X57910439Y-54548454D01*
X57910439Y-54548454D02*
X57941391Y-54610359D01*
X57941391Y-54610359D02*
X58003296Y-54641311D01*
X58003296Y-54641311D02*
X58034248Y-54641311D01*
X58034248Y-54641311D02*
X58096153Y-54610359D01*
X58096153Y-54610359D02*
X58127105Y-54548454D01*
X58127105Y-54548454D02*
X58127105Y-54455597D01*
X58127105Y-54455597D02*
X58096153Y-54393692D01*
X57724725Y-53836550D02*
X57693772Y-53898454D01*
X57693772Y-53898454D02*
X57693772Y-54022264D01*
X57693772Y-54022264D02*
X57724725Y-54084169D01*
X57724725Y-54084169D02*
X57786629Y-54115121D01*
X57786629Y-54115121D02*
X58034248Y-54115121D01*
X58034248Y-54115121D02*
X58096153Y-54084169D01*
X58096153Y-54084169D02*
X58127105Y-54022264D01*
X58127105Y-54022264D02*
X58127105Y-53898454D01*
X58127105Y-53898454D02*
X58096153Y-53836550D01*
X58096153Y-53836550D02*
X58034248Y-53805597D01*
X58034248Y-53805597D02*
X57972344Y-53805597D01*
X57972344Y-53805597D02*
X57910439Y-54115121D01*
X57693772Y-53527026D02*
X58127105Y-53527026D01*
X58065201Y-53527026D02*
X58096153Y-53496073D01*
X58096153Y-53496073D02*
X58127105Y-53434168D01*
X58127105Y-53434168D02*
X58127105Y-53341311D01*
X58127105Y-53341311D02*
X58096153Y-53279407D01*
X58096153Y-53279407D02*
X58034248Y-53248454D01*
X58034248Y-53248454D02*
X57693772Y-53248454D01*
X58034248Y-53248454D02*
X58096153Y-53217502D01*
X58096153Y-53217502D02*
X58127105Y-53155597D01*
X58127105Y-53155597D02*
X58127105Y-53062740D01*
X58127105Y-53062740D02*
X58096153Y-53000835D01*
X58096153Y-53000835D02*
X58034248Y-52969883D01*
X58034248Y-52969883D02*
X57693772Y-52969883D01*
X57693772Y-52660359D02*
X58343772Y-52660359D01*
X58096153Y-52660359D02*
X58127105Y-52598454D01*
X58127105Y-52598454D02*
X58127105Y-52474644D01*
X58127105Y-52474644D02*
X58096153Y-52412740D01*
X58096153Y-52412740D02*
X58065201Y-52381787D01*
X58065201Y-52381787D02*
X58003296Y-52350835D01*
X58003296Y-52350835D02*
X57817582Y-52350835D01*
X57817582Y-52350835D02*
X57755677Y-52381787D01*
X57755677Y-52381787D02*
X57724725Y-52412740D01*
X57724725Y-52412740D02*
X57693772Y-52474644D01*
X57693772Y-52474644D02*
X57693772Y-52598454D01*
X57693772Y-52598454D02*
X57724725Y-52660359D01*
X57693772Y-51979406D02*
X57724725Y-52041311D01*
X57724725Y-52041311D02*
X57786629Y-52072264D01*
X57786629Y-52072264D02*
X58343772Y-52072264D01*
X57724725Y-51484169D02*
X57693772Y-51546073D01*
X57693772Y-51546073D02*
X57693772Y-51669883D01*
X57693772Y-51669883D02*
X57724725Y-51731788D01*
X57724725Y-51731788D02*
X57786629Y-51762740D01*
X57786629Y-51762740D02*
X58034248Y-51762740D01*
X58034248Y-51762740D02*
X58096153Y-51731788D01*
X58096153Y-51731788D02*
X58127105Y-51669883D01*
X58127105Y-51669883D02*
X58127105Y-51546073D01*
X58127105Y-51546073D02*
X58096153Y-51484169D01*
X58096153Y-51484169D02*
X58034248Y-51453216D01*
X58034248Y-51453216D02*
X57972344Y-51453216D01*
X57972344Y-51453216D02*
X57910439Y-51762740D01*
X58127105Y-50741311D02*
X57693772Y-50617502D01*
X57693772Y-50617502D02*
X58003296Y-50493692D01*
X58003296Y-50493692D02*
X57693772Y-50369883D01*
X57693772Y-50369883D02*
X58127105Y-50246073D01*
X57693772Y-49998455D02*
X58343772Y-49998455D01*
X57693772Y-49719883D02*
X58034248Y-49719883D01*
X58034248Y-49719883D02*
X58096153Y-49750836D01*
X58096153Y-49750836D02*
X58127105Y-49812740D01*
X58127105Y-49812740D02*
X58127105Y-49905597D01*
X58127105Y-49905597D02*
X58096153Y-49967502D01*
X58096153Y-49967502D02*
X58065201Y-49998455D01*
X57693772Y-49131788D02*
X58034248Y-49131788D01*
X58034248Y-49131788D02*
X58096153Y-49162741D01*
X58096153Y-49162741D02*
X58127105Y-49224645D01*
X58127105Y-49224645D02*
X58127105Y-49348455D01*
X58127105Y-49348455D02*
X58096153Y-49410360D01*
X57724725Y-49131788D02*
X57693772Y-49193693D01*
X57693772Y-49193693D02*
X57693772Y-49348455D01*
X57693772Y-49348455D02*
X57724725Y-49410360D01*
X57724725Y-49410360D02*
X57786629Y-49441312D01*
X57786629Y-49441312D02*
X57848534Y-49441312D01*
X57848534Y-49441312D02*
X57910439Y-49410360D01*
X57910439Y-49410360D02*
X57941391Y-49348455D01*
X57941391Y-49348455D02*
X57941391Y-49193693D01*
X57941391Y-49193693D02*
X57972344Y-49131788D01*
X58127105Y-48915122D02*
X58127105Y-48667503D01*
X58343772Y-48822265D02*
X57786629Y-48822265D01*
X57786629Y-48822265D02*
X57724725Y-48791312D01*
X57724725Y-48791312D02*
X57693772Y-48729407D01*
X57693772Y-48729407D02*
X57693772Y-48667503D01*
X58127105Y-48017502D02*
X57693772Y-47862740D01*
X58127105Y-47707979D02*
X57693772Y-47862740D01*
X57693772Y-47862740D02*
X57539010Y-47924645D01*
X57539010Y-47924645D02*
X57508058Y-47955598D01*
X57508058Y-47955598D02*
X57477105Y-48017502D01*
X57693772Y-47367502D02*
X57724725Y-47429407D01*
X57724725Y-47429407D02*
X57755677Y-47460360D01*
X57755677Y-47460360D02*
X57817582Y-47491312D01*
X57817582Y-47491312D02*
X58003296Y-47491312D01*
X58003296Y-47491312D02*
X58065201Y-47460360D01*
X58065201Y-47460360D02*
X58096153Y-47429407D01*
X58096153Y-47429407D02*
X58127105Y-47367502D01*
X58127105Y-47367502D02*
X58127105Y-47274645D01*
X58127105Y-47274645D02*
X58096153Y-47212741D01*
X58096153Y-47212741D02*
X58065201Y-47181788D01*
X58065201Y-47181788D02*
X58003296Y-47150836D01*
X58003296Y-47150836D02*
X57817582Y-47150836D01*
X57817582Y-47150836D02*
X57755677Y-47181788D01*
X57755677Y-47181788D02*
X57724725Y-47212741D01*
X57724725Y-47212741D02*
X57693772Y-47274645D01*
X57693772Y-47274645D02*
X57693772Y-47367502D01*
X58127105Y-46593693D02*
X57693772Y-46593693D01*
X58127105Y-46872265D02*
X57786629Y-46872265D01*
X57786629Y-46872265D02*
X57724725Y-46841312D01*
X57724725Y-46841312D02*
X57693772Y-46779407D01*
X57693772Y-46779407D02*
X57693772Y-46686550D01*
X57693772Y-46686550D02*
X57724725Y-46624646D01*
X57724725Y-46624646D02*
X57755677Y-46593693D01*
X57693772Y-46284170D02*
X58127105Y-46284170D01*
X58003296Y-46284170D02*
X58065201Y-46253217D01*
X58065201Y-46253217D02*
X58096153Y-46222265D01*
X58096153Y-46222265D02*
X58127105Y-46160360D01*
X58127105Y-46160360D02*
X58127105Y-46098455D01*
X57693772Y-45386551D02*
X58127105Y-45386551D01*
X58065201Y-45386551D02*
X58096153Y-45355598D01*
X58096153Y-45355598D02*
X58127105Y-45293693D01*
X58127105Y-45293693D02*
X58127105Y-45200836D01*
X58127105Y-45200836D02*
X58096153Y-45138932D01*
X58096153Y-45138932D02*
X58034248Y-45107979D01*
X58034248Y-45107979D02*
X57693772Y-45107979D01*
X58034248Y-45107979D02*
X58096153Y-45077027D01*
X58096153Y-45077027D02*
X58127105Y-45015122D01*
X58127105Y-45015122D02*
X58127105Y-44922265D01*
X58127105Y-44922265D02*
X58096153Y-44860360D01*
X58096153Y-44860360D02*
X58034248Y-44829408D01*
X58034248Y-44829408D02*
X57693772Y-44829408D01*
X57693772Y-44519884D02*
X58127105Y-44519884D01*
X58343772Y-44519884D02*
X58312820Y-44550836D01*
X58312820Y-44550836D02*
X58281867Y-44519884D01*
X58281867Y-44519884D02*
X58312820Y-44488931D01*
X58312820Y-44488931D02*
X58343772Y-44519884D01*
X58343772Y-44519884D02*
X58281867Y-44519884D01*
X58127105Y-44210360D02*
X57693772Y-44210360D01*
X58065201Y-44210360D02*
X58096153Y-44179407D01*
X58096153Y-44179407D02*
X58127105Y-44117502D01*
X58127105Y-44117502D02*
X58127105Y-44024645D01*
X58127105Y-44024645D02*
X58096153Y-43962741D01*
X58096153Y-43962741D02*
X58034248Y-43931788D01*
X58034248Y-43931788D02*
X57693772Y-43931788D01*
X57693772Y-43343693D02*
X58343772Y-43343693D01*
X57724725Y-43343693D02*
X57693772Y-43405598D01*
X57693772Y-43405598D02*
X57693772Y-43529407D01*
X57693772Y-43529407D02*
X57724725Y-43591312D01*
X57724725Y-43591312D02*
X57755677Y-43622265D01*
X57755677Y-43622265D02*
X57817582Y-43653217D01*
X57817582Y-43653217D02*
X58003296Y-43653217D01*
X58003296Y-43653217D02*
X58065201Y-43622265D01*
X58065201Y-43622265D02*
X58096153Y-43591312D01*
X58096153Y-43591312D02*
X58127105Y-43529407D01*
X58127105Y-43529407D02*
X58127105Y-43405598D01*
X58127105Y-43405598D02*
X58096153Y-43343693D01*
X57724725Y-42260360D02*
X57693772Y-42322265D01*
X57693772Y-42322265D02*
X57693772Y-42446074D01*
X57693772Y-42446074D02*
X57724725Y-42507979D01*
X57724725Y-42507979D02*
X57755677Y-42538932D01*
X57755677Y-42538932D02*
X57817582Y-42569884D01*
X57817582Y-42569884D02*
X58003296Y-42569884D01*
X58003296Y-42569884D02*
X58065201Y-42538932D01*
X58065201Y-42538932D02*
X58096153Y-42507979D01*
X58096153Y-42507979D02*
X58127105Y-42446074D01*
X58127105Y-42446074D02*
X58127105Y-42322265D01*
X58127105Y-42322265D02*
X58096153Y-42260360D01*
X57693772Y-41703217D02*
X58034248Y-41703217D01*
X58034248Y-41703217D02*
X58096153Y-41734170D01*
X58096153Y-41734170D02*
X58127105Y-41796074D01*
X58127105Y-41796074D02*
X58127105Y-41919884D01*
X58127105Y-41919884D02*
X58096153Y-41981789D01*
X57724725Y-41703217D02*
X57693772Y-41765122D01*
X57693772Y-41765122D02*
X57693772Y-41919884D01*
X57693772Y-41919884D02*
X57724725Y-41981789D01*
X57724725Y-41981789D02*
X57786629Y-42012741D01*
X57786629Y-42012741D02*
X57848534Y-42012741D01*
X57848534Y-42012741D02*
X57910439Y-41981789D01*
X57910439Y-41981789D02*
X57941391Y-41919884D01*
X57941391Y-41919884D02*
X57941391Y-41765122D01*
X57941391Y-41765122D02*
X57972344Y-41703217D01*
X58127105Y-41393694D02*
X57693772Y-41393694D01*
X58065201Y-41393694D02*
X58096153Y-41362741D01*
X58096153Y-41362741D02*
X58127105Y-41300836D01*
X58127105Y-41300836D02*
X58127105Y-41207979D01*
X58127105Y-41207979D02*
X58096153Y-41146075D01*
X58096153Y-41146075D02*
X58034248Y-41115122D01*
X58034248Y-41115122D02*
X57693772Y-41115122D01*
X58343772Y-40774646D02*
X58219963Y-40836551D01*
X58127105Y-40588932D02*
X58127105Y-40341313D01*
X58343772Y-40496075D02*
X57786629Y-40496075D01*
X57786629Y-40496075D02*
X57724725Y-40465122D01*
X57724725Y-40465122D02*
X57693772Y-40403217D01*
X57693772Y-40403217D02*
X57693772Y-40341313D01*
X57724725Y-39350836D02*
X57693772Y-39412741D01*
X57693772Y-39412741D02*
X57693772Y-39536550D01*
X57693772Y-39536550D02*
X57724725Y-39598455D01*
X57724725Y-39598455D02*
X57755677Y-39629408D01*
X57755677Y-39629408D02*
X57817582Y-39660360D01*
X57817582Y-39660360D02*
X58003296Y-39660360D01*
X58003296Y-39660360D02*
X58065201Y-39629408D01*
X58065201Y-39629408D02*
X58096153Y-39598455D01*
X58096153Y-39598455D02*
X58127105Y-39536550D01*
X58127105Y-39536550D02*
X58127105Y-39412741D01*
X58127105Y-39412741D02*
X58096153Y-39350836D01*
X57693772Y-38979407D02*
X57724725Y-39041312D01*
X57724725Y-39041312D02*
X57755677Y-39072265D01*
X57755677Y-39072265D02*
X57817582Y-39103217D01*
X57817582Y-39103217D02*
X58003296Y-39103217D01*
X58003296Y-39103217D02*
X58065201Y-39072265D01*
X58065201Y-39072265D02*
X58096153Y-39041312D01*
X58096153Y-39041312D02*
X58127105Y-38979407D01*
X58127105Y-38979407D02*
X58127105Y-38886550D01*
X58127105Y-38886550D02*
X58096153Y-38824646D01*
X58096153Y-38824646D02*
X58065201Y-38793693D01*
X58065201Y-38793693D02*
X58003296Y-38762741D01*
X58003296Y-38762741D02*
X57817582Y-38762741D01*
X57817582Y-38762741D02*
X57755677Y-38793693D01*
X57755677Y-38793693D02*
X57724725Y-38824646D01*
X57724725Y-38824646D02*
X57693772Y-38886550D01*
X57693772Y-38886550D02*
X57693772Y-38979407D01*
X57693772Y-38484170D02*
X58127105Y-38484170D01*
X58065201Y-38484170D02*
X58096153Y-38453217D01*
X58096153Y-38453217D02*
X58127105Y-38391312D01*
X58127105Y-38391312D02*
X58127105Y-38298455D01*
X58127105Y-38298455D02*
X58096153Y-38236551D01*
X58096153Y-38236551D02*
X58034248Y-38205598D01*
X58034248Y-38205598D02*
X57693772Y-38205598D01*
X58034248Y-38205598D02*
X58096153Y-38174646D01*
X58096153Y-38174646D02*
X58127105Y-38112741D01*
X58127105Y-38112741D02*
X58127105Y-38019884D01*
X58127105Y-38019884D02*
X58096153Y-37957979D01*
X58096153Y-37957979D02*
X58034248Y-37927027D01*
X58034248Y-37927027D02*
X57693772Y-37927027D01*
X58127105Y-37617503D02*
X57477105Y-37617503D01*
X58096153Y-37617503D02*
X58127105Y-37555598D01*
X58127105Y-37555598D02*
X58127105Y-37431788D01*
X58127105Y-37431788D02*
X58096153Y-37369884D01*
X58096153Y-37369884D02*
X58065201Y-37338931D01*
X58065201Y-37338931D02*
X58003296Y-37307979D01*
X58003296Y-37307979D02*
X57817582Y-37307979D01*
X57817582Y-37307979D02*
X57755677Y-37338931D01*
X57755677Y-37338931D02*
X57724725Y-37369884D01*
X57724725Y-37369884D02*
X57693772Y-37431788D01*
X57693772Y-37431788D02*
X57693772Y-37555598D01*
X57693772Y-37555598D02*
X57724725Y-37617503D01*
X57693772Y-37029408D02*
X58127105Y-37029408D01*
X58003296Y-37029408D02*
X58065201Y-36998455D01*
X58065201Y-36998455D02*
X58096153Y-36967503D01*
X58096153Y-36967503D02*
X58127105Y-36905598D01*
X58127105Y-36905598D02*
X58127105Y-36843693D01*
X57724725Y-36379408D02*
X57693772Y-36441312D01*
X57693772Y-36441312D02*
X57693772Y-36565122D01*
X57693772Y-36565122D02*
X57724725Y-36627027D01*
X57724725Y-36627027D02*
X57786629Y-36657979D01*
X57786629Y-36657979D02*
X58034248Y-36657979D01*
X58034248Y-36657979D02*
X58096153Y-36627027D01*
X58096153Y-36627027D02*
X58127105Y-36565122D01*
X58127105Y-36565122D02*
X58127105Y-36441312D01*
X58127105Y-36441312D02*
X58096153Y-36379408D01*
X58096153Y-36379408D02*
X58034248Y-36348455D01*
X58034248Y-36348455D02*
X57972344Y-36348455D01*
X57972344Y-36348455D02*
X57910439Y-36657979D01*
X57693772Y-36069884D02*
X58343772Y-36069884D01*
X57693772Y-35791312D02*
X58034248Y-35791312D01*
X58034248Y-35791312D02*
X58096153Y-35822265D01*
X58096153Y-35822265D02*
X58127105Y-35884169D01*
X58127105Y-35884169D02*
X58127105Y-35977026D01*
X58127105Y-35977026D02*
X58096153Y-36038931D01*
X58096153Y-36038931D02*
X58065201Y-36069884D01*
X57724725Y-35234170D02*
X57693772Y-35296074D01*
X57693772Y-35296074D02*
X57693772Y-35419884D01*
X57693772Y-35419884D02*
X57724725Y-35481789D01*
X57724725Y-35481789D02*
X57786629Y-35512741D01*
X57786629Y-35512741D02*
X58034248Y-35512741D01*
X58034248Y-35512741D02*
X58096153Y-35481789D01*
X58096153Y-35481789D02*
X58127105Y-35419884D01*
X58127105Y-35419884D02*
X58127105Y-35296074D01*
X58127105Y-35296074D02*
X58096153Y-35234170D01*
X58096153Y-35234170D02*
X58034248Y-35203217D01*
X58034248Y-35203217D02*
X57972344Y-35203217D01*
X57972344Y-35203217D02*
X57910439Y-35512741D01*
X58127105Y-34924646D02*
X57693772Y-34924646D01*
X58065201Y-34924646D02*
X58096153Y-34893693D01*
X58096153Y-34893693D02*
X58127105Y-34831788D01*
X58127105Y-34831788D02*
X58127105Y-34738931D01*
X58127105Y-34738931D02*
X58096153Y-34677027D01*
X58096153Y-34677027D02*
X58034248Y-34646074D01*
X58034248Y-34646074D02*
X57693772Y-34646074D01*
X57693772Y-34057979D02*
X58343772Y-34057979D01*
X57724725Y-34057979D02*
X57693772Y-34119884D01*
X57693772Y-34119884D02*
X57693772Y-34243693D01*
X57693772Y-34243693D02*
X57724725Y-34305598D01*
X57724725Y-34305598D02*
X57755677Y-34336551D01*
X57755677Y-34336551D02*
X57817582Y-34367503D01*
X57817582Y-34367503D02*
X58003296Y-34367503D01*
X58003296Y-34367503D02*
X58065201Y-34336551D01*
X58065201Y-34336551D02*
X58096153Y-34305598D01*
X58096153Y-34305598D02*
X58127105Y-34243693D01*
X58127105Y-34243693D02*
X58127105Y-34119884D01*
X58127105Y-34119884D02*
X58096153Y-34057979D01*
X57755677Y-33748456D02*
X57724725Y-33717503D01*
X57724725Y-33717503D02*
X57693772Y-33748456D01*
X57693772Y-33748456D02*
X57724725Y-33779408D01*
X57724725Y-33779408D02*
X57755677Y-33748456D01*
X57755677Y-33748456D02*
X57693772Y-33748456D01*
D10*
X71371739Y-61760643D02*
X71609834Y-61760643D01*
X71609834Y-61760643D02*
X71609834Y-61260643D01*
X71133643Y-61760643D02*
X71181262Y-61736834D01*
X71181262Y-61736834D02*
X71205072Y-61713024D01*
X71205072Y-61713024D02*
X71228881Y-61665405D01*
X71228881Y-61665405D02*
X71228881Y-61522548D01*
X71228881Y-61522548D02*
X71205072Y-61474929D01*
X71205072Y-61474929D02*
X71181262Y-61451119D01*
X71181262Y-61451119D02*
X71133643Y-61427310D01*
X71133643Y-61427310D02*
X71062215Y-61427310D01*
X71062215Y-61427310D02*
X71014596Y-61451119D01*
X71014596Y-61451119D02*
X70990786Y-61474929D01*
X70990786Y-61474929D02*
X70966977Y-61522548D01*
X70966977Y-61522548D02*
X70966977Y-61665405D01*
X70966977Y-61665405D02*
X70990786Y-61713024D01*
X70990786Y-61713024D02*
X71014596Y-61736834D01*
X71014596Y-61736834D02*
X71062215Y-61760643D01*
X71062215Y-61760643D02*
X71133643Y-61760643D01*
X70681262Y-61760643D02*
X70728881Y-61736834D01*
X70728881Y-61736834D02*
X70752691Y-61713024D01*
X70752691Y-61713024D02*
X70776500Y-61665405D01*
X70776500Y-61665405D02*
X70776500Y-61522548D01*
X70776500Y-61522548D02*
X70752691Y-61474929D01*
X70752691Y-61474929D02*
X70728881Y-61451119D01*
X70728881Y-61451119D02*
X70681262Y-61427310D01*
X70681262Y-61427310D02*
X70609834Y-61427310D01*
X70609834Y-61427310D02*
X70562215Y-61451119D01*
X70562215Y-61451119D02*
X70538405Y-61474929D01*
X70538405Y-61474929D02*
X70514596Y-61522548D01*
X70514596Y-61522548D02*
X70514596Y-61665405D01*
X70514596Y-61665405D02*
X70538405Y-61713024D01*
X70538405Y-61713024D02*
X70562215Y-61736834D01*
X70562215Y-61736834D02*
X70609834Y-61760643D01*
X70609834Y-61760643D02*
X70681262Y-61760643D01*
X70300310Y-61760643D02*
X70300310Y-61260643D01*
X70252691Y-61570167D02*
X70109834Y-61760643D01*
X70109834Y-61427310D02*
X70300310Y-61617786D01*
X69300310Y-61760643D02*
X69300310Y-61498738D01*
X69300310Y-61498738D02*
X69324120Y-61451119D01*
X69324120Y-61451119D02*
X69371739Y-61427310D01*
X69371739Y-61427310D02*
X69466977Y-61427310D01*
X69466977Y-61427310D02*
X69514596Y-61451119D01*
X69300310Y-61736834D02*
X69347929Y-61760643D01*
X69347929Y-61760643D02*
X69466977Y-61760643D01*
X69466977Y-61760643D02*
X69514596Y-61736834D01*
X69514596Y-61736834D02*
X69538405Y-61689214D01*
X69538405Y-61689214D02*
X69538405Y-61641595D01*
X69538405Y-61641595D02*
X69514596Y-61593976D01*
X69514596Y-61593976D02*
X69466977Y-61570167D01*
X69466977Y-61570167D02*
X69347929Y-61570167D01*
X69347929Y-61570167D02*
X69300310Y-61546357D01*
X69133643Y-61427310D02*
X68943167Y-61427310D01*
X69062215Y-61260643D02*
X69062215Y-61689214D01*
X69062215Y-61689214D02*
X69038405Y-61736834D01*
X69038405Y-61736834D02*
X68990786Y-61760643D01*
X68990786Y-61760643D02*
X68943167Y-61760643D01*
X68443168Y-61427310D02*
X68324120Y-61760643D01*
X68205073Y-61427310D02*
X68324120Y-61760643D01*
X68324120Y-61760643D02*
X68371739Y-61879691D01*
X68371739Y-61879691D02*
X68395549Y-61903500D01*
X68395549Y-61903500D02*
X68443168Y-61927310D01*
X67943168Y-61760643D02*
X67990787Y-61736834D01*
X67990787Y-61736834D02*
X68014597Y-61713024D01*
X68014597Y-61713024D02*
X68038406Y-61665405D01*
X68038406Y-61665405D02*
X68038406Y-61522548D01*
X68038406Y-61522548D02*
X68014597Y-61474929D01*
X68014597Y-61474929D02*
X67990787Y-61451119D01*
X67990787Y-61451119D02*
X67943168Y-61427310D01*
X67943168Y-61427310D02*
X67871740Y-61427310D01*
X67871740Y-61427310D02*
X67824121Y-61451119D01*
X67824121Y-61451119D02*
X67800311Y-61474929D01*
X67800311Y-61474929D02*
X67776502Y-61522548D01*
X67776502Y-61522548D02*
X67776502Y-61665405D01*
X67776502Y-61665405D02*
X67800311Y-61713024D01*
X67800311Y-61713024D02*
X67824121Y-61736834D01*
X67824121Y-61736834D02*
X67871740Y-61760643D01*
X67871740Y-61760643D02*
X67943168Y-61760643D01*
X67347930Y-61427310D02*
X67347930Y-61760643D01*
X67562216Y-61427310D02*
X67562216Y-61689214D01*
X67562216Y-61689214D02*
X67538406Y-61736834D01*
X67538406Y-61736834D02*
X67490787Y-61760643D01*
X67490787Y-61760643D02*
X67419359Y-61760643D01*
X67419359Y-61760643D02*
X67371740Y-61736834D01*
X67371740Y-61736834D02*
X67347930Y-61713024D01*
X67086025Y-61736834D02*
X67086025Y-61760643D01*
X67086025Y-61760643D02*
X67109835Y-61808262D01*
X67109835Y-61808262D02*
X67133644Y-61832072D01*
X66490788Y-61427310D02*
X66490788Y-61927310D01*
X66490788Y-61451119D02*
X66443169Y-61427310D01*
X66443169Y-61427310D02*
X66347931Y-61427310D01*
X66347931Y-61427310D02*
X66300312Y-61451119D01*
X66300312Y-61451119D02*
X66276502Y-61474929D01*
X66276502Y-61474929D02*
X66252693Y-61522548D01*
X66252693Y-61522548D02*
X66252693Y-61665405D01*
X66252693Y-61665405D02*
X66276502Y-61713024D01*
X66276502Y-61713024D02*
X66300312Y-61736834D01*
X66300312Y-61736834D02*
X66347931Y-61760643D01*
X66347931Y-61760643D02*
X66443169Y-61760643D01*
X66443169Y-61760643D02*
X66490788Y-61736834D01*
X65824121Y-61760643D02*
X65824121Y-61498738D01*
X65824121Y-61498738D02*
X65847931Y-61451119D01*
X65847931Y-61451119D02*
X65895550Y-61427310D01*
X65895550Y-61427310D02*
X65990788Y-61427310D01*
X65990788Y-61427310D02*
X66038407Y-61451119D01*
X65824121Y-61736834D02*
X65871740Y-61760643D01*
X65871740Y-61760643D02*
X65990788Y-61760643D01*
X65990788Y-61760643D02*
X66038407Y-61736834D01*
X66038407Y-61736834D02*
X66062216Y-61689214D01*
X66062216Y-61689214D02*
X66062216Y-61641595D01*
X66062216Y-61641595D02*
X66038407Y-61593976D01*
X66038407Y-61593976D02*
X65990788Y-61570167D01*
X65990788Y-61570167D02*
X65871740Y-61570167D01*
X65871740Y-61570167D02*
X65824121Y-61546357D01*
X65657454Y-61427310D02*
X65466978Y-61427310D01*
X65586026Y-61260643D02*
X65586026Y-61689214D01*
X65586026Y-61689214D02*
X65562216Y-61736834D01*
X65562216Y-61736834D02*
X65514597Y-61760643D01*
X65514597Y-61760643D02*
X65466978Y-61760643D01*
X65300312Y-61760643D02*
X65300312Y-61260643D01*
X65086026Y-61760643D02*
X65086026Y-61498738D01*
X65086026Y-61498738D02*
X65109836Y-61451119D01*
X65109836Y-61451119D02*
X65157455Y-61427310D01*
X65157455Y-61427310D02*
X65228883Y-61427310D01*
X65228883Y-61427310D02*
X65276502Y-61451119D01*
X65276502Y-61451119D02*
X65300312Y-61474929D01*
X64657455Y-61736834D02*
X64705074Y-61760643D01*
X64705074Y-61760643D02*
X64800312Y-61760643D01*
X64800312Y-61760643D02*
X64847931Y-61736834D01*
X64847931Y-61736834D02*
X64871740Y-61689214D01*
X64871740Y-61689214D02*
X64871740Y-61498738D01*
X64871740Y-61498738D02*
X64847931Y-61451119D01*
X64847931Y-61451119D02*
X64800312Y-61427310D01*
X64800312Y-61427310D02*
X64705074Y-61427310D01*
X64705074Y-61427310D02*
X64657455Y-61451119D01*
X64657455Y-61451119D02*
X64633645Y-61498738D01*
X64633645Y-61498738D02*
X64633645Y-61546357D01*
X64633645Y-61546357D02*
X64871740Y-61593976D01*
X64490788Y-61427310D02*
X64300312Y-61427310D01*
X64419360Y-61260643D02*
X64419360Y-61689214D01*
X64419360Y-61689214D02*
X64395550Y-61736834D01*
X64395550Y-61736834D02*
X64347931Y-61760643D01*
X64347931Y-61760643D02*
X64300312Y-61760643D01*
X64133646Y-61760643D02*
X64133646Y-61427310D01*
X64133646Y-61260643D02*
X64157455Y-61284453D01*
X64157455Y-61284453D02*
X64133646Y-61308262D01*
X64133646Y-61308262D02*
X64109836Y-61284453D01*
X64109836Y-61284453D02*
X64133646Y-61260643D01*
X64133646Y-61260643D02*
X64133646Y-61308262D01*
X63681265Y-61736834D02*
X63728884Y-61760643D01*
X63728884Y-61760643D02*
X63824122Y-61760643D01*
X63824122Y-61760643D02*
X63871741Y-61736834D01*
X63871741Y-61736834D02*
X63895551Y-61713024D01*
X63895551Y-61713024D02*
X63919360Y-61665405D01*
X63919360Y-61665405D02*
X63919360Y-61522548D01*
X63919360Y-61522548D02*
X63895551Y-61474929D01*
X63895551Y-61474929D02*
X63871741Y-61451119D01*
X63871741Y-61451119D02*
X63824122Y-61427310D01*
X63824122Y-61427310D02*
X63728884Y-61427310D01*
X63728884Y-61427310D02*
X63681265Y-61451119D01*
X62871742Y-61736834D02*
X62919361Y-61760643D01*
X62919361Y-61760643D02*
X63014599Y-61760643D01*
X63014599Y-61760643D02*
X63062218Y-61736834D01*
X63062218Y-61736834D02*
X63086028Y-61713024D01*
X63086028Y-61713024D02*
X63109837Y-61665405D01*
X63109837Y-61665405D02*
X63109837Y-61522548D01*
X63109837Y-61522548D02*
X63086028Y-61474929D01*
X63086028Y-61474929D02*
X63062218Y-61451119D01*
X63062218Y-61451119D02*
X63014599Y-61427310D01*
X63014599Y-61427310D02*
X62919361Y-61427310D01*
X62919361Y-61427310D02*
X62871742Y-61451119D01*
X62657457Y-61760643D02*
X62657457Y-61427310D01*
X62657457Y-61522548D02*
X62633647Y-61474929D01*
X62633647Y-61474929D02*
X62609838Y-61451119D01*
X62609838Y-61451119D02*
X62562219Y-61427310D01*
X62562219Y-61427310D02*
X62514600Y-61427310D01*
X62157457Y-61736834D02*
X62205076Y-61760643D01*
X62205076Y-61760643D02*
X62300314Y-61760643D01*
X62300314Y-61760643D02*
X62347933Y-61736834D01*
X62347933Y-61736834D02*
X62371742Y-61689214D01*
X62371742Y-61689214D02*
X62371742Y-61498738D01*
X62371742Y-61498738D02*
X62347933Y-61451119D01*
X62347933Y-61451119D02*
X62300314Y-61427310D01*
X62300314Y-61427310D02*
X62205076Y-61427310D01*
X62205076Y-61427310D02*
X62157457Y-61451119D01*
X62157457Y-61451119D02*
X62133647Y-61498738D01*
X62133647Y-61498738D02*
X62133647Y-61546357D01*
X62133647Y-61546357D02*
X62371742Y-61593976D01*
X61705076Y-61760643D02*
X61705076Y-61498738D01*
X61705076Y-61498738D02*
X61728886Y-61451119D01*
X61728886Y-61451119D02*
X61776505Y-61427310D01*
X61776505Y-61427310D02*
X61871743Y-61427310D01*
X61871743Y-61427310D02*
X61919362Y-61451119D01*
X61705076Y-61736834D02*
X61752695Y-61760643D01*
X61752695Y-61760643D02*
X61871743Y-61760643D01*
X61871743Y-61760643D02*
X61919362Y-61736834D01*
X61919362Y-61736834D02*
X61943171Y-61689214D01*
X61943171Y-61689214D02*
X61943171Y-61641595D01*
X61943171Y-61641595D02*
X61919362Y-61593976D01*
X61919362Y-61593976D02*
X61871743Y-61570167D01*
X61871743Y-61570167D02*
X61752695Y-61570167D01*
X61752695Y-61570167D02*
X61705076Y-61546357D01*
X61538409Y-61427310D02*
X61347933Y-61427310D01*
X61466981Y-61260643D02*
X61466981Y-61689214D01*
X61466981Y-61689214D02*
X61443171Y-61736834D01*
X61443171Y-61736834D02*
X61395552Y-61760643D01*
X61395552Y-61760643D02*
X61347933Y-61760643D01*
X60966981Y-61427310D02*
X60966981Y-61760643D01*
X61181267Y-61427310D02*
X61181267Y-61689214D01*
X61181267Y-61689214D02*
X61157457Y-61736834D01*
X61157457Y-61736834D02*
X61109838Y-61760643D01*
X61109838Y-61760643D02*
X61038410Y-61760643D01*
X61038410Y-61760643D02*
X60990791Y-61736834D01*
X60990791Y-61736834D02*
X60966981Y-61713024D01*
X60728886Y-61760643D02*
X60728886Y-61427310D01*
X60728886Y-61522548D02*
X60705076Y-61474929D01*
X60705076Y-61474929D02*
X60681267Y-61451119D01*
X60681267Y-61451119D02*
X60633648Y-61427310D01*
X60633648Y-61427310D02*
X60586029Y-61427310D01*
X60228886Y-61736834D02*
X60276505Y-61760643D01*
X60276505Y-61760643D02*
X60371743Y-61760643D01*
X60371743Y-61760643D02*
X60419362Y-61736834D01*
X60419362Y-61736834D02*
X60443171Y-61689214D01*
X60443171Y-61689214D02*
X60443171Y-61498738D01*
X60443171Y-61498738D02*
X60419362Y-61451119D01*
X60419362Y-61451119D02*
X60371743Y-61427310D01*
X60371743Y-61427310D02*
X60276505Y-61427310D01*
X60276505Y-61427310D02*
X60228886Y-61451119D01*
X60228886Y-61451119D02*
X60205076Y-61498738D01*
X60205076Y-61498738D02*
X60205076Y-61546357D01*
X60205076Y-61546357D02*
X60443171Y-61593976D01*
X71538405Y-62565615D02*
X71586024Y-62541806D01*
X71586024Y-62541806D02*
X71609834Y-62517996D01*
X71609834Y-62517996D02*
X71633643Y-62470377D01*
X71633643Y-62470377D02*
X71633643Y-62327520D01*
X71633643Y-62327520D02*
X71609834Y-62279901D01*
X71609834Y-62279901D02*
X71586024Y-62256091D01*
X71586024Y-62256091D02*
X71538405Y-62232282D01*
X71538405Y-62232282D02*
X71466977Y-62232282D01*
X71466977Y-62232282D02*
X71419358Y-62256091D01*
X71419358Y-62256091D02*
X71395548Y-62279901D01*
X71395548Y-62279901D02*
X71371739Y-62327520D01*
X71371739Y-62327520D02*
X71371739Y-62470377D01*
X71371739Y-62470377D02*
X71395548Y-62517996D01*
X71395548Y-62517996D02*
X71419358Y-62541806D01*
X71419358Y-62541806D02*
X71466977Y-62565615D01*
X71466977Y-62565615D02*
X71538405Y-62565615D01*
X71228881Y-62232282D02*
X71038405Y-62232282D01*
X71157453Y-62565615D02*
X71157453Y-62137044D01*
X71157453Y-62137044D02*
X71133643Y-62089425D01*
X71133643Y-62089425D02*
X71086024Y-62065615D01*
X71086024Y-62065615D02*
X71038405Y-62065615D01*
X70490787Y-62565615D02*
X70490787Y-62232282D01*
X70490787Y-62279901D02*
X70466977Y-62256091D01*
X70466977Y-62256091D02*
X70419358Y-62232282D01*
X70419358Y-62232282D02*
X70347930Y-62232282D01*
X70347930Y-62232282D02*
X70300311Y-62256091D01*
X70300311Y-62256091D02*
X70276501Y-62303710D01*
X70276501Y-62303710D02*
X70276501Y-62565615D01*
X70276501Y-62303710D02*
X70252692Y-62256091D01*
X70252692Y-62256091D02*
X70205073Y-62232282D01*
X70205073Y-62232282D02*
X70133644Y-62232282D01*
X70133644Y-62232282D02*
X70086025Y-62256091D01*
X70086025Y-62256091D02*
X70062215Y-62303710D01*
X70062215Y-62303710D02*
X70062215Y-62565615D01*
X69633644Y-62541806D02*
X69681263Y-62565615D01*
X69681263Y-62565615D02*
X69776501Y-62565615D01*
X69776501Y-62565615D02*
X69824120Y-62541806D01*
X69824120Y-62541806D02*
X69847929Y-62494186D01*
X69847929Y-62494186D02*
X69847929Y-62303710D01*
X69847929Y-62303710D02*
X69824120Y-62256091D01*
X69824120Y-62256091D02*
X69776501Y-62232282D01*
X69776501Y-62232282D02*
X69681263Y-62232282D01*
X69681263Y-62232282D02*
X69633644Y-62256091D01*
X69633644Y-62256091D02*
X69609834Y-62303710D01*
X69609834Y-62303710D02*
X69609834Y-62351329D01*
X69609834Y-62351329D02*
X69847929Y-62398948D01*
X69181263Y-62565615D02*
X69181263Y-62303710D01*
X69181263Y-62303710D02*
X69205073Y-62256091D01*
X69205073Y-62256091D02*
X69252692Y-62232282D01*
X69252692Y-62232282D02*
X69347930Y-62232282D01*
X69347930Y-62232282D02*
X69395549Y-62256091D01*
X69181263Y-62541806D02*
X69228882Y-62565615D01*
X69228882Y-62565615D02*
X69347930Y-62565615D01*
X69347930Y-62565615D02*
X69395549Y-62541806D01*
X69395549Y-62541806D02*
X69419358Y-62494186D01*
X69419358Y-62494186D02*
X69419358Y-62446567D01*
X69419358Y-62446567D02*
X69395549Y-62398948D01*
X69395549Y-62398948D02*
X69347930Y-62375139D01*
X69347930Y-62375139D02*
X69228882Y-62375139D01*
X69228882Y-62375139D02*
X69181263Y-62351329D01*
X69014596Y-62232282D02*
X68824120Y-62232282D01*
X68943168Y-62065615D02*
X68943168Y-62494186D01*
X68943168Y-62494186D02*
X68919358Y-62541806D01*
X68919358Y-62541806D02*
X68871739Y-62565615D01*
X68871739Y-62565615D02*
X68824120Y-62565615D01*
X68062216Y-62565615D02*
X68062216Y-62303710D01*
X68062216Y-62303710D02*
X68086026Y-62256091D01*
X68086026Y-62256091D02*
X68133645Y-62232282D01*
X68133645Y-62232282D02*
X68228883Y-62232282D01*
X68228883Y-62232282D02*
X68276502Y-62256091D01*
X68062216Y-62541806D02*
X68109835Y-62565615D01*
X68109835Y-62565615D02*
X68228883Y-62565615D01*
X68228883Y-62565615D02*
X68276502Y-62541806D01*
X68276502Y-62541806D02*
X68300311Y-62494186D01*
X68300311Y-62494186D02*
X68300311Y-62446567D01*
X68300311Y-62446567D02*
X68276502Y-62398948D01*
X68276502Y-62398948D02*
X68228883Y-62375139D01*
X68228883Y-62375139D02*
X68109835Y-62375139D01*
X68109835Y-62375139D02*
X68062216Y-62351329D01*
X67824121Y-62232282D02*
X67824121Y-62565615D01*
X67824121Y-62279901D02*
X67800311Y-62256091D01*
X67800311Y-62256091D02*
X67752692Y-62232282D01*
X67752692Y-62232282D02*
X67681264Y-62232282D01*
X67681264Y-62232282D02*
X67633645Y-62256091D01*
X67633645Y-62256091D02*
X67609835Y-62303710D01*
X67609835Y-62303710D02*
X67609835Y-62565615D01*
X67157454Y-62565615D02*
X67157454Y-62065615D01*
X67157454Y-62541806D02*
X67205073Y-62565615D01*
X67205073Y-62565615D02*
X67300311Y-62565615D01*
X67300311Y-62565615D02*
X67347930Y-62541806D01*
X67347930Y-62541806D02*
X67371740Y-62517996D01*
X67371740Y-62517996D02*
X67395549Y-62470377D01*
X67395549Y-62470377D02*
X67395549Y-62327520D01*
X67395549Y-62327520D02*
X67371740Y-62279901D01*
X67371740Y-62279901D02*
X67347930Y-62256091D01*
X67347930Y-62256091D02*
X67300311Y-62232282D01*
X67300311Y-62232282D02*
X67205073Y-62232282D01*
X67205073Y-62232282D02*
X67157454Y-62256091D01*
X66538407Y-62565615D02*
X66538407Y-62065615D01*
X66538407Y-62256091D02*
X66490788Y-62232282D01*
X66490788Y-62232282D02*
X66395550Y-62232282D01*
X66395550Y-62232282D02*
X66347931Y-62256091D01*
X66347931Y-62256091D02*
X66324121Y-62279901D01*
X66324121Y-62279901D02*
X66300312Y-62327520D01*
X66300312Y-62327520D02*
X66300312Y-62470377D01*
X66300312Y-62470377D02*
X66324121Y-62517996D01*
X66324121Y-62517996D02*
X66347931Y-62541806D01*
X66347931Y-62541806D02*
X66395550Y-62565615D01*
X66395550Y-62565615D02*
X66490788Y-62565615D01*
X66490788Y-62565615D02*
X66538407Y-62541806D01*
X66014597Y-62565615D02*
X66062216Y-62541806D01*
X66062216Y-62541806D02*
X66086026Y-62517996D01*
X66086026Y-62517996D02*
X66109835Y-62470377D01*
X66109835Y-62470377D02*
X66109835Y-62327520D01*
X66109835Y-62327520D02*
X66086026Y-62279901D01*
X66086026Y-62279901D02*
X66062216Y-62256091D01*
X66062216Y-62256091D02*
X66014597Y-62232282D01*
X66014597Y-62232282D02*
X65943169Y-62232282D01*
X65943169Y-62232282D02*
X65895550Y-62256091D01*
X65895550Y-62256091D02*
X65871740Y-62279901D01*
X65871740Y-62279901D02*
X65847931Y-62327520D01*
X65847931Y-62327520D02*
X65847931Y-62470377D01*
X65847931Y-62470377D02*
X65871740Y-62517996D01*
X65871740Y-62517996D02*
X65895550Y-62541806D01*
X65895550Y-62541806D02*
X65943169Y-62565615D01*
X65943169Y-62565615D02*
X66014597Y-62565615D01*
X65633645Y-62232282D02*
X65633645Y-62565615D01*
X65633645Y-62279901D02*
X65609835Y-62256091D01*
X65609835Y-62256091D02*
X65562216Y-62232282D01*
X65562216Y-62232282D02*
X65490788Y-62232282D01*
X65490788Y-62232282D02*
X65443169Y-62256091D01*
X65443169Y-62256091D02*
X65419359Y-62303710D01*
X65419359Y-62303710D02*
X65419359Y-62565615D01*
X64990788Y-62541806D02*
X65038407Y-62565615D01*
X65038407Y-62565615D02*
X65133645Y-62565615D01*
X65133645Y-62565615D02*
X65181264Y-62541806D01*
X65181264Y-62541806D02*
X65205073Y-62494186D01*
X65205073Y-62494186D02*
X65205073Y-62303710D01*
X65205073Y-62303710D02*
X65181264Y-62256091D01*
X65181264Y-62256091D02*
X65133645Y-62232282D01*
X65133645Y-62232282D02*
X65038407Y-62232282D01*
X65038407Y-62232282D02*
X64990788Y-62256091D01*
X64990788Y-62256091D02*
X64966978Y-62303710D01*
X64966978Y-62303710D02*
X64966978Y-62351329D01*
X64966978Y-62351329D02*
X65205073Y-62398948D01*
X64752693Y-62517996D02*
X64728883Y-62541806D01*
X64728883Y-62541806D02*
X64752693Y-62565615D01*
X64752693Y-62565615D02*
X64776502Y-62541806D01*
X64776502Y-62541806D02*
X64752693Y-62517996D01*
X64752693Y-62517996D02*
X64752693Y-62565615D01*
X64133646Y-62565615D02*
X64133646Y-62065615D01*
X64133646Y-62303710D02*
X63847932Y-62303710D01*
X63847932Y-62565615D02*
X63847932Y-62065615D01*
X63538407Y-62565615D02*
X63586026Y-62541806D01*
X63586026Y-62541806D02*
X63609836Y-62517996D01*
X63609836Y-62517996D02*
X63633645Y-62470377D01*
X63633645Y-62470377D02*
X63633645Y-62327520D01*
X63633645Y-62327520D02*
X63609836Y-62279901D01*
X63609836Y-62279901D02*
X63586026Y-62256091D01*
X63586026Y-62256091D02*
X63538407Y-62232282D01*
X63538407Y-62232282D02*
X63466979Y-62232282D01*
X63466979Y-62232282D02*
X63419360Y-62256091D01*
X63419360Y-62256091D02*
X63395550Y-62279901D01*
X63395550Y-62279901D02*
X63371741Y-62327520D01*
X63371741Y-62327520D02*
X63371741Y-62470377D01*
X63371741Y-62470377D02*
X63395550Y-62517996D01*
X63395550Y-62517996D02*
X63419360Y-62541806D01*
X63419360Y-62541806D02*
X63466979Y-62565615D01*
X63466979Y-62565615D02*
X63538407Y-62565615D01*
X63205074Y-62232282D02*
X63109836Y-62565615D01*
X63109836Y-62565615D02*
X63014598Y-62327520D01*
X63014598Y-62327520D02*
X62919360Y-62565615D01*
X62919360Y-62565615D02*
X62824122Y-62232282D01*
X62038407Y-62565615D02*
X62038407Y-62065615D01*
X62038407Y-62541806D02*
X62086026Y-62565615D01*
X62086026Y-62565615D02*
X62181264Y-62565615D01*
X62181264Y-62565615D02*
X62228883Y-62541806D01*
X62228883Y-62541806D02*
X62252693Y-62517996D01*
X62252693Y-62517996D02*
X62276502Y-62470377D01*
X62276502Y-62470377D02*
X62276502Y-62327520D01*
X62276502Y-62327520D02*
X62252693Y-62279901D01*
X62252693Y-62279901D02*
X62228883Y-62256091D01*
X62228883Y-62256091D02*
X62181264Y-62232282D01*
X62181264Y-62232282D02*
X62086026Y-62232282D01*
X62086026Y-62232282D02*
X62038407Y-62256091D01*
X61586026Y-62565615D02*
X61586026Y-62303710D01*
X61586026Y-62303710D02*
X61609836Y-62256091D01*
X61609836Y-62256091D02*
X61657455Y-62232282D01*
X61657455Y-62232282D02*
X61752693Y-62232282D01*
X61752693Y-62232282D02*
X61800312Y-62256091D01*
X61586026Y-62541806D02*
X61633645Y-62565615D01*
X61633645Y-62565615D02*
X61752693Y-62565615D01*
X61752693Y-62565615D02*
X61800312Y-62541806D01*
X61800312Y-62541806D02*
X61824121Y-62494186D01*
X61824121Y-62494186D02*
X61824121Y-62446567D01*
X61824121Y-62446567D02*
X61800312Y-62398948D01*
X61800312Y-62398948D02*
X61752693Y-62375139D01*
X61752693Y-62375139D02*
X61633645Y-62375139D01*
X61633645Y-62375139D02*
X61586026Y-62351329D01*
X61347931Y-62565615D02*
X61347931Y-62232282D01*
X61347931Y-62327520D02*
X61324121Y-62279901D01*
X61324121Y-62279901D02*
X61300312Y-62256091D01*
X61300312Y-62256091D02*
X61252693Y-62232282D01*
X61252693Y-62232282D02*
X61205074Y-62232282D01*
X60847931Y-62541806D02*
X60895550Y-62565615D01*
X60895550Y-62565615D02*
X60990788Y-62565615D01*
X60990788Y-62565615D02*
X61038407Y-62541806D01*
X61038407Y-62541806D02*
X61062216Y-62494186D01*
X61062216Y-62494186D02*
X61062216Y-62303710D01*
X61062216Y-62303710D02*
X61038407Y-62256091D01*
X61038407Y-62256091D02*
X60990788Y-62232282D01*
X60990788Y-62232282D02*
X60895550Y-62232282D01*
X60895550Y-62232282D02*
X60847931Y-62256091D01*
X60847931Y-62256091D02*
X60824121Y-62303710D01*
X60824121Y-62303710D02*
X60824121Y-62351329D01*
X60824121Y-62351329D02*
X61062216Y-62398948D01*
X60276503Y-62232282D02*
X60157455Y-62565615D01*
X60038408Y-62232282D02*
X60157455Y-62565615D01*
X60157455Y-62565615D02*
X60205074Y-62684663D01*
X60205074Y-62684663D02*
X60228884Y-62708472D01*
X60228884Y-62708472D02*
X60276503Y-62732282D01*
X59776503Y-62565615D02*
X59824122Y-62541806D01*
X59824122Y-62541806D02*
X59847932Y-62517996D01*
X59847932Y-62517996D02*
X59871741Y-62470377D01*
X59871741Y-62470377D02*
X59871741Y-62327520D01*
X59871741Y-62327520D02*
X59847932Y-62279901D01*
X59847932Y-62279901D02*
X59824122Y-62256091D01*
X59824122Y-62256091D02*
X59776503Y-62232282D01*
X59776503Y-62232282D02*
X59705075Y-62232282D01*
X59705075Y-62232282D02*
X59657456Y-62256091D01*
X59657456Y-62256091D02*
X59633646Y-62279901D01*
X59633646Y-62279901D02*
X59609837Y-62327520D01*
X59609837Y-62327520D02*
X59609837Y-62470377D01*
X59609837Y-62470377D02*
X59633646Y-62517996D01*
X59633646Y-62517996D02*
X59657456Y-62541806D01*
X59657456Y-62541806D02*
X59705075Y-62565615D01*
X59705075Y-62565615D02*
X59776503Y-62565615D01*
X59181265Y-62232282D02*
X59181265Y-62565615D01*
X59395551Y-62232282D02*
X59395551Y-62494186D01*
X59395551Y-62494186D02*
X59371741Y-62541806D01*
X59371741Y-62541806D02*
X59324122Y-62565615D01*
X59324122Y-62565615D02*
X59252694Y-62565615D01*
X59252694Y-62565615D02*
X59205075Y-62541806D01*
X59205075Y-62541806D02*
X59181265Y-62517996D01*
X71395548Y-63346778D02*
X71443167Y-63370587D01*
X71443167Y-63370587D02*
X71538405Y-63370587D01*
X71538405Y-63370587D02*
X71586024Y-63346778D01*
X71586024Y-63346778D02*
X71609834Y-63322968D01*
X71609834Y-63322968D02*
X71633643Y-63275349D01*
X71633643Y-63275349D02*
X71633643Y-63132492D01*
X71633643Y-63132492D02*
X71609834Y-63084873D01*
X71609834Y-63084873D02*
X71586024Y-63061063D01*
X71586024Y-63061063D02*
X71538405Y-63037254D01*
X71538405Y-63037254D02*
X71443167Y-63037254D01*
X71443167Y-63037254D02*
X71395548Y-63061063D01*
X71181263Y-63370587D02*
X71181263Y-62870587D01*
X70966977Y-63370587D02*
X70966977Y-63108682D01*
X70966977Y-63108682D02*
X70990787Y-63061063D01*
X70990787Y-63061063D02*
X71038406Y-63037254D01*
X71038406Y-63037254D02*
X71109834Y-63037254D01*
X71109834Y-63037254D02*
X71157453Y-63061063D01*
X71157453Y-63061063D02*
X71181263Y-63084873D01*
X70514596Y-63370587D02*
X70514596Y-63108682D01*
X70514596Y-63108682D02*
X70538406Y-63061063D01*
X70538406Y-63061063D02*
X70586025Y-63037254D01*
X70586025Y-63037254D02*
X70681263Y-63037254D01*
X70681263Y-63037254D02*
X70728882Y-63061063D01*
X70514596Y-63346778D02*
X70562215Y-63370587D01*
X70562215Y-63370587D02*
X70681263Y-63370587D01*
X70681263Y-63370587D02*
X70728882Y-63346778D01*
X70728882Y-63346778D02*
X70752691Y-63299158D01*
X70752691Y-63299158D02*
X70752691Y-63251539D01*
X70752691Y-63251539D02*
X70728882Y-63203920D01*
X70728882Y-63203920D02*
X70681263Y-63180111D01*
X70681263Y-63180111D02*
X70562215Y-63180111D01*
X70562215Y-63180111D02*
X70514596Y-63156301D01*
X70205072Y-63370587D02*
X70252691Y-63346778D01*
X70252691Y-63346778D02*
X70276501Y-63299158D01*
X70276501Y-63299158D02*
X70276501Y-62870587D01*
X69943167Y-63370587D02*
X69990786Y-63346778D01*
X69990786Y-63346778D02*
X70014596Y-63299158D01*
X70014596Y-63299158D02*
X70014596Y-62870587D01*
X69538405Y-63370587D02*
X69538405Y-63108682D01*
X69538405Y-63108682D02*
X69562215Y-63061063D01*
X69562215Y-63061063D02*
X69609834Y-63037254D01*
X69609834Y-63037254D02*
X69705072Y-63037254D01*
X69705072Y-63037254D02*
X69752691Y-63061063D01*
X69538405Y-63346778D02*
X69586024Y-63370587D01*
X69586024Y-63370587D02*
X69705072Y-63370587D01*
X69705072Y-63370587D02*
X69752691Y-63346778D01*
X69752691Y-63346778D02*
X69776500Y-63299158D01*
X69776500Y-63299158D02*
X69776500Y-63251539D01*
X69776500Y-63251539D02*
X69752691Y-63203920D01*
X69752691Y-63203920D02*
X69705072Y-63180111D01*
X69705072Y-63180111D02*
X69586024Y-63180111D01*
X69586024Y-63180111D02*
X69538405Y-63156301D01*
X69300310Y-63037254D02*
X69300310Y-63370587D01*
X69300310Y-63084873D02*
X69276500Y-63061063D01*
X69276500Y-63061063D02*
X69228881Y-63037254D01*
X69228881Y-63037254D02*
X69157453Y-63037254D01*
X69157453Y-63037254D02*
X69109834Y-63061063D01*
X69109834Y-63061063D02*
X69086024Y-63108682D01*
X69086024Y-63108682D02*
X69086024Y-63370587D01*
X68633643Y-63037254D02*
X68633643Y-63442016D01*
X68633643Y-63442016D02*
X68657453Y-63489635D01*
X68657453Y-63489635D02*
X68681262Y-63513444D01*
X68681262Y-63513444D02*
X68728881Y-63537254D01*
X68728881Y-63537254D02*
X68800310Y-63537254D01*
X68800310Y-63537254D02*
X68847929Y-63513444D01*
X68633643Y-63346778D02*
X68681262Y-63370587D01*
X68681262Y-63370587D02*
X68776500Y-63370587D01*
X68776500Y-63370587D02*
X68824119Y-63346778D01*
X68824119Y-63346778D02*
X68847929Y-63322968D01*
X68847929Y-63322968D02*
X68871738Y-63275349D01*
X68871738Y-63275349D02*
X68871738Y-63132492D01*
X68871738Y-63132492D02*
X68847929Y-63084873D01*
X68847929Y-63084873D02*
X68824119Y-63061063D01*
X68824119Y-63061063D02*
X68776500Y-63037254D01*
X68776500Y-63037254D02*
X68681262Y-63037254D01*
X68681262Y-63037254D02*
X68633643Y-63061063D01*
X68205072Y-63346778D02*
X68252691Y-63370587D01*
X68252691Y-63370587D02*
X68347929Y-63370587D01*
X68347929Y-63370587D02*
X68395548Y-63346778D01*
X68395548Y-63346778D02*
X68419357Y-63299158D01*
X68419357Y-63299158D02*
X68419357Y-63108682D01*
X68419357Y-63108682D02*
X68395548Y-63061063D01*
X68395548Y-63061063D02*
X68347929Y-63037254D01*
X68347929Y-63037254D02*
X68252691Y-63037254D01*
X68252691Y-63037254D02*
X68205072Y-63061063D01*
X68205072Y-63061063D02*
X68181262Y-63108682D01*
X68181262Y-63108682D02*
X68181262Y-63156301D01*
X68181262Y-63156301D02*
X68419357Y-63203920D01*
X67371739Y-63370587D02*
X67371739Y-63108682D01*
X67371739Y-63108682D02*
X67395549Y-63061063D01*
X67395549Y-63061063D02*
X67443168Y-63037254D01*
X67443168Y-63037254D02*
X67538406Y-63037254D01*
X67538406Y-63037254D02*
X67586025Y-63061063D01*
X67371739Y-63346778D02*
X67419358Y-63370587D01*
X67419358Y-63370587D02*
X67538406Y-63370587D01*
X67538406Y-63370587D02*
X67586025Y-63346778D01*
X67586025Y-63346778D02*
X67609834Y-63299158D01*
X67609834Y-63299158D02*
X67609834Y-63251539D01*
X67609834Y-63251539D02*
X67586025Y-63203920D01*
X67586025Y-63203920D02*
X67538406Y-63180111D01*
X67538406Y-63180111D02*
X67419358Y-63180111D01*
X67419358Y-63180111D02*
X67371739Y-63156301D01*
X66752692Y-63037254D02*
X66752692Y-63537254D01*
X66752692Y-63061063D02*
X66705073Y-63037254D01*
X66705073Y-63037254D02*
X66609835Y-63037254D01*
X66609835Y-63037254D02*
X66562216Y-63061063D01*
X66562216Y-63061063D02*
X66538406Y-63084873D01*
X66538406Y-63084873D02*
X66514597Y-63132492D01*
X66514597Y-63132492D02*
X66514597Y-63275349D01*
X66514597Y-63275349D02*
X66538406Y-63322968D01*
X66538406Y-63322968D02*
X66562216Y-63346778D01*
X66562216Y-63346778D02*
X66609835Y-63370587D01*
X66609835Y-63370587D02*
X66705073Y-63370587D01*
X66705073Y-63370587D02*
X66752692Y-63346778D01*
X66109835Y-63346778D02*
X66157454Y-63370587D01*
X66157454Y-63370587D02*
X66252692Y-63370587D01*
X66252692Y-63370587D02*
X66300311Y-63346778D01*
X66300311Y-63346778D02*
X66324120Y-63299158D01*
X66324120Y-63299158D02*
X66324120Y-63108682D01*
X66324120Y-63108682D02*
X66300311Y-63061063D01*
X66300311Y-63061063D02*
X66252692Y-63037254D01*
X66252692Y-63037254D02*
X66157454Y-63037254D01*
X66157454Y-63037254D02*
X66109835Y-63061063D01*
X66109835Y-63061063D02*
X66086025Y-63108682D01*
X66086025Y-63108682D02*
X66086025Y-63156301D01*
X66086025Y-63156301D02*
X66324120Y-63203920D01*
X65871740Y-63370587D02*
X65871740Y-63037254D01*
X65871740Y-63132492D02*
X65847930Y-63084873D01*
X65847930Y-63084873D02*
X65824121Y-63061063D01*
X65824121Y-63061063D02*
X65776502Y-63037254D01*
X65776502Y-63037254D02*
X65728883Y-63037254D01*
X65633644Y-63037254D02*
X65443168Y-63037254D01*
X65562216Y-63370587D02*
X65562216Y-62942016D01*
X65562216Y-62942016D02*
X65538406Y-62894397D01*
X65538406Y-62894397D02*
X65490787Y-62870587D01*
X65490787Y-62870587D02*
X65443168Y-62870587D01*
X65086026Y-63346778D02*
X65133645Y-63370587D01*
X65133645Y-63370587D02*
X65228883Y-63370587D01*
X65228883Y-63370587D02*
X65276502Y-63346778D01*
X65276502Y-63346778D02*
X65300311Y-63299158D01*
X65300311Y-63299158D02*
X65300311Y-63108682D01*
X65300311Y-63108682D02*
X65276502Y-63061063D01*
X65276502Y-63061063D02*
X65228883Y-63037254D01*
X65228883Y-63037254D02*
X65133645Y-63037254D01*
X65133645Y-63037254D02*
X65086026Y-63061063D01*
X65086026Y-63061063D02*
X65062216Y-63108682D01*
X65062216Y-63108682D02*
X65062216Y-63156301D01*
X65062216Y-63156301D02*
X65300311Y-63203920D01*
X64633645Y-63346778D02*
X64681264Y-63370587D01*
X64681264Y-63370587D02*
X64776502Y-63370587D01*
X64776502Y-63370587D02*
X64824121Y-63346778D01*
X64824121Y-63346778D02*
X64847931Y-63322968D01*
X64847931Y-63322968D02*
X64871740Y-63275349D01*
X64871740Y-63275349D02*
X64871740Y-63132492D01*
X64871740Y-63132492D02*
X64847931Y-63084873D01*
X64847931Y-63084873D02*
X64824121Y-63061063D01*
X64824121Y-63061063D02*
X64776502Y-63037254D01*
X64776502Y-63037254D02*
X64681264Y-63037254D01*
X64681264Y-63037254D02*
X64633645Y-63061063D01*
X64490788Y-63037254D02*
X64300312Y-63037254D01*
X64419360Y-62870587D02*
X64419360Y-63299158D01*
X64419360Y-63299158D02*
X64395550Y-63346778D01*
X64395550Y-63346778D02*
X64347931Y-63370587D01*
X64347931Y-63370587D02*
X64300312Y-63370587D01*
X63538408Y-63370587D02*
X63538408Y-63108682D01*
X63538408Y-63108682D02*
X63562218Y-63061063D01*
X63562218Y-63061063D02*
X63609837Y-63037254D01*
X63609837Y-63037254D02*
X63705075Y-63037254D01*
X63705075Y-63037254D02*
X63752694Y-63061063D01*
X63538408Y-63346778D02*
X63586027Y-63370587D01*
X63586027Y-63370587D02*
X63705075Y-63370587D01*
X63705075Y-63370587D02*
X63752694Y-63346778D01*
X63752694Y-63346778D02*
X63776503Y-63299158D01*
X63776503Y-63299158D02*
X63776503Y-63251539D01*
X63776503Y-63251539D02*
X63752694Y-63203920D01*
X63752694Y-63203920D02*
X63705075Y-63180111D01*
X63705075Y-63180111D02*
X63586027Y-63180111D01*
X63586027Y-63180111D02*
X63538408Y-63156301D01*
X63300313Y-63037254D02*
X63300313Y-63370587D01*
X63300313Y-63084873D02*
X63276503Y-63061063D01*
X63276503Y-63061063D02*
X63228884Y-63037254D01*
X63228884Y-63037254D02*
X63157456Y-63037254D01*
X63157456Y-63037254D02*
X63109837Y-63061063D01*
X63109837Y-63061063D02*
X63086027Y-63108682D01*
X63086027Y-63108682D02*
X63086027Y-63370587D01*
X62633646Y-63370587D02*
X62633646Y-62870587D01*
X62633646Y-63346778D02*
X62681265Y-63370587D01*
X62681265Y-63370587D02*
X62776503Y-63370587D01*
X62776503Y-63370587D02*
X62824122Y-63346778D01*
X62824122Y-63346778D02*
X62847932Y-63322968D01*
X62847932Y-63322968D02*
X62871741Y-63275349D01*
X62871741Y-63275349D02*
X62871741Y-63132492D01*
X62871741Y-63132492D02*
X62847932Y-63084873D01*
X62847932Y-63084873D02*
X62824122Y-63061063D01*
X62824122Y-63061063D02*
X62776503Y-63037254D01*
X62776503Y-63037254D02*
X62681265Y-63037254D01*
X62681265Y-63037254D02*
X62633646Y-63061063D01*
X62014599Y-63370587D02*
X62014599Y-63037254D01*
X62014599Y-62870587D02*
X62038408Y-62894397D01*
X62038408Y-62894397D02*
X62014599Y-62918206D01*
X62014599Y-62918206D02*
X61990789Y-62894397D01*
X61990789Y-62894397D02*
X62014599Y-62870587D01*
X62014599Y-62870587D02*
X62014599Y-62918206D01*
X61776504Y-63370587D02*
X61776504Y-63037254D01*
X61776504Y-63084873D02*
X61752694Y-63061063D01*
X61752694Y-63061063D02*
X61705075Y-63037254D01*
X61705075Y-63037254D02*
X61633647Y-63037254D01*
X61633647Y-63037254D02*
X61586028Y-63061063D01*
X61586028Y-63061063D02*
X61562218Y-63108682D01*
X61562218Y-63108682D02*
X61562218Y-63370587D01*
X61562218Y-63108682D02*
X61538409Y-63061063D01*
X61538409Y-63061063D02*
X61490790Y-63037254D01*
X61490790Y-63037254D02*
X61419361Y-63037254D01*
X61419361Y-63037254D02*
X61371742Y-63061063D01*
X61371742Y-63061063D02*
X61347932Y-63108682D01*
X61347932Y-63108682D02*
X61347932Y-63370587D01*
X61109837Y-63370587D02*
X61109837Y-63037254D01*
X61109837Y-63084873D02*
X61086027Y-63061063D01*
X61086027Y-63061063D02*
X61038408Y-63037254D01*
X61038408Y-63037254D02*
X60966980Y-63037254D01*
X60966980Y-63037254D02*
X60919361Y-63061063D01*
X60919361Y-63061063D02*
X60895551Y-63108682D01*
X60895551Y-63108682D02*
X60895551Y-63370587D01*
X60895551Y-63108682D02*
X60871742Y-63061063D01*
X60871742Y-63061063D02*
X60824123Y-63037254D01*
X60824123Y-63037254D02*
X60752694Y-63037254D01*
X60752694Y-63037254D02*
X60705075Y-63061063D01*
X60705075Y-63061063D02*
X60681265Y-63108682D01*
X60681265Y-63108682D02*
X60681265Y-63370587D01*
X60371741Y-63370587D02*
X60419360Y-63346778D01*
X60419360Y-63346778D02*
X60443170Y-63322968D01*
X60443170Y-63322968D02*
X60466979Y-63275349D01*
X60466979Y-63275349D02*
X60466979Y-63132492D01*
X60466979Y-63132492D02*
X60443170Y-63084873D01*
X60443170Y-63084873D02*
X60419360Y-63061063D01*
X60419360Y-63061063D02*
X60371741Y-63037254D01*
X60371741Y-63037254D02*
X60300313Y-63037254D01*
X60300313Y-63037254D02*
X60252694Y-63061063D01*
X60252694Y-63061063D02*
X60228884Y-63084873D01*
X60228884Y-63084873D02*
X60205075Y-63132492D01*
X60205075Y-63132492D02*
X60205075Y-63275349D01*
X60205075Y-63275349D02*
X60228884Y-63322968D01*
X60228884Y-63322968D02*
X60252694Y-63346778D01*
X60252694Y-63346778D02*
X60300313Y-63370587D01*
X60300313Y-63370587D02*
X60371741Y-63370587D01*
X59990789Y-63370587D02*
X59990789Y-63037254D01*
X59990789Y-63132492D02*
X59966979Y-63084873D01*
X59966979Y-63084873D02*
X59943170Y-63061063D01*
X59943170Y-63061063D02*
X59895551Y-63037254D01*
X59895551Y-63037254D02*
X59847932Y-63037254D01*
X59752693Y-63037254D02*
X59562217Y-63037254D01*
X59681265Y-62870587D02*
X59681265Y-63299158D01*
X59681265Y-63299158D02*
X59657455Y-63346778D01*
X59657455Y-63346778D02*
X59609836Y-63370587D01*
X59609836Y-63370587D02*
X59562217Y-63370587D01*
X59181265Y-63370587D02*
X59181265Y-63108682D01*
X59181265Y-63108682D02*
X59205075Y-63061063D01*
X59205075Y-63061063D02*
X59252694Y-63037254D01*
X59252694Y-63037254D02*
X59347932Y-63037254D01*
X59347932Y-63037254D02*
X59395551Y-63061063D01*
X59181265Y-63346778D02*
X59228884Y-63370587D01*
X59228884Y-63370587D02*
X59347932Y-63370587D01*
X59347932Y-63370587D02*
X59395551Y-63346778D01*
X59395551Y-63346778D02*
X59419360Y-63299158D01*
X59419360Y-63299158D02*
X59419360Y-63251539D01*
X59419360Y-63251539D02*
X59395551Y-63203920D01*
X59395551Y-63203920D02*
X59347932Y-63180111D01*
X59347932Y-63180111D02*
X59228884Y-63180111D01*
X59228884Y-63180111D02*
X59181265Y-63156301D01*
X58871741Y-63370587D02*
X58919360Y-63346778D01*
X58919360Y-63346778D02*
X58943170Y-63299158D01*
X58943170Y-63299158D02*
X58943170Y-62870587D01*
X71609834Y-64175559D02*
X71609834Y-63842226D01*
X71609834Y-63889845D02*
X71586024Y-63866035D01*
X71586024Y-63866035D02*
X71538405Y-63842226D01*
X71538405Y-63842226D02*
X71466977Y-63842226D01*
X71466977Y-63842226D02*
X71419358Y-63866035D01*
X71419358Y-63866035D02*
X71395548Y-63913654D01*
X71395548Y-63913654D02*
X71395548Y-64175559D01*
X71395548Y-63913654D02*
X71371739Y-63866035D01*
X71371739Y-63866035D02*
X71324120Y-63842226D01*
X71324120Y-63842226D02*
X71252691Y-63842226D01*
X71252691Y-63842226D02*
X71205072Y-63866035D01*
X71205072Y-63866035D02*
X71181262Y-63913654D01*
X71181262Y-63913654D02*
X71181262Y-64175559D01*
X70728881Y-64175559D02*
X70728881Y-63913654D01*
X70728881Y-63913654D02*
X70752691Y-63866035D01*
X70752691Y-63866035D02*
X70800310Y-63842226D01*
X70800310Y-63842226D02*
X70895548Y-63842226D01*
X70895548Y-63842226D02*
X70943167Y-63866035D01*
X70728881Y-64151750D02*
X70776500Y-64175559D01*
X70776500Y-64175559D02*
X70895548Y-64175559D01*
X70895548Y-64175559D02*
X70943167Y-64151750D01*
X70943167Y-64151750D02*
X70966976Y-64104130D01*
X70966976Y-64104130D02*
X70966976Y-64056511D01*
X70966976Y-64056511D02*
X70943167Y-64008892D01*
X70943167Y-64008892D02*
X70895548Y-63985083D01*
X70895548Y-63985083D02*
X70776500Y-63985083D01*
X70776500Y-63985083D02*
X70728881Y-63961273D01*
X70276500Y-64151750D02*
X70324119Y-64175559D01*
X70324119Y-64175559D02*
X70419357Y-64175559D01*
X70419357Y-64175559D02*
X70466976Y-64151750D01*
X70466976Y-64151750D02*
X70490786Y-64127940D01*
X70490786Y-64127940D02*
X70514595Y-64080321D01*
X70514595Y-64080321D02*
X70514595Y-63937464D01*
X70514595Y-63937464D02*
X70490786Y-63889845D01*
X70490786Y-63889845D02*
X70466976Y-63866035D01*
X70466976Y-63866035D02*
X70419357Y-63842226D01*
X70419357Y-63842226D02*
X70324119Y-63842226D01*
X70324119Y-63842226D02*
X70276500Y-63866035D01*
X70062215Y-64175559D02*
X70062215Y-63675559D01*
X69847929Y-64175559D02*
X69847929Y-63913654D01*
X69847929Y-63913654D02*
X69871739Y-63866035D01*
X69871739Y-63866035D02*
X69919358Y-63842226D01*
X69919358Y-63842226D02*
X69990786Y-63842226D01*
X69990786Y-63842226D02*
X70038405Y-63866035D01*
X70038405Y-63866035D02*
X70062215Y-63889845D01*
X69609834Y-64175559D02*
X69609834Y-63842226D01*
X69609834Y-63675559D02*
X69633643Y-63699369D01*
X69633643Y-63699369D02*
X69609834Y-63723178D01*
X69609834Y-63723178D02*
X69586024Y-63699369D01*
X69586024Y-63699369D02*
X69609834Y-63675559D01*
X69609834Y-63675559D02*
X69609834Y-63723178D01*
X69371739Y-63842226D02*
X69371739Y-64175559D01*
X69371739Y-63889845D02*
X69347929Y-63866035D01*
X69347929Y-63866035D02*
X69300310Y-63842226D01*
X69300310Y-63842226D02*
X69228882Y-63842226D01*
X69228882Y-63842226D02*
X69181263Y-63866035D01*
X69181263Y-63866035D02*
X69157453Y-63913654D01*
X69157453Y-63913654D02*
X69157453Y-64175559D01*
X68728882Y-64151750D02*
X68776501Y-64175559D01*
X68776501Y-64175559D02*
X68871739Y-64175559D01*
X68871739Y-64175559D02*
X68919358Y-64151750D01*
X68919358Y-64151750D02*
X68943167Y-64104130D01*
X68943167Y-64104130D02*
X68943167Y-63913654D01*
X68943167Y-63913654D02*
X68919358Y-63866035D01*
X68919358Y-63866035D02*
X68871739Y-63842226D01*
X68871739Y-63842226D02*
X68776501Y-63842226D01*
X68776501Y-63842226D02*
X68728882Y-63866035D01*
X68728882Y-63866035D02*
X68705072Y-63913654D01*
X68705072Y-63913654D02*
X68705072Y-63961273D01*
X68705072Y-63961273D02*
X68943167Y-64008892D01*
X68419358Y-64127940D02*
X68395549Y-64151750D01*
X68395549Y-64151750D02*
X68419358Y-64175559D01*
X68419358Y-64175559D02*
X68443168Y-64151750D01*
X68443168Y-64151750D02*
X68419358Y-64127940D01*
X68419358Y-64127940D02*
X68419358Y-64175559D01*
X68514596Y-63699369D02*
X68466977Y-63675559D01*
X68466977Y-63675559D02*
X68347930Y-63675559D01*
X68347930Y-63675559D02*
X68300311Y-63699369D01*
X68300311Y-63699369D02*
X68276501Y-63746988D01*
X68276501Y-63746988D02*
X68276501Y-63794607D01*
X68276501Y-63794607D02*
X68300311Y-63842226D01*
X68300311Y-63842226D02*
X68324120Y-63866035D01*
X68324120Y-63866035D02*
X68371739Y-63889845D01*
X68371739Y-63889845D02*
X68395549Y-63913654D01*
X68395549Y-63913654D02*
X68419358Y-63961273D01*
X68419358Y-63961273D02*
X68419358Y-63985083D01*
D13*
%TO.C,REF\u002A\u002A*%
X66878915Y-44986200D02*
X66878915Y-48720000D01*
X66878915Y-48720000D02*
X66878915Y-52453800D01*
X66878915Y-52453800D02*
X66345515Y-52453800D01*
X66345515Y-44986200D02*
X66878915Y-44986200D01*
X66345515Y-52453800D02*
X65812115Y-52453800D01*
X65812115Y-44986200D02*
X66345515Y-44986200D01*
X65812115Y-46526065D02*
X65812115Y-44986200D01*
X65812115Y-48065931D02*
X65812115Y-46526065D01*
X65812115Y-49386390D02*
X65466338Y-49705117D01*
X65812115Y-50920095D02*
X65812115Y-49386390D01*
X65812115Y-52453800D02*
X65812115Y-50920095D01*
X65479809Y-47739798D02*
X65812115Y-48065931D01*
X65466338Y-49705117D02*
X65311785Y-49837483D01*
X65153393Y-48606767D02*
X65025920Y-48407419D01*
X65026390Y-49032581D02*
X65159911Y-48823188D01*
X65025920Y-48407419D02*
X64849324Y-48148500D01*
X64850265Y-49291500D02*
X65026390Y-49032581D01*
X64849324Y-48148500D02*
X64282970Y-48168384D01*
X64431993Y-47547340D02*
X64826434Y-47456393D01*
X64282970Y-48168384D02*
X63716615Y-48188268D01*
X64279942Y-49266592D02*
X64850265Y-49291500D01*
X64167928Y-50055945D02*
X63865574Y-50409484D01*
X63865574Y-50409484D02*
X63668301Y-50650644D01*
X63772122Y-46912020D02*
X64018796Y-47208399D01*
X63716615Y-48188268D02*
X63265720Y-47330184D01*
X63709620Y-49241683D02*
X64279942Y-49266592D01*
X63668301Y-50650644D02*
X63446848Y-50913744D01*
X63446848Y-50913744D02*
X63235010Y-51159357D01*
X63300534Y-50028592D02*
X63709620Y-49241683D01*
X63265720Y-47330184D02*
X62898137Y-46653227D01*
X63235010Y-51159357D02*
X63070838Y-51342271D01*
X63178399Y-46223211D02*
X63772122Y-46912020D01*
X62924612Y-50727395D02*
X63300534Y-50028592D01*
X62898137Y-46653227D02*
X62608913Y-46177359D01*
X62618013Y-51238491D02*
X62924612Y-50727395D01*
X62573711Y-45621179D02*
X63178399Y-46223211D01*
X62569269Y-51805852D02*
X62329048Y-52005856D01*
X62568622Y-51308470D02*
X62618013Y-51238491D01*
X62332555Y-45794870D02*
X62055587Y-45472821D01*
X62332251Y-51643366D02*
X62568622Y-51308470D01*
X62329048Y-52005856D02*
X61906184Y-52327811D01*
X62057930Y-45181206D02*
X62573711Y-45621179D01*
X62055587Y-45472821D02*
X62013901Y-45424350D01*
X62013901Y-45424350D02*
X61889752Y-45285410D01*
X61897475Y-52147243D02*
X62164624Y-51849340D01*
X61889752Y-45285410D02*
X61797936Y-45168761D01*
X61862642Y-52191298D02*
X61897475Y-52147243D01*
X61802174Y-52267774D02*
X61862642Y-52191298D01*
X65242248Y-47537312D02*
G75*
G02*
X65479805Y-47739802I-1321533J-1790988D01*
G01*
X65053503Y-47455570D02*
G75*
G02*
X65242246Y-47537315I-82488J-449230D01*
G01*
X65153393Y-48606767D02*
G75*
G02*
X65188326Y-48719946I-166378J-113333D01*
G01*
X65311785Y-49837483D02*
G75*
G02*
X65177185Y-49929963I-729170J917083D01*
G01*
X65188326Y-48719946D02*
G75*
G02*
X65159912Y-48823188I-201211J-154D01*
G01*
X65177183Y-49929960D02*
G75*
G02*
X65066358Y-49982820I-357568J607060D01*
G01*
X64826434Y-47456393D02*
G75*
G02*
X65053503Y-47455569I115731J-605187D01*
G01*
X65066357Y-49982816D02*
G75*
G02*
X64990095Y-49985561I-42242J112816D01*
G01*
X64587844Y-49887637D02*
G75*
G02*
X64990087Y-49985587I-853929J-4381663D01*
G01*
X64375284Y-49905537D02*
G75*
G02*
X64587844Y-49887635I137831J-365663D01*
G01*
X64167928Y-50055945D02*
G75*
G02*
X64375276Y-49905515I378687J-303855D01*
G01*
X64431993Y-47547340D02*
G75*
G02*
X64350831Y-47531198I-24278J90040D01*
G01*
X64350830Y-47531199D02*
G75*
G02*
X64206957Y-47407219I1051685J1365899D01*
G01*
X64206957Y-47407219D02*
G75*
G02*
X64018796Y-47208399I2041050J2120074D01*
G01*
X62055587Y-45472821D02*
G75*
G02*
X62608917Y-46177356I-3877372J-3614779D01*
G01*
X63070838Y-51342271D02*
G75*
G02*
X62569272Y-51805856I-3162123J2918071D01*
G01*
X62568622Y-51308470D02*
G75*
G02*
X62164621Y-51849338I-4143907J2673970D01*
G01*
X61752454Y-45062400D02*
G75*
G02*
X62057908Y-45181230I-39J-452100D01*
G01*
X61743162Y-52357274D02*
G75*
G02*
X61862642Y-52191298I1021053J-609026D01*
G01*
X61906184Y-52327811D02*
G75*
G02*
X61754705Y-52377599I-151469J205511D01*
G01*
X61741193Y-45082148D02*
G75*
G02*
X61752454Y-45062457I11222J6648D01*
G01*
X61754705Y-52377600D02*
G75*
G02*
X61743148Y-52357266I-90J13400D01*
G01*
X61797936Y-45168761D02*
G75*
G02*
X61741191Y-45082149I919879J664561D01*
G01*
D14*
X66878915Y-52453800D02*
X65812115Y-52453800D01*
X65812115Y-49386390D01*
X65466338Y-49705117D01*
X65311785Y-49827034D01*
X65242961Y-49886067D01*
X65177172Y-49929960D01*
X65122924Y-49958803D01*
X65066357Y-49982813D01*
X65028450Y-49997021D01*
X64990086Y-49985584D01*
X64790102Y-49931944D01*
X64587839Y-49887637D01*
X64480319Y-49881802D01*
X64375284Y-49905537D01*
X64273705Y-49958268D01*
X64167928Y-50055945D01*
X63865574Y-50409484D01*
X63235010Y-51159357D01*
X62915784Y-51501810D01*
X62449158Y-51905854D01*
X62329048Y-52005856D01*
X61906184Y-52327812D01*
X61788915Y-52377600D01*
X61754705Y-52377583D01*
X61742992Y-52370836D01*
X61743120Y-52357345D01*
X61802174Y-52267774D01*
X61897475Y-52147243D01*
X62031049Y-51998292D01*
X62202495Y-51827213D01*
X62568622Y-51308470D01*
X62771312Y-50982943D01*
X62924612Y-50727395D01*
X63112573Y-50390150D01*
X63709620Y-49241683D01*
X64850265Y-49291500D01*
X65093150Y-48927884D01*
X65159928Y-48823188D01*
X65181110Y-48773515D01*
X65188326Y-48720100D01*
X65181031Y-48666399D01*
X64849325Y-48148500D01*
X63716615Y-48188268D01*
X63265720Y-47330184D01*
X63048915Y-46936200D01*
X62887183Y-46653227D01*
X62728915Y-46376200D01*
X62508915Y-46036200D01*
X62194071Y-45633845D01*
X62013901Y-45424350D01*
X61889752Y-45285410D01*
X61843844Y-45228070D01*
X61818915Y-45196200D01*
X61797936Y-45168761D01*
X61768565Y-45126082D01*
X61741085Y-45082075D01*
X61741085Y-45068925D01*
X61752454Y-45062400D01*
X61808915Y-45066200D01*
X61858915Y-45076200D01*
X61901366Y-45087607D01*
X61998915Y-45136200D01*
X62057930Y-45181206D01*
X62178915Y-45286200D01*
X62315820Y-45401192D01*
X62478915Y-45536200D01*
X62573711Y-45621179D01*
X62668915Y-45716200D01*
X62728915Y-45776200D01*
X62876055Y-45922195D01*
X63178399Y-46223211D01*
X63475260Y-46567615D01*
X63578915Y-46686200D01*
X63772122Y-46912020D01*
X64018796Y-47208399D01*
X64110591Y-47310027D01*
X64206957Y-47407219D01*
X64277185Y-47471191D01*
X64350830Y-47531199D01*
X64389561Y-47548773D01*
X64425287Y-47548886D01*
X64826434Y-47456393D01*
X64939927Y-47445433D01*
X65053493Y-47455570D01*
X65152536Y-47485679D01*
X65242248Y-47537312D01*
X65372412Y-47634396D01*
X65812115Y-48065931D01*
X65812115Y-44986200D01*
X66878915Y-44986200D01*
X66878915Y-52453800D01*
G36*
X66878915Y-52453800D02*
G01*
X65812115Y-52453800D01*
X65812115Y-49386390D01*
X65466338Y-49705117D01*
X65311785Y-49827034D01*
X65242961Y-49886067D01*
X65177172Y-49929960D01*
X65122924Y-49958803D01*
X65066357Y-49982813D01*
X65028450Y-49997021D01*
X64990086Y-49985584D01*
X64790102Y-49931944D01*
X64587839Y-49887637D01*
X64480319Y-49881802D01*
X64375284Y-49905537D01*
X64273705Y-49958268D01*
X64167928Y-50055945D01*
X63865574Y-50409484D01*
X63235010Y-51159357D01*
X62915784Y-51501810D01*
X62449158Y-51905854D01*
X62329048Y-52005856D01*
X61906184Y-52327812D01*
X61788915Y-52377600D01*
X61754705Y-52377583D01*
X61742992Y-52370836D01*
X61743120Y-52357345D01*
X61802174Y-52267774D01*
X61897475Y-52147243D01*
X62031049Y-51998292D01*
X62202495Y-51827213D01*
X62568622Y-51308470D01*
X62771312Y-50982943D01*
X62924612Y-50727395D01*
X63112573Y-50390150D01*
X63709620Y-49241683D01*
X64850265Y-49291500D01*
X65093150Y-48927884D01*
X65159928Y-48823188D01*
X65181110Y-48773515D01*
X65188326Y-48720100D01*
X65181031Y-48666399D01*
X64849325Y-48148500D01*
X63716615Y-48188268D01*
X63265720Y-47330184D01*
X63048915Y-46936200D01*
X62887183Y-46653227D01*
X62728915Y-46376200D01*
X62508915Y-46036200D01*
X62194071Y-45633845D01*
X62013901Y-45424350D01*
X61889752Y-45285410D01*
X61843844Y-45228070D01*
X61818915Y-45196200D01*
X61797936Y-45168761D01*
X61768565Y-45126082D01*
X61741085Y-45082075D01*
X61741085Y-45068925D01*
X61752454Y-45062400D01*
X61808915Y-45066200D01*
X61858915Y-45076200D01*
X61901366Y-45087607D01*
X61998915Y-45136200D01*
X62057930Y-45181206D01*
X62178915Y-45286200D01*
X62315820Y-45401192D01*
X62478915Y-45536200D01*
X62573711Y-45621179D01*
X62668915Y-45716200D01*
X62728915Y-45776200D01*
X62876055Y-45922195D01*
X63178399Y-46223211D01*
X63475260Y-46567615D01*
X63578915Y-46686200D01*
X63772122Y-46912020D01*
X64018796Y-47208399D01*
X64110591Y-47310027D01*
X64206957Y-47407219D01*
X64277185Y-47471191D01*
X64350830Y-47531199D01*
X64389561Y-47548773D01*
X64425287Y-47548886D01*
X64826434Y-47456393D01*
X64939927Y-47445433D01*
X65053493Y-47455570D01*
X65152536Y-47485679D01*
X65242248Y-47537312D01*
X65372412Y-47634396D01*
X65812115Y-48065931D01*
X65812115Y-44986200D01*
X66878915Y-44986200D01*
X66878915Y-52453800D01*
G37*
%TD*%
M02*
