%TF.GenerationSoftware,KiCad,Pcbnew,9.0.5*%
%TF.CreationDate,2025-12-09T16:25:26-06:00*%
%TF.ProjectId,KBoardV1,4b426f61-7264-4563-912e-6b696361645f,rev?*%
%TF.SameCoordinates,Original*%
%TF.FileFunction,Legend,Top*%
%TF.FilePolarity,Positive*%
%FSLAX46Y46*%
G04 Gerber Fmt 4.6, Leading zero omitted, Abs format (unit mm)*
G04 Created by KiCad (PCBNEW 9.0.5) date 2025-12-09 16:25:26*
%MOMM*%
%LPD*%
G01*
G04 APERTURE LIST*
%ADD10C,0.040000*%
%ADD11C,0.150000*%
%ADD12C,0.000600*%
%ADD13C,0.100000*%
%ADD14C,0.120000*%
G04 APERTURE END LIST*
D10*
X69253934Y-75203443D02*
X69253934Y-75003443D01*
X69253934Y-75003443D02*
X69320600Y-75146300D01*
X69320600Y-75146300D02*
X69387267Y-75003443D01*
X69387267Y-75003443D02*
X69387267Y-75203443D01*
X69558695Y-75193920D02*
X69539647Y-75203443D01*
X69539647Y-75203443D02*
X69501552Y-75203443D01*
X69501552Y-75203443D02*
X69482505Y-75193920D01*
X69482505Y-75193920D02*
X69472981Y-75174872D01*
X69472981Y-75174872D02*
X69472981Y-75098681D01*
X69472981Y-75098681D02*
X69482505Y-75079634D01*
X69482505Y-75079634D02*
X69501552Y-75070110D01*
X69501552Y-75070110D02*
X69539647Y-75070110D01*
X69539647Y-75070110D02*
X69558695Y-75079634D01*
X69558695Y-75079634D02*
X69568219Y-75098681D01*
X69568219Y-75098681D02*
X69568219Y-75117729D01*
X69568219Y-75117729D02*
X69472981Y-75136777D01*
X69739648Y-75070110D02*
X69739648Y-75232015D01*
X69739648Y-75232015D02*
X69730124Y-75251062D01*
X69730124Y-75251062D02*
X69720600Y-75260586D01*
X69720600Y-75260586D02*
X69701553Y-75270110D01*
X69701553Y-75270110D02*
X69672981Y-75270110D01*
X69672981Y-75270110D02*
X69653934Y-75260586D01*
X69739648Y-75193920D02*
X69720600Y-75203443D01*
X69720600Y-75203443D02*
X69682505Y-75203443D01*
X69682505Y-75203443D02*
X69663457Y-75193920D01*
X69663457Y-75193920D02*
X69653934Y-75184396D01*
X69653934Y-75184396D02*
X69644410Y-75165348D01*
X69644410Y-75165348D02*
X69644410Y-75108205D01*
X69644410Y-75108205D02*
X69653934Y-75089158D01*
X69653934Y-75089158D02*
X69663457Y-75079634D01*
X69663457Y-75079634D02*
X69682505Y-75070110D01*
X69682505Y-75070110D02*
X69720600Y-75070110D01*
X69720600Y-75070110D02*
X69739648Y-75079634D01*
X69920600Y-75203443D02*
X69920600Y-75098681D01*
X69920600Y-75098681D02*
X69911076Y-75079634D01*
X69911076Y-75079634D02*
X69892028Y-75070110D01*
X69892028Y-75070110D02*
X69853933Y-75070110D01*
X69853933Y-75070110D02*
X69834886Y-75079634D01*
X69920600Y-75193920D02*
X69901552Y-75203443D01*
X69901552Y-75203443D02*
X69853933Y-75203443D01*
X69853933Y-75203443D02*
X69834886Y-75193920D01*
X69834886Y-75193920D02*
X69825362Y-75174872D01*
X69825362Y-75174872D02*
X69825362Y-75155824D01*
X69825362Y-75155824D02*
X69834886Y-75136777D01*
X69834886Y-75136777D02*
X69853933Y-75127253D01*
X69853933Y-75127253D02*
X69901552Y-75127253D01*
X69901552Y-75127253D02*
X69920600Y-75117729D01*
X70101552Y-75193920D02*
X70082504Y-75203443D01*
X70082504Y-75203443D02*
X70044409Y-75203443D01*
X70044409Y-75203443D02*
X70025361Y-75193920D01*
X70025361Y-75193920D02*
X70015838Y-75184396D01*
X70015838Y-75184396D02*
X70006314Y-75165348D01*
X70006314Y-75165348D02*
X70006314Y-75108205D01*
X70006314Y-75108205D02*
X70015838Y-75089158D01*
X70015838Y-75089158D02*
X70025361Y-75079634D01*
X70025361Y-75079634D02*
X70044409Y-75070110D01*
X70044409Y-75070110D02*
X70082504Y-75070110D01*
X70082504Y-75070110D02*
X70101552Y-75079634D01*
X70215838Y-75203443D02*
X70196790Y-75193920D01*
X70196790Y-75193920D02*
X70187267Y-75184396D01*
X70187267Y-75184396D02*
X70177743Y-75165348D01*
X70177743Y-75165348D02*
X70177743Y-75108205D01*
X70177743Y-75108205D02*
X70187267Y-75089158D01*
X70187267Y-75089158D02*
X70196790Y-75079634D01*
X70196790Y-75079634D02*
X70215838Y-75070110D01*
X70215838Y-75070110D02*
X70244409Y-75070110D01*
X70244409Y-75070110D02*
X70263457Y-75079634D01*
X70263457Y-75079634D02*
X70272981Y-75089158D01*
X70272981Y-75089158D02*
X70282505Y-75108205D01*
X70282505Y-75108205D02*
X70282505Y-75165348D01*
X70282505Y-75165348D02*
X70272981Y-75184396D01*
X70272981Y-75184396D02*
X70263457Y-75193920D01*
X70263457Y-75193920D02*
X70244409Y-75203443D01*
X70244409Y-75203443D02*
X70215838Y-75203443D01*
X70368219Y-75203443D02*
X70368219Y-75070110D01*
X70368219Y-75108205D02*
X70377742Y-75089158D01*
X70377742Y-75089158D02*
X70387266Y-75079634D01*
X70387266Y-75079634D02*
X70406314Y-75070110D01*
X70406314Y-75070110D02*
X70425361Y-75070110D01*
X70492029Y-75070110D02*
X70492029Y-75270110D01*
X70492029Y-75079634D02*
X70511076Y-75070110D01*
X70511076Y-75070110D02*
X70549171Y-75070110D01*
X70549171Y-75070110D02*
X70568219Y-75079634D01*
X70568219Y-75079634D02*
X70577743Y-75089158D01*
X70577743Y-75089158D02*
X70587267Y-75108205D01*
X70587267Y-75108205D02*
X70587267Y-75165348D01*
X70587267Y-75165348D02*
X70577743Y-75184396D01*
X70577743Y-75184396D02*
X70568219Y-75193920D01*
X70568219Y-75193920D02*
X70549171Y-75203443D01*
X70549171Y-75203443D02*
X70511076Y-75203443D01*
X70511076Y-75203443D02*
X70492029Y-75193920D01*
X70939647Y-75184396D02*
X70930123Y-75193920D01*
X70930123Y-75193920D02*
X70901552Y-75203443D01*
X70901552Y-75203443D02*
X70882504Y-75203443D01*
X70882504Y-75203443D02*
X70853933Y-75193920D01*
X70853933Y-75193920D02*
X70834885Y-75174872D01*
X70834885Y-75174872D02*
X70825362Y-75155824D01*
X70825362Y-75155824D02*
X70815838Y-75117729D01*
X70815838Y-75117729D02*
X70815838Y-75089158D01*
X70815838Y-75089158D02*
X70825362Y-75051062D01*
X70825362Y-75051062D02*
X70834885Y-75032015D01*
X70834885Y-75032015D02*
X70853933Y-75012967D01*
X70853933Y-75012967D02*
X70882504Y-75003443D01*
X70882504Y-75003443D02*
X70901552Y-75003443D01*
X70901552Y-75003443D02*
X70930123Y-75012967D01*
X70930123Y-75012967D02*
X70939647Y-75022491D01*
X71101552Y-75193920D02*
X71082504Y-75203443D01*
X71082504Y-75203443D02*
X71044409Y-75203443D01*
X71044409Y-75203443D02*
X71025362Y-75193920D01*
X71025362Y-75193920D02*
X71015838Y-75174872D01*
X71015838Y-75174872D02*
X71015838Y-75098681D01*
X71015838Y-75098681D02*
X71025362Y-75079634D01*
X71025362Y-75079634D02*
X71044409Y-75070110D01*
X71044409Y-75070110D02*
X71082504Y-75070110D01*
X71082504Y-75070110D02*
X71101552Y-75079634D01*
X71101552Y-75079634D02*
X71111076Y-75098681D01*
X71111076Y-75098681D02*
X71111076Y-75117729D01*
X71111076Y-75117729D02*
X71015838Y-75136777D01*
X71196791Y-75203443D02*
X71196791Y-75070110D01*
X71196791Y-75108205D02*
X71206314Y-75089158D01*
X71206314Y-75089158D02*
X71215838Y-75079634D01*
X71215838Y-75079634D02*
X71234886Y-75070110D01*
X71234886Y-75070110D02*
X71253933Y-75070110D01*
X71292029Y-75070110D02*
X71368220Y-75070110D01*
X71320601Y-75003443D02*
X71320601Y-75174872D01*
X71320601Y-75174872D02*
X71330124Y-75193920D01*
X71330124Y-75193920D02*
X71349172Y-75203443D01*
X71349172Y-75203443D02*
X71368220Y-75203443D01*
X71434887Y-75203443D02*
X71434887Y-75070110D01*
X71434887Y-75003443D02*
X71425363Y-75012967D01*
X71425363Y-75012967D02*
X71434887Y-75022491D01*
X71434887Y-75022491D02*
X71444410Y-75012967D01*
X71444410Y-75012967D02*
X71434887Y-75003443D01*
X71434887Y-75003443D02*
X71434887Y-75022491D01*
X71501553Y-75070110D02*
X71577744Y-75070110D01*
X71530125Y-75203443D02*
X71530125Y-75032015D01*
X71530125Y-75032015D02*
X71539648Y-75012967D01*
X71539648Y-75012967D02*
X71558696Y-75003443D01*
X71558696Y-75003443D02*
X71577744Y-75003443D01*
X71644411Y-75203443D02*
X71644411Y-75070110D01*
X71644411Y-75003443D02*
X71634887Y-75012967D01*
X71634887Y-75012967D02*
X71644411Y-75022491D01*
X71644411Y-75022491D02*
X71653934Y-75012967D01*
X71653934Y-75012967D02*
X71644411Y-75003443D01*
X71644411Y-75003443D02*
X71644411Y-75022491D01*
X71815839Y-75193920D02*
X71796791Y-75203443D01*
X71796791Y-75203443D02*
X71758696Y-75203443D01*
X71758696Y-75203443D02*
X71739649Y-75193920D01*
X71739649Y-75193920D02*
X71730125Y-75174872D01*
X71730125Y-75174872D02*
X71730125Y-75098681D01*
X71730125Y-75098681D02*
X71739649Y-75079634D01*
X71739649Y-75079634D02*
X71758696Y-75070110D01*
X71758696Y-75070110D02*
X71796791Y-75070110D01*
X71796791Y-75070110D02*
X71815839Y-75079634D01*
X71815839Y-75079634D02*
X71825363Y-75098681D01*
X71825363Y-75098681D02*
X71825363Y-75117729D01*
X71825363Y-75117729D02*
X71730125Y-75136777D01*
X71996792Y-75203443D02*
X71996792Y-75003443D01*
X71996792Y-75193920D02*
X71977744Y-75203443D01*
X71977744Y-75203443D02*
X71939649Y-75203443D01*
X71939649Y-75203443D02*
X71920601Y-75193920D01*
X71920601Y-75193920D02*
X71911078Y-75184396D01*
X71911078Y-75184396D02*
X71901554Y-75165348D01*
X71901554Y-75165348D02*
X71901554Y-75108205D01*
X71901554Y-75108205D02*
X71911078Y-75089158D01*
X71911078Y-75089158D02*
X71920601Y-75079634D01*
X71920601Y-75079634D02*
X71939649Y-75070110D01*
X71939649Y-75070110D02*
X71977744Y-75070110D01*
X71977744Y-75070110D02*
X71996792Y-75079634D01*
X72092030Y-75184396D02*
X72101553Y-75193920D01*
X72101553Y-75193920D02*
X72092030Y-75203443D01*
X72092030Y-75203443D02*
X72082506Y-75193920D01*
X72082506Y-75193920D02*
X72092030Y-75184396D01*
X72092030Y-75184396D02*
X72092030Y-75203443D01*
D11*
X70566666Y-24854819D02*
X70566666Y-25569104D01*
X70566666Y-25569104D02*
X70519047Y-25711961D01*
X70519047Y-25711961D02*
X70423809Y-25807200D01*
X70423809Y-25807200D02*
X70280952Y-25854819D01*
X70280952Y-25854819D02*
X70185714Y-25854819D01*
X70947619Y-24854819D02*
X71566666Y-24854819D01*
X71566666Y-24854819D02*
X71233333Y-25235771D01*
X71233333Y-25235771D02*
X71376190Y-25235771D01*
X71376190Y-25235771D02*
X71471428Y-25283390D01*
X71471428Y-25283390D02*
X71519047Y-25331009D01*
X71519047Y-25331009D02*
X71566666Y-25426247D01*
X71566666Y-25426247D02*
X71566666Y-25664342D01*
X71566666Y-25664342D02*
X71519047Y-25759580D01*
X71519047Y-25759580D02*
X71471428Y-25807200D01*
X71471428Y-25807200D02*
X71376190Y-25854819D01*
X71376190Y-25854819D02*
X71090476Y-25854819D01*
X71090476Y-25854819D02*
X70995238Y-25807200D01*
X70995238Y-25807200D02*
X70947619Y-25759580D01*
X60575750Y-50753246D02*
X61148170Y-51325666D01*
X61148170Y-51325666D02*
X61249185Y-51359338D01*
X61249185Y-51359338D02*
X61316529Y-51359338D01*
X61316529Y-51359338D02*
X61417544Y-51325666D01*
X61417544Y-51325666D02*
X61552231Y-51190979D01*
X61552231Y-51190979D02*
X61585903Y-51089964D01*
X61585903Y-51089964D02*
X61585903Y-51022620D01*
X61585903Y-51022620D02*
X61552231Y-50921605D01*
X61552231Y-50921605D02*
X60979811Y-50349185D01*
X62394025Y-50349185D02*
X61989964Y-50753246D01*
X62191994Y-50551216D02*
X61484888Y-49844109D01*
X61484888Y-49844109D02*
X61518559Y-50012468D01*
X61518559Y-50012468D02*
X61518559Y-50147155D01*
X61518559Y-50147155D02*
X61484888Y-50248170D01*
X62954819Y-47661904D02*
X63764342Y-47661904D01*
X63764342Y-47661904D02*
X63859580Y-47614285D01*
X63859580Y-47614285D02*
X63907200Y-47566666D01*
X63907200Y-47566666D02*
X63954819Y-47471428D01*
X63954819Y-47471428D02*
X63954819Y-47280952D01*
X63954819Y-47280952D02*
X63907200Y-47185714D01*
X63907200Y-47185714D02*
X63859580Y-47138095D01*
X63859580Y-47138095D02*
X63764342Y-47090476D01*
X63764342Y-47090476D02*
X62954819Y-47090476D01*
X62954819Y-46709523D02*
X62954819Y-46090476D01*
X62954819Y-46090476D02*
X63335771Y-46423809D01*
X63335771Y-46423809D02*
X63335771Y-46280952D01*
X63335771Y-46280952D02*
X63383390Y-46185714D01*
X63383390Y-46185714D02*
X63431009Y-46138095D01*
X63431009Y-46138095D02*
X63526247Y-46090476D01*
X63526247Y-46090476D02*
X63764342Y-46090476D01*
X63764342Y-46090476D02*
X63859580Y-46138095D01*
X63859580Y-46138095D02*
X63907200Y-46185714D01*
X63907200Y-46185714D02*
X63954819Y-46280952D01*
X63954819Y-46280952D02*
X63954819Y-46566666D01*
X63954819Y-46566666D02*
X63907200Y-46661904D01*
X63907200Y-46661904D02*
X63859580Y-46709523D01*
X57823809Y-56778628D02*
X57823809Y-57254819D01*
X57490476Y-56254819D02*
X57823809Y-56778628D01*
X57823809Y-56778628D02*
X58157142Y-56254819D01*
X59014285Y-57254819D02*
X58442857Y-57254819D01*
X58728571Y-57254819D02*
X58728571Y-56254819D01*
X58728571Y-56254819D02*
X58633333Y-56397676D01*
X58633333Y-56397676D02*
X58538095Y-56492914D01*
X58538095Y-56492914D02*
X58442857Y-56540533D01*
X59938095Y-33054819D02*
X59938095Y-33864342D01*
X59938095Y-33864342D02*
X59985714Y-33959580D01*
X59985714Y-33959580D02*
X60033333Y-34007200D01*
X60033333Y-34007200D02*
X60128571Y-34054819D01*
X60128571Y-34054819D02*
X60319047Y-34054819D01*
X60319047Y-34054819D02*
X60414285Y-34007200D01*
X60414285Y-34007200D02*
X60461904Y-33959580D01*
X60461904Y-33959580D02*
X60509523Y-33864342D01*
X60509523Y-33864342D02*
X60509523Y-33054819D01*
X60938095Y-33150057D02*
X60985714Y-33102438D01*
X60985714Y-33102438D02*
X61080952Y-33054819D01*
X61080952Y-33054819D02*
X61319047Y-33054819D01*
X61319047Y-33054819D02*
X61414285Y-33102438D01*
X61414285Y-33102438D02*
X61461904Y-33150057D01*
X61461904Y-33150057D02*
X61509523Y-33245295D01*
X61509523Y-33245295D02*
X61509523Y-33340533D01*
X61509523Y-33340533D02*
X61461904Y-33483390D01*
X61461904Y-33483390D02*
X60890476Y-34054819D01*
X60890476Y-34054819D02*
X61509523Y-34054819D01*
X63166667Y-44407200D02*
X63309524Y-44454819D01*
X63309524Y-44454819D02*
X63547619Y-44454819D01*
X63547619Y-44454819D02*
X63642857Y-44407200D01*
X63642857Y-44407200D02*
X63690476Y-44359580D01*
X63690476Y-44359580D02*
X63738095Y-44264342D01*
X63738095Y-44264342D02*
X63738095Y-44169104D01*
X63738095Y-44169104D02*
X63690476Y-44073866D01*
X63690476Y-44073866D02*
X63642857Y-44026247D01*
X63642857Y-44026247D02*
X63547619Y-43978628D01*
X63547619Y-43978628D02*
X63357143Y-43931009D01*
X63357143Y-43931009D02*
X63261905Y-43883390D01*
X63261905Y-43883390D02*
X63214286Y-43835771D01*
X63214286Y-43835771D02*
X63166667Y-43740533D01*
X63166667Y-43740533D02*
X63166667Y-43645295D01*
X63166667Y-43645295D02*
X63214286Y-43550057D01*
X63214286Y-43550057D02*
X63261905Y-43502438D01*
X63261905Y-43502438D02*
X63357143Y-43454819D01*
X63357143Y-43454819D02*
X63595238Y-43454819D01*
X63595238Y-43454819D02*
X63738095Y-43502438D01*
X64071429Y-43454819D02*
X64309524Y-44454819D01*
X64309524Y-44454819D02*
X64500000Y-43740533D01*
X64500000Y-43740533D02*
X64690476Y-44454819D01*
X64690476Y-44454819D02*
X64928572Y-43454819D01*
X65833333Y-44454819D02*
X65261905Y-44454819D01*
X65547619Y-44454819D02*
X65547619Y-43454819D01*
X65547619Y-43454819D02*
X65452381Y-43597676D01*
X65452381Y-43597676D02*
X65357143Y-43692914D01*
X65357143Y-43692914D02*
X65261905Y-43740533D01*
X59266666Y-73354819D02*
X59266666Y-74069104D01*
X59266666Y-74069104D02*
X59219047Y-74211961D01*
X59219047Y-74211961D02*
X59123809Y-74307200D01*
X59123809Y-74307200D02*
X58980952Y-74354819D01*
X58980952Y-74354819D02*
X58885714Y-74354819D01*
X60171428Y-73688152D02*
X60171428Y-74354819D01*
X59933333Y-73307200D02*
X59695238Y-74021485D01*
X59695238Y-74021485D02*
X60314285Y-74021485D01*
X58166666Y-24754819D02*
X58166666Y-25469104D01*
X58166666Y-25469104D02*
X58119047Y-25611961D01*
X58119047Y-25611961D02*
X58023809Y-25707200D01*
X58023809Y-25707200D02*
X57880952Y-25754819D01*
X57880952Y-25754819D02*
X57785714Y-25754819D01*
X58595238Y-24850057D02*
X58642857Y-24802438D01*
X58642857Y-24802438D02*
X58738095Y-24754819D01*
X58738095Y-24754819D02*
X58976190Y-24754819D01*
X58976190Y-24754819D02*
X59071428Y-24802438D01*
X59071428Y-24802438D02*
X59119047Y-24850057D01*
X59119047Y-24850057D02*
X59166666Y-24945295D01*
X59166666Y-24945295D02*
X59166666Y-25040533D01*
X59166666Y-25040533D02*
X59119047Y-25183390D01*
X59119047Y-25183390D02*
X58547619Y-25754819D01*
X58547619Y-25754819D02*
X59166666Y-25754819D01*
X64666666Y-32454819D02*
X64666666Y-33169104D01*
X64666666Y-33169104D02*
X64619047Y-33311961D01*
X64619047Y-33311961D02*
X64523809Y-33407200D01*
X64523809Y-33407200D02*
X64380952Y-33454819D01*
X64380952Y-33454819D02*
X64285714Y-33454819D01*
X65666666Y-33454819D02*
X65095238Y-33454819D01*
X65380952Y-33454819D02*
X65380952Y-32454819D01*
X65380952Y-32454819D02*
X65285714Y-32597676D01*
X65285714Y-32597676D02*
X65190476Y-32692914D01*
X65190476Y-32692914D02*
X65095238Y-32740533D01*
D12*
%TO.C,REF\u002A\u002A*%
X59310000Y-64500000D02*
X59310000Y-68233800D01*
X59310000Y-68233800D02*
X59310000Y-71967600D01*
X59310000Y-71967600D02*
X59843400Y-71967600D01*
X59843400Y-64500000D02*
X59310000Y-64500000D01*
X59843400Y-71967600D02*
X60376800Y-71967600D01*
X60376800Y-64500000D02*
X59843400Y-64500000D01*
X60376800Y-66039865D02*
X60376800Y-64500000D01*
X60376800Y-67579731D02*
X60376800Y-66039865D01*
X60376800Y-68900190D02*
X60722577Y-69218917D01*
X60376800Y-70433895D02*
X60376800Y-68900190D01*
X60376800Y-71967600D02*
X60376800Y-70433895D01*
X60709106Y-67253598D02*
X60376800Y-67579731D01*
X60722577Y-69218917D02*
X60877130Y-69351283D01*
X61035522Y-68120567D02*
X61162995Y-67921219D01*
X61162525Y-68546381D02*
X61029004Y-68336988D01*
X61162995Y-67921219D02*
X61339591Y-67662300D01*
X61338650Y-68805300D02*
X61162525Y-68546381D01*
X61339591Y-67662300D02*
X61905945Y-67682184D01*
X61756922Y-67061140D02*
X61362481Y-66970193D01*
X61905945Y-67682184D02*
X62472300Y-67702068D01*
X61908973Y-68780392D02*
X61338650Y-68805300D01*
X62020987Y-69569745D02*
X62323341Y-69923284D01*
X62323341Y-69923284D02*
X62520614Y-70164444D01*
X62416793Y-66425820D02*
X62170119Y-66722199D01*
X62472300Y-67702068D02*
X62923195Y-66843984D01*
X62479295Y-68755483D02*
X61908973Y-68780392D01*
X62520614Y-70164444D02*
X62742067Y-70427544D01*
X62742067Y-70427544D02*
X62953905Y-70673157D01*
X62888381Y-69542392D02*
X62479295Y-68755483D01*
X62923195Y-66843984D02*
X63290778Y-66167027D01*
X62953905Y-70673157D02*
X63118077Y-70856071D01*
X63010516Y-65737011D02*
X62416793Y-66425820D01*
X63264303Y-70241195D02*
X62888381Y-69542392D01*
X63290778Y-66167027D02*
X63580002Y-65691159D01*
X63570902Y-70752291D02*
X63264303Y-70241195D01*
X63615204Y-65134979D02*
X63010516Y-65737011D01*
X63619646Y-71319652D02*
X63859867Y-71519656D01*
X63620293Y-70822270D02*
X63570902Y-70752291D01*
X63856360Y-65308670D02*
X64133328Y-64986621D01*
X63856664Y-71157166D02*
X63620293Y-70822270D01*
X63859867Y-71519656D02*
X64282731Y-71841611D01*
X64130985Y-64695006D02*
X63615204Y-65134979D01*
X64133328Y-64986621D02*
X64175014Y-64938150D01*
X64175014Y-64938150D02*
X64299163Y-64799210D01*
X64291440Y-71661043D02*
X64024291Y-71363140D01*
X64299163Y-64799210D02*
X64390979Y-64682561D01*
X64326273Y-71705098D02*
X64291440Y-71661043D01*
X64386741Y-71781574D02*
X64326273Y-71705098D01*
X60709106Y-67253598D02*
G75*
G02*
X60946664Y-67051107I1559094J-1588502D01*
G01*
X60946667Y-67051112D02*
G75*
G02*
X61135411Y-66969367I271233J-367488D01*
G01*
X61000589Y-68233746D02*
G75*
G02*
X61035522Y-68120567I201311J-154D01*
G01*
X61011732Y-69443760D02*
G75*
G02*
X60877132Y-69351280I594568J1009560D01*
G01*
X61029004Y-68336988D02*
G75*
G02*
X61000590Y-68233746I172796J103088D01*
G01*
X61122558Y-69496616D02*
G75*
G02*
X61011734Y-69443756I246742J659916D01*
G01*
X61135412Y-66969370D02*
G75*
G02*
X61362481Y-66970194I111338J-606010D01*
G01*
X61198827Y-69499384D02*
G75*
G02*
X61122550Y-69496638I-34027J115584D01*
G01*
X61198827Y-69499384D02*
G75*
G02*
X61601070Y-69401434I1256173J-4283716D01*
G01*
X61601071Y-69401437D02*
G75*
G02*
X61813630Y-69419339I74729J-383563D01*
G01*
X61813631Y-69419337D02*
G75*
G02*
X62020969Y-69569760I-171331J-454263D01*
G01*
X61838085Y-67044999D02*
G75*
G02*
X61756922Y-67061142I-56885J73899D01*
G01*
X61981958Y-66921019D02*
G75*
G02*
X61838085Y-67044999I-1195558J1241919D01*
G01*
X62170119Y-66722199D02*
G75*
G02*
X61981958Y-66921019I-2229211J1921254D01*
G01*
X63580002Y-65691159D02*
G75*
G02*
X64133332Y-64986624I4430698J-2910241D01*
G01*
X63619646Y-71319652D02*
G75*
G02*
X63118081Y-70856068I2660554J3381652D01*
G01*
X64024291Y-71363140D02*
G75*
G02*
X63620290Y-70822272I3739909J3214840D01*
G01*
X64130985Y-64695006D02*
G75*
G02*
X64436461Y-64576167I305515J-333294D01*
G01*
X64326273Y-71705098D02*
G75*
G02*
X64445753Y-71871074I-901573J-775002D01*
G01*
X64434210Y-71891400D02*
G75*
G02*
X64282730Y-71841612I-10J255300D01*
G01*
X64436461Y-64576200D02*
G75*
G02*
X64447771Y-64595977I39J-13100D01*
G01*
X64445753Y-71871074D02*
G75*
G02*
X64434210Y-71891384I-11453J-6926D01*
G01*
X64447722Y-64595948D02*
G75*
G02*
X64390977Y-64682560I-976622J577948D01*
G01*
D13*
X60376800Y-67579731D02*
X60816503Y-67148196D01*
X60946667Y-67051112D01*
X61036379Y-66999479D01*
X61135422Y-66969370D01*
X61248988Y-66959233D01*
X61362481Y-66970193D01*
X61763628Y-67062686D01*
X61799354Y-67062573D01*
X61838085Y-67044999D01*
X61911730Y-66984991D01*
X61981958Y-66921019D01*
X62078324Y-66823827D01*
X62170119Y-66722199D01*
X62416793Y-66425820D01*
X62610000Y-66200000D01*
X62713655Y-66081415D01*
X63010516Y-65737011D01*
X63312860Y-65435995D01*
X63460000Y-65290000D01*
X63520000Y-65230000D01*
X63615204Y-65134979D01*
X63710000Y-65050000D01*
X63873095Y-64914992D01*
X64010000Y-64800000D01*
X64130985Y-64695006D01*
X64190000Y-64650000D01*
X64287549Y-64601407D01*
X64330000Y-64590000D01*
X64380000Y-64580000D01*
X64436461Y-64576200D01*
X64447830Y-64582725D01*
X64447830Y-64595875D01*
X64420350Y-64639882D01*
X64390979Y-64682561D01*
X64370000Y-64710000D01*
X64345071Y-64741870D01*
X64299163Y-64799210D01*
X64175014Y-64938150D01*
X63994844Y-65147645D01*
X63680000Y-65550000D01*
X63460000Y-65890000D01*
X63301732Y-66167027D01*
X63140000Y-66450000D01*
X62923195Y-66843984D01*
X62472300Y-67702068D01*
X61339590Y-67662300D01*
X61007884Y-68180199D01*
X61000589Y-68233900D01*
X61007805Y-68287315D01*
X61028987Y-68336988D01*
X61095765Y-68441684D01*
X61338650Y-68805300D01*
X62479295Y-68755483D01*
X63076342Y-69903950D01*
X63264303Y-70241195D01*
X63417603Y-70496743D01*
X63620293Y-70822270D01*
X63986420Y-71341013D01*
X64157866Y-71512092D01*
X64291440Y-71661043D01*
X64386741Y-71781574D01*
X64445795Y-71871145D01*
X64445923Y-71884636D01*
X64434210Y-71891383D01*
X64400000Y-71891400D01*
X64282731Y-71841612D01*
X63859867Y-71519656D01*
X63739757Y-71419654D01*
X63273131Y-71015610D01*
X62953905Y-70673157D01*
X62323341Y-69923284D01*
X62020987Y-69569745D01*
X61915210Y-69472068D01*
X61813631Y-69419337D01*
X61708596Y-69395602D01*
X61601076Y-69401437D01*
X61398813Y-69445744D01*
X61198829Y-69499384D01*
X61160465Y-69510821D01*
X61122558Y-69496613D01*
X61065991Y-69472603D01*
X61011743Y-69443760D01*
X60945954Y-69399867D01*
X60877130Y-69340834D01*
X60722577Y-69218917D01*
X60376800Y-68900190D01*
X60376800Y-71967600D01*
X59310000Y-71967600D01*
X59310000Y-64500000D01*
X60376800Y-64500000D01*
X60376800Y-67579731D01*
G36*
X60376800Y-67579731D02*
G01*
X60816503Y-67148196D01*
X60946667Y-67051112D01*
X61036379Y-66999479D01*
X61135422Y-66969370D01*
X61248988Y-66959233D01*
X61362481Y-66970193D01*
X61763628Y-67062686D01*
X61799354Y-67062573D01*
X61838085Y-67044999D01*
X61911730Y-66984991D01*
X61981958Y-66921019D01*
X62078324Y-66823827D01*
X62170119Y-66722199D01*
X62416793Y-66425820D01*
X62610000Y-66200000D01*
X62713655Y-66081415D01*
X63010516Y-65737011D01*
X63312860Y-65435995D01*
X63460000Y-65290000D01*
X63520000Y-65230000D01*
X63615204Y-65134979D01*
X63710000Y-65050000D01*
X63873095Y-64914992D01*
X64010000Y-64800000D01*
X64130985Y-64695006D01*
X64190000Y-64650000D01*
X64287549Y-64601407D01*
X64330000Y-64590000D01*
X64380000Y-64580000D01*
X64436461Y-64576200D01*
X64447830Y-64582725D01*
X64447830Y-64595875D01*
X64420350Y-64639882D01*
X64390979Y-64682561D01*
X64370000Y-64710000D01*
X64345071Y-64741870D01*
X64299163Y-64799210D01*
X64175014Y-64938150D01*
X63994844Y-65147645D01*
X63680000Y-65550000D01*
X63460000Y-65890000D01*
X63301732Y-66167027D01*
X63140000Y-66450000D01*
X62923195Y-66843984D01*
X62472300Y-67702068D01*
X61339590Y-67662300D01*
X61007884Y-68180199D01*
X61000589Y-68233900D01*
X61007805Y-68287315D01*
X61028987Y-68336988D01*
X61095765Y-68441684D01*
X61338650Y-68805300D01*
X62479295Y-68755483D01*
X63076342Y-69903950D01*
X63264303Y-70241195D01*
X63417603Y-70496743D01*
X63620293Y-70822270D01*
X63986420Y-71341013D01*
X64157866Y-71512092D01*
X64291440Y-71661043D01*
X64386741Y-71781574D01*
X64445795Y-71871145D01*
X64445923Y-71884636D01*
X64434210Y-71891383D01*
X64400000Y-71891400D01*
X64282731Y-71841612D01*
X63859867Y-71519656D01*
X63739757Y-71419654D01*
X63273131Y-71015610D01*
X62953905Y-70673157D01*
X62323341Y-69923284D01*
X62020987Y-69569745D01*
X61915210Y-69472068D01*
X61813631Y-69419337D01*
X61708596Y-69395602D01*
X61601076Y-69401437D01*
X61398813Y-69445744D01*
X61198829Y-69499384D01*
X61160465Y-69510821D01*
X61122558Y-69496613D01*
X61065991Y-69472603D01*
X61011743Y-69443760D01*
X60945954Y-69399867D01*
X60877130Y-69340834D01*
X60722577Y-69218917D01*
X60376800Y-68900190D01*
X60376800Y-71967600D01*
X59310000Y-71967600D01*
X59310000Y-64500000D01*
X60376800Y-64500000D01*
X60376800Y-67579731D01*
G37*
D14*
%TO.C,J3*%
X74970000Y-27140000D02*
X74970000Y-75510000D01*
X72210000Y-75510000D02*
X74970000Y-75510000D01*
X72210000Y-27140000D02*
X74970000Y-27140000D01*
X72210000Y-27140000D02*
X72210000Y-75510000D01*
X72210000Y-25870000D02*
X72210000Y-24490000D01*
X72210000Y-24490000D02*
X73590000Y-24490000D01*
%TO.C,U1*%
X63611056Y-49234100D02*
X63208005Y-49170461D01*
X63547416Y-48831049D01*
X63611056Y-49234100D01*
G36*
X63611056Y-49234100D02*
G01*
X63208005Y-49170461D01*
X63547416Y-48831049D01*
X63611056Y-49234100D01*
G37*
X64700000Y-59105311D02*
X64240380Y-58645692D01*
X65159619Y-58645691D02*
X64700000Y-59105311D01*
X69805311Y-54000000D02*
X69345692Y-54459620D01*
X69345691Y-53540381D02*
X69805311Y-54000000D01*
X60054309Y-54459619D02*
X59594689Y-54000000D01*
X59594689Y-54000000D02*
X60054308Y-53540380D01*
X64240381Y-49354309D02*
X64700000Y-48894689D01*
X64700000Y-48894689D02*
X65159620Y-49354308D01*
%TO.C,U3*%
X64795000Y-46010000D02*
X64655000Y-45820000D01*
X64935000Y-45820000D01*
X64795000Y-46010000D01*
G36*
X64795000Y-46010000D02*
G01*
X64655000Y-45820000D01*
X64935000Y-45820000D01*
X64795000Y-46010000D01*
G37*
X67885000Y-48285000D02*
X64665000Y-48285000D01*
X65089432Y-46015000D02*
X67885000Y-46015000D01*
%TO.C,C8*%
X70712164Y-55960000D02*
X70927836Y-55960000D01*
X70712164Y-55240000D02*
X70927836Y-55240000D01*
%TO.C,C5*%
X67229779Y-58438896D02*
X67382282Y-58591399D01*
X67738896Y-57929779D02*
X67891399Y-58082282D01*
%TO.C,R5*%
X59836360Y-57120000D02*
X60143642Y-57120000D01*
X59836360Y-57880000D02*
X60143642Y-57880000D01*
%TO.C,C2*%
X63340000Y-60472164D02*
X63340000Y-60687836D01*
X64060000Y-60472164D02*
X64060000Y-60687836D01*
%TO.C,C16*%
X62340000Y-60627836D02*
X62340000Y-60412164D01*
X63060000Y-60627836D02*
X63060000Y-60412164D01*
%TO.C,C11*%
X69878307Y-52130810D02*
X70030810Y-51978307D01*
X69369190Y-51621693D02*
X69521693Y-51469190D01*
%TO.C,Y1*%
X61860000Y-58039999D02*
X57740000Y-58039999D01*
X61860000Y-61460001D02*
X61860000Y-58039999D01*
%TO.C,U2*%
X60740000Y-35960000D02*
X60740000Y-34440000D01*
X60790000Y-35960000D02*
X60740000Y-35960000D01*
X62690000Y-35960000D02*
X61910000Y-35960000D01*
X63860000Y-35960000D02*
X63810000Y-35960000D01*
X60740000Y-34440000D02*
X61740000Y-34440000D01*
X62860000Y-34440000D02*
X63860000Y-34440000D01*
X63860000Y-34440000D02*
X63860000Y-35960000D01*
X62250000Y-36740000D02*
X61920000Y-36500000D01*
X62250000Y-36260000D01*
X62250000Y-36740000D01*
G36*
X62250000Y-36740000D02*
G01*
X61920000Y-36500000D01*
X62250000Y-36260000D01*
X62250000Y-36740000D01*
G37*
%TO.C,SW1*%
X62430000Y-40030000D02*
X66570000Y-40030000D01*
X62430000Y-40330000D02*
X62430000Y-40030000D01*
X62430000Y-43170000D02*
X62430000Y-42870000D01*
X66570000Y-40030000D02*
X66570000Y-40330000D01*
X66570000Y-42870000D02*
X66570000Y-43170000D01*
X66570000Y-43170000D02*
X62430000Y-43170000D01*
%TO.C,R7*%
X67080000Y-44456359D02*
X67080000Y-44763641D01*
X66320000Y-44456359D02*
X66320000Y-44763641D01*
%TO.C,R6*%
X64046359Y-44920000D02*
X64353641Y-44920000D01*
X64046359Y-45680000D02*
X64353641Y-45680000D01*
%TO.C,R4*%
X69837965Y-50799436D02*
X69620684Y-51016717D01*
X69300564Y-50262035D02*
X69083283Y-50479316D01*
%TO.C,R3*%
X68562035Y-49600564D02*
X68779316Y-49383283D01*
X69099436Y-50137965D02*
X69316717Y-49920684D01*
%TO.C,R2*%
X66736359Y-33420000D02*
X67043641Y-33420000D01*
X66736359Y-34180000D02*
X67043641Y-34180000D01*
%TO.C,J4*%
X60780000Y-75270000D02*
X60780000Y-73890000D01*
X62160000Y-75270000D02*
X60780000Y-75270000D01*
X63430000Y-75270000D02*
X68620000Y-75270000D01*
X63430000Y-75270000D02*
X63430000Y-72510000D01*
X68620000Y-75270000D02*
X68620000Y-72510000D01*
X63430000Y-72510000D02*
X68620000Y-72510000D01*
%TO.C,J2*%
X54430000Y-24490000D02*
X55810000Y-24490000D01*
X54430000Y-25870000D02*
X54430000Y-24490000D01*
X54430000Y-27140000D02*
X54430000Y-75510000D01*
X54430000Y-27140000D02*
X57190000Y-27140000D01*
X54430000Y-75510000D02*
X57190000Y-75510000D01*
X57190000Y-27140000D02*
X57190000Y-75510000D01*
%TO.C,C17*%
X70069190Y-52321693D02*
X70221693Y-52169190D01*
X70578307Y-52830810D02*
X70730810Y-52678307D01*
%TO.C,C15*%
X60207836Y-62360000D02*
X59992164Y-62360000D01*
X60207836Y-61640000D02*
X59992164Y-61640000D01*
%TO.C,C14*%
X63040000Y-33407836D02*
X63040000Y-33192164D01*
X63760000Y-33407836D02*
X63760000Y-33192164D01*
%TO.C,C13*%
X60460000Y-35112164D02*
X60460000Y-35327836D01*
X59740000Y-35112164D02*
X59740000Y-35327836D01*
%TO.C,C12*%
X68840000Y-47447836D02*
X68840000Y-47232164D01*
X69560000Y-47447836D02*
X69560000Y-47232164D01*
%TO.C,C10*%
X65092164Y-59440000D02*
X65307836Y-59440000D01*
X65092164Y-60160000D02*
X65307836Y-60160000D01*
%TO.C,C9*%
X70712164Y-54240000D02*
X70927836Y-54240000D01*
X70712164Y-54960000D02*
X70927836Y-54960000D01*
%TO.C,C7*%
X68972164Y-45140000D02*
X69187836Y-45140000D01*
X68972164Y-45860000D02*
X69187836Y-45860000D01*
%TO.C,C6*%
X58560000Y-51472164D02*
X58560000Y-51687836D01*
X57840000Y-51472164D02*
X57840000Y-51687836D01*
%TO.C,C4*%
X69840000Y-47427836D02*
X69840000Y-47212164D01*
X70560000Y-47427836D02*
X70560000Y-47212164D01*
%TO.C,C3*%
X62382282Y-48491399D02*
X62229779Y-48338896D01*
X62891399Y-47982282D02*
X62738896Y-47829779D01*
%TO.C,C1*%
X70840000Y-47427836D02*
X70840000Y-47212164D01*
X71560000Y-47427836D02*
X71560000Y-47212164D01*
%TO.C,J1*%
X60000000Y-24990000D02*
X60000000Y-23090000D01*
X60000000Y-28890000D02*
X60000000Y-26890000D01*
X69400000Y-23090000D02*
X60000000Y-23090000D01*
X69400000Y-24990000D02*
X69400000Y-23090000D01*
X69400000Y-28890000D02*
X69400000Y-26890000D01*
%TO.C,R1*%
X66736359Y-32420000D02*
X67043641Y-32420000D01*
X66736359Y-33180000D02*
X67043641Y-33180000D01*
%TD*%
M02*
